<svg width="464" height="418" viewBox="0 0 464 418" fill="none" xmlns="http://www.w3.org/2000/svg">
<path fill-rule="evenodd" clip-rule="evenodd" d="M-40.0132 360.925L187.315 360.925V418L-40.0132 418L-40.0132 360.925Z" fill="#E2DFDA"/>
<path fill-rule="evenodd" clip-rule="evenodd" d="M378.315 360.066L378.315 -47.0955L435.008 -47.0955L435.008 360.066H378.315Z" fill="#E2DFDA"/>
<path fill-rule="evenodd" clip-rule="evenodd" d="M282.967 360.066L282.967 -47.0955L339.66 -47.0955L339.66 360.066H282.967Z" fill="#E2DFDA"/>
<path fill-rule="evenodd" clip-rule="evenodd" d="M187.619 360.066L187.619 -47.0955L244.313 -47.0955L244.313 360.066H187.619Z" fill="#E2DFDA"/>
<path fill-rule="evenodd" clip-rule="evenodd" d="M79.8684 184.832C79.8684 143.292 46.1937 109.618 4.65396 109.618C-36.8858 109.618 -70.5605 143.292 -70.5605 184.832C-70.5605 226.372 -36.8858 260.047 4.65396 260.047C46.1937 260.047 79.8684 226.372 79.8684 184.832ZM142.952 184.832C142.952 108.452 81.033 46.5345 4.65395 46.5345C-71.7261 46.5345 -133.644 108.452 -133.644 184.832C-133.644 261.212 -71.7261 323.13 4.65396 323.13C81.033 323.13 142.952 261.212 142.952 184.832Z" fill="#E2DFDA"/>
</svg>
