<svg width="464" height="419" viewBox="0 0 464 419" fill="none" xmlns="http://www.w3.org/2000/svg">
<path fill-rule="evenodd" clip-rule="evenodd" d="M-40.3696 361.021L186.959 361.021V418.095L-40.3696 418.095L-40.3696 361.021Z" fill="#E2DFDA"/>
<path fill-rule="evenodd" clip-rule="evenodd" d="M377.958 360.162L377.958 -47L434.652 -47L434.652 360.162H377.958Z" fill="#E2DFDA"/>
<path fill-rule="evenodd" clip-rule="evenodd" d="M282.61 360.162L282.61 -47L339.304 -47L339.304 360.162H282.61Z" fill="#E2DFDA"/>
<path fill-rule="evenodd" clip-rule="evenodd" d="M187.263 360.162L187.263 -47L243.956 -47L243.956 360.162H187.263Z" fill="#E2DFDA"/>
<path fill-rule="evenodd" clip-rule="evenodd" d="M79.512 184.928C79.512 143.388 45.8372 109.713 4.29751 109.713C-37.2422 109.713 -70.9169 143.388 -70.9169 184.928C-70.9169 226.467 -37.2422 260.142 4.29751 260.142C45.8372 260.142 79.512 226.467 79.512 184.928ZM142.595 184.928C142.595 108.548 80.6766 46.63 4.2975 46.63C-72.0825 46.63 -134 108.548 -134 184.928C-134 261.308 -72.0825 323.225 4.29752 323.225C80.6766 323.225 142.595 261.308 142.595 184.928Z" fill="#E2DFDA"/>
</svg>
