<svg width="113" height="139" viewBox="0 0 113 139" fill="none" xmlns="http://www.w3.org/2000/svg">
<path fill-rule="evenodd" clip-rule="evenodd" d="M53.3447 136.468C53.5487 136.586 53.709 136.677 53.8225 136.741L54.011 136.846C55.5158 137.673 57.3824 137.666 58.8886 136.849L59.0821 136.741C59.1956 136.677 59.3559 136.586 59.5598 136.468C59.9676 136.232 60.5504 135.887 61.2832 135.436C62.7481 134.534 64.816 133.204 67.2863 131.459C72.2183 127.975 78.799 122.805 85.3941 116.053C98.5205 102.613 112.155 82.4207 112.155 56.4523C112.155 25.6888 87.2158 0.75 56.4523 0.75C25.6888 0.75 0.75 25.6888 0.75 56.4523C0.75 82.4207 14.384 102.613 27.5104 116.053C34.1055 122.805 40.6862 127.975 45.6183 131.459C48.0885 133.204 50.1565 134.534 51.6213 135.436C52.3541 135.887 52.9369 136.232 53.3447 136.468Z" stroke="#EAE2C3" stroke-width="1.5" stroke-linejoin="round"/>
<rect x="9.05859" y="8.69824" width="95.3819" height="95.3819" rx="47.6909" fill="#FFF6D3"/>
<path d="M72.1295 59.091C66.2605 64.4246 59.374 66.92 54.7258 65.8383L40.5137 80.0504C38.8644 81.6997 36.1655 81.6997 34.5162 80.0504L34.1413 79.6756C32.492 78.0262 32.492 75.3273 34.1413 73.678L50.1634 58.6626C50.1634 58.6626 53.762 59.8086 56.1931 59.6372C60.0701 59.3802 64.2791 57.5916 67.8134 54.3786C73.5754 49.1415 75.5782 42.3192 73.3291 37.082C75.5567 37.1463 77.5916 37.3284 78.8875 38.7528C82.7967 43.0475 79.7657 52.1509 72.1295 59.091Z" fill="#EAE2C3"/>
<path d="M67.1261 52.1293C62.3923 56.8524 55.7093 58.2875 52.657 56.7667C52.3464 56.6168 52.0572 56.424 51.8109 56.1884C51.7681 56.1563 51.7359 56.1241 51.7038 56.092C51.6717 56.0599 51.6395 56.0277 51.6074 55.9849L46.8522 51.2297C46.156 50.5335 46.156 49.409 46.8522 48.7128C47.1949 48.3594 47.6447 48.188 48.1053 48.188C48.5658 48.188 49.0156 48.3594 49.369 48.7128L49.6154 48.9592L54.4884 53.8322C54.5955 53.9393 54.6812 54.0571 54.7561 54.1749C55.7414 54.1535 56.8232 53.9286 57.9263 53.5216L52.0251 47.6204L50.2687 45.864L49.4976 45.0929C48.8014 44.3967 48.8014 43.2722 49.4976 42.576C49.8403 42.2333 50.3008 42.0512 50.7506 42.0512C51.2004 42.0512 51.661 42.2333 52.0037 42.5653L61.2035 51.7759H61.2142C61.8461 51.3475 62.4566 50.8762 63.0564 50.3407C62.96 50.2765 62.8743 50.2015 62.7993 50.1265L55.4309 42.7474L53.4281 40.7446L52.0037 39.3202C51.3075 38.6348 51.3075 37.4995 52.0037 36.8034C52.3464 36.4499 52.7962 36.2786 53.2567 36.2786C53.7173 36.2786 54.1671 36.4499 54.5205 36.8034L56.0092 38.292L57.9798 40.2627L65.3162 47.599C65.3162 47.599 65.4233 47.7168 65.4768 47.7811C66.0016 47.1063 66.4728 46.4102 66.8691 45.714C66.6549 45.6284 66.4621 45.4998 66.3015 45.3392L57.9477 36.9854C57.2516 36.3 57.2516 35.1647 57.9477 34.4686C58.3011 34.1152 58.751 33.9438 59.2008 33.9438C59.6506 33.9438 60.1218 34.1152 60.4645 34.4686L68.2935 42.2976C68.5077 41.4193 68.6041 40.584 68.572 39.8021C68.5506 39.8021 68.5292 39.77 68.5077 39.7486L65.0056 36.2464L63.9667 35.2076L63.292 34.5328C62.5958 33.8367 62.5958 32.7014 63.292 32.016C63.6347 31.6733 64.0845 31.4912 64.545 31.4912C65.0056 31.4912 65.4554 31.6733 65.8088 32.016L70.7889 36.9961C71.046 37.2532 71.2602 37.5423 71.4208 37.8636C73.0381 40.8838 71.8814 47.3634 67.1154 52.1293H67.1261Z" fill="#EAE2C3"/>
</svg>
