<svg width="113" height="139" viewBox="0 0 113 139" fill="none" xmlns="http://www.w3.org/2000/svg">
<path fill-rule="evenodd" clip-rule="evenodd" d="M53.3447 136.468C53.5487 136.586 53.709 136.677 53.8225 136.741L54.011 136.846C55.5158 137.673 57.3824 137.666 58.8886 136.849L59.0821 136.741C59.1956 136.677 59.3559 136.586 59.5598 136.468C59.9676 136.232 60.5504 135.887 61.2832 135.436C62.7481 134.534 64.816 133.204 67.2863 131.459C72.2183 127.975 78.799 122.805 85.3941 116.053C98.5205 102.613 112.155 82.4207 112.155 56.4523C112.155 25.6888 87.2158 0.75 56.4523 0.75C25.6888 0.75 0.75 25.6888 0.75 56.4523C0.75 82.4207 14.384 102.613 27.5104 116.053C34.1055 122.805 40.6862 127.975 45.6183 131.459C48.0885 133.204 50.1565 134.534 51.6213 135.436C52.3541 135.887 52.9369 136.232 53.3447 136.468Z" stroke="#EAE2C3" stroke-width="1.5" stroke-linejoin="round"/>
<rect x="9.05859" y="8.3418" width="95.3819" height="95.3819" rx="47.6909" fill="#FFF6D3"/>
<path fill-rule="evenodd" clip-rule="evenodd" d="M80.5952 38.4868L63.1529 32.6748V35.6352C63.1529 37.3334 62.4783 38.9621 61.2775 40.1629C60.0767 41.3638 58.448 42.0384 56.7498 42.0384C55.0515 42.0384 53.4229 41.3638 52.222 40.1629C51.0212 38.9621 50.3466 37.3334 50.3466 35.6352V32.6748L32.9043 38.4889L35.8284 51.6432H42.8762V79.3903H70.6233V51.6432H77.6711L80.5952 38.4868Z" fill="#EAE2C3"/>
</svg>
