<svg width="113" height="139" viewBox="0 0 113 139" fill="none" xmlns="http://www.w3.org/2000/svg">
<path fill-rule="evenodd" clip-rule="evenodd" d="M53.3447 136.468C53.5487 136.586 53.709 136.677 53.8225 136.741L54.011 136.846C55.5158 137.673 57.3824 137.666 58.8886 136.849L59.0821 136.741C59.1956 136.677 59.3559 136.586 59.5598 136.468C59.9676 136.232 60.5504 135.887 61.2832 135.436C62.7481 134.534 64.816 133.204 67.2863 131.459C72.2183 127.975 78.799 122.805 85.3941 116.053C98.5205 102.613 112.155 82.4207 112.155 56.4523C112.155 25.6888 87.2158 0.75 56.4523 0.75C25.6888 0.75 0.75 25.6888 0.75 56.4523C0.75 82.4207 14.384 102.613 27.5104 116.053C34.1055 122.805 40.6862 127.975 45.6183 131.459C48.0885 133.204 50.1565 134.534 51.6213 135.436C52.3541 135.887 52.9369 136.232 53.3447 136.468Z" stroke="#EAE2C3" stroke-width="1.5" stroke-linejoin="round"/>
<rect x="8.69922" y="8.69824" width="95.3819" height="95.3819" rx="47.6909" fill="#FFF6D3"/>
<path fill-rule="evenodd" clip-rule="evenodd" d="M79.3838 49.3753C79.3044 43.986 76.2533 38.6786 71.5588 36.4912C69.1732 35.3794 66.4065 35.1026 63.5212 36.0184C61.1181 36.7812 58.7112 38.3447 56.3903 40.8027C54.0694 38.3447 51.6626 36.7812 49.2594 36.0184C46.3741 35.1026 43.6074 35.3794 41.2217 36.4912C36.5274 38.6786 33.4763 43.986 33.3967 49.3753L33.3965 49.4004C33.3965 57.2609 38.0712 64.2247 43.022 69.1124C45.5211 71.5793 48.1591 73.5875 50.4602 74.9896C51.6101 75.69 52.6987 76.2534 53.6633 76.6468C54.5847 77.0229 55.5461 77.3087 56.3903 77.3087C57.2345 77.3087 58.1959 77.0229 59.1173 76.6468C60.0819 76.2534 61.1705 75.69 62.3204 74.9896C64.6215 73.5875 67.2594 71.5793 69.7588 69.1124C74.7094 64.2247 79.3842 57.2609 79.3842 49.4004L79.3838 49.3753Z" fill="#EAE2C3"/>
</svg>
