<svg width="113" height="139" viewBox="0 0 113 139" fill="none" xmlns="http://www.w3.org/2000/svg">
<path fill-rule="evenodd" clip-rule="evenodd" d="M53.3447 136.468C53.5487 136.586 53.709 136.677 53.8225 136.741L54.011 136.846C55.5158 137.673 57.3824 137.666 58.8886 136.849L59.0821 136.741C59.1956 136.677 59.3559 136.586 59.5598 136.468C59.9676 136.232 60.5504 135.887 61.2832 135.436C62.7481 134.534 64.816 133.204 67.2863 131.459C72.2183 127.975 78.799 122.805 85.3941 116.053C98.5205 102.613 112.155 82.4207 112.155 56.4523C112.155 25.6888 87.2158 0.75 56.4523 0.75C25.6888 0.75 0.75 25.6888 0.75 56.4523C0.75 82.4207 14.384 102.613 27.5104 116.053C34.1055 122.805 40.6862 127.975 45.6183 131.459C48.0885 133.204 50.1565 134.534 51.6213 135.436C52.3541 135.887 52.9369 136.232 53.3447 136.468Z" stroke="#EAE2C3" stroke-width="1.5" stroke-linejoin="round"/>
<rect x="8.69922" y="8.69824" width="95.3819" height="95.3819" rx="47.6909" fill="#FFF6D3"/>
<path d="M70.2997 76.1531C73.5006 76.1531 76.0955 73.5582 76.0955 70.3573C76.0955 67.1564 73.5006 64.5615 70.2997 64.5615C67.0988 64.5615 64.5039 67.1564 64.5039 70.3573C64.5039 73.5582 67.0988 76.1531 70.2997 76.1531Z" fill="#EAE2C3"/>
<path d="M42.4794 76.1531C45.6803 76.1531 48.2751 73.5582 48.2751 70.3573C48.2751 67.1564 45.6803 64.5615 42.4794 64.5615C39.2784 64.5615 36.6836 67.1564 36.6836 70.3573C36.6836 73.5582 39.2784 76.1531 42.4794 76.1531Z" fill="#EAE2C3"/>
<path d="M76.5361 49.4926H70.5665C70.5317 49.2723 70.4506 49.0405 70.3347 48.8319L67.2629 43.1752L64.307 37.7388C63.9361 37.0549 63.2059 36.626 62.4292 36.626L43.4423 36.7303C42.144 36.7303 40.9501 37.4722 40.3589 38.6313L38.2377 42.8043L34.482 49.7244C31.0973 50.5358 28.5703 53.596 28.5703 57.2125V63.7965C28.5703 66.4742 29.9613 68.8504 32.0478 70.2414C32.1173 63.7386 38.1333 58.6615 44.926 60.2032C49.6901 61.2812 53.0401 65.7323 52.9126 70.6124C52.9126 70.9137 52.8778 71.2151 52.843 71.5165H59.937C59.9023 71.2151 59.8791 70.9137 59.8675 70.6124C59.74 65.7323 63.0899 61.2812 67.8541 60.2032C74.6467 58.6615 80.6627 63.7502 80.7323 70.2414C82.8187 68.8504 84.2097 66.4742 84.2097 63.7965V57.1662C84.2097 52.9469 80.7555 49.4926 76.5361 49.4926ZM42.8163 49.4926L45.8881 43.8243H59.4038L62.4872 49.4926H42.8163Z" fill="#EAE2C3"/>
</svg>
