<svg width="113" height="139" viewBox="0 0 113 139" fill="none" xmlns="http://www.w3.org/2000/svg">
<path fill-rule="evenodd" clip-rule="evenodd" d="M53.3447 136.468C53.5487 136.586 53.709 136.677 53.8225 136.741L54.011 136.846C55.5158 137.673 57.3824 137.666 58.8886 136.849L59.0821 136.741C59.1956 136.677 59.3559 136.586 59.5598 136.468C59.9676 136.232 60.5504 135.887 61.2832 135.436C62.7481 134.534 64.816 133.204 67.2863 131.459C72.2183 127.975 78.799 122.805 85.3941 116.053C98.5205 102.613 112.155 82.4207 112.155 56.4523C112.155 25.6888 87.2158 0.75 56.4523 0.75C25.6888 0.75 0.75 25.6888 0.75 56.4523C0.75 82.4207 14.384 102.613 27.5104 116.053C34.1055 122.805 40.6862 127.975 45.6183 131.459C48.0885 133.204 50.1565 134.534 51.6213 135.436C52.3541 135.887 52.9369 136.232 53.3447 136.468Z" stroke="#EAE2C3" stroke-width="1.5" stroke-linejoin="round"/>
<rect x="8.69922" y="8.69824" width="95.3819" height="95.3819" rx="47.6909" fill="#FFF6D3"/>
<path d="M44.4675 55.4946V57.8791H68.3129V55.4946C68.3129 51.5491 71.507 48.3497 75.4504 48.3409C75.4301 47.5588 75.3848 46.9908 75.2832 46.4801C74.5306 42.6964 71.5728 39.7386 67.7893 38.986C66.8679 38.8027 65.7598 38.8027 63.5438 38.8027H49.2366C47.0206 38.8027 45.9126 38.8027 44.9912 38.986C41.2075 39.7386 38.2497 42.6964 37.4971 46.4801C37.3955 46.9908 37.3503 47.5588 37.3301 48.3409C41.2734 48.3497 44.4675 51.5491 44.4675 55.4946Z" fill="#EAE2C3"/>
<path d="M71.7574 69.802H41.0233C40.3626 69.802 39.7196 69.7264 39.1024 69.5835V72.1865C39.1024 73.1742 38.3017 73.9749 37.314 73.9749C36.3263 73.9749 35.5256 73.1742 35.5256 72.1865V67.7782C33.7016 66.223 32.5449 63.9083 32.5449 61.3235V55.4947C32.5449 52.8607 34.6801 50.7256 37.314 50.7256C39.9479 50.7256 42.0831 52.8607 42.0831 55.4947V58.3561C42.0831 59.4096 42.9372 60.2638 43.9907 60.2638H68.79C69.8435 60.2638 70.6977 59.4096 70.6977 58.3561V55.4947C70.6977 52.8607 72.8328 50.7256 75.4668 50.7256C78.1007 50.7256 80.2358 52.8607 80.2358 55.4947V61.3235C80.2358 63.9083 79.0791 66.223 77.2552 67.7782V72.1865C77.2552 73.1742 76.4544 73.9749 75.4668 73.9749C74.4791 73.9749 73.6783 73.1742 73.6783 72.1865V69.5835C73.0612 69.7264 72.4181 69.802 71.7574 69.802Z" fill="#EAE2C3"/>
</svg>
