<svg width="113" height="139" viewBox="0 0 113 139" fill="none" xmlns="http://www.w3.org/2000/svg">
<path fill-rule="evenodd" clip-rule="evenodd" d="M53.3447 136.468C53.5487 136.586 53.709 136.677 53.8225 136.741L54.011 136.846C55.5158 137.673 57.3824 137.666 58.8886 136.849L59.0821 136.741C59.1956 136.677 59.3559 136.586 59.5598 136.468C59.9676 136.232 60.5504 135.887 61.2832 135.436C62.7481 134.534 64.816 133.204 67.2863 131.459C72.2183 127.975 78.799 122.805 85.3941 116.053C98.5205 102.613 112.155 82.4207 112.155 56.4523C112.155 25.6888 87.2158 0.75 56.4523 0.75C25.6888 0.75 0.75 25.6888 0.75 56.4523C0.75 82.4207 14.384 102.613 27.5104 116.053C34.1055 122.805 40.6862 127.975 45.6183 131.459C48.0885 133.204 50.1565 134.534 51.6213 135.436C52.3541 135.887 52.9369 136.232 53.3447 136.468Z" stroke="#EAE2C3" stroke-width="1.5" stroke-linejoin="round"/>
<rect x="8.69922" y="8.69824" width="95.3819" height="95.3819" rx="47.6909" fill="#FFF6D3"/>
<path d="M59.0403 56.1943H53.4102V68.4483H59.0403V56.1943Z" fill="#EAE2C3"/>
<path d="M80.2358 48.5769C80.2358 56.8831 75.9967 64.1957 69.5584 68.4481H64.0077V56.1942H66.1273C66.6572 56.1942 67.1606 56.1412 67.6507 56.022C70.8434 55.3331 73.2147 52.4982 73.2147 49.1068C73.2147 45.1988 70.0485 42.0194 66.1273 42.0194C62.206 42.0194 59.0399 45.1988 59.0399 49.1068V51.2264H53.4097V49.1068C53.4097 45.1988 50.2435 42.0194 46.3223 42.0194C42.401 42.0194 39.2349 45.1988 39.2349 49.1068C39.2349 52.6174 41.7917 55.5318 45.13 56.0882C45.5142 56.1545 45.9116 56.1942 46.3223 56.1942H48.4419V68.4481H43.2224C36.7841 64.1957 32.5449 56.8831 32.5449 48.5769C32.5449 35.4089 43.2224 24.7314 56.3904 24.7314C69.5584 24.7314 80.2358 35.4089 80.2358 48.5769Z" fill="#EAE2C3"/>
<path d="M65.6637 72.4229H47.1172V76.3971H65.6637V72.4229Z" fill="#EAE2C3"/>
<path d="M64.3384 80.3711V82.3052C64.3384 82.7556 64.1132 83.1663 63.7422 83.418L57.1185 87.8294C56.6813 88.1209 56.0984 88.1209 55.6613 87.8294L49.0375 83.418C48.6666 83.1663 48.4414 82.7556 48.4414 82.3052V80.3711H64.3384Z" fill="#EAE2C3"/>
<path d="M48.4423 49.1069V51.2265H46.3227C45.1569 51.2265 44.2031 50.2727 44.2031 49.1069C44.2031 47.9411 45.1569 46.9873 46.3227 46.9873C47.4885 46.9873 48.4423 47.9411 48.4423 49.1069Z" fill="#EAE2C3"/>
<path d="M68.247 49.1069C68.247 50.2727 67.2932 51.2265 66.1274 51.2265H64.0078V49.1069C64.0078 47.9411 64.9616 46.9873 66.1274 46.9873C67.2932 46.9873 68.247 47.9411 68.247 49.1069Z" fill="#EAE2C3"/>
</svg>
