<svg width="113" height="139" viewBox="0 0 113 139" fill="none" xmlns="http://www.w3.org/2000/svg">
<path fill-rule="evenodd" clip-rule="evenodd" d="M53.3447 136.468C53.5487 136.586 53.709 136.677 53.8225 136.741L54.011 136.846C55.5158 137.673 57.3824 137.666 58.8886 136.849L59.0821 136.741C59.1956 136.677 59.3559 136.586 59.5598 136.468C59.9676 136.232 60.5504 135.887 61.2832 135.436C62.7481 134.534 64.816 133.204 67.2863 131.459C72.2183 127.975 78.799 122.805 85.3941 116.053C98.5205 102.613 112.155 82.4207 112.155 56.4523C112.155 25.6888 87.2158 0.75 56.4523 0.75C25.6888 0.75 0.75 25.6888 0.75 56.4523C0.75 82.4207 14.384 102.613 27.5104 116.053C34.1055 122.805 40.6862 127.975 45.6183 131.459C48.0885 133.204 50.1565 134.534 51.6214 135.436C52.3541 135.887 52.9369 136.232 53.3447 136.468Z" stroke="#EAE2C3" stroke-width="1.5" stroke-linejoin="round"/>
<rect x="8.69922" y="8.69824" width="95.3819" height="95.3819" rx="47.6909" fill="#FFF6D3"/>
<path d="M43.9414 42.2131C50.6335 40.7019 53.9594 44.5596 56.8427 44.3077C58.3448 44.1752 60.2893 42.3059 62.529 41.9745C82.6722 39.0713 85.7836 68.8595 71.0717 79.6373C62.7301 85.7488 62.4753 81.1884 56.8427 80.6449C52.4573 80.2206 51.5722 85.9741 42.5467 80.1543C30.0879 72.1207 27.8751 45.819 43.9414 42.2131Z" fill="#EAE2C3"/>
<path d="M72.4789 30.0039C72.7874 36.0226 67.7985 40.9144 61.7636 40.5962C61.4551 34.5776 66.444 29.6858 72.4789 30.0039Z" fill="#EAE2C3"/>
<path d="M59.0816 40.6094C59.0816 42.0677 57.8746 43.2608 56.3994 43.2608C54.9242 43.2608 53.7172 42.0677 53.7172 40.6094C53.5294 34.1931 53.7574 35.3067 49.6939 35.3067C48.3528 35.3067 47.0117 34.1135 47.0117 32.6553C47.0117 31.197 48.2187 30.0039 49.6939 30.0039H49.7744C58.9743 30.0039 59.0816 32.589 59.0682 40.3443C59.0816 40.4238 59.0816 40.5166 59.0816 40.6094Z" fill="#EAE2C3"/>
</svg>
