<svg width="113" height="139" viewBox="0 0 113 139" fill="none" xmlns="http://www.w3.org/2000/svg">
<path fill-rule="evenodd" clip-rule="evenodd" d="M53.3447 136.468C53.5487 136.586 53.709 136.677 53.8225 136.741L54.011 136.846C55.5158 137.673 57.3824 137.666 58.8886 136.849L59.0821 136.741C59.1956 136.677 59.3559 136.586 59.5598 136.468C59.9676 136.232 60.5504 135.887 61.2832 135.436C62.7481 134.534 64.816 133.204 67.2863 131.459C72.2183 127.975 78.799 122.805 85.3941 116.053C98.5205 102.613 112.155 82.4207 112.155 56.4523C112.155 25.6888 87.2158 0.75 56.4523 0.75C25.6888 0.75 0.75 25.6888 0.75 56.4523C0.75 82.4207 14.384 102.613 27.5104 116.053C34.1055 122.805 40.6862 127.975 45.6183 131.459C48.0885 133.204 50.1565 134.534 51.6213 135.436C52.3541 135.887 52.9369 136.232 53.3447 136.468Z" stroke="#EAE2C3" stroke-width="1.5" stroke-linejoin="round"/>
<rect x="9.05859" y="8.3418" width="95.3819" height="95.3819" rx="47.6909" fill="#FFF6D3"/>
<path d="M72.3288 40.9861C72.2546 40.9755 72.191 40.9755 72.1168 40.9755H66.8178V36.7363H32.9043V53.7673C32.9043 53.9581 32.9149 54.1488 32.9255 54.3184C33.307 61.0481 40.7362 66.4107 49.8611 66.4107C55.0329 66.4107 59.4734 64.8846 62.5787 62.1715H72.1168C76.8011 62.1715 80.5952 57.4236 80.5952 51.5735C80.5952 45.7234 76.9177 41.1239 72.3288 40.9861ZM68.9374 57.9323H65.8746C66.4045 56.7877 66.7225 55.5795 66.7966 54.3184C66.8072 54.1488 66.8178 53.9581 66.8178 53.7673V45.2147H68.9374C73.0389 45.2147 76.356 46.8892 76.356 51.5735C76.356 56.2578 73.0389 57.9323 68.9374 57.9323Z" fill="#EAE2C3"/>
<path d="M78.4756 71.0889H35.0239C33.8533 71.0889 32.9043 72.0378 32.9043 73.2085C32.9043 74.3791 33.8533 75.3281 35.0239 75.3281H78.4756C79.6462 75.3281 80.5952 74.3791 80.5952 73.2085C80.5952 72.0378 79.6462 71.0889 78.4756 71.0889Z" fill="#EAE2C3"/>
</svg>
