<svg width="113" height="139" viewBox="0 0 113 139" fill="none" xmlns="http://www.w3.org/2000/svg">
<path fill-rule="evenodd" clip-rule="evenodd" d="M53.3447 136.468C53.5487 136.586 53.709 136.677 53.8225 136.741L54.011 136.846C55.5158 137.673 57.3824 137.666 58.8886 136.849L59.0821 136.741C59.1956 136.677 59.3559 136.586 59.5598 136.468C59.9676 136.232 60.5504 135.887 61.2832 135.436C62.7481 134.534 64.816 133.204 67.2863 131.459C72.2183 127.975 78.799 122.805 85.3941 116.053C98.5205 102.613 112.155 82.4207 112.155 56.4523C112.155 25.6888 87.2158 0.75 56.4523 0.75C25.6888 0.75 0.75 25.6888 0.75 56.4523C0.75 82.4207 14.384 102.613 27.5104 116.053C34.1055 122.805 40.6862 127.975 45.6183 131.459C48.0885 133.204 50.1565 134.534 51.6213 135.436C52.3541 135.887 52.9369 136.232 53.3447 136.468Z" stroke="#EAE2C3" stroke-width="1.5" stroke-linejoin="round"/>
<rect x="8.69922" y="8.69824" width="95.3819" height="95.3819" rx="47.6909" fill="#FFF6D3"/>
<g clip-path="url(#clip0_5052_14003)">
<path d="M65.1309 62.5694C65.242 62.3513 65.267 62.0993 65.2007 61.8636C65.1344 61.6279 64.9818 61.4259 64.7732 61.2977C62.5608 59.8382 60.1142 58.7695 57.54 58.1382C57.3688 58.1031 57.1915 58.1121 57.0247 58.1642C56.8579 58.2164 56.707 58.3099 56.5862 58.4362C53.9228 61.2256 50.6837 63.4012 47.0941 64.8116C43.5046 66.2221 39.6508 66.8335 35.8009 66.6033C35.7109 66.6015 35.6218 66.6224 35.5419 66.664C35.462 66.7057 35.3939 66.7668 35.3439 66.8418C35.3003 66.9173 35.2773 67.0029 35.2773 67.0901C35.2773 67.1773 35.3003 67.263 35.3439 67.3385C36.976 70.4522 39.2763 73.1665 42.0802 75.287C42.4908 75.5924 43.0032 75.7276 43.511 75.6646C52.4133 74.6511 61.256 70.2993 65.1309 62.5694Z" fill="#EAE2C3"/>
<path d="M68.8673 64.6557C68.7608 64.5448 68.6299 64.4602 68.4851 64.4085C68.3403 64.3567 68.1854 64.3393 68.0327 64.3576C67.8786 64.373 67.7307 64.4264 67.6024 64.5131C67.474 64.5999 67.3692 64.7171 67.2975 64.8544C65.2208 68.2082 62.4739 71.0972 59.229 73.3402C55.9841 75.5833 52.311 77.1322 48.4397 77.8899C48.3365 77.92 48.2459 77.9828 48.1814 78.0688C48.1169 78.1548 48.082 78.2594 48.082 78.3668C48.082 78.4743 48.1169 78.5789 48.1814 78.6649C48.2459 78.7509 48.3365 78.8137 48.4397 78.8438C52.7296 80.3712 57.3672 80.6384 61.8041 79.6137C66.2411 78.5889 70.2918 76.3152 73.4775 73.0612C73.614 72.9227 73.7058 72.7464 73.7413 72.5552C73.7767 72.3639 73.754 72.1664 73.6762 71.9882C72.5558 69.2595 70.9235 66.7706 68.8673 64.6557Z" fill="#EAE2C3"/>
<path d="M79.7371 57.9395C74.2726 50.7262 66.0856 45.3014 57.5211 45.7982C57.2766 45.808 57.0447 45.9095 56.8716 46.0826C56.6985 46.2556 56.597 46.4876 56.5872 46.7321C56.4395 49.3737 56.7419 52.0211 57.4814 54.5614C57.5268 54.731 57.6173 54.8853 57.7432 55.0077C57.8691 55.1302 58.0259 55.2162 58.1967 55.2569C61.9478 56.1639 65.4558 57.8785 68.476 60.2809C71.4962 62.6833 73.9559 65.7158 75.6834 69.1667C75.7236 69.2447 75.783 69.3112 75.856 69.3599C75.9291 69.4085 76.0133 69.4378 76.1007 69.4449C76.1885 69.4493 76.2757 69.4294 76.3529 69.3873C76.43 69.3452 76.494 69.2826 76.5379 69.2065C78.4411 66.239 79.6627 62.8864 80.1147 59.3901C80.1729 58.8765 80.0383 58.3596 79.7371 57.9395Z" fill="#EAE2C3"/>
<path d="M57.6232 42.4795C57.7135 42.6053 57.833 42.7072 57.9715 42.7764C58.11 42.8456 58.2632 42.8801 58.418 42.8769C66.3665 42.7775 73.5996 46.8511 79.0841 52.6138C79.1682 52.6737 79.269 52.7059 79.3722 52.7059C79.4755 52.7059 79.5762 52.6737 79.6604 52.6138C79.7593 52.5674 79.8401 52.4897 79.8904 52.3927C79.9407 52.2957 79.9576 52.1848 79.9386 52.0773C79.1061 47.597 77.0072 43.4491 73.8905 40.1246C70.7739 36.8002 66.7698 34.4384 62.3525 33.3188C62.1642 33.2709 61.9659 33.2792 61.7823 33.3427C61.5986 33.4063 61.4376 33.5224 61.3192 33.6765C59.5101 36.0107 58.1614 38.6677 57.345 41.5058C57.2998 41.6781 57.3018 41.8594 57.3507 42.0307C57.3997 42.202 57.4938 42.357 57.6232 42.4795Z" fill="#EAE2C3"/>
<path d="M48.0621 61.1185C50.4227 59.9043 52.5648 58.3061 54.4011 56.3892C54.5184 56.2595 54.6002 56.1017 54.6385 55.9311C54.6768 55.7605 54.6703 55.5828 54.6196 55.4155C53.5452 51.7166 53.2872 47.8283 53.8636 44.0199C54.44 40.2114 55.837 36.5737 57.958 33.3584C58.0015 33.2793 58.0243 33.1904 58.0243 33.1001C58.0243 33.0098 58.0015 32.9209 57.958 32.8418C57.9276 32.7591 57.8738 32.6869 57.8033 32.634C57.7328 32.5811 57.6485 32.5498 57.5606 32.5437C54.0331 32.3907 50.5161 33.0289 47.2673 34.4116C46.7966 34.6081 46.4196 34.9781 46.2141 35.4449C42.6572 43.7511 42.0809 53.5873 46.7904 60.7608C46.9217 60.966 47.1238 61.1157 47.3582 61.1817C47.5927 61.2476 47.8432 61.2251 48.0621 61.1185Z" fill="#EAE2C3"/>
<path d="M43.1152 62.9665C43.269 62.9255 43.4106 62.8481 43.5281 62.7409C43.6457 62.6337 43.7358 62.4998 43.7909 62.3505C43.8593 62.2114 43.8948 62.0585 43.8948 61.9034C43.8948 61.7484 43.8593 61.5954 43.7909 61.4563C39.8166 54.6604 39.6378 46.3343 41.8037 38.7038C41.838 38.6022 41.837 38.4921 41.8009 38.3911C41.7649 38.2902 41.6959 38.2043 41.605 38.1474C41.5178 38.0858 41.4137 38.0527 41.307 38.0527C41.2002 38.0527 41.0961 38.0858 41.0089 38.1474C37.5433 41.1055 34.9978 44.9947 33.6736 49.3545C32.3495 53.7142 32.3022 58.3621 33.5373 62.748C33.5844 62.9358 33.6876 63.1049 33.8332 63.2327C33.9787 63.3604 34.1597 63.4409 34.352 63.4633C37.2782 63.8556 40.2522 63.687 43.1152 62.9665Z" fill="#EAE2C3"/>
</g>
<defs>
<clipPath id="clip0_5052_14003">
<rect width="47.6909" height="47.6909" fill="white" transform="translate(32.543 32.5439)"/>
</clipPath>
</defs>
</svg>
