<svg height="52" viewBox="0 0 151 52" width="151" xmlns="http://www.w3.org/2000/svg"><g fill="#c8535a"><path d="m20.0593485 29.8215293h-.0763523c-1.0032337 0-1.3601364-.4345257-1.3601364-1.4678488l.0372884-8.3513706c0-.3179456-.0692498-.489283-.4226012-.489283-.092333 0-.3036335.0247291-.6250235.0600564-.7351129.0847855-2.0970249.2066647-3.7235066.2525901l-.0710254.0035328v1.0456876h.0728011c.8594073 0 1.4276105.2331601 1.4276105 1.2205578l-.0337371 2.4322837c0 4.0308435-1.6229303 4.8115765-2.8090545 4.8115765-.9694967 0-1.3317263-.9997622-1.3317263-1.8387853l.0479422-7.4982166c0-.3179456-.0692498-.489283-.4226012-.489283-.092333 0-.3071848.0247291-.6285747.0600564-.73156166.0847855-1.93721782.2066647-3.56192384.2525901l-.07280104.0035328v1.0456876h.07635231c.8576317 0 1.4258349.2331601 1.4258349 1.2205578l-.04616651 5.0588675c0 3.2978022 1.71348777 3.9884507 3.14997648 3.9884507 2.1414158 0 3.3701552-1.3901287 4.037794-2.1320018.184666-.2101973.3728833-.4221611.4385818-.4221611.0355127 0 .1331726 0 .1331726.1554401v2.050749c0 .3038147.2077493.3479738.3302682.3479738.0941086 0 .3000823-.0282618.612594-.0688882.7546449-.1042155 2.0259996-.208431 3.3186618-.208431h.0763523z"/><path d="m42.7501881 19.9493189h-2.6634524l.2201787-1.711607c.3302681-2.3439655.7564205-3.3419614 1.4311618-3.3419614.2698965 0 .4350306.1377765.4350306.3603384 0 .1501409-.019532.2243282-.0426153.3020483-.0230832.0918509-.0514934.1819355-.0514934.3656374 0 .3868338.243262.839023.9322084.839023.8327728 0 1.2056562-.6411902 1.2056562-1.2735486 0-1.042155-.7510937-1.6391862-2.0632879-1.6391862-2.9191439 0-3.7110772 4.0785353-4.091063 6.0992561h-2.354492l-.2148519 1.0456877h2.4095367l-.1544802 1.0156595c-.1065381.6800503-.2113006 1.3601006-.3160631 2.050749l-.1793391 1.1693332c-1.026317 6.7439791-1.5448024 9.7414994-2.6670038 9.7414994-.1242944 0-.1562558-.03886-.1562558-.1801692 0-.0476918.014205-.1059818.0319614-.17487.0319614-.0971501.0603716-.2207956.0603716-.3797684 0-.4627874-.3444732-.7877985-.8363241-.7877985-.7368885 0-1.0707079.528143-1.0707079 1.0174259 0 .911444.6676388 1.5508679 1.6264816 1.5508679 1.7134878 0 3.8176153-1.9712626 5.7122178-15.0229288h2.6101835z"/><path d="m43.8120179 28.3713441c-.7546449 0-1.3690146.6111621-1.3690146 1.3636333s.6143697 1.3636333 1.3690146 1.3636333c.7564205 0 1.3707902-.6111621 1.3707902-1.3636333s-.6143697-1.3636333-1.3707902-1.3636333"/><path d="m52.271143 0v52h-52.271143v-52zm-2.8108302 2.79792113h-46.6494826v46.40592407h46.6494826z"/><path d="m27.9840075 29.6978838c-1.4897577 0-2.018897-1.5067088-2.018897-2.7926221 0-2.4923401 1.1914511-5.943816 3.4323025-5.943816 1.7809619 0 2.1573965 1.5067088 2.1573965 2.7696593 0 1.8688135-.8984713 5.9667788-3.570802 5.9667788m2.0402046-10.1848569c-2.1005762 0-3.2334313 1.4501852-3.7235065 2.1443664-.0266346-1.3830633-.5433444-2.0277863-1.6211548-2.0277863-1.7383467 0-2.7575611 2.3633955-3.3062324 3.6351778l-.0284101.0600564.822119.4610211.0372883-.0688882c.0372884-.07772.0834549-.1872346.1473777-.3179456.3533514-.7877985 1.0937912-2.4234519 1.8644168-2.4234519.4190498 0 .4794214.5104793.4794214.8195931 0 .4451238-.1331726 1.1428377-.3657808 2.1938245l-2.1751529 9.2751792c-.3125117 1.3759978-.4634407 1.5967933-1.8466604 1.5967933h-.0621472l-.1864417 1.0456877h5.8365123l.2414863-1.0456877h-.0905574c-1.8058207 0-2.1041274-.0211963-2.1041274-.7065457 0-.1448419.0816792-.4892829.1438264-.7701348l1.0316439-4.3470227c.5628763 1.1640341 1.2447202 2.1055063 3.32754 2.1055063 3.5814558 0 5.4902634-4.0096471 5.4902634-6.9064846 0-2.3510309-1.2074318-4.7232583-3.9117239-4.7232583"/><path d="m61.2380997 9.33523557v3.98668433c0 2.011889 1.3494826 3.4055505 4.1443321 3.4055505 3.0274577 0 3.9223777-1.628588 3.9223777-3.6811033v-3.75175791c0-.99976222.1367239-1.50494242 1.2660278-1.50494242v-.63059207h-3.4269756v.63059207c.8540804 0 1.4720014.25965556 1.4720014 1.50494242v3.75175791c0 .3691701-.0266345.9997622-.1917686 1.4095587-.3569026.8778831-1.1008937 1.4378206-2.519626 1.4378206-1.5270461 0-2.2834666-.8884813-2.2834666-2.5718265v-4.57488366c0-.57583477.2343838-.95736947 1.1417333-.95736947h.3302681v-.63059207h-5.2043862v.63059207c1.0742592 0 1.3494826.08125276 1.3494826 1.5455688"/><path d="m71.5900517 11.3895173v3.723496c0 .6853494-.2752234.8778831-.9215545.8778831v.5334421h3.6205197v-.5334421c-.427928 0-.7972601-.0706545-.7972601-.6429566v-2.4252182c0-1.2735487.7138053-2.0401509 1.4151811-2.0401509.413723 0 .7990358.261422.7990358 1.081015v3.3967187c0 .5475729-.3853128.630592-.8114652.630592v.5334421h3.55127v-.5334421c-.5504469 0-.8398754-.1536737-.8398754-.6729848v-3.1617922c0-1.4236896-.6747413-2.25917997-2.0242239-2.25917997-1.459572 0-2.0366533 1.46608237-2.1875823 1.46608237-.0674741 0-.0834548-.09715-.0834548-.2879173v-.9591359c0-.12364549-.0142051-.21902917-.1225189-.21902917-.1935442 0-1.4311618.17840277-2.5871002.20489827v.533442c.617921 0 .9890287.0830192.9890287.7542376"/><path d="m80.807373 8.49974524c.5770814 0 1.0582785-.46455383 1.0582785-1.0403886 0-.57406842-.4811971-1.0403886-1.0582785-1.0403886-.578857 0-1.0600541.46632018-1.0600541 1.0403886 0 .57583477.4811971 1.0403886 1.0600541 1.0403886"/><path d="m82.8972954 15.9908964c-.5770814 0-.9055739 0-.9055739-.6994803v-5.0111756c0-.32854377-.0568203-.38330107-.2077493-.38330107-.3995178 0-1.2393932.15014097-2.6829844.20489827v.533442c.6037159 0 .9890287.0971501.9890287.9591359v3.6970005c0 .6994803-.3426976.6994803-.9890287.6994803v.5334421h3.7963076z"/><path d="m83.9662277 11.5255274 2.1875823 5.0818302h1.1559384l2.0774929-5.0959612c.2894285-.7118448.4811971-.8337239.8132408-.8761167v-.533442h-2.3953316v.533442c.5362418 0 .8665099.2066647.8665099.6994803 0 .4663202-.2610183 1.1499032-.4545626 1.6303543l-.6179209 1.5596997c-.0568204.1377764-.0816793.2720201-.1527047.2720201-.0408396 0-.0816792-.0812527-.165134-.2720201l-.8256703-1.8900098c-.3018579-.6977139-.4811971-1.1499032-.4811971-1.4643161 0-.4786847.4403575-.5352084.8274459-.5352084v-.533442h-3.7856538v.533442c.5628763 0 .6321261.150141.9499648.8902477"/><path d="m92.4306797 12.3751486c0-1.3406705.3728833-1.9430008.9375353-1.9430008.632126 0 .9357596.6553212.9357596 1.8741126v.2755528c0 .0936174-.0266345.1360101-.1083137.1360101h-1.7649812zm1.006785 4.3523218c1.4027517 0 2.505421-.8195931 2.9315734-2.2026564h-.6196966c-.2894285.6977139-.7848307 1.3689324-1.7614299 1.3689324-.7706256 0-1.5572319-.6164612-1.5572319-2.3828255v-.2596556h3.8975188c0-1.9306362-1.0192145-3.35609223-2.8516698-3.35609223-1.6779751 0-3.1641816 1.43958693-3.1641816 3.42498043 0 1.9712626 1.4862065 3.4073169 3.1251176 3.4073169z"/><path d="m101.12774 15.9908964c-.893145 0-1.3743416 0-1.3743416-.8372567v-2.0949081c0-1.3406705.5078316-1.9306362.7138056-1.9306362.193544 0 .040839 1.0138931.978375 1.0138931.632126 0 .935759-.5069465.935759-1.066884 0-.6994803-.372883-1.17816507-1.074259-1.17816507-1.102669 0-1.5288217 1.46608237-1.7330197 1.46608237-.0692498 0-.0692498-.09715-.0692498-.1519073v-1.1216414c0-.12364546-.0284102-.19253367-.1242944-.19253367-.150929 0-1.6655457.17840277-2.65635.20489827v.533442c.7564205 0 1.1275282.0830192 1.1275282.7542376v3.7641224c0 .8372567-.5078316.8372567-1.1701434.8372567v.5334421h4.4461901z"/><path d="m106.706785 15.3603044c0 .5069465-.440357.8354903-1.086689.8354903-.964169 0-1.802269-.7259758-1.953198-1.6974761h-.523812c.012429.3709365.040839.7259757.040839 1.0951459 0 .3709365-.02841.7383402-.040839 1.1092768h.493626c.05682-.2190292.207749-.3426747.372883-.3426747.303634 0 .813241.3674038 1.66377.3674038 1.324624 0 2.299448-.9008459 2.299448-2.0931418 0-2.4923401-3.673789-2.1761609-3.673789-3.3825877 0-.5740684.413723-.8195931.990804-.8195931.949965 0 1.512841.5193111 1.80227 1.3954279h.454562c-.014205-.3161793-.040839-.6288257-.040839-.945005 0-.3144128.026634-.6288257.040839-.94500489h-.426152c-.06925.17840279-.234384.23316009-.454563.23316009-.358678 0-.548671-.27555283-1.363687-.27555283-1.168368 0-2.271037.66062023-2.271037 1.83701893 0 2.5047046 3.675564 1.9853935 3.675564 3.6281124"/><path d="m112.344426 15.9908964c-.578857 0-.907349 0-.907349-.6994803v-5.0111756c0-.32854377-.056821-.38330107-.20775-.38330107-.399517 0-1.239393.15014097-2.682984.20489827v.533442c.603716 0 .990804.0971501.990804.9591359v3.6970005c0 .6994803-.344473.6994803-.990804.6994803v.5334421h3.798083z"/><path d="m110.252728 8.49974524c.577082 0 1.058279-.46455383 1.058279-1.0403886 0-.57406842-.481197-1.0403886-1.058279-1.0403886-.577081 0-1.060054.46632018-1.060054 1.0403886 0 .57583477.482973 1.0403886 1.060054 1.0403886"/><path d="m113.539429 14.8798533c0 1.2611841.538017 1.8493834 1.665545 1.8493834 1.074259 0 1.693956-.5881993 2.079269-1.5332042l-.454563-.2048983c-.191768.3267774-.427928.7542376-.868285.7542376-.261019 0-.522037-.1254119-.522037-.7259758v-4.3841163h1.553681v-.533442h-1.553681v-2.65661198h-.509607c-.426153 1.17816502-1.072484 2.36869459-2.436172 2.73963108v.4504229h1.04585z"/><path d="m120.707667 15.8937464c-.564652 0-.823895-.3956656-.823895-1.1357723 0-1.2735487 1.527046-1.5473352 2.050859-1.5473352.067474 0 .067474.0812528.067474.6164612 0 1.3830633-.522037 2.0666463-1.294438 2.0666463m-2.7256-.7666021c0 .9043785.646331 1.6003261 1.78984 1.6003261 1.155939 0 2.010019-.7507049 2.271037-.9573695.1385.2331601.424377.9573695 1.377893.9573695.522037 0 1.168368-.2455247 1.168368-.8902477 0-.0794864-.042615-.13601-.095884-.13601-.055045 0-.1385.0441591-.261019.0441591-.207749 0-.330268-.111281-.330268-.397432v-2.5894901c0-1.875879-.841651-2.86151027-3.221002-2.86151027-1.335277 0-2.409536.52107747-2.409536 1.50670877 0 .5334421.344473 1.0280241.937535 1.0280241.687171 0 .96417-.4256938.96417-.8761167 0-.6305921-.401294-.5369748-.401294-.8231258 0-.1642719.191769-.300282.743991-.300282.96417 0 1.486207.4097966 1.486207 1.4360542v.9026122c-1.431162.0706546-4.020038.4398247-4.020038 2.3563301"/><path d="m125.816169 14.8798533c0 1.2611841.538017 1.8493834 1.667321 1.8493834 1.072484 0 1.69218-.5881993 2.077493-1.5332042l-.454562-.2048983c-.193545.3267774-.426153.7542376-.86651.7542376-.262794 0-.522037-.1254119-.522037-.7259758v-4.3841163h1.555456v-.533442h-1.555456v-2.65661198h-.509607c-.427928 1.17816502-1.074259 2.36869459-2.436172 2.73963108v.4504229h1.044074z"/><path d="m63.7577258 23.0881484c0-.6871158.2894285-.9326404.8523048-.9326404 1.1150988 0 1.4613476.7666021 1.4613476 1.7522334 0 1.5614661-.5664276 1.973029-2.0792686 1.973029-.1793391 0-.2343838-.0423927-.2343838-.1519073zm1.5696613 7.2155983h-.2752234c-.9765993 0-1.2944379-.05829-1.2944379-.7542375v-2.9303985c0-.1095146.0550447-.150141.2343838-.150141h.8665099c1.6921801 0 3.8406985-.4380583 3.8406985-2.4799755 0-1.4378206-1.0050094-2.4216855-3.5921096-2.4216855h-4.9700024v.630592c.8274459 0 1.2393932.0406264 1.2393932.9291077v6.4225008c0 .4380583-.2201787.7542375-.8523048.7542375h-.3870884v.6288257h5.1901811z"/><path d="m72.1866651 30.6040287c-.6996002 0-1.2109831-.358572-1.2109831-2.8756412 0-2.5612283.5930621-2.8880057 1.2109831-2.8880057.6214722 0 1.2127587.3267774 1.2127587 2.8880057 0 2.5170692-.5096072 2.8756412-1.2127587 2.8756412m0-6.2970889c-1.7614299 0-3.3293156 1.4378206-3.3293156 3.4214477 0 1.9712626 1.4862065 3.4073168 3.3293156 3.4073168 1.8466604 0 3.3310912-1.4360542 3.3310912-3.4073168 0-1.9836271-1.5678857-3.4214477-3.3310912-3.4214477"/><path d="m75.9723189 24.5100717v.533442c.4829727 0 .8398754.0830191.8398754.7542376v3.7641224c0 .780733-.3853128.8354903-.8398754.8354903v.5352084h3.5636994v-.5352084c-.6196966 0-.8256702-.1519073-.8256702-.8354903v-1.9694962c0-1.2205578.5486712-2.3015728 1.2678034-2.3015728.5628763 0 .8931444.3956656.8931444 1.6020925v2.6689765c0 .780733-.3853128.8354903-.8114652.8354903v.5352084h3.5370649v-.5352084c-.6196966 0-.8256703-.1519073-.8256703-.8354903v-1.9694962c0-1.2205578.5504469-2.3015728 1.2660278-2.3015728.5646519 0 .89492.3956656.89492 1.6020925v2.6689765c0 .780733-.3853128.8354903-.8114652.8354903v.5352084h3.5370649v-.5352084c-.6214722 0-.8274459-.1519073-.8274459-.8354903v-2.8738748c0-1.5067088-.7688499-2.3810591-1.9958137-2.3810591-1.66377 0-1.9674036 1.4908115-2.1325377 1.4908115-.1793391 0-.2059736-1.4908115-1.940769-1.4908115-1.5021872 0-2.0224483 1.4625497-2.2017874 1.4625497-.0834548 0-.0834548-.1360101-.0834548-.3691702v-.9026122c0-.1236455-.0284102-.1907673-.1225189-.1907673-.2343838 0-1.4311618.1501409-2.3811265.2031319"/><path d="m91.8855597 25.1406637c.9215546 0 1.1825729.7542376 1.1825729 2.6424811 0 1.6003261-.3711077 2.5206019-1.210983 2.5206019-.8380997 0-1.2109831-1.028024-1.2109831-2.5206019 0-1.2187914.1633584-2.6424811 1.2393932-2.6424811m-4.130127-.09715c.6196967 0 .9908044.0830191.9908044.7542376v6.5585108c0 .5758348-.5344662.7118448-.9908044.7118448v.5352084h4.281056v-.5352084c-.99258 0-1.3903222-.0565236-1.3903222-.683583v-1.9447671c0-.0830191.0266345-.1660383.0958843-.1660383.1367239 0 .4545626.8619858 1.7347954.8619858 1.7330197 0 2.7113946-1.5455688 2.7113946-3.5433268 0-2.0684127-1.1985536-3.2854377-2.6847601-3.2854377-1.4027516 0-1.8999294 1.1499032-2.0348777 1.1499032-.0426152 0-.0710254-.0688882-.0710254-.2896838v-.6694521c0-.09715-.0266345-.1907673-.1225188-.1907673-.150929 0-1.6122766.1766364-2.5196261.2031319z"/><path d="m98.2014934 26.7833826c0-1.3424369.3728834-1.9447672.9357597-1.9447672.632126 0 .9357599.6588539.9357599 1.8776453v.2720202c0 .09715-.026635.1377764-.1100897.1377764h-1.7614299zm3.9348076 2.1514318h-.616146c-.291204.6977139-.786606 1.3689323-1.764981 1.3689323-.7688499 0-1.5536806-.6182275-1.5536806-2.3845918v-.2578892h3.8939676c0-1.9324026-1.017439-3.3543259-2.8498942-3.3543259-1.6779751 0-3.1641816 1.4360542-3.1641816 3.4214477 0 1.9712626 1.4862065 3.4073168 3.123342 3.4073168 1.4045268 0 2.5054208-.8178267 2.9315738-2.2008899z"/><path d="m110.291792 30.397364c-.646331 0-.852305-.2596555-.852305-.8761167v-4.9705492c0-.1907674-.042615-.2437583-.209525-.2437583-.175787 0-1.209207.1625055-2.585324.2031319v.533442c.468767 0 .893144.09715.893144.7542376v1.9465335c0 1.517307-.742215 2.4075546-1.512841 2.4075546-.550447 0-.742215-.4928157-.742215-1.1375386v-4.4636027c0-.1907674-.042615-.2437583-.205974-.2437583-.179339 0-1.212759.1625055-2.588876.2031319v.533442c.466992 0 .89492.09715.89492.7542376v3.0134176c0 1.6815788.770626 2.3245354 1.83068 2.3245354 1.708161 0 2.242627-1.5173069 2.464581-1.5173069.08168 0 .122519.0547573.122519.1377764v1.217025c0 .0830191.026635.1625055.152705.1625055.177563 0 1.251822-.2031319 2.338511-.2031319z"/><path d="m119.761254 22.155508c1.527046 0 2.642144.7259757 2.807278 2.2715445h.633902l-.05682-2.8597438h-8.531926v.6288257c.78483 0 1.196778.0423927 1.196778.930874v6.4225008c0 .4380583-.220179.7542375-.854081.7542375h-.342697v.6288257h5.106726v-.6288257h-.234384c-.978375 0-1.294438-.05829-1.294438-.7542375v-2.9727912c0-.1784028.067474-.2031319.330268-.2031319 1.266028 0 1.665546.5051802 1.747225 1.7663643h.607267v-4.0555725h-.632126c0 1.425456-.703151 1.6992425-1.844885 1.6992425-.165134 0-.207749-.052991-.207749-.2313938v-2.6848738c0-.5617038.179339-.7118448 1.569662-.7118448"/><path d="m126.231667 30.3037467c-.566427 0-.827445-.3956656-.827445-1.1375386 0-1.2717823 1.527046-1.5473352 2.049082-1.5473352.071026 0 .071026.0812528.071026.6164612 0 1.3830633-.523813 2.0684126-1.292663 2.0684126m3.783879-.1925337c-.056821 0-.140276.0406264-.262794.0406264-.205974 0-.328493-.1095146-.328493-.3956656v-2.5877238c0-1.8776453-.841651-2.8615102-3.222777-2.8615102-1.335278 0-2.407761.5175447-2.407761 1.5049424 0 .5352084.344473 1.0262577.935759 1.0262577.688947 0 .962394-.4256938.962394-.8743504 0-.6323584-.399517-.5352084-.399517-.8231258 0-.1642718.195319-.3002819.743991-.3002819.964169 0 1.487982.4097965 1.487982 1.4378206v.9026122c-1.431162.0688882-4.020038.4380583-4.020038 2.3545636 0 .9043786.648107 1.6003261 1.788065 1.6003261 1.157714 0 2.010018-.7524712 2.272812-.9556031.136724.2313938.426153.9556031 1.376117.9556031.522037 0 1.170144-.2455246 1.170144-.8902476 0-.0794864-.04084-.1342437-.095884-.1342437"/><path d="m134.525659 30.6040287c-.868286 0-1.308643-1.0827814-1.308643-2.7519957 0-1.8352525.440357-2.7113693 1.308643-2.7113693.71558 0 1.127528.5210775 1.127528 2.942763 0 1.7416353-.387089 2.520602-1.127528 2.520602m.593062-6.2970889c-1.363688 0-1.653117 1.0103604-1.805821 1.0103604-.081679 0-.095884-.0688882-.095884-.3956656v-3.9425253c0-.1112809-.055045-.1501409-.122519-.1501409-.234384 0-1.294438.2172628-2.79485.2720201v.5352084h.124295c.646331 0 .89492.1907673.89492.930874v4.6667346c0 1.5773634 0 2.8632766-.055045 3.9018988h.522037c.124294-.2031319.68717-1.1075104.839875-1.1075104.193544 0 .784831 1.1075104 1.995814 1.1075104 1.940769 0 3.151752-1.5738306 3.151752-3.4620741 0-1.7257379-.949965-3.3666904-2.654574-3.3666904"/><path d="m142.830303 24.3069398c-1.102669 0-1.528821 1.4625497-1.734795 1.4625497-.06925 0-.06925-.0953837-.06925-.150141v-1.1216414c0-.1236455-.026634-.1907673-.124294-.1907673-.152705 0-1.66377.1766364-2.65635.2031319v.533442c.758196 0 1.129304.0830191 1.129304.7542376v3.7641224c0 .8354903-.509608.8354903-1.170144.8354903v.5352084h4.44619v-.5352084c-.89492 0-1.376117 0-1.376117-.8354903v-2.0931417c0-1.3406706.509607-1.9306363.715581-1.9306363.193544 0 .04084 1.0138932.978375 1.0138932.632126 0 .93576-.5069466.93576-1.0686505 0-.6977139-.372884-1.1763986-1.07426-1.1763986"/><path d="m147.116686 30.3037467c-.562876 0-.823894-.3956656-.823894-1.1375386 0-1.2717823 1.527046-1.5473352 2.050858-1.5473352.067474 0 .067474.0812528.067474.6164612 0 1.3830633-.522037 2.0684126-1.294438 2.0684126m3.785654-.1925337c-.053269 0-.136724.0406264-.261018.0406264-.20775 0-.330268-.1095146-.330268-.3956656v-2.5877238c0-1.8776453-.8381-2.8615102-3.221002-2.8615102-1.333502 0-2.409537.5175447-2.409537 1.5049424 0 .5352084.346249 1.0262577.937535 1.0262577.687171 0 .96417-.4256938.96417-.8743504 0-.6323584-.401293-.5352084-.401293-.8231258 0-.1642718.193544-.3002819.743991-.3002819.964169 0 1.486206.4097965 1.486206 1.4378206v.9026122c-1.431162.0688882-4.018262.4380583-4.018262 2.3545636 0 .9043786.648107 1.6003261 1.788065 1.6003261 1.155938 0 2.010018-.7524712 2.271037-.9556031.138499.2313938.427928.9556031 1.377893.9556031.522036 0 1.170143-.2455246 1.170143-.8902476 0-.0794864-.04084-.1342437-.09766-.1342437"/><path d="m64.9278692 40.0258161h-1.0582784l.617921-2.6813411c.1509289-.6305921.2610183-.7542376 1.5980715-.7542376 1.7188146 0 2.4894402.3444411 2.4894402 1.4802134 0 1.9288698-2.2834666 1.9553653-3.6471543 1.9553653m3.084278 2.5082374c0 1.4908115-.89492 2.1902918-3.5796801 2.1902918-1.2802329 0-1.3903222-.2066647-1.3903222-.6305921 0-.1254119.0266345-.3144129.0692497-.5069466l.6321261-2.942763h.6889464c1.8306797 0 3.5796801.0688882 3.5796801 1.8900099m1.8573142-4.5890146c0-1.5438024-1.3761171-1.9694963-3.098483-1.9694963h-4.7338429l-.1367239.6146948h.2734478c.7581961 0 1.0600541.1095146 1.0600541.4928157 0 .2066646-.039064.4150956-.1083138.6959475l-1.3228481 6.0974898c-.1242944.6005638-.2610183.8478549-1.0866886.8478549h-.3586782l-.1367239.6146947h5.1067262c3.0008232 0 4.1283514-1.4766805 4.1283514-2.942763 0-1.5314378-1.5554563-1.8900098-2.242627-1.997758v-.0264955c.7013758-.1660382 2.6563499-.397432 2.6563499-2.4269846"/><path d="m73.0815851 44.8868508c-.8256702 0-1.0742591-.7524712-1.0742591-1.4484188 0-1.1534359.8398753-4.1085635 2.256832-4.1085635.9233302 0 1.0334196.833724 1.0334196 1.4095588 0 1.1075104-.7724012 4.1474235-2.2159925 4.1474235m2.8907338-.1201128c-.2219544 0-.3036336-.1660382-.3036336-.4380584 0-.7383403.8114652-3.8082815 1.3068674-5.410374h-1.031644l-.2752234.8354904-.0284101.0264955c-.1083138-.2861511-.4261524-1.0651178-1.4844309-1.0651178-2.0668391 0-3.2760466 2.7219675-3.2760466 4.4883319 0 1.2046604.5362418 2.3421991 1.7898401 2.3421991 1.0440734 0 1.7880645-.9591359 2.0206726-1.2170251l.0284102.0229628c.0266345.455722.0976599 1.1940623.880715 1.1940623.9357596 0 1.6673212-1.1940623 1.9958137-1.9324026l-.4243768-.286151c-.1384995.3426746-.743991 1.4395869-1.1985536 1.4395869"/><path d="m82.7801035 38.7151737c-.9233302 0-1.6779751 1.3795306-2.0100188 1.9553654l-.0248589-.0264955c.0248589-.1236455.0941086-.4115629.0941086-.8213594 0-.6411903-.3036336-1.1075105-.8807149-1.1075105-1.0032338 0-1.5962959 1.3671661-1.926564 2.1355345l.413723.2313938c.1633584-.3285438.6747413-1.6568498 1.2393932-1.6568498.1775635 0 .3018579.1766365.3018579.4804511 0 .586433-.3462488 2.0931418-.7173565 3.3666905l-.6037159 2.0666462h1.045849c.9908043-4.0538061 2.1201082-5.7477495 2.5178504-5.7477495.1100894 0 .1793392.0565236.1793392.1342437 0 .1519073-.0692498.1660382-.0692498.3974319 0 .3038147.2752234.4928157.6072672.4928157.4101717 0 .7546448-.2578892.7546448-.930874 0-.5352084-.3142874-.9697341-.9215545-.9697341"/><path d="m87.7287982 38.7151737c-2.2159925 0-3.7288335 1.9977581-3.7288335 4.0908999 0 1.2187914.6729657 2.7396311 2.7806444 2.7396311 1.0600541 0 2.0082432-.6588539 2.65635-1.4519515l-.4012935-.4239275c-.4794215.6676858-1.2660278 1.2170251-2.1183326 1.2170251-1.1701434 0-1.624706-.9414722-1.624706-2.0101227 0-2.0542817 1.0884643-3.6298787 2.4095367-3.6298787.5362418 0 .89492.1925337.89492.3833011 0 .2755528-.5096072.2896837-.5096072.9202758 0 .3833011.3018579.6411903.7173565.6411903.6037159 0 .9481891-.4928157.9481891-.9856313 0-1.0386223-1.0884642-1.4908116-2.0242239-1.4908116"/><path d="m94.1601482 39.2468494c.5096072 0 .8807149.3038147.8807149.8761167 0 1.328306-1.9123589 2.0666463-3.2476364 2.2733109l-.0266345-.0282618c.0816792-1.0509868.9073495-3.1211658 2.393556-3.1211658m2.0934736.8761167c0-1.0810149-.9765992-1.4077924-1.8590898-1.4077924-2.242627 0-3.9223777 2.2697782-3.9223777 4.3805836 0 1.4077924.7581961 2.4499474 2.3527163 2.4499474 1.5980715 0 2.5338312-.9591359 3.1251176-1.4943443l-.3302681-.4097965c-.7706256.741873-1.624706 1.2452869-2.4503763 1.2452869-1.0174388 0-1.4844308-.6553212-1.4844308-1.614457 0-.1236455.0124294-.2720201.0248589-.3691702 2.9067145-.6005639 4.5438499-1.3000441 4.5438499-2.7802575"/><path d="m98.6098895 44.766738c-.2201788 0-.3711078-.1801692-.3711078-.5493393 0-.2896838.0958843-.5617039.2059737-1.0138931l1.8999296-7.5971331-.111865-.1519073c-.6463313.09715-1.4577965.1801691-2.4645815.1925337l-.1225188.5316756h.3178386c.6605362 0 .8931444.0830192.8931444.5210775 0 .3426747-.1349482.9609022-.3018579 1.6427189l-.9765993 3.9566561c-.2201787.8796495-.3853128 1.5084752-.3853128 1.973029 0 .6429566.3302681 1.2046605 1.1559384 1.2046605 1.031644 0 1.8306799-1.3936615 2.1875819-2.2185537l-.454562-.2031319c-.2343839.4751521-.8807151 1.7116071-1.4720015 1.7116071"/><path d="m104.030903 45.0122626c-1.074259 0-1.459572-.8496212-1.459572-1.7804952 0-1.3706987.687171-3.984918 2.366922-3.984918 1.157714 0 1.569661.7966303 1.569661 1.875879 0 1.0827813-.605492 3.8895342-2.477011 3.8895342m1.003234-6.2970889c-2.173377 0-3.673789 1.9288699-3.673789 4.1615544 0 1.4519515.852305 2.6689766 2.642145 2.6689766 2.258608 0 3.71818-2.0383845 3.71818-4.0114135 0-1.614457-1.019215-2.8191175-2.686536-2.8191175"/><path d="m114.404163 44.766738c-.273448 0-.397742-.2207955-.397742-.4521893 0-.4115629.221954-.9185094.674741-2.0560481.248589-.6146948.548671-1.3689323.548671-2.0525153 0-.9043786-.562876-1.4908116-1.457796-1.4908116-1.182573 0-2.036654 1.2170251-2.489441 1.9553654l-.030185-.0264955c.030185-.1236455.09766-.4115629.09766-.8213594 0-.6411903-.301858-1.1075105-.880715-1.1075105-1.00501 0-1.596296 1.3671661-1.926564 2.1355345l.411947.2313938c.165134-.3285438.674741-1.6568498 1.241169-1.6568498.177563 0 .300082.1766365.300082.4804511 0 .586433-.342697 2.0931418-.713805 3.3666905l-.607267 2.0666462h1.100893l.619697-2.2839091c.605492-2.1902917 1.459572-3.6298787 2.65635-3.6298787.332044 0 .632126.2225619.632126.683583 0 .4786848-.177563.8496213-.534466 1.7275043-.413723 1.0262577-.688947 1.6851116-.688947 2.3263019 0 .7383403.316064 1.3141751 1.060055 1.3141751 1.115098 0 1.788064-1.1905296 2.271037-2.0807772l-.482973-.247291c-.232608.455722-.839875 1.6179897-1.404527 1.6179897"/><path d="m119.31912 44.8868508c-.82567 0-1.072483-.7524712-1.072483-1.4484188 0-1.1534359.8381-4.1085635 2.256832-4.1085635.921555 0 1.031644.833724 1.031644 1.4095588 0 1.1075104-.772401 4.1474235-2.215993 4.1474235m2.890734-.1201128c-.221954 0-.303633-.1660382-.303633-.4380584 0-.7383403.811465-3.8082815 1.306867-5.410374h-1.031644l-.275223.8354904-.026635.0264955c-.110089-.2861511-.427928-1.0651178-1.486206-1.0651178-2.06684 0-3.276047 2.7219675-3.276047 4.4883319 0 1.2046604.538017 2.3421991 1.78984 2.3421991 1.044073 0 1.788065-.9591359 2.022448-1.2170251l.026635.0229628c.030186.455722.09766 1.1940623.88249 1.1940623.93576 0 1.665546-1.1940623 1.994039-1.9324026l-.424377-.286151c-.1385.3426746-.743991 1.4395869-1.198554 1.4395869"/></g></svg>