<svg height="58" viewBox="0 0 180 58" width="180" xmlns="http://www.w3.org/2000/svg"><g fill="none" fill-rule="evenodd" transform="translate(0 1)"><path d="m77.7467074 57-.0465663-12.16918h8.144873v3.2946756h-3.8523048v1.1721442h3.4945908v3.1109341h-3.4945908v1.2756308h3.9496708v3.2946756z" fill="#00a984" fill-rule="nonzero"/><path d="m92.5272813 54.2396532c-.1164158-.2471007-.2053152-.447738-.2624647-.6019119-.0592663-.14995-.1015993-.2893401-.1291158-.4097225-.0232831.1140465-.0613828.2471007-.1142991.3843788-.0592662.1436141-.1566322.3505873-.2920978.6272556l-1.3842898 2.7603468h-5.0101129l4.3285513-6.4837526-3.8184384-5.6812035h5.0016463l.8995767 1.9873652c.0084666.0190078.0253998.0591352.0465663.1055986.1672154.3780429.2815146.6737189.3428974.8996999.0402164-.1457261.0867827-.295676.146049-.443514.0571495-.154174.133349-.3400275.2285983-.5617845l.9228598-1.9873652h4.9783631l-3.8036218 5.6812035 4.3327846 6.4837526h-5.0143462z" fill="#00a984" fill-rule="nonzero"/><path d="m71.6571025 2.64630034h25.4273284v3.50798474h-21.3739417c-.8487771-.99051466-2.1060678-1.6177702-3.5094074-1.6177702-.1841486 0-.3661806.01267183-.5439793.0295676z" fill="#f0b631" fill-rule="nonzero"/><path d="m73.9007526.09503872 2.110301 1.96835748h20.8490123v-2.01482085z" fill="#f0b631" fill-rule="nonzero"/><path d="m73.9007526.09503872 2.110301 1.96835748h20.8490123v-2.01482085z" stroke="#f0b631" stroke-width=".5"/><g fill-rule="nonzero"><path d="m79.5733772 10.1839268h2.6902634v-2.821594h-2.6902634z" fill="#f0b631"/><path d="m84.2892756 10.2493979h2.6902634v-2.81948201h-2.6902634z" fill="#f0b631"/><path d="m89.1088899 10.2958613h2.6902634v-2.81948203h-2.6902634z" fill="#f0b631"/><path d="m94.1761524 10.1628071h2.6902634v-2.82159401h-2.6902634z" fill="#f0b631"/><path d="m79.9310913 11.7932491-1.8139699 3.045463h18.7873941v-2.9989996z" fill="#f0b631"/><path d="m67.5656162 9.20608396c0 2.58082924 2.0743179 4.67168104 4.6354656 4.67168104s4.639699-2.0908518 4.639699-4.67168104c0-2.58082923-2.0785513-4.66956908-4.639699-4.66956908s-4.6354656 2.08873985-4.6354656 4.66956908m-2.0087018 0c0-3.66215866 2.9738946-6.62947868 6.6441674-6.62947868 3.6723895 0 6.6484008 2.96732002 6.6484008 6.62947868 0 3.66215864-2.9760113 6.63159064-6.6484008 6.63159064-3.6702728 0-6.6441674-2.969432-6.6441674-6.63159064" fill="#f0b631"/><path d="m69.167921 9.20608396c0-1.67056949 1.3588899-3.02434325 3.0352775-3.02434325 1.6742709 0 3.0310442 1.35377376 3.0310442 3.02434325 0 1.67056954-1.3567733 3.02645524-3.0310442 3.02645524-1.6763876 0-3.0352775-1.3558857-3.0352775-3.02645524" fill="#f0b631"/><path d="m75.2681091 16.3023083 8.8476012-.0147838v23.903294c.484713 1.0918893 1.6721542 1.2186076 2.5632643 1.2186076 3.644873 0 3.0733772-6.8786914 3.0500941-8.3950869-.0084666-.7666457-.097366-12.4183927-.0888994-15.2420987h-2.4807149c-.0296331-.6166956.0021166-.8975879 0-1.4572603h9.0634995v26.6636407l2.0658514-.0042239c-.0021167.4794175-.0042333.6589351-.0042333 1.2038238l-8.4263876.0274556.0021166-3.3495869c-.2434148 2.2619215-12.5750235 6.3485865-12.0860771-2.5364778l-.0550329-20.8662789c-.6921449.0485754-1.6128881.0443514-2.4510819 0z" fill="#f0b631"/></g><path d="m75.2681091 16.3023083 8.8476012-.0147838v23.903294c.484713 1.0918893 1.6721542 1.2186076 2.5632643 1.2186076 3.644873 0 3.0733772-6.8786914 3.0500941-8.3950869-.0084666-.7666457-.097366-12.4183927-.0888994-15.2420987h-2.4807149c-.0296331-.6166956.0021166-.8975879 0-1.4572603h9.0634995v26.6636407l2.0658514-.0042239c-.0021167.4794175-.0042333.6589351-.0042333 1.2038238l-8.4263876.0274556.0021166-3.3495869c-.2434148 2.2619215-12.5750235 6.3485865-12.0860771-2.5364778l-.0550329-20.8662789c-.6921449.0485754-1.6128881.0443514-2.4510819 0z" stroke="#f0b631" stroke-width=".5"/><g fill="#1a1919" fill-rule="nonzero"><path d="m0 8.82804105v-5.21234577h.94825964v5.29260069c0 .34213939.07831609.59135203.22859831.75397384.15663217.16262181.38946378.24287673.70484478.24287673.31326434 0 .54609595-.08025492.70061148-.24287673.15028222-.16262181.224365-.41183445.224365-.75397384v-5.29260069h.94825964v5.21234577c0 .68850273-.15028222 1.19326395-.45084666 1.51005965-.30056444.3146838-.77681091.4730816-1.42450611.4730816-.65192851 0-1.12817498-.1583978-1.42662277-.4730816-.30268109-.3167957-.45296331-.82155692-.45296331-1.51005965"/><path d="m6.3309031 10.7245915v-7.10889622h.88899342l1.88593603 4.9356775v-4.9356775h.91015995v7.10889622h-.90169335l-1.87535277-4.97580496v4.97580496z"/><path d="m12.6469897 10.7224795h.9567262v-7.10678422h-.9567262z"/><path d="m18.0931326 10.7245915h-.8085606l-1.5578552-7.10889622h.9673095l.9969427 4.82585498 1.0011759-4.82585498h.9694261z"/><path d="m21.7464722 10.7245915v-7.10889622h2.8468956v.85957242h-1.885936v2.11197155h1.7271872v.84478861h-1.7271872v2.40342362h1.885936v.88914002z"/><path d="m27.939793 6.70762162h.2984478c.3894638 0 .6646284-.09292674.8254939-.27244433.1629821-.18162955.2434149-.50264922.2434149-.96305902 0-.38437882-.0783161-.64837526-.2328316-.79621327-.1545156-.14572604-.4423801-.21964504-.8678269-.21964504h-.2666981zm0 .54911261v3.46785727h-.9588429v-7.10889622h1.1599248c.7704609 0 1.3186735.14572604 1.6446378.42873023.3259643.28722813.491063.76242172.491063 1.42769276 0 .52588091-.1121825.93771537-.3365475 1.23127941-.2222483.29356405-.5566792.46674571-1.0011759.52376894l1.6848542 3.49742488h-1.0286924l-1.6255879-3.46785727z"/><path d="m32.5032926 9.56934307c.2307149.13727815.4381467.24076475.630762.30623587.1926152.06758309.3746472.10137463.539746.10137463.2963311 0 .5270461-.08659083.7006114-.25554855.1735654-.16895773.2582315-.39705065.2582315-.68427878 0-.41817037-.3323142-.89547594-.9905927-1.43614065-.0804327-.06335915-.1375823-.11404647-.1777987-.14361407-.4233302-.3484753-.715428-.66949498-.8868767-.96728297-.1672155-.29567601-.2518815-.62936752-.2518815-1.00107451 0-.53221683.1693321-.97995479.5122295-1.33476601.3428975-.35903517.7619944-.53855275 1.2657573-.53855275.2222484 0 .4339135.02745563.6392286.07814295.2053152.05279929.406397.13305421.6095955.2449887v.95461114c-.1862653-.13305421-.3682973-.2302049-.546096-.29356405-.1735653-.06335914-.351364-.09503872-.5228128-.09503872-.3005644 0-.5439793.09081478-.7281279.26610842-.1799153.17740561-.2709313.41183445-.2709313.70751047 0 .40972247.3492474.89336396 1.0477422 1.45514839.0677329.04857534.1185325.09081478.1545155.11615843.4042804.32735559.6921449.63992738.8593603.94405128.1693321.30201193.2561148.6462633.2561148 1.03486606 0 .54700063-.175682.99473855-.5228128 1.34743785-.3471307.3505873-.7916274.5258809-1.3356068.5258809-.1968485 0-.400047-.0295676-.6053621-.0844789-.2031985-.0591352-.4148636-.1520619-.6349953-.2703323z"/><path d="m37.885936 10.7224795h.9588429v-7.10678422h-.9588429z"/><path d="m42.476952 9.80588388h.4995297c.5376293 0 .9186265-.19430138 1.1387582-.58290415.2201317-.38860276.3280809-1.07921746.3280809-2.06762014 0-.98629071-.1079492-1.67268146-.3259643-2.05917225-.218015-.38860277-.5990122-.58290415-1.1408748-.58290415h-.4995297zm-.9694261.91870762v-7.10889622h1.2678739c.9673095 0 1.6509878.26822039 2.0468015.79621328.3936971.53221682.5926623 1.44881247.5926623 2.75401089 0 1.30519841-.1989652 2.22601801-.5926623 2.76034681-.3958137.53010484-1.079492.79832524-2.0468015.79832524z"/><path d="m49.233302 5.45311053-.6434619 3.07925451h1.2805738zm-2.1208843 5.27148097 1.6658043-7.10889622h.9016933l1.6700377 7.10889622h-.9715428l-.3407808-1.39601319h-1.6234714l-.3301975 1.39601319z"/><path d="m54.3936971 9.80588388h.4952963c.5439793 0 .9228598-.19430138 1.1429915-.58290415.2180151-.38860276.328081-1.07921746.328081-2.06762014 0-.98629071-.1079492-1.67268146-.328081-2.05917225-.2158984-.38860277-.5968955-.58290415-1.1429915-.58290415h-.4952963zm-.9694262.91870762v-7.10889622h1.267874c.9673095 0 1.6488711.26822039 2.0468015.79621328.3936971.53221682.5926623 1.44881247.5926623 2.75401089 0 1.30519841-.1989652 2.22601801-.5926623 2.76034681-.3979304.53010484-1.079492.79832524-2.0468015.79832524z"/><path d="m105.019755 9.80799585h.497413c.539746 0 .920744-.19641335 1.140875-.58290415.220132-.39071473.332314-1.08132943.332314-2.06762014 0-.98840268-.110065-1.67268146-.330197-2.05917225-.215898-.38860277-.599012-.58290415-1.142992-.58290415h-.497413zm-.967309.91870765v-7.11100822h1.267874c.967309 0 1.648871.26822039 2.044685.79621328.393697.5343288.590545 1.45092445.590545 2.75401089 0 1.30519841-.196848 2.22812998-.590545 2.76034681-.395814.53221684-1.077376.80043724-2.044685.80043724z"/><path d="m110.326199 10.7267035v-7.11100822h2.846896v.86168439h-1.888053v2.10985958h1.725071v.84690058h-1.725071v2.40342362h1.888053v.88914005z"/><path d="m118.81397 10.7267035v-7.11100822h2.844779v.86168439h-1.88382v2.10985958h1.722954v.84690058h-1.722954v2.40342362h1.88382v.88914005z"/><path d="m123.515052 10.7267035 1.30809-3.61780728-1.236124-3.49320094h.952493l.783161 2.33372856.768344-2.33372856h.96096l-1.238241 3.49320094 1.305973 3.61780728h-1.009642l-.787394-2.47311871-.800094 2.47311871z"/><path d="m130.02587 10.7267035v-6.2218682h-1.318673v-.88914002h3.606773v.88914002h-1.32079v6.2218682z"/><path d="m135.38523 6.70762162h.296332c.393697 0 .668861-.09081477.829727-.27244433.160865-.18162955.239181-.50264922.239181-.96305902 0-.38226685-.076199-.64626329-.230715-.79621327-.152398-.14572604-.44238-.21964504-.86571-.21964504h-.268815zm0 .54911261v3.46996927h-.960959v-7.11100822h1.164158c.766228 0 1.316557.14572604 1.642521.42873023.325964.28722813.488947.7645337.488947 1.42980473 0 .52588092-.110066.9356034-.336548 1.22916744-.220132.29356405-.554563.46674571-1.001176.52376894l1.686971 3.49953688h-1.026576l-1.627704-3.46996927z"/><path d="m140.099012 10.7267035v-7.11100822h2.849012v.86168439h-1.890169v2.10985958h1.727187v.84690058h-1.727187v2.40342362h1.890169v.88914005z"/><path d="m145.041392 10.7267035.609596-7.11100822h.867827l.969426 4.92300567.986359-4.92300567h.840311l.620178 7.11100822h-.886876l-.289982-4.98847682-.950376 4.98847682h-.649812l-.948259-4.98847682-.289982 4.98847682z"/><path d="m153.844544 5.45311053-.643462 3.08136648h1.278457zm-2.120885 5.27359297 1.665805-7.11100822h.901693l1.665804 7.11100822h-.969426l-.340781-1.39812519h-1.621354l-.332314 1.39812519z"/><path d="m159.004939 9.80799585h.497413c.539746 0 .920743-.19641335 1.138758-.58290415.222248-.39071473.330198-1.08132943.330198-2.06762014 0-.98840268-.10795-1.67268146-.325965-2.05917225-.218015-.38860277-.601129-.58290415-1.142991-.58290415h-.497413zm-.971543.91870765v-7.11100822h1.269991c.967309 0 1.650987.26822039 2.044684.79621328.395814.5343288.592663 1.45092445.592663 2.75401089 0 1.30519841-.196849 2.22812998-.592663 2.76034681-.393697.53221684-1.077375.80043724-2.044684.80043724z"/><path d="m164.279633 8.83015303v-5.21445775h.946143v5.29260069c0 .34425136.080433.59557598.232832.75608582.150282.1626218.38523.24287672.702728.24287672.311148 0 .548212-.08025492.698495-.24287672.148165-.16050984.224365-.41183446.224365-.75608582v-5.29260069h.950376v5.21445775c0 .69061469-.150282 1.19326387-.44873 1.51005967-.304798.3125718-.778928.4730816-1.430856.4730816-.649812 0-1.123942-.1605098-1.424506-.4730816-.302681-.3167958-.450847-.81944498-.450847-1.51005967"/><path d="m171.575729 6.70762162h.300565c.39158 0 .666745-.09081477.829727-.27244433.160865-.18162955.239181-.50264922.239181-.96305902 0-.38226685-.076199-.64626329-.232831-.79621327-.152399-.14572604-.444497-.21964504-.865711-.21964504h-.270931zm0 .54911261v3.46996927h-.958843v-7.11100822h1.162042c.768344 0 1.318673.14572604 1.642521.42873023.332314.28722813.493179.7645337.493179 1.42980473 0 .52588092-.112182.9356034-.336547 1.22916744-.222248.29356405-.558796.46674571-1.001176.52376894l1.686971 3.49953688h-1.026576l-1.629821-3.46996927z"/><path d="m177.883349 5.45311053-.641345 3.08136648h1.280574zm-2.118768 5.27359297 1.665805-7.11100822h.90381l1.665804 7.11100822h-.971543l-.342897-1.39812519h-1.619238l-.332314 1.39812519z"/></g></g></svg>