<svg height="65" viewBox="0 0 95 65" width="95" xmlns="http://www.w3.org/2000/svg"><path d="m1.18725202 54.9353261c.24569097 2.331201 1.26660563 3.7222784 4.00277898 3.7222784h9.1470291c2.7758501 0 3.757088 1.3910773 4.5735145 4.1319583.8164265-2.740881 1.7961383-4.1319583 4.5735145-4.1319583h9.1470291c2.7346473 0 3.757088-1.3910774 4.0012529-3.7222784h.8591554c0 3.8873733-2.0021525 6.669528-5.2281818 6.669528h-9.0661494c-2.6110388 0-3.6746823 1.4292937-4.0821326 3.3951459h-.4089762c-.4074503-1.9658522-1.4695678-3.3951459-4.0836587-3.3951459h-9.06462336c-3.22602926 0-5.22665574-2.7821547-5.22665574-6.669528zm8.06202111-20.9104913v11.3701465c0 .6038193.17701958.7796148.90188427.8514616l.4410229.0351591v.7979587l-3.09479062.600762h-.38761184v-1.6295478c-.67297961.9752828-1.55655149 1.6295478-2.91777103 1.6295478-2.33482724 0-3.73114549-1.8771901-3.73114549-4.4636768 0-3.3294137 2.01436076-5.3487689 4.61471737-5.3487689.86678553 0 1.64506128.3011454 2.03419915.8147739v-2.6201171l-1.20251233-.7612709v-.4417817l2.86283392-.8346464zm68.73853467 3.8078832c2.174594 0 3.3420076.9737541 3.3420076 3.2407516 0 .4264951-.0534111 3.5602408-.0534111 4.1090285 0 .7092965.2289047 1.1174478.7248647 1.1174478.1587072 0 .5478451-.0351591.8133745-.1070059l.1052961.5671315c-.5997301.6022906-1.2727097.9202512-2.0143608.9202512-.9385089 0-1.4497293-.654265-1.6633736-1.6112039-.6180425.7444557-1.5733378 1.59286-2.917771 1.59286-1.5733379 0-2.3851863-1.0593589-2.3851863-2.4244491 0-1.6310764 1.2543974-2.198208 2.4385973-2.6048306l2.8124749-1.0073845v-.9416524c0-1.1510783-.3555651-1.9291644-1.5214527-1.9291644-.8667856 0-1.2910222.4249665-1.2910222 1.2397403 0 .3363045.0350988.6359211.1236085 1.0089133l-1.5550254.2308271c-.3357268-.2308271-.49596-.5686602-.49596-1.045601 0-1.5408857 1.5046664-2.3556595 3.5373395-2.3556595zm-46.6873885-2.941135c1.8205548 0 3.164988.4799981 4.0149872 1.1709508v2.7607535h-.9552953c-.4776477-1.9643235-1.5733379-2.9029185-3.1482017-2.9029185-2.5988306 0-3.7647182 2.3740034-3.7647182 5.1179417 0 3.1887773 1.236085 5.5994685 3.9432638 5.5994685.9186706 0 1.483302-.1620376 2.0326731-.6038193v-2.4275064c0-1.0089133-.4776477-1.2030526-1.6084365-1.2565556v-.8331178h5.2495462v.8331178c-1.1307889.053503-1.5199268.2476423-1.5199268 1.2565556v2.7989699c-1.1307889.79643-2.6339293 1.2748995-4.4025991 1.2748995-3.8715403 0-6.1529564-2.5513276-6.1529564-6.126855 0-4.128901 2.8643599-6.6618847 6.3116637-6.6618847zm25.0406406 2.941135c2.7239651 0 4.4926349 2.0193551 4.4926349 4.7464782 0 3.1001152-2.0692979 5.1011265-4.6498161 5.1011265-2.7254912 0-4.4743225-2.0193552-4.4743225-4.7464782 0-3.0985866 2.0509855-5.1011265 4.6315037-5.1011265zm-40.2124396 0c2.4050247 0 3.659422 1.6998659 3.659422 3.9867359v.5839468h-6.1712688c0 2.1431763 1.2025123 3.577056 3.0780043 3.577056 1.2543973 0 2.0860842-.5854754 2.722439-1.4338797l.3891379.2308271c-.4410229 1.7166812-1.7854561 2.9029186-3.854754 2.9029186-2.5988306 0-4.2438918-1.9658522-4.2438918-4.6226571 0-3.1352743 1.9090646-5.2249476 4.4209114-5.2249476zm49.4617127-.0351591v1.8053432c.8133745-.8484043 1.9105907-1.7701841 3.3954187-1.7701841 1.5916502 0 2.5454195.8682768 2.5454195 2.9044472v4.9589614c0 .8147739.4776477.9064933 1.2727097 1.0089133v.7979586h-4.6666024v-.7979586c.7950621-.10242 1.2559234-.1941394 1.2559234-1.0089133v-4.7816373c0-1.0975753-.4425489-1.5408857-1.486354-1.5408857-.8301608 0-1.7152587.3378331-2.3165149.7612709v5.5612521c0 .8147739.4425489.9064933 1.237611 1.0089133v.7979586h-4.6513421v-.7979586c.7782758-.10242 1.2742358-.1941394 1.2742358-1.0089133v-5.7737353l-1.1841999-.7612709v-.4433104l2.8292612-.9202511zm-24.0685589.0351591v7.8634086c0 .8147739.4791736.9064933 1.2742357 1.0089133v.7979586h-4.6849148v-.7979586c.7782758-.10242 1.2727098-.1941394 1.2727098-1.0089133v-5.8088944l-1.1842-.7444557v-.4249665l2.8277352-.885092zm5.9240518-.0351591v2.9044472c1.0102324-2.1615202 1.5382391-2.8692881 2.670554-2.8692881.3189405 0 .5493711.1054772.689766.2292984v1.9505656h-.3891379c-1.0972162 0-1.9258509.1406364-2.9711821 1.2748995v4.373486c0 .849933.4242366.9049646 1.6282749 1.0440724v.7979586h-5.0389539v-.7979586c.7767497-.10242 1.2727097-.1941394 1.2727097-1.0089133v-5.7737353l-1.1857259-.7612709v-.4433104l2.8124749-.9202511zm8.6663293 1.0440723c-1.4680417 0-2.1929063 1.4889114-2.1929063 3.6489029 0 2.3021566.9018842 4.1610028 2.5118468 4.1610028 1.4497293 0 2.1913803-1.4690388 2.1913803-3.6290304 0-2.3021566-.9201966-4.1808753-2.5103208-4.1808753zm23.0781649 3.6489029-2.0692978.7979586c-.6546673.2461137-1.0254928.7245832-1.0254928 1.3987207 0 .9737541.4776477 1.5240704 1.3261209 1.5240704.6897659 0 1.1658875-.1941393 1.7686697-.6221631zm-74.04454399-3.7024059c-1.55502546 0-2.52710713 1.5072553-2.52710713 3.684062 0 2.0560429.84847317 3.7390936 2.58051821 3.7390936.72486466 0 1.45125536-.2659862 1.91059065-.6909527v-4.4820206c0-1.5225418-.72486466-2.2501823-1.96400173-2.2501823zm10.70052849.0183439c-1.2742358 0-2.0341992 1.2565556-2.17612 2.6934926h4.1202833c0-1.6310764-.6546672-2.6934926-1.9441633-2.6934926zm24.5446806-4.6929752c.7782757 0 1.3444332.6022906 1.3444332 1.3284024s-.5661575 1.3284024-1.3444332 1.3284024c-.7950621 0-1.3627456-.6022906-1.3627456-1.3284024s.5676835-1.3284024 1.3627456-1.3284024zm21.1507879-15.2086028c1.2208247 0 2.226479.3011453 3.0047548.7627995v2.1248324h-.9018843c-.2640033-1.2932433-.9705556-1.9658521-2.174594-1.9658521-.9186705 0-1.4482033.5487876-1.4482033 1.2748994 0 .8682769.5829438 1.3284025 2.0326732 1.7182099 1.8220808.4968133 3.0780042 1.1159192 3.0780042 2.9747654 0 1.7533689-1.3108605 2.9579502-3.5022408 2.9579502-1.2727098 0-2.4752221-.2828015-3.3420076-.9202512l-.1068222-2.2853414h.9201966c.3357268 1.4522236 1.1658876 2.3021566 2.5805182 2.3021566 1.0453312 0 1.7152587-.4769408 1.7152587-1.3268738 0-1.0104419-.7065523-1.3635615-2.2982025-1.8068719-1.7869821-.5151572-2.8292612-1.2580842-2.8292612-2.9411349 0-1.7350251 1.2742358-2.8692881 3.2718102-2.8692881zm13.8105794-1.9123492v2.0896733h2.5988306v1.0624162h-2.5988306v5.9694034c0 .938595.4074502 1.2748994 1.3108605 1.2748994.492908 0 1.0773778-.142165 1.5199268-.3714635l.2289046.5487877c-.6714536.7261118-1.6450613 1.1862374-2.86436 1.1862374-1.4161566 0-2.3180408-.6726089-2.3180408-2.3021566v-6.3057078h-1.2711838v-.6726088c.988868-.5136286 1.9456894-1.3467463 2.7590639-2.4794807zm-29.904101 1.9123492c2.4050246 0 3.6609481 1.6998659 3.6609481 3.9867359v.5839468h-6.1697429c0 2.1431763 1.2009863 3.577056 3.0764783 3.577056 1.2543974 0 2.0860842-.5839467 2.7224391-1.4338797l.3891378.2292985c-.4425489 1.7182098-1.7854561 2.9044472-3.854754 2.9044472-2.6003566 0-4.2438918-1.9643235-4.2438918-4.6226571 0-3.1352743 1.9105906-5.2249476 4.4193854-5.2249476zm46.4905306-1.9123492v2.0896733h2.6018826v1.0624162h-2.6018826v5.9694034c0 .938595.4074502 1.2748994 1.3108605 1.2748994.494434 0 1.0773778-.142165 1.5199267-.3714635l.2304307.5487877c-.6729796.7261118-1.6450613 1.1862374-2.865886 1.1862374-1.4146306 0-2.3149888-.6726089-2.3149888-2.3021566v-6.3057078h-1.2727098v-.6726088c.987342-.5136286 1.9441634-1.3467463 2.7575378-2.4794807zm-8.6281786 1.9123492c2.174594 0 3.3404816.9737541 3.3404816 3.2407516 0 .4264951-.0534111 3.5602408-.0534111 4.1105571 0 .7077679.2319567 1.1159192.7279167 1.1159192.1556552 0 .5463191-.0366877.8118485-.1070059l.1052961.5671315c-.5997301.6022906-1.2727098.9202512-2.0158868.9202512-.9354569 0-1.4497293-.654265-1.6618476-1.6112039-.6180425.7444557-1.5718118 1.5943886-2.917771 1.5943886-1.5733379 0-2.3851863-1.0624162-2.3851863-2.4259777 0-1.6295478 1.2543974-2.1966793 2.4385973-2.6033019l2.8124749-1.0104419v-.9385951c0-1.1526069-.3540391-1.930693-1.5199267-1.930693-.8667856 0-1.2925482.4249665-1.2925482 1.2397403 0 .3363045.0366248.6374498.1236085 1.0089133l-1.5550254.2308271c-.3372529-.2308271-.494434-.5671315-.494434-1.045601 0-1.5408857 1.5016143-2.3556595 3.5358135-2.3556595zm-77.72227844-2.7638109v.8514617c-1.16741362.0351591-1.66184762.2308271-1.66184762 1.2565555v5.8455822c0 2.1080172 1.00870641 3.3125985 2.97118211 3.3125985 2.13949529 0 3.39389265-.9034359 3.39389265-3.4547635v-5.7034172c0-1.0257284-.56615744-1.2213964-1.73204503-1.2565555v-.8514617h4.61471733v.8514617c-1.1674136.0351591-1.6633736.2308271-1.6633736 1.2565555v6.0932246c0 2.9931093-2.20816669 4.3933585-4.79021093 4.3933585-3.11310298 0-5.05726632-1.4002492-5.05726632-4.4101738v-6.0764093c0-1.0257284-.494434-1.2213964-1.66337365-1.2565555v-.8514617zm29.92241334 2.941135v.7796148c-.9201966.1238211-1.2543973.2124832-1.2543973.6374497 0 .1421651.0335726.2828014.1403948.5136286l1.9624757 4.8167964 2.0158868-4.8167964c.0869837-.2476424.1236085-.3714635.1236085-.5136286 0-.4249665-.3357268-.5136286-1.237611-.6374497v-.7796148h3.5190271v.7796148c-.743177.2828014-.8499992.3194892-1.0254927.7077679l-3.5907506 8.1477388h-.5661575l-3.7479318-8.1477388c-.1770196-.3714635-.2823157-.4249665-1.0254928-.7077679v-.7796148zm-18.0376849-.2124832v1.8068719c.8133745-.849933 1.9090646-1.7717128 3.3938927-1.7717128 1.5916502 0 2.5469455.8682768 2.5469455 2.9059758v4.9589615c0 .8132452.4761216.9034359 1.2727097 1.0089132v.7979587h-4.6681284v-.7979587c.7965881-.1054773 1.2559234-.195668 1.2559234-1.0089132v-4.783166c0-1.0975753-.4410229-1.5408857-1.484828-1.5408857-.8316869 0-1.7152587.3363044-2.3165149.7612709v5.5627808c0 .8132452.4410229.9034359 1.237611 1.0089132v.7979587h-4.6513421v-.7979587c.7782758-.1054773 1.2742358-.195668 1.2742358-1.0089132v-5.775264l-1.1841999-.7612709v-.4433104l2.8277352-.9202511zm11.7244952.0351591v7.8649373c0 .8132452.4776477.9034359 1.2727098 1.0089132v.7979587h-4.6849148v-.7979587c.7767497-.1054773 1.2727097-.195668 1.2727097-1.0089132v-5.8104231l-1.185726-.742927v-.4264952l2.8292613-.885092zm24.6866015-.0351591v2.9044472c1.0087064-2.1599916 1.5382391-2.8692881 2.669028-2.8692881.3204664 0 .5493711.1070059.6897659.2308271v1.9475083h-.3876118c-1.0972162 0-1.9289031.142165-2.9711821 1.2748994v4.3765434c0 .8484043.4242365.9034359 1.6267489 1.0440723v.7979587h-5.038954v-.7979587c.7782758-.1054773 1.2742358-.195668 1.2742358-1.0089132v-5.775264l-1.1842-.7612709v-.4433104l2.8109489-.9202511zm16.0050118.0351591v7.8649373c0 .8132452.4761216.9034359 1.2727097 1.0089132v.7979587h-4.6864408v-.7979587c.7798018-.1054773 1.2742358-.195668 1.2742358-1.0089132v-5.8104231l-1.185726-.742927v-.4264952l2.8292612-.885092zm14.6239538 4.6593447-2.0692978.79643c-.6531412.2476424-1.0239667.7261118-1.0239667 1.3987207 0 .9752828.4745956 1.5240704 1.3245948 1.5240704.6897659 0 1.1674136-.195668 1.7686697-.6191058zm-39.34718-3.6855906c-1.2727098 0-2.0341992 1.2580842-2.174594 2.6934926h4.1187573c0-1.6295477-.6516152-2.6934926-1.9441633-2.6934926zm-17.100702-4.6929752c.7798018 0 1.3444332.6022906 1.3444332 1.3284024s-.5646314 1.3284024-1.3444332 1.3284024c-.7950621 0-1.3612195-.6022906-1.3612195-1.3284024s.5661574-1.3284024 1.3612195-1.3284024zm40.6916133 0c.7798017 0 1.3429071.6022906 1.3429071 1.3284024s-.5631054 1.3284024-1.3429071 1.3284024c-.7950621 0-1.3627456-.6022906-1.3627456-1.3284024s.5676835-1.3284024 1.3627456-1.3284024zm-49.6326282-15.185673c.4089763 1.96432351 1.4695677 3.39514593 4.0836586 3.39514593h9.0661495c3.2245032 0 5.2251297 2.7821547 5.2251297 6.66952797h-.8561034c-.2456909-2.33272968-1.2666056-3.72380703-4.0027789-3.72380703h-9.1470291c-2.7773762 0-3.755562-1.39107735-4.5735145-4.13042967-.8164265 2.73935232-1.7961384 4.13042967-4.5719885 4.13042967h-9.14855511c-2.73617336 0-3.75556198 1.39107735-4.00277898 3.72380703h-.85610332c0-3.88737327 2.00062647-6.66952797 5.22818177-6.66952797h9.06309734c2.6140909 0 3.6746824-1.43082242 4.0836586-3.39514593z" fill="#01178a" fill-rule="evenodd"/></svg>