<svg height="44" viewBox="0 0 112 44" width="112" xmlns="http://www.w3.org/2000/svg"><g fill="none" fill-rule="evenodd" transform="translate(-2 -1)"><path d="m51.6747816 40.562371c.4317924 0 .7550943.094571.9742453.283713.2191509.1869927.3341509.4384657.345.7501202l-.6943397.0322401c-.0303773-.176246-.0933018-.3030572-.1931132-.3782841-.0976415-.0773763-.2430188-.1160644-.4404717-.1160644-.2017924 0-.3601886.0408375-.4730188.1246618-.0759434.0515842-.1106604.1225124-.1106604.2127848 0 .0795256.034717.1483045.1041509.2063367.0867925.075227.299434.1483046.6379246.2299796.3384905.0773763.5880188.1612006.7485849.2450249.1627358.0859736.2885849.1998887.379717.3481933.0933018.1461552.1410377.3288492.1410377.5459327 0 .1955901-.0564151.3782841-.1649057.5480821-.1106603.1719473-.2668868.2987584-.4665094.3847321-.1996226.081675-.4491509.1225124-.7485849.1225124-.4361321 0-.770283-.0967203-1.0024528-.2966091-.2343397-.2020381-.3732076-.4943485-.4187736-.8769313l.6769811-.0666295c.0412264.2278301.1215094.3933294.2451887.4986472.1280189.1053177.2950943.1569019.505566.1569019.2256604 0 .3927359-.0429868.5055661-.1375579.1128301-.094571.1714151-.2063367.1714151-.3331479 0-.0795256-.023868-.1483045-.0716038-.2041874-.0477359-.0580322-.1301887-.1074671-.2495283-.1504539-.0824529-.0257921-.2668868-.075227-.5554717-.1483046-.3732076-.0924217-.6357547-.2063368-.7854717-.3374466-.2126415-.189142-.3189623-.4191215-.3189623-.6899386 0-.1740966.0499057-.3374466.149717-.4857511.0998113-.1526033.2430189-.2686677.4296226-.3481933.1866038-.0795257.4122642-.1203631.679151-.1203631zm49.3111324.0859736v2.8177866h1.729339v.5760235h-2.423679v-3.3938101zm-10.1200003 0v2.8177866h1.7293396v.5760235h-2.4236793v-3.3938101zm-27.4546227-.0279414v.5781728h-1.8573585v.7587175h1.7271698v.5781729h-1.7271698v.9306648h1.9224529v.5760235h-2.6189623v-3.4217515zm8.2366038 0 .8722641 2.5319241.8418868-2.5319241h.7399057l-1.2346226 3.4217515h-.7399057l-1.2324528-3.4217515zm10.660283 0v3.4217515h-.6943396v-3.4217515zm29.8066982 0 1.38217 3.4217515h-.759434l-.301604-.7759123h-1.37566l-.284246.7759123h-.733396l1.338774-3.4217515zm-.373208.7974056-.466509 1.2702608h.937358zm-52.1644336-32.41206832c.080283.00644802.449151.0107467.449151.03009078.2321698.0623309.5185849.06877892.7898113.06877892h1.0328302c.2473585-.14400587 1.6360377-.06877892 2.0309434-.06877892.1171698-.04943486.3428302 0 .4816981 0 .1866038-.06662959.4903773.08167497.6856604.09457102.355849.02364275.7203773.00644802 1.0979245.00644802.1540566-.0623309.3883962 0 .5511321 0 .160566-.08167497.9916037.06877893 1.1413207.10531773l.4035849.07307761c.724717.18914204 1.3539623.50724457 1.8985849 1.03598256.1432076.1311098.2907547.2557716.3753774.4169722.0607547.0988697.0542453.2235315.0911321.3417453.0542452.1805447.195283.3804334.2799056.5459327.1670755.3438947.46.6662959.5316038 1.0402813.0325472.1740966-.0108491.3804334-.0108491.5609781h.1019812v-.0666296c.206132-.3610894.1866037-.4363163.5901886-.6555491.0282076-.0193441.1366982-.0945711.1366982-.0365388.1497169.0494348.4100943.1612006.551132.1783953.3753774.0580322.4925472-.1783953.8223585.1182138.3645283.3224012.4100944.8167497.5728302 1.2380206.115.3009078.2929245.5932182.3623585.9091714.0585849.2321289.0065094.5373354.0781132.7501202.0390566.1289605.0716038.3352972.1475472.447063.1128302.1483045.2733962.2987584.3471698.4621084.0238679.1547526.0499057.3095052.0716038.4642577.1171698.3181026.2451886.6533998.3493396.9779504l.0781132.3546413c.0499057.2063368.1475472.434167.2278302.6276077.080283.2063368.1280189.4427643.1866038.6555491.1019811.3288493.2777358.6662959.3883962.9951451l.2148113.535186c.1410377.1869927.3298113.2428756.5185849.3481933.1171698.0687789.2929245.1676486.4426415.1676486.2148113-.1783953.7659434-.1418565.885283-.4083748.0737736-.1612006.0477359-.4234203.0412265-.610413v-1.3820265c.0130188-.1547526.0216981-.3116545.0325471-.4685564-.0043396-.2299796-.0043396-.4599591-.010849-.6899386.010849-.1418566.1084905-.2557717.115-.4298683 0-.6147116 0-1.2272739.0043396-1.8419856-.0043396-.3417453-.0108491-.6791919-.0108491-1.0209372-.0390566-.2880117-.3818868-.2557716-.5901886-.3610893-.23-.1117658-.345-.2665183-.414434-.4921992-.045566-.1676486-.0216981-.3976281.0585849-.5459327.069434-.075227.1475472-.1590513.2234906-.2321289.5164151-.3911801 1.2932075-.1182138 1.9354717-.1182138.4469811-.2170834 1.0133019-.0752269 1.4798113-.012896l.7529245.0193441c.149717.0236427.3037736.0580322.4534906.0816749.2907547.0042987.5901887.0042987.8874528.0107468.0933019-.0408375.2343396-.068779.345-.068779.0846227-.0386881.2451887-.0300908.3428302-.0300908.5836792 0 .6314151.2987585.9286792.6297571.115.0752269.2430189.1483045.3645283.2170835.2495283.1740966.4708491.4363163.5858491.7092826.1974528.4750045.1866038 1.0273852.1866038 1.605558 0 .1676487.010849.3825828-.0260378.52229-.1063207.3761348-.3775471.6856399-.69.9414115-.0520754.0365388-.3688679.2557717-.4209434.2557717 0 .0365388-.0130188.0601815.0390566.0601815.0889623.1612006.2929246.2686677.4361321.3739854.1822642.16335.3601887.3309986.5424529.5007966.2083018.2170835.4231132.5394847.5077358.8146004l.0390566.4234202c.0130189.1031684.0716038.2041875.0716038.3288493-.0216981.1354085-.0455661.2665183-.0716038.3997775-.0086792.1182137-.0216981.2428755-.0260377.35894-.0260378.1612006-.1649057.3181025-.1649057.4986472h.0412264l.1670755.0322401c.1822641-.1612006.3883962-.2493236.46-.5072446l.0216981-.5824715v-1.3497864c0-.8167497.0043396-1.6249021.0043396-2.4416518.0086793-.1504539.0716038-.2622197.0846227-.3997775-.0043396-.1160645-.0043396-.2364276-.0130189-.3610894l.0390566-.3911801c-.0021698-.1160644-.016816-.2229942-.0358019-.3266999l-.0618396-.3073558c-.0130189-.0924217-.0303774-.1891421-.045566-.2858624-.0650944-.2192329-.6617925-.16335-.7898114-.4191216-.0368868-.075227-.1692452-.6039649-.1649056-.7092827.0216981-.2665183.2668868-.5910689.5728302-.5910689.2668868-.1418565 1.1565094.0064481 1.4798113.0257921l1.1977358.0042987c.1649057 0 .3862265-.0171947.5207548.0343895.195283.0666296.3189622.1719473.4534905.3159532.1757547.1869927.2799057.3288492.2560378.6039649-.0130189.1053177-.0737736.1612006-.1019812.2407262-.1063207.2192329-.2538679.3739854-.5099056.4320177-.2321698.0558828-.6856604-.0386882-.7833019.2041874-.0585849.1311098-.0412264.3546413-.0412264.5093939v1.2208259c0 .6727439 0 1.3454877-.0043397 2.0117836 0 .1676486-.0737735.2815637-.0737735.4298683.0086792.1117657.0650943.2063367.0607547.3288492-.0216981.4599591-.1193396.8468405-.1193396 1.3196956 0 .2299795.0173584.5050952.1193396.6834906.0043396.0150454.0130188.0279414.0260377.0365388.1432076.1934407.8158491.1397072 1.0957547.1397072l.2386793-.0386882c.2994339-.1740966.7572641-.0236427 1.1066037-.006448.2451887.006448.494717.006448.748585.006448.1106603-.0558828.2213207-.1160644.3341509-.1805446.3233019-.2428756.5359434-.5781729.759434-.8898274.0629245-.094571.1909434-.1676486.2169811-.283713.0412264-.2084862-.195283-.4814525-.2516981-.6619972l-.0585849-.2428756c-.0260378-.0644802-.0499057-.1246618-.0846227-.182694l-.0368868-.3546413c-.0347169-.1289605-.1019811-.245025-.1193396-.4040762.0086793-.4664071.0086793-.9371129.0086793-1.4121173.0130188-.1354085.0759434-.2428756.1106603-.3675374.0108491-.1182138.0282076-.2364275.0455661-.3546413l.115-.2127848c.2191509-.5631275.6140566-1.3325917 1.0501887-1.7796547.0976415-.1053177.2451886-.1418565.355849-.2471743.2213208-.2063367.4100943-.4556603.6617925-.6104129l.5424528-.1869927.1780287-.0702921c.0894656-.0337361.1834619-.0608178.2993298-.0608178.2126415-.1311098.505566-.1697979.7898113-.1697979.2278302-.1397072 1.529717-.1182138 1.8551887-.0859737.0846226.0257921.1649056.0451362.2473585.0687789.2017924.0171948.4100943.0451362.6183962.0623309.160566.0300908.325472.068779.486038.1074671.318962.0537335.611887.0472855.878773.1740967.160566.1225124.321132.2493236.490378.3739854.585849.4040762 1.067547.9027234 1.419056 1.4916429.145378.2686677.279906.5373354.425283.8038537.147547.2622196.431793.5910689.503397.8726326.060754.2299795.017358.5330367.026037.7823603.00868.2579209.071604.4986472.080283.7608668-.021698.0988697-.045566.1998888-.067264.2987585-.013019.1740966-.021698.3481933-.026038.5201406-.034717.3331479-.186603.6791919-.34283.9543076-.160566.3009078-.381887.5781728-.525094.8855286-.034717.0558829-.11934.1418566-.11934.2106355l-.075943.2536223c-.132359.2557716-.355849.5007965-.57283.704984-.34717.3245505-.737736.4556603-1.160849.6469517-.34717.1612006-.685661.3546414-1.054529.4814525-.4252827.1354085-1.5774525.2213822-2.0851884.1418565-.2386792-.0816749-.4838679-.1569019-.7290566-.2321288-.1583962-.0236428-.3146226-.0429869-.470849-.0666296-.4795283-.1268112-1.173868-.3804334-1.5817925-.6555491-.2733962-.1848434-.494717-.4771538-.7312264-.7092827-.0130189-.0107467-.4035849-.4040762-.4035849-.2364276-.3862264.4621084-.4361321 1.063924-.8527359 1.5260324-.0759434.081675-.1562264.1783954-.2625471.2170835-.1432076.0494349-.3384906.0322401-.5077359.0365388-.5337736.0386882-1.160849.0279415-1.7206604-.0042987-.1518867-.0279414-.3167924-.0494348-.4795283-.0709282-.2148113-.0171948-.4057547.0709282-.6487735.0752269h-2.6862265c-.2625471 0-.6140566.0773763-.8418868-.0322401-.2929245-.1397072-.355849-.4578097-.355849-.7565682h-.0390566v-.0365388c-.1735849.1311098-.3515094.2557716-.5250944.3782841-.2929245.1934407-.6683018.3503427-1.0284905.4255696-.1475472.0107467-.2907547.0214934-.4404717.0279414l-.5511321.1139151c-.2256604 0-.4534906.0064481-.6856604.0064481-.3059434-.0386882-.6183962-.081675-.9286792-.1203632-.3167925-.006448-.6422642-.0107467-.9590566-.0107467-.3319811-.0322401-.6834906-.1182137-1.035-.1246618-.2169811 0-.4317925.0064481-.6531132.0064481-.1366981.0365388-.2777359.0687789-.414434.101019l-.6509434.0537335c-.1410377 0-.2972641-.0042986-.4122641-.0365388-.0911321-.0322401-.1887736-.107467-.3059434-.107467-.1301887.0365388-.253868.0709282-.3818868.101019-.2083019.0171947-.5142453.0236428-.7203774-.0042987l-.2799056-.0967203c-.1562265-.0300908-.345.006448-.5120755.0150454-.2668868-.0085974-.5272642-.0150454-.7919811-.0257921-.1627359.0107467-.2799057.107467-.4469812.1117657-.3840566.0236428-.954717-.1375578-1.1283019-.4728551-.2017924-.3739854.4534906-1.0015931.7637736-1.1713911.0846227-.0429868.4686793-.1547525.4686793-.2536223-.0130189-.113915-.0672642-.2256808-.1193397-.3374466-.0173584-.1053177-.0303773-.2106354-.0499056-.3095051-.0716038-.1934407-.2017925-.4126736-.2473585-.616861-.045566-.1869927-.0260377-.3309986-.1866038-.4621084-.3580188-.2923104-1.3626415-.0666296-1.8703773-.0730776-.1475472 0-.2582076-.0687789-.3862265-.1010191-.1388679-.0365388-.3536792-.0558828-.5077358-.0365388-.1106604.0107468-.1887736.0580323-.2538679.1375579-.1887736.2600703-.2582076.6211597-.3558491.9306648-.1171698.2450249-.2386792.4943485-.355849.7436721-.0151887.0322402-.0216982.1117658 0 .1418566.0564151.1311098.2256603.1998887.3341509.2794144.3319811.2579209.6314151.5975169.6249057 1.0166384 0 .0924217 0 .2192329-.0520755.2794144-.2538679.2837131-.8440566.4363163-1.2519811.4040762-.3319812-.0558829-.6617925-.1096164-.9916038-.1740966-.1518868-.0064481-.2864151.0644802-.4166038.0752269h-.7919811c-.2777359-.0300908-1.0957547-.623309-1.0957547-.9070221.0325471-.1268111.0650943-.2450249.091132-.3696867.1081434-.8088401.5000357-.827039.8902676-.7868667l.1663085.0186556c.246814.0269394.4760919.0347699.6120088-.1710511.0499057-.088123.0499057-.1998887.0911321-.3009078.0824528-.2493236.1670755-.5093939.264717-.7587175.0368868-.0924217.0846226-.1848433.1280189-.2858624.0216981-.0752269.0412264-.1547526.0542453-.2364276.1887735-.459959.4469811-.9091714.6357547-1.3755784.010849-.0279415.010849-.1225125.0585849-.1225125.115-.3266999.2972641-.6598478.4317924-.9843984.0585849-.1440058.2473585-.3266999.2365095-.4986472 0-.0451361-.034717-.101019-.0846227-.101019-.3319811.4427643-.8766038.6619971-1.3648113.8855286-.3233019.1440059-.6270755.2794144-.9785849.3933295-.0846226.0300908-.1627359.0601816-.2386793.0859737l-.8896226.0386881c-.2603774.0236428-.505566.1354085-.7984906.1418565h-.9221698c-.3623585-.012896-1.2064151-.1311098-1.4646226.1182138-.2343396.2299796-.0520755.6533998-.0520755.9779504v1.083268c0 .1912914-.0260377.4556604.0368868.610413.1909434.453511.5728302.3675374.9872642.4728551.2603773.0666296.5316037.264369.6487735.5029459.0846227.1805447.2083019.7028346.1627359.9156194-.0325472.0687789-.0650943.1375579-.0954717.2127848-.4448113 1.057476-2.0331132.6125623-2.9466038.515842-.0976415-.0128961-.1779245.0365388-.2733962.0365388.0260377.0580322.0390566.0601815.0390566.0988697.2929245.1397072.5207547.3374466.7724528.5373353.299434.2342782.6292453.4793031.8961321.7630162.4469811.4685564.7854717 1.0230865 1.0762264 1.5625712.0325472.0644803.1236793.1998888.2126415.1998888.1323585-.0924217.2799057-.1483046.4426415-.1612006.2386793-.0064481.5120755.006448.7203774.0429868.1410377.0257921.2972641.0730776.4534906.081675.4404717 0 .8896226.006448 1.3366037.006448.1866038 0 .4469812-.0236428.6053774.0386881.1670755.0666296.6010377.5072446.6010377.6834906-.0195283.0924217-.045566.1783953-.0650943.2665183-.1735849.9478596-1.0957547.3352973-1.3235849.8360938-.0520755.1117658-.0781132.3761348-.0585849.5093939.0130188.0988698.0585849.1869928.0650943.3052065v1.579766c0 .2063367-.0650943.3610893-.1106604.5373353l-.0173584.4857512c0 .1676486-.0111591.7356011-.0152014 1.3392527l-.00144.403722c.0000258.6683475.0138516 1.2807392.066547 1.3370315.195283.2235315.7008491.1805447 1.0133019.1805447.1106604-.075227.2929245-.0924217.4469811-.0924217.2148114-.094571.6292453-.0193441.8570755-.0085974.3233019 0 .6400943 0 .965566.0085974.2017925-.1375579.3883963-.257921.5706604-.4427643.3189623-.3352973.5077359-.9457103 1.0762264-.9457103.1366981-.0730776.2799057-.0386881.4100944.0064481.7594339.2428756.0390566.8017043.0390566 1.1133588l.0325471.0386882c.2473585-.0494349.5576416-.0386882.8245283-.0386882.1084906-.0687789.2278302-.0924217.3189623-.1869927.1735849-.1869927.1475472-.4234202.2256604-.6576985.0260377-.0580322.0520755-.107467.0781132-.1569019.0824528-.2127848.1280189-.4363163.2126415-.6405037.3645283-.8661846.7485849-1.7194731 1.1369811-2.5727617.0954717-.2041874.1931132-.440615.2907548-.6469517.0716037-.1418566.1757547-.2987585.2278301-.4535111.0108491-.0709282.0303774-.1440058.0455661-.2127848l.1171698-.2192328c.0564151-.277265.069434-.5631274.2017924-.812451.1866038-.3632387.4187736-.7028347.6140566-1.057476l.058585-.2256809c.0325471-.1139151.1562264-.2600703.2343396-.3546413.2516981-.2751157.7637736-.4750044 1.1543396-.4750044.0846226-.0107467.1627358-.0171948.2386792-.0279415.4556604-.1654993 1.035.515842 1.035.8898274h.034717c.0976415-.1375579.2104717-.2385769.345-.2858624.3493396-.1139151 1.0458491-.0386882 1.4385849-.0386882.2430189 0 .4448114-.101019.6574529-.1311098.240849 0 .4816981.006448.7203773.006448.1301887.0300908.2516981.0687789.3818868.0988697.3775472.0709283.7399057.0257921.9286793.35894.1627358.2880118.0130188.7694642-.1931132.9586063-.1779246.1654993-.5077359.2321289-.4773585.5437834.0347169.3288492.3970754.5652768.5337735.8403925.2582076.5029458.5142453 1.0273851.7225472 1.5496751l.0759434.3417453c.115.182694.23.3675374.3428302.5502314.1236792.2600703.2430189.5158419.3645283.7759122l.2126415.3739854c.115.2364276.2148113.5910689.4317925.7544189.0216981.019344.0433962.0300908.0672641.0429868.1063208.0386881.2213208-.0193441.2842453-.081675.1193396-.1160644.1692453-.3052065.2430189-.447063.1475471-.3116545.2690566-.6662958.46-.9650543.2083019-.3417453.3645283-.6963866.5424528-1.0574759.275566-.5480821.6249057-1.0789694.839717-1.6442462.1475471-.3933295.5511321-.8038537.5641509-1.2659621-.0043396-.1182138-.0173585-.2342782-.0260377-.3546413-.0368868-.0666296-.0846227-.1354085-.1236793-.2106355-.0716037-.1289605-.1301886-.2665183-.1800943-.4105242-.0303774-.0730776-.1106604-.1805447-.1106604-.2729664.1866038-.1612006.2148113-.3481933.4773585-.4492123.3146227-.1268112 1.2715094-.0128961 1.5861321.0386881.2582075.0107467.5250943.0193441.7833019.0300908.149717.0257921.2885849.0988697.425283.1311098.5120755.0257921 1.0198113.0580323 1.5318868.088123l.2083019-.0386881c.0303773-.006448.0564151-.006448.0716037-.0128961.368868-.0623309.7681133.0515842 1.1283019 0 .2278302-.0300907.3905661-.2364275.6270755-.2493236.1366981-.012896.2365094-.0171947.3428302-.0300907.1583962-.0730776.6791509-.0386882.8939623-.0386882.1627358-.1053177.5467924-.1117657.7550943-.0795256.115.0322401.2321698.0687789.3471698.101019l.5142453.0171948c.1084906-.0494349.7182075-.1440059.7182075-.2299796.2799057.0666296.5533019.1440059.8310377.2170835.475189.0429868.987264-.0171947 1.432076.0623309.305943.0580322.644434.1998888.91566.3181025l.80066.3481933c.483868.2686677.848397.7028347 1.180378 1.1262549l.214811.2600704c.075943.1268111.542453.6061142.542453.6985359h.067264l.039057-.0300908c-.00868-.1783953-.00868-.3546413-.017359-.528738l-.075943-.3675373c-.017359-.0795257-.013019-.1934408-.062925-.2557717-.234339-.2794143-.857075-.1783953-.933019-.6340557-.054245-.3073558-.030377-.7092826.212642-.8962753.101981-.081675.253868-.1010191.388396-.1375579.407925-.1182138 1.26066-.1289605 1.716321-.0687789.351509.0343894.68349.1182138 1.074056.1182138.266887-.1848434 1.245472-.0988697 1.646887-.0988697.238679-.0859737.759434.0924216 1.030661.0924216h1.169528c.182264-.006448.312453-.0859736.479528-.0795256.108491.0236428.214811.0472855.312453.0730776.258208.0300908.525094 0 .707358.1612006.288585.2622197.167076.7909577.221321 1.1649431.041227.2880117.219151.7716135.026038 1.0510279-.182264.2493236-.492547.3739854-.839717.2751157-.427453-.1160644-.627075-.7716136-1.013302-1.0209372-.080283-.0558828-.22349-.1117657-.33849-.1182137-.826699-.081675-1.768397-.0515842-2.64934-.0515842-.253868 0-.661793-.0537336-.876604.0386881-.084623.0386882-.186604.2364276-.199623.3288492-.080283.3825828-.021698.8790807-.021698 1.2831569 0 .1504539-.013018.3546413.026038.4814524.039057.1096164.130189.2493236.23217.3159532.23434.1676487 1.772736.0924217 2.18283.0924217.251698-.1096164.635755.0128961.887453-.0859737.091132-.0386881.188774-.0687789.262547-.1375578.11283-.1031684.164906-.2600703.23651-.3976282.156226-.2944597.499056-.3116545.805-.2364275.436132.1053177.475188 1.0252358.538113 1.4121173.034717.0924217.062924.1805447.093302.2686677.004339.0859736-.054246.1676486-.080283.2364275-.039057.1182138-.030378.2858624-.026038.4234203.00217.102631.022376.2106354.045566.3202854l.045897.2203896c.047782.2571038.057169.5096365-.163067.7102417-.266887.2428755-.796321.1977394-1.080566.0107467-.355849-.2299796-.314623-.7028347-.644434-.956457-.182264-.1440058-.631415-.0687789-.889623-.0816749-.555471-.0386882-1.165188-.1547526-1.783584-.1182138-.23434.0107467-.479529.1569019-.687831.1569019 0 .3847321.00868.7694642.00868 1.1563457.013018.1740966.084622.3116545.084622.4921992 0 .2923104-.11717.6104129-.071604.8898273.017359.0924217.097642.16335.160567.2256809.162735.1461552.416603.1912914.640094.2213821.377547.0064481.759434.0128961 1.136981.0128961.384057.006448.765943-.006448 1.169528 0 .34717.006448.835378.0386881 1.113114-.1246618.501226-.2901611.514245-1.1133589 1.03066-1.2874555.093302-.0386882.253868-.0386882.364528-.0257921.791981.0451361.423113 1.246618.386227 1.6700382-.026038.3030572.036886.68564-.056415.9500089-.151887.4298683-1.054529.4621085-1.495.4298683-.11934-.0171947-.23-.0365388-.338491-.0601815l-.453491.0924217c-.279905 0-.551132.006448-.822358.006448-.253868-.0171948-.509906-.0322401-.759434-.0515842-.097642-.0107467-.195283-.0666296-.314623-.0730776l-1.197736-.0064481c-.195283-.012896-.390566-.019344-.585849-.0236427-.253868.0042987-.499056.0795256-.729056.1096164-.262547.0322401-.57934-.0171947-.854906-.006448-.271226.0193441-.670472.0988697-.954717.0257921-.368868-.1053178-.716038-.603965-.640094-.9886971.026038-.0623309.060755-.1246618.086792-.1869927.010849-.0451361.010849-.1805446.062925-.1805446v-.0365389h-.097642c-.318962.5029459-.978585.7587176-1.466792 1.0381319-.134528.075227-.271227.1483046-.401415.2170835-.175755.0515842-.416604.0257921-.607547.0451362-.151887.012896-.321133.0666296-.477359.1053177-.310283.068779-.620566.2299796-.972075.2428756-.266887.006448-.5120759-.0494348-.7442457-.1246618-.1019811-.0300908-.1909434-.0859737-.3189623-.1053177-.4100943-.0515842-.8896226.0472855-1.2715094.0558829-.2668868-.0257921-.5250943-.0558829-.7919811-.088123-.1996227-.0064481-.4751887-.0236428-.6574529.0257921-.1866037.0429868-.3341509.1246618-.551132.1483045-.2582076.0386882-.5554717-.0601816-.7919812-.0795256-.1301886.006448-.2712264.019344-.4057547.0236427l-.345-.0752269-1.885566-.0365388c-.2234906.0193441-.4621698.1483045-.6813208.101019-.1562264-.0322401-.2885849-.1461552-.3992453-.2622196-.0976415-.1182138-.195283-.4535111-.195283-.6362051 0-.1246618-.0043396-.3030571.034717-.4083748.195283-.4685565 1.1478302-.3073559 1.219434-.68564l.0216981-.623309v-1.4508054c0-.52229.0390566-1.0402812.0303773-1.5797659-.0043396-.4169723-.0520754-.8769313-.0303773-1.3196957.0130188-.2923104.1236792-.55453.1562264-.8597365.0216981-.2557716-.0151887-.5910689-.2495283-.7286268-.1518868-.0924216-.9395283-.0752269-.9395283-.3567906-.1866038.0580322-.4383019.1719473-.5511321.3331479l-.2343396.5781728c-.0629245.1182138-.1301887.2428756-.195283.3675374l-.1735849.2450249c-.0933019.2020381-.1301887.4384657-.219151.6512505-.1909434.447063-.3862264.8962753-.5728302 1.3433383l-.2104717.3739854c-.2169811.4234203-.4209434.8360939-.6531132 1.24017-.0650943.075227-.1280188.1547526-.195283.2299796-.0976415.1612006-.1996226.3245505-.3016038.4921992-.1106603.2235315-.1996226.4793031-.2885849.7157306-.0325471.0795257-.0585849.1612006-.0846226.2428756-.0716038.1225125-.1388679.2557716-.2104717.3847321-.0130189.1612006-.034717.3159532-.0564151.4814525-.0542453.2407262-.275566.7092827-.4990566.8511392-.1366981.088123-.2712264.1117657-.4317925.1612006-.1583962.0515842-.3276415.1182138-.5229245.0924217-.69-.0730776-.8093396-.7630162-1.0198113-1.2573647-.1280189-.1676487-.2473585-.3417453-.379717-.509394-.1041509-.1869927-.1410377-.3976281-.2061321-.6147116-.1041509-.3309986-.2538679-.6920879-.4426415-.9779503-.091132-.1375579-.275566-.2557717-.355849-.3997775-.0325472-.0859737-.0585849-.1805447-.0933019-.2686677-.2039623-.365388-.4578302-.7372241-.6335849-1.1305536-.0954717-.2192328-.115-.5373353-.2321698-.7415228l-.2733963-.4964978c-.1497169-.2493236-.3775471-.4879005-.4925471-.7544189-.0455661-.107467-.1171698-.2493236-.1432076-.3546413-.0650943-.2428756-.0216981-.4492123-.1887736-.6340557-.1540566-.182694-.9069811-.3503427-1.1825471-.3503427v.0386882c-.0303774.3868814.0151886.982249.1649056 1.2702608.0824529.1547525.2386793.2751157.3233019.4212709l.1757547.3911801c.2083019.5437834.3233019 1.1477483.4816981 1.7022784.0130189.0494348.1345283.4664071.1345283.4664071.1887736.4341669.3298114.887678.518585 1.3110982.091132.2127848.1301886.5136926.2668867.7006853.173585.2342782.4296227.2987585.6683019.4212709.2451887.1332592.3558491.3052065.4730189.5308874.0260377.0601815.0781132.4642577.0325472.4642577-.1366981.3138039-.3233019.5373354-.6683019.6684452-.2911164.1074671-.6425053.1209004-1.0064509.122393l-1.4910019.0001195c-.2907548 0-.6183963.0623309-.8896227-.0236428-.2256604-.075227-.5554717-.3739854-.6531132-.5846209-.034717-.0687789.0303774-.189142.0499057-.2493236.0781132-.2729663.1909434-.4793031.4274528-.6555491.1757547-.1225125.6487736-.2794144.7203774-.4771538.0781132-.2256808-.1280189-.6856399-.2104717-.8919767-.0477359-.1225124-.1128302-.2600703-.1518868-.3847321-.0433963-.1182138-.0325472-.264369-.1236793-.3546413-.115-.1375579-.2582075-.1891421-.4469811-.2192328-.2538679-.0365388-.7138679 0-.9916038.0257921-.1041509.019344-.2083019.0365388-.3124528.0623309-.3298113.006448-.9156604-.3159532-1.1803774-.1418566-.0911321.0537336-.1887736.1848434-.2386792.2772651-.0846227.1569019-.0911321.3309985-.1583962.5072445-.1171699.3095052-.2603774.6211597-.3949057.9263662-.0325472.0623309-.1236793.1375578-.1236793.2041874h.0390566c.3840567.0451362.9221699.2686677 1.0632076.610413.0520755.1311098.034717.3546413.034717.5115432-.0130189.1977394-.0846227.4105242-.23.535186-.3623585.2923105-.8874529.3782841-1.4190566.3030572-.2083019-.0300908-.4209434-.1031684-.655283-.1117658-.3905661-.006448-.6552831.156902-1.0328302.1461552-.3298114-.0150453-.6032076-.1633499-.8874529-.2514729-.1041509-.0365388-.2668868-.0107467-.3493396-.0924217-.0911321-.0752269-.2017924-.3675374-.2017924-.4986472-.0455661 0-.0737736-.012896-.0737736.0365388-.1931132.2192328-.2885849.5846209-.6205661.6727439-.4534905.1182138-1.0892452.1612006-1.6078302.1053177-.3580188-.0365388-.7681132-.1483046-1.1369811-.1354085-.195283.006448-.3753773.0494348-.5901887.0494348-.4339622 0-.8440566-.0494348-1.265-.012896l-.4860377.0924217c-.2777358.012896-.5316038-.1031684-.8245283-.1031684l-.3363208.0171947c-.1301886.0322401-.2538679.1053178-.4166037.0859737-.1800944-.0193441-.414434-.2020381-.4925472-.35894-.0650943-.1246618-.0390566-.2923105-.0520755-.4492124-.0390566-.453511.1627359-.7092826.5836793-.8339444.160566-.0494349.3254717-.0730777.4014151-.2364276.125849-.2622197.1822641-.8038537.149717-1.1327029-.0043397-.1418566-.1019812-.2686677-.1106604-.4298683l.0195283-.4921992c.0260377-.0795256.0607547-.1612006.0911321-.2342782-.0043397-.1440059-.0043397-.2880117-.0043397-.4298683 0-.0386881.0130189-.0644802-.0412264-.0644802v-.0365388h-.1345283c-.045566.6856399-.4621698 1.2251246-.7399056 1.7947-.1627359.3159532-.3254717.6405038-.4925472.956457-.4816981.623309-1.265.9607556-1.9137736 1.3325916l-.8570755.6340558c-.2191509.088123-.46.1182137-.7073585.1504539l-.4100943.0365388c-.0889623.0300907-.1866038.0623309-.2842453.0924216l-.4014151.0365388c-.1301887.0386882-.2538679.0709283-.3840566.1010191-.3363207.0451362-1.1348113.0386881-1.4776415 0-.195283-.0236428-.3710377-.075227-.5511321-.1053177l-.4426415-.0365388c-1.6664151-.2987585-3.1332075-1.0832681-4.3070755-2.2783019-.1562264-.2041875-.3037735-.4191216-.4621698-.623309-.1019811-.1547526-.2582075-.2966092-.3688679-.4535111-.1540566-.2192328-.2516981-.459959-.3623585-.6985359-.0716038-.1483046-.149717-.2966091-.2213207-.447063-.0911321-.3052065-.1952831-.623309-.2733963-.9220675-.0368868-.1375579-.0368868-.2923104-.0846226-.4169722-.1931132-.4964979-.4730189-.9715024-.5619811-1.5238831-.0282076-.0902723-.0520755-.176246-.0781132-.2686677-.0086793-.1139151.0629245-.2299795.0889622-.3288492.0216981-.1074671.034717-.2127848.0520755-.3181025.0520755-.1912914.1692453-.4126736.2213207-.610413.0846227-.3116545-.0390566-.7221787.0520755-1.0381319.0585849-.2063368.2473585-.3976281.3818868-.5738741.2733962-.3675374.6162264-.7264774.8375472-1.1262549.1106604-.1998888.1041509-.4427644.2343396-.6297571.115-.1676486.6813208-.447063.8679245-.5781728.1822642-.1246618.2017925-.3761347.2733963-.5588288.0976415-.2514729.2668868-.5867702.5836792-.629757.1301887-.0257921.2538679.0236428.3688679-.0085974.253868-.0644802.4665095-.1547525.759434-.1547525.1366981-.0924217.3254717-.1354086.5185849-.1354086l.2278302-.025792c.0976415-.0236428.195283-.0429869.2864151-.062331.5250943-.0408374 1.0436792.0236428 1.5817924.0236428.1366981-.0558829.3840566-.0279414.5511321-.0279414.1366981-.0644803.9612264.0042986.9612264-.1010191-.0520754-.4234202.1670755-.9285155.5706604-1.1284042.3189623-.1547526.655283-.1375579.8961321-.434167.1800943-.2192328.0824528-.9843983.1215094-1.3390397.0216981-.1783953.1106604-.3352972.1236793-.528738 0-.2299795-.0065095-.459959-.0065095-.6920879-.0260377-.1483045-.1041509-.2966091-.1171698-.4664071v-1.7130251c.0065094-.277265.104151-.5695754.1236793-.8575872.0065094-.2987584.0065094-.5889195.0065094-.8898273.0195283-.5029459.0477358-1.0316839.0520755-1.5518245.0260377-.1182138.0520754-.2407263.0716037-.35894v-.8231978c-.0130188-.0924217-.0585849-.1483046-.0976415-.2278302-.1041509-.2256808-.206132-.3546413-.4795283-.4105242l-.2842453-.0580322c-.4100943-.1483046-1.0263207-.8704833-.805-1.34978641.1345283-.30520648.4209434-.47930313.6466038-.72217871zm36.0731132 18.98943132c-.1063207.1461552-.2712264.2471742-.4578302.2751157-.2495283.0515842-.6140566.006448-.6834905.2944597-.0672642.2127848.0065094.4900499-.0065095.7157307-.0216981.4040762-.0130188.8833793 0 1.2874555-.0086792.1311099-.0130188.2622197-.0130188.3911802.0260377.1397072.0499056.2686676.0846226.3997775-.0086792.176246-.0086792.3481933-.0086792.5222899l.0216981.3009078-.0976415.3976282c-.0564151.4664071-.0130189.9564569-.0130189 1.4185653 0 .2450249-.034717.5609781.0260377.7780616.0759434.2880117.2950944.5738741.6270755.5975169.3428302.0257921.8180189-.012896.9742453-.3052065.0086792-.012896.0130189-.0300908.0216981-.0494348.0759434-.1805447-.0477358-.4040762-.080283-.5674262-.0130189-.1483045-.0303774-.3052064-.0477359-.453511-.0043396-.3675374-.0043396-.7307761-.0043396-1.0918654 0-.4019269 0-.8103017.0043396-1.2186766l-.0390566-.2213822c.0260378-.2385769.0564151-.4685564.0867925-.7006853.0368868-.1719473.1084905-.3546413.1084905-.5631274 0-.2385769-.1735849-.3868815-.1475471-.623309.0130188-.1182138.0976415-.1998888.1301887-.3052065.0564151-.2127848.0433962-.623309.0130188-.8489899-.0325471-.2149341-.3167924-.3546413-.4990566-.4298682zm2.8858491.0322401c-.0629245.0580322-.3081132.1397072-.3081132.1998887-.0564151.1074671-.0086793.2987585-.0086793.4234203-.0043396.3503426-.0216981.7286267-.034717 1.0897161-.0130188.5093939-.115 1.063924-.115 1.5797659 0 .339596-.0195283.6555491-.0130188.9972944.0043396.2170835.0173585.434167.0303773.6555492-.0043396.3546413-.0043396.7028346-.0043396 1.0488786.0043396.1246618.0889623.2084861.0976415.3374466.0130189.1869927-.0130188.5781728.0759434.6963866.1779245.2192328 1.783585.2256808 2.137264.182694.130189-.0386881.266887-.075227.401415-.1139151.223491-.1246618.453491-.2536223.674812-.3782841.308113-.1740966.68566-.3245505.91783-.6039649.301604-.3675374.292924-.9650543.353679-1.4637015.036887-.1440059.071604-.2880118.108491-.427719l.021698-.7630162.075943-.466407c.021698-.1740967-.058585-.3546414-.071604-.5201407l-.039056-.4879005-.876604-1.2487673c-.11066-.1074671-.34717-.169798-.494717-.2256809-.327642-.1182137-.69217-.2880117-1.048019-.3610893-.199623-.006448-.401415-.0171947-.6097169-.0257921-.4274528-.0429868-.8223585-.1246618-1.2715094-.1246618zm-41.124434-3.3293298-.3363207.0558828c-.345.0838243-.6878302.16335-1.0263208.2686677-.505566.1547526-.9286792.5588288-1.2584906.9521583-.5576415.642653-1.0501886 1.3025008-1.2389622 2.1213999-.0585849.2385769-.0455661.6813412-.0065095.9156195.0325472.0924216.0650944.1869927.0976416.2751157.0130188.1311098.0325471.2536222.045566.3868814.0260377.0988697.0889623.1912914.1019811.3009078.0151887.1397072.0216981.2815637.0282076.4255696.0368868.1289605.0759434.2665183.1084905.3976282.0130189.2493236.0195283.5050952.0282076.7544188.010849.0859736.0759434.1740966.0954717.2428756l.0607547.2407262c.2061321.4943485.5489623.8532885.9590566 1.2423193.2321698.2213822.4730189.4642578.724717.6512505.4469811.3438946 1.0783962.5158419 1.6490566.6469517.1019811.0322402.2061321.0623309.3167924.0945711l.7854717.019344.7854717-.019344.3254717-.0945711c.115-.0300907.2516981-.0300907.3623585-.0752269.3753774-.1461552.7073585-.4040762 1.0501887-.6125623.1562264-.1010191.345-.176246.4730189-.3138038l.125849-.2536223c.1605661-.2880118.4057547-.5695755.4968868-.8790807l.0390566-.5222899c.034717-.0988697.0716038-.1998888.1063208-.2987585.0260377-.2299795.0433962-.4621084.0629245-.6920879l.104151-.427719c0-.1311098-.0065095-.2622196-.0130189-.3911801 0-.4255696.0195283-.8855286-.0650944-1.2595141l.0390566-.3245505c-.0585849-.3481933-.3428301-.6598478-.4925471-.9715023-.3949057-.8274965-.9482076-1.6098567-1.7900944-2.0784132-.091132-.0236427-.1757547-.0494348-.2603773-.0687789-.104151-.0494348-.2017925-.0924217-.3059434-.1354085-.1931132-.101019-.3363208-.3009078-.5381132-.3933295-.4469812-.2063367-1.0892453-.1805446-1.6403774-.1805446zm20.8714151 4.5823958v.0386882c-.1366981.0472855-.2799056.1483045-.3645283.2665183-.0520755.1117658-.1041509.2170835-.1627358.3309986-.0173585.1182138-.0390566.2342782-.0650944.3546413-.0759434.1848434-.1627358.3782841-.2386792.5652768-.0282076.1182138 0 .2751157.0759434.3546413.149717.1504539.4925471.0988697.7225471.0988697.1280189-.0494348.8223585.0365388.8223585-.0623309.1171698-.371836-.3623585-1.063924-.5012264-1.3927732l-.0954717-.3804334c-.045566-.075227-.115-.1268112-.1931132-.1740967zm-20.6327358-.4921992c.2083018.0064481.4166037.0064481.6183962.0128961.4665094.0752269.8679245.4169722.815849.9091714-.010849.1311098-.0759434.2235315-.1019811.3331479-.0650943.2686677-.1041509.5072446-.3775472.6297571-.2148113.0924216-.4990566.0386881-.7073584-.0171948-.1366982-.0300908-.3124529-.012896-.4339623-.088123-.1822642-.1053177-.4990566-.6340557-.4665094-.8511392.0238679-.182694.2191509-.3825827.310283-.5373353l.0781132-.1998888c.0585849-.0795256.1866038-.1483045.264717-.1912914zm49.992453-9.7923994c.963396.0558829 1.928962.1483046 2.649339.6598478.23.1569019.407925.434167.564151.6469518.12151.1569019.240849.3181025.364529.4728551.049905.1998887.101981.3976282.160566.5910689.049905.3503426-.110661.6104129-.12368.9220674-.019528.5545301.084623 1.1778391-.156226 1.6120061-.062924.1225125-.212641.2063368-.318962.3138038-.329812.3589401-.685661.7135814-1.15217.8898274-.22783.0795256-.538113.1117657-.778962.1740966-.186604.0429869-.377547.1225125-.590189.1354085-.240849.0128961-.436132-.0924216-.646604-.113915-.301604-.0021494-.598868-.0021494-.900471-.0085974-.147548-.0128961-.295095-.0322401-.444812-.0451362-.388396-.0193441-.80717.3675374-1.14783-.0386881-.062924-.075227-.097641-.1977394-.093302-.3095052.013019-.1740966.058585-.3610893.203962-.4599591.075944-.0515841.488208-.1504539.488208-.2299795.067264-.2192328 0-.4943485 0-.7286267l.015189-.8554379c-.015189-.1418565-.108491-.2665183-.112831-.434167 0-.2063367.084623-.3739854.112831-.5609781.034717-.1912914-.028208-.4019268-.028208-.5910689 0-.2235315.075943-.4836018.028208-.7200293-.058585-.3610894-.744246-.4126736-.538114-.9156195.145378-.3503426.716038-.3438946 1.071887-.3438946.243019-.0988697.874434 0 1.167359 0 .071603-.0171947.143207-.0429868.206132-.0623309zm-.512076 1.0531773c-.062924.0924217-.138868.1869927-.160566.2987585 0 1.1198068-.004339 2.241763-.013019 3.3594206 0 .1397072-.013018.3503426.067265.4427643.141037.1740967 1.314905.1633499 1.534056.088123.164906-.0558829.796321-.4427643.876604-.5781728.115-.2127848.145377-.3739854.184434-.6405038.036887-.1139151.075943-.2256808.10849-.3331479.00434-.3095052.013019-.6147116.013019-.9199181 0-.1676486.017359-.3804334-.026037-.52229-.049906-.1697979-.375378-.623309-.538114-.7479708-.377547-.3052065-1.473301-.447063-2.046132-.447063zm.995944.887678c.555471 0 1.089245.3138038 1.134811.8618859.00434.0795256.017359.1977394-.017358.2686677-.075944.1332591-1.063208.0601815-1.258491.0601815-.010849.1397072.047736.2192329.082453.3030572.071604.2385769.088962.3997775.34283.5072445.134528.0601816.850566-.2364275.850566-.3481933h.069434c.019528.068779.019528.0967204.071604.0967204 0 .0451362.013019.0644802-.039057.0644802-.088962.1934408-.325472.4664071-.533773.5588288l-.297265.094571c-.032547.0107467-.095471.0300908-.095471.075227-.279906-.0644803-.57283-.1203631-.785472-.3009078-.69434-.6018156-.622736-1.6721876.182264-2.1514908.097642-.0322401.195283-.0580322.292925-.0902723zm.067264.3309986c-.125849.1117657-.249528.5932182-.101981.5932182.026037.0214934.034717.0365388.071604.0365388v-.0365388c.047735-.006448.136698-.0150454.136698-.0623309.499056.0300908.292924-.4685564-.106321-.5308873zm-10.7926416-6.7209906c-.092217.0558829-.1927064.1008847-.2964505.142226l-.3159788.1202623c-.2104717.082481-.4138915.1792014-.5701179.3479247-.2343396.2536223-.4534906.6598478-.5511321.975801-.0173585.176246-.0433962.3417453-.0650943.5158419-.0325472.176246-.0954717.3309986-.0889623.5308873 0 .2106355.069434.3718361.0889623.5588288l.0607547.7909576c.0260377.1676487.0846226.3181026.1106604.4964979.0368868.3116545.0716037.5674261.1931132.8231978.6118868 1.2874555 2.5343396 1.8505829 3.9772641 1.8505829.0716038-.0150454.1345288-.0214934.2061318-.0322401.132359-.0687789.266887-.1311098.394906-.1934407.360189-.1740967.737736-.4664071 1.000283-.7780616.130189-.1612006.147547-.3352973.206132-.5416341.026038-.0730776.060755-.1440058.093302-.2127848.013019-.0924216.026038-.1912914.043396-.2858624l.097642-.2686676.021698-.8511392-.021698-.8919767-.097642-.2729664c-.013019-.1053177-.026038-.2127848-.043396-.3159532-.108491-.4191215-.546793-1.2337219-.889623-1.5367791-.143207-.1332591-.292924-.2192328-.444811-.3309985-.249528-.1805447-.5381132-.3739855-.8462264-.4535111l-.4426415-.0752269c-.1215095-.0322402-.2495283-.0709283-.379717-.1096164-.4795283 0-.9633963-.0021494-1.4407547-.0021494zm-16.1933019 4.1202875c-.1692453.0687789-.4534906.0494348-.5706604.2041874-.0781132.1053177-.1887736 1.5324804-.1800943 1.7366679.0043396.1440058.0824528.2493236.1084905.3675373.0520755.2127848-.0260377.4793032.1735849.603965.1673855.106853.4479554.0905355.6927708.0877533l1.7677953.0003697.2343396-.0558829c.1909434-.0623309.3927358-.182694.5446226-.3245505.7051887-.6727439.5381132-1.8914205-.3818868-2.297646-.4035849-.1783953-.8787735-.1375579-1.3583019-.2063368-.3319811-.0537335-.6487735-.1160644-1.0306603-.1160644zm18.0398113-1.3755785c.4231132.2127848.5467924.9328142.2083019 1.2702608-.1106604.1053177-.3558491.1869927-.5120755.2063367-.1366981.0107467-.4665094-.0515842-.5684906-.1182137-.0672641-.0537336-.3688679-.6362051-.3515094-.7372242.0368868-.0623309.0716038-.1246618.1019811-.1869927.1649057-.3052064.2950944-.3610893.6183963-.4793031.1562264 0 .3883962-.0171947.5033962.0451362zm-26.9468868-1.3648318c-.1236792.088123-.2603774.2256808-.3254717.3438946-.0911321.1418566-.0911321.3030572-.1475472.4728551-.0781132.2213822-.2343396.4664071-.2668868.7028347-.0130188.1117657-.0130188.2880117.0585849.3610893.1562265.1676487.5077359.1311098.7529246.1311098.195283-.0988697.6856604.075227.7963207-.0795256.034717-.0580322.0477359-.169798.0282076-.2385769-.0846227-.3675374-.3384906-.7909576-.4882076-1.1455989-.0564151-.1246619-.0499056-.2665184-.1345283-.3804335-.0737736-.0988697-.1518868-.1354085-.2733962-.1676486zm8.6271698-1.3798772c-.115.1418565-.2061321.2407263-.2473585.4298683l-.0368868.5846209c-.0151887.1311098-.0520754.2600703-.045566.3976281 0 .1139151.0520755.2041874.0629245.3052065.0412264.2106355-.010849.7286267.1757547.8274964.1887736.088123.4816981.0558829.713868.0558829.2343396.0085974.4426415.0623309.6878301.0558829.1128302-.0171947.2278302-.0322401.345-.0472855.2256604 0 .4534906-.0085974.6856604-.0085974.0976415-.0558829.2365095-.0494348.334151-.1182138.115-.0795256.1866037-.1805446.2777358-.2794143.3818868-.4169723.5706604-.786659.2516981-1.3196957-.0716037-.1268111-.1345283-.2729663-.2582075-.3739854-.1822642-.1569019-.5272642-.2471742-.7529245-.3224012-.2148114-.0709283-.4925472-.0515842-.7464151-.0644802-.2603774-.0171948-.5185849-.0730776-.7572642-.1096164-.23-.0107467-.4556604-.0128961-.69-.0128961zm-17.4951887-3.4690607c-.0976415.1741203-.1562264.3202756-.1887736.5352097.0065095.434167.0130189.8790806.0130189 1.3153969v1.6485449c.0065094.2192328.0195283.4363163.0260378.6533998.0390566.1633499.1497169.3739854.3059433.4664071.4339623.2665183 1.829151.1612006 2.4562265.1612006.1757547-.1031684.4686792-.0988697.6813207-.1483046.4556604-.101019.9026415-.3675374 1.2216038-.7221787.160566-.1848434.3428302-.5846209.3840566-.8403925.0086792-.2127848.0151887-.4148229.0238679-.623309.0325472-.2794144-.0585849-.5007965-.1215094-.7329254-.0607547-.2127848-.0911321-.4234203-.23-.5975169-.1887736-.2471743-.5120755-.4363163-.7898113-.5609781-.2929246-.1375579-.5771698-.2858624-.9026415-.3610894-.8679246-.1998887-1.8877359-.1934644-2.8793397-.1934644zm24.6946227-9.13897595c.4317924 0 .7550943.09027233.9720754.27941438.219151.1869927.334151.43846564.3471699.75441883l-.6965095.03009078c-.0282075-.176246-.0933019-.3009078-.1909434-.37613475-.0954717-.07952563-.2451887-.11821377-.4404717-.11821377-.2017924 0-.3601887.04298682-.4751887.1246618-.0759433.05158419-.1084905.12251246-.1084905.21063546 0 .08167497.0325472.15260324.1019811.20848611.0889623.07307761.299434.14830456.6400944.22783019.3384905.07952563.5880188.16120061.7485849.24717426.1627358.08597366.2885849.20203809.3818868.34604397.0933018.14830455.1366981.32884923.1366981.54808206 0 .19344072-.0564151.37613474-.1670755.55023139-.1084906.17194732-.2625472.29660912-.4621698.38043343-.1974528.08167498-.4513208.1246618-.7485849.1246618-.4361321 0-.7681132-.0988697-1.0046227-.29875845-.2343396-.20203809-.3732075-.49004984-.4144339-.87478195l.6726415-.06662959c.0433962.22783019.1236792.39118014.2451887.49864721.1280188.10531773.2972641.15690192.5099056.15690192.219151 0 .3883962-.04513617.5033962-.13970719s.1692453-.20633677.1692453-.33099857c0-.07952564-.0260377-.14830456-.0716037-.20418744-.0455661-.05803222-.1323585-.10746707-.2495283-.1504539-.0802831-.02794143-.2625472-.07737629-.5554717-.14830455-.3732076-.09242168-.6314151-.20633678-.7854717-.33959594-.2104717-.18699271-.3167925-.41697224-.3167925-.68778925 0-.176246.0499057-.3374466.1475472-.4879005.1019811-.15260324.2430188-.26866768.4296226-.34819331.1909434-.07737629.414434-.11606443.6813208-.11606443zm-37.2187736.05588287v1.85273229c0 .29445977.0086792.48575116.0260377.57387416.0303774.13970719.0998113.25147294.2104717.3374466.1128302.08167497.2668868.12681114.46.12681114.1974529 0 .3471698-.04083749.4469812-.12036312.1019811-.07952563.160566-.18054468.1800943-.29660911.0216981-.11821378.0303774-.30950517.0303774-.58032218v-1.89356978h.6965094v1.79899876c0 .40837486-.0195283.70068529-.0564151.86833392-.0368868.16979797-.1084906.31165451-.2083019.42986828-.0998113.11821378-.2365094.21063546-.4057547.27941439-.1692453.06662958-.3883962.10316838-.6617925.10316838-.3298113 0-.5771698-.03868814-.7485849-.11176575-.1692453-.07737629-.3037736-.17409665-.4014151-.29445977-.0998113-.12251246-.1649056-.24932361-.195283-.38043343-.045566-.19559007-.0694339-.48575116-.0694339-.86833393v-1.82479085zm25.7079245 0v.57817284h-1.8573585v.75871751h1.725v.5760235h-1.725v.93281417h1.920283v.57817284h-2.6167924v-3.42390086zm22.2926415 0c.2885849 0 .5033963.02364276.6574529.06448024.2017924.05803222.3710377.16549929.5164149.31595319.143208.1504539.253868.3374466.329811.55453008.078114.21923282.110661.4879005.110661.80815237 0 .28156372-.032547.5244393-.106321.72647739-.084623.25147295-.206132.4513617-.364528.60611428-.1215096.11821378-.2842455.20633677-.4903776.27296636-.1540566.04943485-.355849.07522695-.6162264.07522695h-1.3083962v-3.42390086zm7.0215098 0 1.37783 3.42390086h-.755094l-.299434-.78021093h-1.377831l-.284245.78021093h-.737736l1.338774-3.42390086zm-41.9142456 0v3.42390086h-.6943396v-3.42390086zm4.150849 0 .8722642 2.53192417.8418868-2.53192417h.7377358l-1.2324528 3.42390086h-.7420755l-1.230283-3.42390086zm25.7231132 0v3.42390086h-.6943396v-3.42390086zm-12.0663207 0c.3688679 0 .6357547.03009078.8006604.09027234.1692452.0623309.3016037.17194731.4014151.32884924.0998113.15690192.1518868.3374466.1518868.53948469 0 .25577162-.0759434.47070576-.2278302.63835439-.1518868.16549929-.379717.27081702-.6834906.31380385.1518868.08597365.275566.18269402.3732075.28586241.0976416.10531772.2321699.29016108.3970755.55667942l.4187736.67059452h-.8310377l-.5012265-.74582147c-.1779245-.26651833-.3037735-.43416696-.3666981-.50509523-.0650943-.06877893-.1366981-.11606444-.2083019-.13970719-.0759433-.02794144-.1909433-.04083749-.3515094-.04083749h-.1410377v1.43146138h-.6965095v-3.42390086zm-24.3604717 0 1.4103773 2.28474991v-2.28474991h.644434v3.42390086h-.6965094l-1.3886793-2.23531506v2.23531506h-.6466037v-3.42390086zm54.5707548 0c.286415 0 .503396.02364276.655283.06448024.199623.05803222.373207.16549929.518585.31595319.143207.1504539.253868.3374466.329811.55453008.075944.21923282.115.4879005.115.80815237 0 .28156372-.039056.5244393-.106321.72647739-.088962.25147295-.212641.4513617-.373207.60611428-.11934.11821378-.284245.20633677-.486038.27296636-.154056.04943485-.358019.07522695-.616226.07522695h-1.308397v-3.42390086zm-13.2533885.5790684-.4489701-.00089556v2.26755518h.5229245c.1931133 0 .334151-.01289605.4187736-.03438946.115-.02794144.2061321-.07522695.2799057-.14185654.0759434-.06662958.1345283-.17624599.1822641-.32884923.0499057-.15475258.0716038-.36538804.0716038-.62760769 0-.26651833-.0216981-.46855643-.0716038-.60826362-.0477358-.14185653-.1106603-.25362228-.195283-.33314791-.0846226-.07952564-.195283-.13325917-.3211321-.16120061-.0813679-.01791118-.2275288-.02835937-.4384827-.03134456zm13.1242745 0-.448056-.00089556v2.26755518h.520755c.195283 0 .336321-.01289605.420943-.03438946.108491-.02794144.206132-.07522695.279906-.14185654.075943-.06662958.134528-.17624599.182264-.32884923.045566-.15475258.071604-.36538804.071604-.62760769 0-.26651833-.026038-.46855643-.071604-.60826362-.047736-.14185653-.11066-.25362228-.195283-.33314791-.088962-.07952564-.190943-.13325917-.323302-.16120061-.081368-.01791118-.227529-.02835937-.437227-.03134456zm-6.352113.2204866-.466509 1.26811143h.941698zm-23.8399379-.22111898-.6572314-.00026318v.86833393h.5142453c.3341509 0 .5424528-.01289605.6249056-.04083749.0824529-.03009078.149717-.07737629.195283-.14615522.0477359-.06877892.0716038-.15475258.0716038-.25577162 0-.1139151-.0325472-.20848612-.0954717-.27726504-.0607547-.07307761-.1475472-.11606444-.2603773-.13540851-.046496-.00736917-.1774818-.01158013-.3929573-.01263287z" fill="#003677"/><path d="m44.6163854 32.3475881v11.0841536h-11.1875472c4.899434-2.3019446 8.865849-6.23309 11.1875472-11.0841536zm-42.53915099-.0021493c2.3173585 4.8532129 6.2859434 8.7843583 11.18754719 11.0863029h-11.189717zm20.80415099-3.5915495c.0998113.1354085.1649056.2923104.1714151.4879005.0260377.8532885-1.1434906 1.0144891-1.1152831 1.8677777.0260378.8532885 1.2042453.9306648 1.2389623 1.7839533.0167385.3703008-.1916962.614273-.4326401.8403674l-.2446447.2241519c-.2412096.226226-.4507071.4707246-.4358284.8419466.0368868.8532885 1.2129245.9306648 1.2411321 1.7839533.0260377.8532886-1.1434906 1.0144892-1.1174529 1.8677777.0282076.8532885 1.2150944 1.0123398 1.2411321 1.781804.0282076.8511392-1.1586792 1.0961641-1.1109434 1.9902902.0282076.5846208.575.8167497.9330189 1.1735404-.5055661 0-1.0111321-.0214935-1.5080189-.0580323-.3167924-.4083748-.8679245-.6985359-.8375472-1.3003515.0477359-.8919767 1.2498114-1.0080411 1.3105661-1.8591803.0520755-.7694642-1.1109434-1.0553266-1.0523585-1.9064658.0629245-.8511392 1.2389623-.8855287 1.299717-1.7366679s-1.1022642-1.0553266-1.0501887-1.9064658c.0520755-.8640353 1.2498113-.9113208 1.3018868-1.7796547.0542453-.8511392-1.1109434-1.0510279-1.0501887-1.9043165.0585849-.8532885 1.2367925-.8855286 1.299717-1.7388172.010849-.1719473-.0238679-.3224012-.0824528-.453511zm.9525471.0042987c.1063208.1160644.1866038.2557716.2148113.4384656.1432076.8425418-.9959433 1.1692417-.850566 2.0096342.0613747.3601682.3124528.549398.5913147.7140388l.2821261.1618648c.2793933.1645093.5325969.3532127.5976913.7124597.149717.8532886-1.000283 1.1971832-.8462264 2.0483224.1518868.8403925 1.3279245.7479708 1.471132 1.5905126.1410378.8403925-.9937735 1.1670924-.8527358 2.0074849.1432075.8403925 1.3387736.8296458 1.4711321 1.5883633.1432075.8403925-.9981132 1.2487673-.8310378 2.1299973.0752202.3911801.363564.5855761.667659.7653248l.2279407.1349109c.0749087.0459522.1477179.0938347.2153437.1464936-.5012264.0666296-1.0067924.1182138-1.5188679.1483045-.3688679-.3675373-.9612264-.5695754-1.0111321-1.1756897-.080283-.894126 1.0979246-1.1778391 1.0415095-2.0289783-.0520755-.7694642-1.2433019-.8855287-1.3018868-1.7388172-.0542453-.8511392 1.1087736-1.0531773 1.0523585-1.9043165-.0542453-.8532885-1.2324529-.8855286-1.299717-1.7388172-.0650944-.8640352 1.1131132-1.083268 1.0501887-1.9473033-.0672642-.8511392-1.2454717-.8833793-1.3018868-1.7366678-.0542453-.8511392 1.1087736-1.0531773 1.0523585-1.9043165-.0086793-.1526033-.0629246-.3095052-.1215095-.4212709zm-1.8650377-.0945832c.0727736.1332713.1118302.3052186.0923019.4814646-.0911321.8489899-1.2693396.8403925-1.3604717 1.6893824-.0867925.8511392 1.069717 1.0940147.9872641 1.9408552-.0824528.8661846-1.2801886.868334-1.3604717 1.7323692-.0824528.8511392 1.0762264 1.0940148.9872642 1.9408553-.0381267.3647739-.2767174.5716371-.5441166.7557724l-.2706444.181566c-.267532.1840037-.5066541.3903405-.5457107.7541933-.0889623.8489898 1.0653773 1.1735404.9872641 1.9430046-.0889622.8468405-1.2975471.9199181-1.3713207 1.8097455-.0499057.5867702.46.894126.7659434 1.2960528-.4990566-.0666295-.9937736-.1547525-1.4798113-.2579209-.253868-.4578097-.7724529-.8231978-.6596227-1.4207147.1670755-.8769313 1.3778302-.8210484 1.5514151-1.6549929.1540566-.7522695-.9590566-1.2014818-.7833019-2.0354263.1735849-.8360938 1.3474529-.7006853 1.5210378-1.5367791.1779245-.8360938-.9482076-1.1993325-.7833019-2.0375756.1735849-.8511392 1.3626415-.7264774 1.5340566-1.5754673.1670754-.8360938-.9590566-1.2014818-.7833019-2.0375756.0743935-.3574048.332114-.5371599.6163656-.6915365l.2872881-.1515568c.2845173-.1543766.5433005-.3341317.6195538-.6915365.0244104-.1192884.0256309-.2301139.0109847-.3342897zm2.7503207-.0838122c.138868.1053178.2473585.2385769.3102831.4320177.2538679.812451-.8266981 1.2982022-.5706604 2.1106532.2538679.8146004 1.4082075.5545301 1.6685849 1.3648318.2712264.8231978-.8223585 1.3261436-.5554717 2.1471921.264717.8103017 1.414717.5502314 1.6707547 1.3626824.2582076.8146004-.8223585 1.2982022-.5684906 2.1106533.253868.8146004 1.4364151.6319063 1.668585 1.3648318.2582075.8081523-.8158491 1.3798771-.5337736 2.2267177.1996226.5889195.8483962.6276076 1.2932075.9113207-.4925472.1354085-.9916038.257921-1.495.35894-.4166038-.3331479-1.0653773-.4384656-1.1999056-1.0510279-.1974529-.8704833.9286792-1.321845.7572641-2.1557895-.1562264-.7544188-1.3539623-.6985359-1.5232075-1.5346297-.0734637-.3583259.0909992-.6301957.2896223-.8897146l.202463-.2581465c.198756-.2595189.3637502-.5313886.2912165-.8897146-.0743935-.3583259-.3321139-.5382126-.6165363-.692608l-.2875222-.151563c-.2848209-.1543954-.5441355-.3342821-.6213188-.6926081-.1822642-.8446911.954717-1.2294232.7746226-2.0784131-.1800943-.8317951-1.3517924-.6963866-1.5232075-1.5303311-.1735849-.8382431.9525472-1.2036312.7833019-2.0375756-.0303774-.1440059-.1410378-.3309986-.2148114-.427719zm-5.2249056 1.9601994c-.0455661.7264774.92 1.1327029.7377358 1.9086152-.0855525.3620105-.3528379.538081-.6459142.6874195l-.2958977.1463244c-.2929436.1492069-.5596975.3247511-.6443201.6858404-.1952831.8317952.9156603 1.2358713.7138679 2.0655171-.2039623.8274965-1.3713208.6512505-1.575283 1.4787469-.2039623.8274964.896132 1.3175463.7116981 2.0633677-.1996227.8274965-1.4082076.7286268-1.6034906 1.5991101-.1301887.5824715.3536793.9629049.5966981 1.4185653-.4838679-.1354085-.9590566-.2901611-1.4277358-.4599591-.1822642-.5007965-.6704717-.9457102-.4730189-1.5346297.2842453-.8446912 1.4733019-.6147117 1.7575472-1.416416.2560377-.7243281-.7854717-1.3261437-.4990566-2.127848.2864151-.8038537 1.4299056-.5029459 1.7163207-1.3046502.2885849-.8017044-.7746226-1.3239944-.4990566-2.1299974.2842453-.8167497 1.449434-.5222899 1.7293396-1.341189.2148114-.6061143-.345-1.0531773-.5033962-1.5819153zm6.0516038-2.2761526s.3298113.2170835.4274528.4234203c.3623585.7716136-.6422642 1.4035199-.2777359 2.1729842.3645283.7673148 1.4689623.3460439 1.8378302 1.1090601.3775472.7780616-.6357547 1.4314614-.2582075 2.209523.3688679.7651655 1.4798113.3438946 1.84 1.1112095.3645283.7694642-.6400944 1.4035199-.2799057 2.1708348.3645283.7694642 1.5123585.4191216 1.8443396 1.1133589.3623585.7651655-.6227358 1.4830455-.23 2.2804512.288585.5803222.9872642.4964978 1.4711321.7479708-.4751887.2063368-.954717.3997775-1.4450943.5760235-.4578302-.3052065-1.1565095-.2944598-1.3865095-.9027234-.3124528-.8360938.7420755-1.4465068.4578302-2.2439124-.2582075-.7264774-1.4364151-.5029459-1.7163207-1.3046503-.2842453-.8038536.7789622-1.3261436.4968868-2.1299973-.2799057-.8038537-1.4255661-.5029459-1.7119812-1.3025009-.3016037-.8146004.7746227-1.3540851.4816982-2.1665361-.2929246-.799555-1.4342453-.5007966-1.7163208-1.3046502-.2842453-.8017044.7789623-1.3239943.4968868-2.127848-.069434-.1998888-.1931132-.333148-.3319811-.4320177zm-6.7915095 2.8457281c.1193396.2536222.1887736.5136926.0759434.8081523-.310283.8060031-1.4646226.4707058-1.7749056 1.2788582-.1311186.3408241-.0139488.6386175.1380076.9297562l.1556444.2902676c.151425.2907438.2664693.5869582.131631.9250189-.3124528.7909576-1.4450944.4513617-1.759717 1.2423193-.3146226.7888083.7073585 1.429312.425283 2.1450427-.3124528.7888083-1.4928302.5179913-1.8031132 1.3540851-.2169811.5738742.2430189 1.0295345.4122642 1.5324804-.4621698-.2020381-.9178302-.4191215-1.3604717-.6533997-.0933019-.5416341-.5533019-1.063924-.2690566-1.6377982.3970754-.7952563 1.5427358-.3976282 1.9354717-1.1498976.3515094-.6813413-.598868-1.4271627-.2061321-2.1815816.3927358-.7522695 1.4841509-.2923104 1.8768868-1.0445799.3666981-.704984-.4665095-1.334741-.2625472-2.033277.2668868-.2170834.5359434-.4298682.805-.6448024.4383019-.1031684.9178302-.1311098 1.15-.5846208.0672642-.1311099.0933019-.2600704.0911321-.3890308zm7.694151-3.2046681c.1627358.0601816.3059434.156902.4209434.3288493.4621698.7092826-.449151 1.4808962.0151886 2.1901789.4665095.7092826 1.5015095.1311098 1.9723585.8360938.4773585.7157306-.436132 1.5088376.0412265 2.222419.2036522.302136.510127.3693796.8304367.4034057l.3216255.0304229c.3196455.0342892.6234634.1025856.8224661.4065639.4621698.7092826-.4448114 1.4808962.0173584 2.1901788.4665095.7092827 1.5557548.1998888 1.9745283.8360939.4665095.7071333-.4144339 1.5604218.0846227 2.2933472.3818868.5588288 1.1109434.3288493 1.6338679.5609781-.4426415.2729664-.9004717.5330367-1.3669811.7780616-.4903774-.2815637-1.2367925-.1354085-1.5535849-.7307761-.425283-.7802109.5381132-1.5346297.1475471-2.2890485-.355849-.6791919-1.4906603-.2880118-1.8768867-1.0424306-.1673855-.3233224-.0824972-.6312484.0386011-.9371442l.1251658-.3057141c.1212311-.3060273.2066508-.6144797.0401953-.9387233-.390566-.7544188-1.4798113-.2923104-1.8790566-1.0445799-.172035-.3260858-.0882095-.6395387.0319968-.9511869l.1242043-.3114478c.1200735-.3116482.2033676-.6251011.0304027-.9511869-.3970755-.7544188-1.4863208-.2923104-1.8768868-1.0467293-.390566-.7544188.5945283-1.422864.2039623-2.1794322-.0846227-.1633499-.1909434-.2729663-.3233019-.3481933zm-12.6977359 8.2706657c.1345283.4793032.425283.9500089.184434 1.3777279-.4166038.7372241-1.5492453.3009078-1.9723585 1.0832681-.3016038.5588287.1323585 1.0918654.2126415 1.6334994-.4339623-.2665183-.8570755-.5437834-1.2671698-.8382431.0021698-.1955901-.045566-.3911802-.0933019-.5889196.5966981-.5846208 1.2715094-1.2186765 1.9311321-1.8054467.0412264-.0300908.0781132-.0644803.115-.1031684.3059434-.2665184.6053773-.52229.8896226-.7587176zm13.444151-8.7929556c.1779245.0300907.3515094.1096164.4925471.2729663.5554717.6340557-.2386792 1.5303311.3167925 2.1643868s1.505849-.0838243 2.0678302.5480821c.5684905.6405037-.2278302 1.5582725.345 2.1966269.2389892.2698959.5501136.2922666.8713722.2797841l.3223403-.0162235c.3211258-.0120877.6317187.0118621.869778.2845214.5576416.6362051-.2386792 1.5281818.3167925 2.1665362.5554717.6340557 1.564434-.0257921 2.0678302.5459327.5554717.6362051-.1996227 1.6034087.3949056 2.2589578.4795283.52229 1.2107548.1332592 1.7705661.3481933-.4014151.339596-.8201887.6641465-1.2498113.969353-.5337736-.2622197-1.2953774.0386881-1.7163208-.5308873-.5250943-.7135814.3276415-1.5969607-.160566-2.2847499-.4404717-.6254584-1.5123585-.075227-2.0005661-.7694643-.4925471-.6920879.3949057-1.4937922-.0933019-2.1858802-.4882075-.6920879-1.5080188-.0795256-2.000566-.7673149-.2157412-.2993725-.1764189-.6220369-.1003174-.9478595l.0802767-.3261297c.0763672-.325691.1167523-.647829-.0971291-.9462804-.4968868-.6877893-1.5145283-.075227-2.000566-.7673149-.4882076-.6920879.3927358-1.4937923-.0933019-2.1880296-.1236793-.1719473-.2430189-.2536222-.4035849-.3052064zm-12.4612265 2.8048905-.1236792.5566794c-.1301887.0537336-.2473585.1354085-.345.2665184-.2907547.3890308-.1366981.8296457-.045566 1.259514l-.7984906 1.2573647c-.4795283.0451362-1.0154717-.0752269-1.3496226.3610894-.414434.5394847.0282075 1.2272739-.023868 1.7925507l-.3818868.6018156c-.5554717.3224012-1.4082075-.0343894-1.86169807.5803222-.21030479.2858624-.19098192.5966521-.13207307.9108932l.05575536.269694c.03772331.1796915.07064282.3585066.06329884.5324379-.39707547-.3245506-.78113208-.6619972-1.15216981-1.0144891.12367924-.5717249-.25820755-1.2638128.20179245-1.7667587.59235849-.6555491 1.5904717.0494349 2.1676415-.5631274.5229245-.5545301-.1909434-1.5410778.3883962-2.1536401.2492184-.2625267.5614055-.27437.8824174-.2504014l.3219481.0279477c.3208791.0239686.6325348.0121253.8808232-.2504014.5815095-.6147117-.1844339-1.5346298.3905661-2.1536401.240849-.2622197.5467924-.2837131.861415-.264369zm15.0259434-12.7821333c-5.1207547 3.5313679-8.6835849 7.5678311-12.1032075 12.6338287-1.0545283 1.5647206-1.7662264 2.7253649-1.7662264 2.7253649l-1.4299057 2.3621262c-1.2606604.8833794-2.4084905 1.9709461-3.5172641 3.0348701l3.9403773-6.1858046c3.6995283-5.6635145 8.8680189-11.0734069 14.8762264-14.5703853zm-1.8703773 9.3582324c.1844339.0064481.3645283.0558829.5337736.1998888.6357547.5523807-.0282076 1.5496751.6075471 2.1020559.2724663.2348923.5827936.2135743.8992129.1554857l.3172732-.0622181c.3169506-.0582202.6294034-.0800645.9055894.1539066.6487736.5523808-.0151887 1.5711686.6357547 2.1235494.644434.5437833 1.4884906-.3009078 2.1242453.2493236s-.0303773 1.5475258.6053774 2.0977572c.6357547.5523807 1.5470754-.2471743 2.1242453.2493236.6357547.548082.0195283 1.6163047.6986792 2.1772828.5641509.4728551 1.2758491-.081675 1.8725472.1160644-.3558491.3954789-.724717.7780616-1.1087736 1.145599-.2045822-.0890441-.4329659-.0870702-.6653825-.0715259l-.2795703.0202104c-.3254717.0196127-.6433491.0051047-.8993868-.2560403-.6140566-.6362051.1063207-1.6292008-.4708491-2.2417631-.5207547-.5545301-1.5080189.1397072-2.0851887-.4750044-.5771698-.616861.1866038-1.5389285-.390566-2.1536401-.575-.6147117-1.4993396.1354085-2.0830189-.4750045-.2547978-.264369-.2593146-.5891388-.2280769-.9225374l.0352104-.3343573c.0312377-.3333986.026721-.6581685-.2280769-.9225375-.5815094-.6125623-1.5036792.1397072-2.0851887-.4750044-.575-.6190103.1909434-1.5367791-.390566-2.1536401-.1084906-.1225125-.3124528-.2084861-.4448113-.2471743zm-12.8387736 1.9902902-.1453774.6662958c-.575.169798-1.2888679-.2794144-1.7879245.2213822-.5945283.5996662.1388679 1.5453765-.4643396 2.1385947-.5988679.5910689-1.4971698-.1912914-2.0960377.3976281-.60320759.5910689.0781132 1.6034087-.4643397 2.1385947-.59886789.5932183-1.57094336-.1483045-2.18716978.4836019-.47301887.4879004-.11933962 1.1885857-.25820754 1.7560119-.35150944-.3782841-.68783019-.7694642-1.01113208-1.1756898.0741074-.1706246.09500949-.362005.1041707-.5583004l.0101192-.2961494c.01362625-.3451879.05478847-.6811719.3457101-.9230555.67698113-.5631275 1.5709434.277265 2.2240566-.2471743.59235849-.4750044.01952831-1.5518245.67915095-2.0762638.65745285-.5222899 1.47113205.352492 2.12858495-.1719473.6574528-.5222899.0260377-1.5453764.6769811-2.0762638.6617924-.5394847 1.4971698.3417453 2.1611321-.1977394.0303773-.0236427.0585849-.0515842.0846226-.0795256zm14.0061321-2.5770604c.7030188.4556604.1800943 1.5389285.885283 1.9924395.7073585.4535111 1.4277358-.5050952 2.1350943-.0580322.7203774.453511.1996227 1.5604219.92 2.0139329.7116981.447063 1.4320755-.5115433 2.1350944-.0558829.3012938.195283.3770158.5054462.4210256.8318515l.0406191.3281663c.0444084.3262737.1217245.6359105.4258081.8302724.7073585.453511 1.4993396-.4664071 2.1350943-.0558829.7030189.4513617.2365095 1.5948113.9872642 2.0569197.644434.3976282 1.2975472-.3116545 1.9376415-.1397072-.2972641.447063-.6118868.8790807-.9416981 1.3003516-.6183962-.2299796-1.3300943.3997775-1.9333019-.0644803-.6986792-.5373353-.1171698-1.6270514-.770283-2.1514907-.5945283-.4771538-1.4754717.3546413-2.1329245-.1719473-.2789758-.226602-.3224163-.543608-.3327213-.8735287l-.0067562-.3313558c-.0107035-.3299208-.0557382-.6469267-.3375037-.8735287-.6531132-.5265886-1.4667924.3481933-2.1264151-.1697979-.6748113-.528738-.0390566-1.5733179-.7138679-2.1042053-.6596226-.5201406-1.4733019.3546414-2.1264151-.1719473-.6574528-.5265886-.0260377-1.5453765-.6791509-2.0741144-.1475472-.1182138-.299434-.1719474-.4578302-.1848434.1779245-.0150454.3580188.0107467.5359434.1268111zm-13.2683962 7.5269936c.0542452.2256809.0585849.4556604-.0716038.6856399-.1410378.2471743-.3558491.3589401-.5966981.4191216zm.4968867-7.9504138-.0499056.1740966-.2358498-.0646178c-.3143276-.0817093-.6264332-.1271034-.91632.0861113-.6748113.5029458-.0781132 1.5453764-.7485849 2.052621-.6813208.5158419-1.4863208-.3954788-2.1654717.1225125-.6704717.5050952-.0737736 1.5496751-.7485849 2.0483223-.6748114.5007966-1.46028306-.4040762-2.13509438.094571-.67481132.5029459-.13886792 1.59911-.74641509 2.0526211-.67481132.5007965-1.53622642-.3696867-2.23056604.1676486-.5554717.4277189-.26254717 1.2079299-.51858491 1.7538626-.29726415-.427719-.57933962-.8683339-.84622641-1.3196956.35150943-.5136926.11283019-1.3562345.72471698-1.7345185.7464151-.4621084 1.5145283.4986472 2.23490566.0709282.6509434-.3825828.23-1.5346297.95254717-1.95805.30966307-.182387.61294956-.1058002.9153251.0077827l.30227432.1176937c.3023756.113583.605662.1901697.9153251.0077828.7225472-.4234203.2343396-1.5281818.9525472-1.9580501.7290566-.4427643 1.4364151.5502314 2.1654717.1096165.7203773-.4320177.2321698-1.5346298.954717-1.9580501.4144339-.2450249.8201886-.0236427 1.2237735.1268112zm13.2922642-.447063c.7572641.3481933.3840566 1.4959416 1.1478302 1.8462842.7637736.346044 1.3431132-.7049839 2.1068868-.3632387.7746226.3503427.4057547 1.5174351 1.1825471 1.8656284.7659434.3395959 1.3474529-.7135814 2.1090566-.3632387.759434.3481933.3862265 1.4980909 1.15 1.8484336.7572642.3481933 1.414717-.6770426 2.104717-.3632387.759434.3481933.4534906 1.5496751 1.2563208 1.8978685.7116981.3073558 1.265-.5308874 1.9441509-.4083749-.2278302.4879005-.4795283.9650543-.7464151 1.429312-.6596226-.1998887-1.2997169.5803222-1.9788679.1955901-.7637736-.4320176-.3341509-1.592662-1.0545283-2.0182316-.6531132-.3868814-1.4125472.5609781-2.1329245.1332592-.7203774-.4298683-.2321698-1.5324804-.9525472-1.9601994-.7203773-.4298683-1.4082075.5545301-2.1329245.1332592-.7355661-.427719-.2495283-1.5518245-.9872642-1.9795434-.310593-.1814659-.6140123-.1043528-.9160652.0093618l-.3018125.1176937c-.3017873.1134514-.6041438.1895117-.912877.0062036-.7203773-.4277189-.2343396-1.5303311-.9525472-1.9601993-.1757547-.1031684-.3406603-.1268112-.505566-.1074671.1822642-.0472855.3732076-.0515842.5728302.0408375zm1.4863207-11.4044055c3.1245284-.9779503 6.4725472-1.2100792 9.7229246-.9435609l-5.6783962 3.9676842.516415.5244393c-3.3024528 1.3304424-5.6024528 2.7962932-5.6024528 2.7962932l1.1174528.528738c-2.126415.8360938-4.2029245 1.8871217-5.98 3.3314792.2256604.1289605.4469812.2557716.6856604.3567906-1.4667924.8081524-2.6298113 1.592662-3.4391509 2.1858803-.8874529.6512504-1.6490566 1.347637-1.6490566 1.347637l1.1456604.2149342c-2.0873585 1.5539738-3.9577359 3.021974-5.209717 4.017119 3.6018868-5.7365922 7.670283-10.6456879 13.4137736-14.5789827 1.6670884-1.1392992 2.9439128-1.8255192 3.5215023-2.1174229l.1457319-.0727221c.1261713-.0620939.1928601-.0924556.1928601-.0924556l-.1475472-.3696867c-.0260377.0085974-10.3434905 3.4582903-18.8968868 16.1909888l.8093397-3.6474324c.1714151-.1117657.436132-.2858624.5598113-.4513617.0976415-.1332591.9764151-3.2755963.9829245-3.2906416l.0433962.0107467c.02875.0102093.0692984.0276727.113949.0481251l.1385628.0660586c.0903184.0443302.1662618.0835557.1662618.0835557l1.4516038-3.3766154.4469811.3438946c1.000283-1.6829343 2.2848113-3.2132653 3.7581132-4.5114676.1345283.1676487.6813208.9457103.9764151.6491011 1.7987736-1.8097454 4.3179246-3.3013883 6.8045283-3.997775l-.0465094.3223236.0291509-.0321625.0216981.0580322-.057849.0261303zm-14.5290566 11.0089267-.0390566.1311098c-.6379245.1031684-1.2281132-.6491011-1.8812264-.2944598-.735566.4019269-.2864151 1.517435-1.0198113 1.9258099-.7442453.4126736-1.4168868-.6061143-2.1611321-.1934407-.7312264.4083748-.2820754 1.5281817-1.0198113 1.9258099-.3152426.1713332-.61534077.0840875-.91327547-.0400981l-.29769432-.12829c-.29793471-.1241855-.5980329-.2114313-.91327548-.040098-.73773585.3976281-.35584906 1.5604218-1.02198114 1.9236605-.73122641.4019269-1.46679245-.5846208-2.23056603-.1504539-.61839623.3503427-.41443397 1.1928845-.77245283 1.6958304-.23650944-.4707058-.45349057-.9543076-.65311321-1.4422081.4404717-.453511.30377358-1.3433384.96990566-1.6356488.80283019-.3503427 1.43207547.7092827 2.20235849.3911801.69867924-.2880117.43613208-1.4851949 1.21075472-1.8054467.33105121-.1363297.6206546-.0168439.90450767.1390179l.28325843.1598596c.28398592.1557301.57412069.2746896.90610181.1374388.7724528-.3159532.4404717-1.4765976 1.2085849-1.8054468.7833019-.3288493 1.3496227.7522695 2.1329245.4212709.3291914-.1390931.4563247-.4317544.554934-.7458465l.0955287-.3163417c.098875-.3136974.227071-.6047796.5581223-.7411092.7073584-.2901611 1.2216037.5760235 1.896415.4879005zm13.4398114-.5437834c.7984905.2407262.585849 1.429312 1.3865094 1.6678889.8006604.2342782 1.2367925-.8919767 2.0396226-.6598478.3487197.1004049.5105256.3800387.6456296.6849381l.1321371.307619c.135104.3046362.2969099.5832172.6456296.6817799.345.0985626.6214516-.0511895.8877691-.2360767l.2651029-.1887034c.2660517-.184624.5414406-.3333234.8845808-.2329184.8006604.2385769.5901887 1.429312 1.3865094 1.6657396.3431402.1013261.634072-.0440835.9112259-.2267712l.2739845-.1873562c.2722386-.1842668.5435093-.3359928.8522425-.2457204.8006603.2364275.6617924 1.4680001 1.505849 1.6979797.7485849.2084861 1.1890566-.7200294 1.8899057-.6791919-.1562264.5179913-.3363208 1.0295345-.529434 1.5281817-.700849-.1354085-1.2346226.7587175-1.9701887.4707058-.8136792-.3224012-.5467924-1.5303311-1.3192452-1.850583-.6943397-.2880117-1.3214151.7587176-2.093868.4384657-.770283-.3245506-.436132-1.4851949-1.2107547-1.8054468-.7681132-.3224012-1.3192453.7479708-2.0895283.4363163-.7898113-.3181025-.4621698-1.5002403-1.2519811-1.8204922-.7746227-.3159531-1.3170755.7587176-2.0916981.4363164-.3310512-.1372509-.4588487-.4288595-.5574391-.7426884l-.0953009-.3163417c-.0984576-.3139605-.2257236-.6060954-.5558449-.7442674-.1866038-.0795256-.5337736-.0279414-.5337736-.0279414.1822641-.081675.3732075-.1160645.5923585-.0515842zm-13.5786793-.4664071c.1475472-.0365388.2603774-.0902723.379717-.176246-.0889623.1160644-.2234906.2170835-.3840566.2729664-.7811321.290161-1.2932075-.799555-2.0765094-.5072446-.7811321.2901611-.4903774 1.4615521-1.2715095 1.7603106-.7919811.3009078-1.3214151-.8017043-2.1133962-.4986472-.7811321.3009078-.4860377 1.4701495-1.27150943 1.7603106-.33570081.1243548-.62118598-.0047373-.8994975-.1702053l-.27751444-.1695536c-.27831151-.1655995-.56379669-.295218-.89949749-.1717844-.78330189.2923105-.56415095 1.498091-1.26933963 1.7603107-.78330188.2923104-1.37566037-.7888083-2.18933962-.4685565-.66830189.264369-.57283019 1.1413003-1.00896226 1.5819153-.16490566-.5050952-.31245283-1.0144891-.43830189-1.5324804.17745957-.138172.28960339-.3421401.39227801-.5559972l.1222385-.2577972c.14564858-.2979525.31652123-.5714562.66586085-.6671018.8440566-.2321289 1.3235849.9091714 2.13075471.7006853.72905661-.1848434.63358491-1.4078187 1.44292453-1.6120061.80933963-.2063368 1.2064151.9328142 2.01358491.7307761.80933965-.2063368.63792455-1.40352 1.44292455-1.6141554.8201887-.2192328 1.2324528.9349635 2.0526415.7200294.345-.0911935.5106584-.3635897.6510383-.6610259l.1376596-.2999992c.1406456-.2967783.3073668-.5665426.6542266-.6531303.8093396-.2063368 1.2042453.9328141 2.0135849.7286267zm13.8455661-.5179913c.8223584.1225125.7767924 1.3304423 1.5991509 1.4508055.8266981.1225124 1.1022642-1.0553267 1.9289623-.9414116.8375471.1139151.8006603 1.3433384 1.6382075 1.4551042.8266981.1117657 1.1066038-1.063924 1.9289623-.9414116.8223585.1225125.7746226 1.328293 1.5969811 1.4508055.8266981.1203631 1.1868868-1.051028 1.9333019-.9435609.8223585.1203631.8483962 1.3605331 1.7163208 1.4680002.7659433.0967203 1.0762264-.8726326 1.7662264-.9435609-.0802831.5373354-.1822642 1.0660733-.299434 1.5905126-.7160377-.0408374-1.1196226.9263662-1.8899057.7436722-.8483962-.1977394-.7507547-1.4379094-1.5557547-1.6442462-.7333962-.1848434-1.2085849.9414115-2.0179245.7307761-.345-.0893512-.511057-.3599051-.6515507-.6565142l-.1376533-.299548c-.1404937-.2967407-.3065507-.5678209-.6515507-.6580932-.8093396-.2063368-1.2042453.9328141-2.0135849.7307761-.8223585-.2020381-.6596227-1.4185654-1.4819812-1.6227528-.8093396-.1998888-1.2085849.9392622-2.0135849.7307761-.8093396-.2063368-.6357547-1.40352-1.4450943-1.6141554-.1909434-.0494349-.3601887-.0236428-.5164151.0408375 0 0 .3515094-.156902.5663208-.1268112zm-14.1992453 3.2089667c-.0433963.1526033-.0716038.2557717-.0781132.2815638 0 .0085973-.023868.0322401-.0564151.0580322-.069434.0343894-.1323585.0816749-.195283.1397072-.0911321.0644802-.1909434.1289605-.2582076.1719473l-.0238679.0150454-.034717.0214934-.0889623.3181025c.0151887-.3181025.0629246-.623309.3363208-.8425418.1280189-.0988697.2603774-.1504539.3992453-.16335zm.1518868-3.6882698c.1692453-.0150454.3059434-.0795256.4426415-.1676486 0 0-.2733962.2256808-.46.2665183-.8136793.1719473-1.1716981-.9800997-1.9853774-.8038537-.8180188.176246-.6856604 1.3798772-1.4993396 1.5647205-.8266981.1848434-1.2020755-.982249-2.0266038-.7952563-.3487197.0792186-.5236773.3451667-.67398259.6369445l-.14761043.2944284c-.15043815.2911199-.32592717.5544361-.67557677.629049-.34964959.0764551-.61480939-.0918515-.86789922-.2954624l-.25174872-.2076214c-.25308983-.2038741-.51824963-.3732334-.86789923-.2986206-.81584906.176246-.76160377 1.40352-1.49933962 1.5625712-.81150944.1783954-1.25198113-.9779503-2.10254717-.7759122-.69.1633499-.72037736 1.0316839-1.19990566 1.4121173-.08896227-.52229-.16273585-1.0510279-.21264151-1.5883633.52292453-.3224012.63792453-1.1907351 1.34528302-1.2788581.86575471-.1117658 1.18688679 1.0854174 2.0135849.9972944.74858491-.0795257.82018868-1.3067996 1.64905661-1.3927733.82669811-.0881229 1.06537736 1.0983135 1.89424528 1.0101905.82669811-.088123.82018868-1.2982022 1.64688681-1.3927732.8440566-.0967204 1.0957547 1.1026121 1.9376415 1.0080411.8245283-.0967204.815849-1.3046502 1.6468868-1.3927732.8288679-.088123 1.0653773 1.0961641 1.8942453 1.0080411zm24.9050943-.535186c.8310377 0 1.0263208 1.2251246 1.8985849 1.2100792.759434-.0150454.9416981-.9736517 1.5817925-1.1735404-.0043397.5394847-.0260378 1.0746707-.0672642 1.605558-.6921698.0859737-.9677358 1.0746707-1.7423585 1.0058918-.8700943-.0773763-.9373585-1.315397-1.7683962-1.4056693-.7442453-.0795256-1.0632075 1.1026121-1.8942453 1.0123398-.8245283-.0924217-.8180189-1.3025009-1.6468868-1.3927732-.8266981-.0924217-1.0653773 1.0940148-1.8942453 1.0080411-.8440566-.0795256-.8440566-1.3110983-1.6881132-1.3949226-.8310377-.0838243-1.0675471 1.1026122-1.8942453 1.0123398-.8310377-.0924217-.8223584-1.3003515-1.6490566-1.3927732-.2104717-.0236428-.3753773.0322401-.5294339.1289605.1562264-.1311098.3341509-.2235315.5641509-.2213822.8353774.0021494.9503774 1.2079299 1.7835849 1.2079299.8310378.0021493.9503774-1.2036312 1.7814151-1.2079299.3626685-.0027634.5934213.2198908.805329.4747476l.2098138.2584348c.2119077.2548567.4426605.4775109.8053289.4747475.8310378-.0085974.9503774-1.2100792 1.7814151-1.2100792.8353774.0021493.9482076 1.2079298 1.7792453 1.2100792.8353774.0021493 1.0306604-1.2100792 1.7835849-1.2100792zm-37.5485849-2.1385947c.87009434.0150454 1.02632076 1.2487673 1.85735849 1.2767088.75075472.0279414.98943396-1.1778391 1.8204717-1.1434497.35708895.0138172.57469003.2431827.77236427.5033407l.19546014.2635795c.19767424.260158.41527532.4895234.77236427.5033406.83103774.0322401.98726415-1.1670924 1.82047173-1.1434496.8462264.0257921.9330188 1.2487673 1.7770754 1.2724101.8353774.0236428.989434-1.1756897 1.8248114-1.1434496.8310377.0322401.9048113 1.2380206 1.7380188 1.2724101.1605661.006448.2972642-.0343895.4404717-.0988697-.1236792.0967203-.2885849.1783953-.470849.1912914-.8310378.0558828-1.0284906-1.1348523-1.8573585-1.0789694-.8332076.0580322-.8635849 1.2681114-1.6946227 1.3325917-.8462264.0687789-1.0566981-1.1413003-1.9007547-1.0746707-.8288679.0666295-.86358489 1.2767087-1.69462262 1.334741-.83103774.0580322-1.02849057-1.1370016-1.8595283-1.0789694-.83103774.0580322-.94386793 1.2788581-1.69462264 1.3325916-.82886793.0601816-1.10877359-1.1477483-1.97886793-1.070372-.68566038.0623309-.8440566.8769313-1.33877358 1.2036312-.00433963-.1783953-.00650944-.35894-.00650944-.5394847 0-.3567907.00867925-.711432.02820755-1.063924.51858491-.2751157.75943396-1.0617746 1.44943396-1.0510279zm40.8206604-.8382432c.0716038.5201407.1280188 1.0488786.160566 1.579766-.2239555.0806003-.3867467.2552343-.5378942.4482168l-.1789572.2355424c-.209658.2737724-.4353184.5241706-.8128656.5435147-.8722641.0494349-1.1087735-1.1670924-1.9398113-1.1391509-.7550943.0279414-.9069811 1.246618-1.7380189 1.2724101-.8353773.0279414-.9916037-1.1713911-1.8226415-1.1434497-.8353773.0257921-.9069811 1.233722-1.7423585 1.2724102-.8418867.0365388-1.011132-1.1799885-1.8595283-1.1434497-.8310377.0365388-.9069811 1.2444687-1.7380188 1.2702608-.7659434.0279414-.9568868-.9843984-1.6360378-1.1262549l.1952831-.0795256c.5684905.1934407.8766037 1.0080411 1.5687735.9091714.8266982-.1160644.7789623-1.3261437 1.6013208-1.4529548.8353774-.1246618 1.1304717 1.0682227 1.9658491.9392622.3542991-.0534265.5475895-.3062154.7178786-.586977l.1677333-.2837381c.1702891-.2803669.3635794-.5315766.7178786-.5822397.8223585-.1160644 1.1000944 1.0617747 1.9267925.9435609.8223585-.1160645.8527358-1.3433384 1.5991509-1.4508055.8223585-.1182137 1.1868868 1.0660734 2.0461321.9263662.7203774-.1182138.7919811-1.0295346 1.3387736-1.3519358zm-7.4533019-.6576984-.4339623.2170834.4426415.1977395-.091132.2364275c-.3970755.3933295-.4816982 1.1606444-1.1217925 1.2831568-.8353773.156902-1.1695283-1.0230865-2.000566-.8661846-.8180189.1526033-.7290566 1.3605332-1.5470755 1.5066884-.310283.0558828-.4903774-.0730776-.644434-.2471743.2213208-.081675.4361321-.1633499.6531132-.2385769l-1.3170754-.6211597c.2495283-.1504539.5033962-.2944597.7616037-.4363163l.0477359.1053178.0629245-.1375579zm-22.1754717.9693529.8071698.1848434c-.0368868.3202519.0368868.6018156.2256604.8360938l.2256604.2106355c-.5880189-.1654993-.7268868-.9800997-1.2584906-1.2315727zm-5.4614151-1.24017 5.0274528 1.1413003.0130189.0279415c-.7138679.0773763-.9351887 1.1262549-1.7163208 1.07682-.8440566-.0537335-.8896226-1.2831568-1.7336792-1.334741-.8332075-.0515842-1.02632076 1.1413003-1.8595283 1.07682-.4968868-.0343894-.70735849-.4857511-.97858491-.8532885l.45132076-.1633499.19962264.4363163.20396226-.4363163.45349057.1633499-.16707547-.4492123.43830188-.1977395-.43830188-.202038zm14.0430189-17.17108842c2.7556603 0 5.3876415.51799128 7.8048113 1.46585084l.0499056.13540851-.4404716.20203809.4404716.19988875-.1692452.45136169.4578302-.16764862.1996226.43416696.2017924-.43416696.4534906.16764862-.1649056-.45136169.115-.05158419c3.4673584 1.59481132 6.4248113 4.08804734 8.5729245 7.18094962l-.3124528.1117658-.2039623-.434167-.1996227.434167-.4578301-.16335.1692452.4492124-.4404717.1998887.4404717.1998888-.1692452.4492123.4578301-.1654993.1996227.4363163.2039623-.4363163.4534905.1654993-.1670755-.4492123.4286793-.1961067.1651529.2663454c.5536035.9016899.8869654 1.5390318 1.2006018 2.1994658l-.3818868.1740966.4361321.1998888-.1649057.4492123.4100944-.1504539c.5185849 1.220826.9286792 2.4996841 1.2085849 3.8236784-.0992689.0677043-.18023.1535436-.2511218.2502639l-.0676518.0975027.0128302-.0361121-.4534906.1654993-.2039622-.434167-.2017925.434167-.4534906-.1654993.1649057.4492124-.4361321.202038.4361321.1977395-.0889623.2407262c-.6813207-.0795256-1.080566-.9951451-1.8096226-.8618859-.7377359.1332592-.7290566 1.3605331-1.5470755 1.504539-.355849.0644802-.615262-.1155868-.8618169-.3300433l-.1838111-.1640067c-.0613374-.0546291-.123177-.1081238-.1868248-.1572005l-.0889623-.2321288.4404717-.1977395-.4404717-.202038.0846227-.2192329.8006603-.1569019-.7377358-.0171947.0216981-.0558829-.1410377.0537335-.3710378-.012896-.1453773-.3095052-.138868.3052065-.4491509-.012896-.069434-.0236428-2.0200943-.0429868c.5337736-.2299796 1.0675472-.4492124 1.6013208-.6598478l-.609717-.6147117 6.1579245-4.3029815c-3.0616038-.3782841-6.5701887-.2944597-9.6079245.4621084l.045566-.1268111-.4534906.1654993-.2017924-.434167-.0477359.1053177.034717-.2600703c-1.1825471.264369-2.4041509.7350748-3.5563207 1.3368904l.9113207-2.114952-3.0377358 2.6393913.9069811-5.22075028-2.7100943 4.91554378-.9243397-7.85369347-.9265094 7.85369347-2.6818868-4.87470629.8787736 5.17991279-2.9921698-2.5964044 1.3517924 3.1960706-3.4825471-1.7861027 1.8551887 2.3384835-.0933019.2041874-.2516981-.0752269-.2104717-.075227-3.3935849-.9800997 3.1353773 2.2868993-3.9859434-.6190103.0824528-.0386882-.4383018-.1998887.1670754-.4492124-.4534905.1654993-.2039623-.434167-.2017925.434167-.4534905-.1654993.1649056.4492124-.4383018.1998887.4383018.1998888-.1649056.4513617.4534905-.1654993.2017925.4341669.2039623-.4341669.4534905.1654993-.1388679-.3718361 3.6561321 1.5819153-7.91981134-.0279415.70518868.1590513-.07594339.1654993-.45566038-.1654993.16707547.4492124-.43830189.202038.43830189.1977395-.16490566.447063c-.17792453-.2471743-.38188679-.4513617-.71386793-.4771538-.83103773-.0601816-1.10877358 1.1327029-1.8595283 1.0789694-.82235849-.0580323-.9590566-1.1069109-1.79443396-1.3411891l-.23650943-.107467.16924528-.4492124-.45349057.1654993-.20396226-.434167-.20179245.434167-.28424529-.1031684c.50122642-2.5921057 1.47981132-5.0122641 2.84462264-7.1723523l.06943397.0322402-.16707547.4492123.45349056-.1654993.20179245.4363163.20396227-.4363163.45349056.1654993-.16707547-.4492123.43830189-.1998888-.43830189-.1998887.16707547-.4492124-.45349056.16335-.1345283-.2837131c1.38867924-1.95375134 3.10066037-3.6646271 5.06433961-5.05095231l.1215094.33529726-.4383018.19988875.4383018.2020381-.1649056.44921235.4534905-.16764863.2017925.4363163.2039623-.4363163.4534905.16764863-.1670754-.44921235.4383018-.2020381-.4383018-.19988875.1670754-.44921235-.4534905.16549929-.2039623-.43631631-.2017925.43631631-.3189622-.11606444c.8831132-.61901032 1.8161321-1.17139106 2.7925472-1.65499288l-.0976416.26436899.4534906-.16764862.2039623.43416696.1996226-.43416696.4556604.16764862-.1692453-.45136169.4426415-.19988875-.3167924-.14615522c2.5451886-1.06822267 5.3442453-1.65714222 8.28-1.65714222zm-17.46915098 14.09753022-.20179245.434167-.45349056-.1654993.16707547.4492124-.4404717.1998887.4404717.1998888-.16707547.4513617.45349056-.1654993.20179245.4341669.20396227-.4341669.45349056.1654993-.16707547-.4513617.43830189-.1998888-.43830189-.1998887.16707547-.4492124-.45349056.1654993zm34.47396228 0-.1996227.434167-.4578301-.1654993.1692452.4492124-.4404717.1998887.4404717.1998888-.1692452.4513617.4578301-.1654993.1996227.4341669.2039623-.4341669.4534905.1654993-.1670755-.4513617.4383019-.1998888-.4383019-.1998887.1670755-.4492124-.4534905.1654993zm-25.8966981-2.6436899-.2039623.434167-.4534906-.1654993.1670755.4492123-.4383019.2020381.4383019.1998888-.1670755.4492123.4534906-.1654992.2039623.4341669.1996226-.4341669.4556604.1654992-.1692453-.4492123.4426415-.1998888-.4426415-.2020381.1692453-.4492123-.4556604.1654993zm-5.74783021 0-.19962264.434167-.45566038-.1654993.16707547.4492123-.43830189.2020381.43830189.1998888-.16707547.4492123.45566038-.1654992.19962264.4341669.20396226-.4341669.45349057.1654992-.16707547-.4492123.43830188-.1998888-.43830188-.2020381.16707547-.4492123-.45349057.1654993zm4.59566041-11.45598966c-4.90377362 2.30409399-8.87669815 6.23738875-11.20273589 11.09490036l-.00216981-11.09490036zm31.3364151 0v11.08845226c-2.3260378-4.85536219-6.2924529-8.78650762-11.1962265-11.08845226zm-27.2680189 8.81229976-.2039623.434167-.4534905-.16335.1670754.4492124-.4383019.1998887.4383019.1998888-.1670754.4492123.4534905-.1654993.2039623.4363163.1996226-.4363163.4556604.1654993-.1692453-.4492123.4404717-.1998888-.4404717-.1998887.1692453-.4492124-.4556604.16335zm-5.7478302 0-.2017925.434167-.4534905-.16335.1649056.4492124-.4383018.1998887.4383018.1998888-.1649056.4492123.4534905-.1654993.2017925.4363163.2039623-.4363163.4534905.1654993-.1670754-.4492123.4383018-.1998888-.4383018-.1998887.1670754-.4492124-.4534905.16335zm17.2391509 0-.2039622.434167-.4534906-.16335.1649057.4492124-.4361321.1998887.4361321.1998888-.1649057.4492123.4534906-.1654993.2039622.4363163.1996227-.4363163.4578302.1654993-.1714151-.4492123.4426415-.1998888-.4426415-.1998887.1714151-.4492124-.4578302.16335zm5.7434906 0-.1996226.434167-.4578302-.16335.1692453.4492124-.4404717.1998887.4404717.1998888-.1692453.4492123.4578302-.1654993.1996226.4363163.2017925-.4363163.4534905.1654993-.1649056-.4492123.4404717-.1998888-.4404717-.1998887.1649056-.4492124-.4534905.16335zm2.829434-2.64154059-.2039623.43416696-.4534906-.16549929.1714151.44921236-.4426415.20203809.4426415.19988875-.1714151.44921235.4534906-.16764863.2039623.43631631.2039622-.43631631.4534906.16764863-.1692453-.44921235.4404717-.19988875-.4404717-.20203809.1692453-.44921236-.4534906.16549929zm-22.9804717 0-.2039623.43416696-.4534906-.16549929.1670755.44921236-.4383019.20203809.4383019.19988875-.1670755.44921235.4534906-.16764863.2039623.43631631.1996226-.43631631.4556604.16764863-.1692453-.44921235.4426415-.19988875-.4426415-.20203809.1692453-.44921236-.4556604.16549929zm-5.74783021 0-.19962264.43416696-.45566038-.16549929.16707547.44921236-.43830189.20203809.43830189.19988875-.16707547.44921235.45566038-.16764863.19962264.43631631.20396226-.43631631.45349057.16764863-.16707547-.44921235.43830188-.19988875-.43830188-.20203809.16707547-.44921236-.45349057.16549929zm22.98264151 0-.1996226.43416696-.4578302-.16549929.1692452.44921236-.4404716.20203809.4404716.19988875-.1692452.44921235.4578302-.16764863.1996226.43631631.2017924-.43631631.4534906.16764863-.1649056-.44921235.436132-.19988875-.436132-.20203809.1649056-.44921236-.4534906.16549929zm-5.7456604 0-.2017924.43416696-.4556604-.16549929.1692453.44921236-.4383019.20203809.4383019.19988875-.1692453.44921235.4556604-.16764863.2017924.43631631.2017925-.43631631.4534905.16764863-.1649056-.44921235.4404717-.19988875-.4404717-.20203809.1649056-.44921236-.4534905.16549929zm-5.7456604 0-.2039622.43416696-.4513208-.16549929.1692453.44921236-.4426415.20203809.4426415.19988875-.1692453.44921235.4513208-.16764863.2039622.43631631.2039623-.43631631.4534906.16764863-.1670755-.44921235.4383019-.19988875-.4383019-.20203809.1670755-.44921236-.4534906.16549929zm14.4075472-2.64368993-.1996226.43631631-.4578302-.16549929.1692453.44921235-.4404717.19988875.4404717.2020381-.1692453.44921235.4578302-.16764863.1996226.4363163.2017925-.4363163.4534905.16764863-.1649056-.44921235.4404717-.2020381-.4404717-.19988875.1649056-.44921235-.4534905.16549929zm-5.7434906 0-.2039622.43631631-.4534906-.16549929.1649057.44921235-.4361321.19988875.4361321.2020381-.1649057.44921235.4534906-.16764863.2039622.4363163.1996227-.4363163.4578302.16764863-.1714151-.44921235.4426415-.2020381-.4426415-.19988875.1714151-.44921235-.4578302.16549929zm-11.4913207 0-.2039623.43631631-.4534905-.16549929.1670754.44921235-.4383019.19988875.4383019.2020381-.1670754.44921235.4534905-.16764863.2039623.4363163.1996226-.4363163.4556604.16764863-.1692453-.44921235.4404717-.2020381-.4404717-.19988875.1692453-.44921235-.4556604.16549929zm5.7434906-.4879005-.2017925.43416697-.4534906-.16549929.1649057.45136169-.4383019.19988876.4383019.19988875-.1649057.44921235.4534906-.16549929.2017925.43631631.2039622-.43631631.4534906.16549929-.1692453-.44921235.4404717-.19988875-.4404717-.19988876.1692453-.45136169-.4534906.16549929zm2.8294339-2.15364008-.2017924.43416696-.4556604-.16549929.1692453.44921236-.4383019.20203809.4383019.19988875-.1692453.45136169.4556604-.16764862.2017924.43416696.2017925-.43416696.4534905.16764862-.1649056-.45136169.4404717-.19988875-.4404717-.20203809.1649056-.44921236-.4534905.16549929zm-5.7456604 0-.2039622.43416696-.4513208-.16549929.1692453.44921236-.4426415.20203809.4426415.19988875-.1692453.45136169.4513208-.16764862.2039622.43416696.2039623-.43416696.4534906.16764862-.1670755-.45136169.4383019-.19988875-.4383019-.20203809.1670755-.44921236-.4534906.16549929z" fill="#f1ab33"/></g></svg>