<svg width="252" height="252" viewBox="0 0 252 252" fill="none" xmlns="http://www.w3.org/2000/svg">
<g clip-path="url(#clip0_4995_11410)">
<path d="M140.207 100.557C142.932 96.7874 148.061 94.5138 150.936 96.917C152.582 98.2931 153.74 100.407 154.079 102.292C154.339 103.698 154.139 109.611 152.283 108.006" fill="#FFFBEC"/>
<path d="M140.207 100.557C142.932 96.7874 148.061 94.5138 150.936 96.917C152.582 98.2931 153.74 100.407 154.079 102.292C154.339 103.698 154.139 109.611 152.283 108.006" stroke="#403B36" stroke-width="0.5" stroke-linecap="round" stroke-linejoin="round"/>
<path d="M135.148 105.682C138.362 99.8388 145.308 97.8444 148.821 99.1507C150.907 99.9285 151.825 104.705 151.915 105.493C152.404 110.229 151.476 111.476 149.53 109.99" fill="#FFFBEC"/>
<path d="M135.148 105.682C138.362 99.8388 145.308 97.8444 148.821 99.1507C150.907 99.9285 151.825 104.705 151.915 105.493C152.404 110.229 151.476 111.476 149.53 109.99" stroke="#403B36" stroke-width="0.5" stroke-linecap="round" stroke-linejoin="round"/>
<path d="M113.031 84.0431C115.286 83.0559 119.797 86.4364 123.54 94.3441C128.5 104.834 130.636 120.67 130.745 122.644C131.015 127.201 131.274 127.401 131.773 131.051C132.322 135.049 135.725 144.802 135.725 144.802C135.725 144.802 138.18 152.121 138.41 154.863C138.46 155.472 138.64 156.868 137.552 157.237C136.174 157.695 135.296 155.631 134.687 154.175C133.44 151.174 132.003 145.57 132.003 145.57L133.829 157.915C134.188 161.016 133.091 161.056 132.811 161.086C131.554 161.245 131.045 158.254 130.825 157.446C130.216 155.202 128.799 147.624 128.799 147.624C128.799 147.624 129.677 157.616 129.717 159.859C129.727 160.727 129.378 161.355 128.889 161.405C128.46 161.445 127.422 161.445 126.673 156.579C125.506 148.92 126.514 141.8 126.514 141.8C124.907 147.464 124.598 149.01 123.999 149C123.18 149 123.14 146.746 123.2 144.543C123.28 141.262 124.099 139.198 124.518 137.393C125.057 135.069 125.436 133.214 124.228 128.937C122.522 122.844 120.855 122.056 116.334 107.497C113.919 99.7089 110.456 85.1799 113.041 84.0531L113.031 84.0431Z" fill="#FFFBEC" stroke="#403B36" stroke-width="0.5" stroke-linecap="round" stroke-linejoin="round"/>
<path d="M107.464 78.0002C110.707 77.4119 113.951 76.8235 117.194 76.2252C118.562 72.1866 120.837 63.4811 117.713 53.6987C117.105 51.814 112.374 36.9958 102.434 35.859C100.238 35.6097 98.322 36.0884 96.9447 36.6069C96.7851 38.1525 96.6254 39.7082 96.4657 41.2538C95.807 39.7082 95.1483 38.1525 94.4797 36.6069C91.1064 39.1198 83.6013 45.4121 79.0903 56.441C74.3797 67.9685 75.6172 78.1498 76.3457 82.2781C81.9546 82.0687 87.8029 80.4533 93.4118 80.2439C93.302 77.9005 92.9327 76.9631 92.823 74.6197C91.785 73.802 90.2082 72.3461 88.9307 70.1025C87.3538 67.3203 87.0045 64.7176 86.9247 63.3016C85.8668 64.249 84.3299 64.3487 83.262 63.5908C82.0145 62.7033 81.6252 60.7987 82.6332 59.5921C83.4516 58.6049 84.9985 58.3456 86.2361 59.0736C89.4596 57.1689 92.6832 55.2643 95.9068 53.3597C95.797 51.3753 95.6773 49.4008 95.5675 47.4164C96.2761 49.1914 96.9747 50.9564 97.6833 52.7314C99.2901 51.9835 100.887 51.2456 102.494 50.4977C102.184 49.2213 101.885 47.9449 101.576 46.6685C102.534 47.8352 103.482 48.992 104.44 50.1587C105.817 49.6601 107.184 49.1715 108.562 48.6729C109.36 50.5975 109.702 52.3846 110.049 55.2398C110.396 52.3846 112.354 51.7642 113.372 51.814C114.63 51.8838 115.258 53.6588 115.378 54.676C115.548 56.2216 114.789 58.2459 113.372 58.5052C112.624 58.6448 111.945 58.2459 111.596 57.9866" fill="#403B36"/>
<path d="M107.464 78.0002C110.707 77.4119 113.951 76.8235 117.194 76.2252C118.562 72.1866 120.837 63.4811 117.713 53.6987C117.105 51.814 112.374 36.9958 102.434 35.859C100.238 35.6097 98.322 36.0884 96.9447 36.6069C96.7851 38.1525 96.6254 39.7082 96.4657 41.2538C95.807 39.7082 95.1483 38.1525 94.4797 36.6069C91.1064 39.1198 83.6013 45.4121 79.0903 56.441C74.3797 67.9685 75.6172 78.1498 76.3457 82.2781C81.9546 82.0687 87.8029 80.4533 93.4118 80.2439C93.302 77.9005 92.9327 76.9631 92.823 74.6197C91.785 73.802 90.2082 72.3461 88.9307 70.1025C87.3538 67.3203 87.0045 64.7176 86.9247 63.3016C85.8668 64.249 84.3299 64.3487 83.262 63.5908C82.0145 62.7033 81.6252 60.7987 82.6332 59.5921C83.4516 58.6049 84.9985 58.3456 86.2361 59.0736C89.4596 57.1689 92.6832 55.2643 95.9068 53.3597C95.797 51.3753 95.6773 49.4008 95.5675 47.4164C96.2761 49.1914 96.9747 50.9564 97.6833 52.7314C99.2901 51.9835 100.887 51.2456 102.494 50.4977C102.184 49.2213 101.885 47.9449 101.576 46.6685C102.534 47.8352 103.482 48.992 104.44 50.1587C105.817 49.6601 107.184 49.1715 108.562 48.6729C109.36 50.5975 109.702 52.3846 110.049 55.2398C110.396 52.3846 112.354 51.7642 113.372 51.814C114.63 51.8838 115.258 53.6588 115.378 54.676C115.548 56.2216 114.789 58.2459 113.372 58.5052C112.624 58.6448 111.945 58.2459 111.596 57.9866" stroke="#403B36" stroke-width="0.5" stroke-linecap="round" stroke-linejoin="round"/>
<path d="M110.046 55.2397C110.316 56.4264 111.743 63.5409 107.351 69.6437C106.214 71.2193 104.218 74.2009 100.315 75.2479C96.8922 76.1654 93.9481 75.0984 92.8203 74.6197" stroke="#403B36" stroke-width="0.5" stroke-linecap="round" stroke-linejoin="round"/>
<path d="M98.4414 66.9117C99.3197 66.7023 103.252 65.7649 103.511 62.9828C104.02 57.7276 101.296 52.2729 101.296 52.2729" stroke="#403B36" stroke-width="0.5" stroke-linecap="round" stroke-linejoin="round"/>
<path d="M95.0848 61.1975C95.7076 61.1975 96.2125 60.693 96.2125 60.0707C96.2125 59.4483 95.7076 58.9438 95.0848 58.9438C94.4619 58.9438 93.957 59.4483 93.957 60.0707C93.957 60.693 94.4619 61.1975 95.0848 61.1975Z" fill="#403B36"/>
<path d="M170.897 213.309C171.52 213.309 172.025 212.804 172.025 212.182C172.025 211.56 171.52 211.055 170.897 211.055C170.274 211.055 169.77 211.56 169.77 212.182C169.77 212.804 170.274 213.309 170.897 213.309Z" fill="black" stroke="#403B36" stroke-miterlimit="10"/>
<path d="M106.073 57.2688C106.696 57.2688 107.201 56.7643 107.201 56.142C107.201 55.5196 106.696 55.0151 106.073 55.0151C105.45 55.0151 104.945 55.5196 104.945 56.142C104.945 56.7643 105.45 57.2688 106.073 57.2688Z" fill="#403B36"/>
<path d="M198.78 213.818C199.403 213.818 199.908 213.313 199.908 212.691C199.908 212.068 199.403 211.564 198.78 211.564C198.157 211.564 197.652 212.068 197.652 212.691C197.652 213.313 198.157 213.818 198.78 213.818Z" fill="black" stroke="#403B36" stroke-miterlimit="10"/>
<path d="M134.379 218.285H118.511C117.592 216.66 116.674 215.024 115.766 213.399V218.285H109.968C107.872 209.59 105.716 201.183 103.57 192.747H117.533C118.201 196.357 118.88 200.007 119.578 203.796C124.509 208.622 129.439 213.449 134.379 218.285Z" fill="#403B36" stroke="#403B36" stroke-linecap="round" stroke-linejoin="round"/>
<path d="M92.7812 192.597C94.7274 186.145 96.6635 179.753 98.6595 173.032C100.276 179.733 101.923 186.255 103.57 192.747" stroke="#403B36" stroke-width="0.5" stroke-linecap="round" stroke-linejoin="round"/>
<path d="M117.533 192.747C116.366 186.395 115.218 180.162 113.98 173.491" stroke="#403B36" stroke-width="0.5" stroke-linecap="round" stroke-linejoin="round"/>
<path d="M86.1255 172.524C83.89 179.355 81.7243 185.996 79.5586 192.597" stroke="#403B36" stroke-width="0.5" stroke-linecap="round" stroke-linejoin="round"/>
<path d="M82.7997 135.807C82.2808 147.036 80.2049 158.523 76.8516 171.975C92.211 172.534 107.57 173.092 122.93 173.651C121.762 155.97 120.594 138.29 119.417 120.6C118.129 104.874 116.692 93.1774 115.754 89.049C115.285 86.9649 114.207 85.3694 114.207 85.3694C114.197 85.3495 113.928 84.9705 113.618 84.6215C111.852 82.6271 108.978 81.7397 108.588 81.7297C101.013 81.4604 96.4226 81.959 96.4226 81.959C96.4226 81.959 89.4764 82.3779 86.9215 84.1728C84.9155 85.5788 84.0173 87.7028 83.4085 89.6573C81.2428 96.6476 82.5502 108.225 82.9494 117.738C83.2089 123.841 83.0792 129.694 82.7997 135.797V135.807Z" fill="#FFA40A" stroke="#403B36" stroke-width="0.5" stroke-linecap="round" stroke-linejoin="round"/>
<path d="M91.8036 84.5916C86.5441 83.395 78.9891 97.3357 75.2466 108.833C72.6218 116.901 72.0729 124.02 72.043 128.877C76.7037 129.006 81.7037 128.917 86.9932 128.498C102.842 127.231 116.255 123.392 126.664 119.354C127.802 120.361 129.509 121.597 131.774 121.867C138.062 122.604 142.573 117.499 143.85 115.215C144.269 114.467 143.83 113.829 143.331 113.54C142.583 113.111 141.654 113.341 140.028 114.158C137.632 115.355 135.567 116.731 133.99 117.888C134.958 115.574 135.916 113.321 136.734 112.034C138.93 108.574 140.117 108.016 140.547 107.846C141.086 107.627 143.171 106.689 144.898 107.846C146.375 108.833 146.555 110.668 146.575 110.967C146.954 111.127 147.852 111.446 148.631 111.047C149.858 110.419 149.858 108.484 149.848 107.766C149.838 104.216 146.415 101.833 145.497 101.175C142.972 101.763 138.69 102.94 134.279 106.32C130.387 109.312 128.061 112.633 126.804 114.777C121.115 114.268 114.429 114.059 106.973 114.547C99.8576 115.016 93.5202 116.033 88.131 117.22C90.8356 111.466 92.6519 106.49 93.8496 102.81C97.2129 92.5193 96.8436 89.059 95.2967 86.576C94.628 85.499 93.111 84.8908 91.7837 84.5916H91.8036Z" fill="#FFFBEC" stroke="#403B36" stroke-width="0.5" stroke-linecap="round" stroke-linejoin="round"/>
<path d="M98.0622 219.192C92.4234 219.292 86.7747 219.402 81.1359 219.501C80.3674 217.726 79.6089 215.941 78.8405 214.166C78.2317 215.792 77.6229 217.417 77.0141 219.043H70.9062C73.8604 210.018 76.7047 201.333 79.559 192.597H92.7827C91.4054 197.174 90.0282 201.781 88.611 206.538C91.7548 210.756 94.9085 214.974 98.0622 219.192Z" fill="#403B36" stroke="#403B36" stroke-linecap="round" stroke-linejoin="round"/>
<path d="M92.8203 74.6299C93.2694 78.5588 93.4091 80.254 93.7185 82.1985" stroke="#403B36" stroke-width="0.5" stroke-linecap="round" stroke-linejoin="round"/>
<path d="M105.258 72.2666C106.356 75.1086 107.763 78.9179 108.861 81.7598" stroke="#403B36" stroke-width="0.5" stroke-linecap="round" stroke-linejoin="round"/>
<path d="M192.491 149.828L204.597 145.201L200.585 157.736L212.372 177.639L195.565 167.877L176.214 185.418L184.357 166.232L164.547 149.748L182.461 155.083L185.825 124.37" fill="#FF8C00"/>
<path d="M143.602 111.207C144.47 111.177 156.486 110.788 160.618 112.792C161.027 112.992 161.935 113.431 162.674 114.378C164.071 116.163 163.871 118.436 163.821 119.144C163.572 122.655 162.644 150.735 161.306 189.566L153.292 205.471C173.891 205.93 194.48 206.378 215.079 206.837" stroke="#403B36" stroke-width="2" stroke-linecap="round" stroke-linejoin="round"/>
<path d="M163.133 135.887C185.788 139.627 205.339 142.528 227.994 146.268C219.68 162.811 211.716 178.647 203.403 195.19C189.061 192.906 175.748 191.65 161.406 189.356L163.123 135.887H163.133Z" stroke="#403B36" stroke-width="2" stroke-linecap="round" stroke-linejoin="round"/>
<path d="M174.31 137.702L171.875 190.892" stroke="#403B36" stroke-linecap="round" stroke-linejoin="round"/>
<path d="M187.444 139.796L180.508 192.019" stroke="#403B36" stroke-linecap="round" stroke-linejoin="round"/>
<path d="M202.783 142.209L190.727 193.345" stroke="#403B36" stroke-linecap="round" stroke-linejoin="round"/>
<path d="M216.356 144.373L198.062 194.372" stroke="#403B36" stroke-linecap="round" stroke-linejoin="round"/>
<path d="M162.73 148.302L223.769 154.674" stroke="#403B36" stroke-linecap="round" stroke-linejoin="round"/>
<path d="M162.441 157.457L218.121 165.913" stroke="#403B36" stroke-linecap="round" stroke-linejoin="round"/>
<path d="M162.094 168.126L212.843 176.423" stroke="#403B36" stroke-linecap="round" stroke-linejoin="round"/>
<path d="M161.766 178.407L208.692 184.68" stroke="#403B36" stroke-linecap="round" stroke-linejoin="round"/>
<path d="M170.866 218.285C174.239 218.285 176.974 215.552 176.974 212.182C176.974 208.811 174.239 206.079 170.866 206.079C167.492 206.079 164.758 208.811 164.758 212.182C164.758 215.552 167.492 218.285 170.866 218.285Z" fill="#403B36" stroke="#403B36" stroke-linecap="round" stroke-linejoin="round"/>
<path d="M198.78 218.793C202.153 218.793 204.888 216.061 204.888 212.691C204.888 209.32 202.153 206.588 198.78 206.588C195.406 206.588 192.672 209.32 192.672 212.691C192.672 216.061 195.406 218.793 198.78 218.793Z" fill="#403B36" stroke="#403B36" stroke-linecap="round" stroke-linejoin="round"/>
<path d="M143.598 113.51C145.219 113.51 146.532 112.198 146.532 110.579C146.532 108.96 145.219 107.647 143.598 107.647C141.978 107.647 140.664 108.96 140.664 110.579C140.664 112.198 141.978 113.51 143.598 113.51Z" fill="white" stroke="#403B36" stroke-linecap="round" stroke-linejoin="round"/>
</g>
<defs>
<clipPath id="clip0_4995_11410">
<rect width="206" height="188" fill="white" transform="translate(23 32)"/>
</clipPath>
</defs>
</svg>
