<svg width="252" height="252" viewBox="0 0 252 252" fill="none" xmlns="http://www.w3.org/2000/svg">
<path d="M75.6766 206.329C74.7651 206.421 73.8536 206.518 72.9421 206.61C71.7488 205.104 70.5554 203.594 69.3621 202.084C69.9874 201.207 70.6171 200.327 71.2468 199.446C70.3969 199.635 69.5515 199.825 68.7016 200.01C68.5431 199.384 68.389 198.755 68.2305 198.125C69.7672 197.632 71.3084 197.139 72.8452 196.641L75.1305 200.661C74.8091 201.793 74.4876 202.934 74.1706 204.065C74.6726 204.818 75.1746 205.576 75.6766 206.329Z" fill="#403B36" stroke="#403B36" stroke-miterlimit="10"/>
<path d="M121.683 204.158H118.949C119.547 204.598 120.142 205.038 120.741 205.479L119.041 207.178C117.742 205.915 116.447 204.655 115.148 203.396L118.42 200.318C118.438 200.34 118.46 200.366 118.477 200.388C120.833 200.481 123.189 200.578 125.549 200.67C124.259 201.833 122.969 202.995 121.683 204.158Z" fill="#403B36" stroke="#403B36" stroke-miterlimit="10"/>
<path d="M118.419 200.318L115.147 203.396C109.656 198.054 104.165 192.718 98.6783 187.381C96.1331 190.397 93.588 193.413 91.0428 196.43C85.7632 197.751 80.4836 199.067 75.204 200.388C75.1775 200.481 75.1511 200.569 75.1291 200.661L72.8438 196.641C78.2511 194.906 83.654 193.171 89.0613 191.432C90.6642 188.195 92.267 184.959 93.8698 181.722C96.9169 181.533 99.9685 181.344 103.016 181.159C108.15 187.544 113.284 193.928 118.419 200.318Z" stroke="#403B36" stroke-miterlimit="10"/>
<path d="M96.221 169.102C93.0374 166.205 90.2369 162.832 87.0576 159.939C84.649 157.086 81.8573 154.717 79.4442 151.863C80.5935 150.811 80.9061 149.477 80.9546 148.724C81.0867 146.667 80.937 145.668 80.8709 145.003C80.7917 144.197 80.6507 143.374 79.8758 143.374C79.5147 143.374 78.9687 144.14 78.7837 144.743C78.3742 146.082 78.4491 147.61 78.4491 148.746C78.4491 148.931 78.5768 144.901 76.6569 142.779C76.4896 142.594 75.7058 141.727 75.3315 141.916C75.1025 142.031 75.1069 142.488 75.1333 142.845C75.2963 144.998 76.8639 147.887 76.9343 148.107C77.0356 148.411 74.9924 144.642 73.8608 143.492C73.2795 142.898 72.892 142.77 72.6322 142.924C72.3416 143.096 72.2447 143.457 72.3328 144.06C72.5045 145.214 75.217 148.252 74.0677 149.538C73.2619 148.367 72.6014 147.698 71.7251 147.24C71.1527 146.94 70.4614 146.755 70.0959 147.125C69.8185 147.403 69.7965 147.79 69.8889 148.226C70.0166 148.834 70.8929 149.741 71.232 150.018C71.9585 150.617 73.1915 151.493 74.6049 151.991C75.0541 152.149 75.7058 152.343 76.5292 152.453C77.6521 154.452 78.8234 156.672 80.3425 159.138C81.483 160.987 82.8348 163.03 84.0766 164.312C86.8859 167.072 89.8978 169.389 93.284 171.278" fill="white"/>
<path d="M96.221 169.102C93.0374 166.205 90.2369 162.832 87.0576 159.939C84.649 157.086 81.8573 154.717 79.4442 151.863C80.5935 150.811 80.9061 149.477 80.9546 148.724C81.0867 146.667 80.937 145.668 80.8709 145.003C80.7917 144.197 80.6507 143.374 79.8758 143.374C79.5147 143.374 78.9687 144.14 78.7837 144.743C78.3742 146.082 78.4491 147.61 78.4491 148.746C78.4491 148.931 78.5768 144.901 76.6569 142.779C76.4896 142.594 75.7058 141.727 75.3315 141.916C75.1025 142.031 75.1069 142.488 75.1333 142.845C75.2963 144.998 76.8639 147.887 76.9343 148.107C77.0356 148.411 74.9924 144.642 73.8608 143.492C73.2795 142.898 72.892 142.77 72.6322 142.924C72.3416 143.096 72.2447 143.457 72.3328 144.06C72.5045 145.214 75.217 148.252 74.0677 149.538C73.2619 148.367 72.6014 147.698 71.7251 147.24C71.1527 146.94 70.4614 146.755 70.0959 147.125C69.8185 147.403 69.7965 147.79 69.8889 148.226C70.0166 148.834 70.8929 149.741 71.232 150.018C71.9585 150.617 73.1915 151.493 74.6049 151.991C75.0541 152.149 75.7058 152.343 76.5292 152.453C77.6521 154.452 78.8234 156.672 80.3425 159.138C81.483 160.987 82.8348 163.03 84.0766 164.312C86.8859 167.072 89.8978 169.389 93.284 171.278" stroke="#403B36" stroke-miterlimit="10"/>
<path d="M94.8189 166.447C96.0739 166.795 97.3332 167.139 98.5882 167.486C98.804 167.759 99.6142 168.711 101.041 168.997C102.798 169.345 104.123 168.402 104.339 168.244C106.224 167.081 108.108 165.919 109.997 164.756C111.001 166.518 112.01 168.275 113.014 170.036C111.098 170.855 109.178 171.67 107.263 172.489C107.355 175.818 107.452 179.151 107.545 182.48C102.265 182.7 96.9854 182.92 91.7057 183.14C92.7449 179.591 93.7797 176.038 94.8189 172.489C93.7489 171.925 92.6833 171.357 91.6133 170.793L94.8189 166.456V166.447Z" fill="#403B36" stroke="#403B36" stroke-miterlimit="10"/>
<path d="M97.6462 165.042C98.0161 166.178 98.9055 167.266 99.5264 167.777C100.68 168.724 102.309 168.486 102.794 168.411C107.347 167.689 107.84 162.546 107.937 162.268C108.153 162.259 108.452 162.669 109.227 162.612C109.782 162.572 110.187 162.075 110.231 161.242C110.271 160.428 109.998 159.587 109.002 159.609C108.47 159.617 107.968 160.243 107.91 160.348V155.602C104.414 155.936 100.913 156.271 97.4172 156.606V161.511C96.8007 161.079 96.061 161.062 95.6779 161.405C95.0526 161.964 95.3917 163.532 96.2239 163.58C96.8976 163.62 97.1354 163.065 97.2058 162.986C97.2499 163.541 97.4436 164.426 97.6462 165.051V165.042Z" fill="white" stroke="#403B36" stroke-linecap="round" stroke-linejoin="round"/>
<path d="M103.783 158.438C103.633 159.851 103.682 161.212 103.4 162.876C103.329 163.299 103.158 163.801 102.863 164.03C102.29 164.466 101.524 164.29 101.242 164.254" fill="white"/>
<path d="M103.783 158.438C103.633 159.851 103.682 161.212 103.4 162.876C103.329 163.299 103.158 163.801 102.863 164.03C102.29 164.466 101.524 164.29 101.242 164.254" stroke="#403B36" stroke-linecap="round" stroke-linejoin="round"/>
<path d="M100.656 162.418C100.96 162.418 101.206 162.172 101.206 161.868C101.206 161.564 100.96 161.317 100.656 161.317C100.352 161.317 100.105 161.564 100.105 161.868C100.105 162.172 100.352 162.418 100.656 162.418Z" fill="#403B36"/>
<path d="M104.941 162.325C105.245 162.325 105.491 162.079 105.491 161.775C105.491 161.471 105.245 161.225 104.941 161.225C104.637 161.225 104.391 161.471 104.391 161.775C104.391 162.079 104.637 162.325 104.941 162.325Z" fill="#403B36"/>
<path d="M25.1325 117.667C24.7186 117.799 21.4337 118.186 19.7604 121.867C19.5711 122.281 19.0383 124.065 18.7036 127.852C18.5275 129.86 18.3734 132.713 18.5187 136.196C23.5693 135.425 29.0383 134.395 34.089 133.624C34.1198 131.119 33.8556 124.967 33.4901 122.369C33.3932 121.665 32.6182 119.349 31.1035 118.384C28.7785 116.9 25.9471 117.411 25.1325 117.671V117.667Z" fill="#403B36"/>
<path d="M26.3247 120.705C25.1534 121.027 21.961 121.903 21.7232 123.722C21.7012 123.902 21.7012 123.946 21.7144 124.052C21.6968 124.025 21.5514 123.303 20.9218 123.281C20.1292 123.255 19.8033 123.95 19.7857 124.479C19.7725 124.924 20.0015 125.729 20.7368 125.756C21.1067 125.769 21.5823 125.602 21.732 125.205C21.6439 125.729 21.6219 126.711 22.1899 127.975C22.8328 129.411 24.33 130.851 26.1177 130.877C28.6673 130.912 30.2437 128.032 30.7457 126.452C31.0715 125.426 31.0847 124.505 31.0407 123.871C31.1728 123.972 31.3885 124.1 31.6572 124.105C32.278 124.122 32.965 123.493 32.9165 122.757C32.8725 122.083 32.2208 121.449 31.5999 121.586C31.1992 121.674 30.8778 122.061 30.7809 122.555C30.7633 122.061 30.6532 121.19 30.0191 120.648C29.1693 119.926 27.9275 120.265 26.3291 120.705H26.3247Z" fill="white" stroke="#403B36" stroke-linecap="round" stroke-linejoin="round"/>
<path d="M27.2157 155.698C25.5028 161.639 23.7854 167.587 22.0725 173.528L17.0703 171.995C18.8977 166.13 20.7207 160.256 22.5481 154.391C24.1069 154.827 25.6613 155.258 27.2201 155.694L27.2157 155.698Z" stroke="#403B36" stroke-linecap="round" stroke-linejoin="round"/>
<path d="M26.3478 182.594C23.7939 182.145 21.2443 181.705 18.6948 181.264C18.3425 180.102 17.9946 178.939 17.6424 177.781C17.2285 178.662 16.8189 179.551 16.4006 180.436C15.793 180.278 15.1897 180.119 14.582 179.961C15.4055 177.306 16.2333 174.65 17.0567 171.995L22.0589 173.527C21.8828 174.14 21.7067 174.747 21.5349 175.359C23.1378 177.772 24.7362 180.185 26.3434 182.598L26.3478 182.594Z" fill="#403B36" stroke="#403B36" stroke-miterlimit="10"/>
<path d="M36.4097 169.459L31.4867 170.965C31.522 167.279 31.5572 163.598 31.5968 159.917C30.2714 157.772 28.946 155.637 27.625 153.492C28.8491 152.18 30.0733 150.872 31.2974 149.569C32.7945 152.312 34.8641 155.21 36.3657 157.953C36.2204 161.634 36.4625 165.698 36.4053 169.459H36.4097Z" stroke="#403B36" stroke-linecap="round" stroke-linejoin="round"/>
<path d="M42.1441 176.187C40.0084 176.562 37.406 176.465 35.2704 176.835C34.7596 176.033 34.2488 175.223 33.7336 174.422C33.5355 175.377 33.3373 176.333 33.1392 177.288C32.5667 177.464 31.9987 177.645 31.4219 177.821C31.4439 175.536 31.4703 173.246 31.4923 170.965L36.4153 169.459C36.4065 169.895 36.3933 170.322 36.3757 170.745C38.4893 172.607 40.0349 174.32 42.1441 176.187Z" fill="#403B36" stroke="#403B36" stroke-miterlimit="10"/>
<path d="M20.7642 135.196C21.3015 134.404 21.6053 133.73 23.3842 132.766C26.5635 131.044 29.7075 131.735 30.5397 131.947C30.9977 132.823 31.6009 134.166 32.0104 135.874C32.7062 138.785 32.6357 141.238 32.6313 142.598C32.6225 144.95 33.3094 147.957 37.6996 152.259C36.0615 153.329 33.3138 154.818 29.6282 155.487C24.0491 156.5 19.5489 155.047 17.5586 154.258C18.8444 152.422 21.2354 147.376 21.2662 140.727C21.275 138.838 21.3191 136.508 20.7686 135.201L20.7642 135.196Z" fill="white" stroke="#403B36" stroke-linecap="round" stroke-linejoin="round"/>
<path d="M21.0961 140.564C19.6078 142.277 17.4458 143.277 15.5347 144.496C17.1772 147.257 18.278 150.335 18.7624 153.51C18.7888 153.686 18.8196 153.871 18.9341 154.003C19.0398 154.127 19.2027 154.184 19.3568 154.232C20.2683 154.54 21.1842 154.897 21.9284 155.505C22.6725 156.112 23.4652 156.764 23.5796 157.539C23.6413 157.949 23.2142 158.389 22.743 158.407C21.6157 158.455 20.6382 157.861 19.8676 157.086C20.3212 157.654 20.9949 158.618 21.4528 159.961C21.7919 160.961 22.241 162.841 21.7258 163.109C21.2899 163.334 20.3564 162.312 20.2463 162.185C18.8372 160.617 19.2335 158.503 19.1675 157.398C19.3172 159.996 19.7707 162.149 18.7139 164.554C18.5818 164.853 18.0534 165.58 17.4414 165.421C17.0671 165.324 16.8029 164.743 16.7368 164.228C16.477 162.145 17.1287 160.102 17.5426 158.041C17.2212 159.045 16.6708 159.974 15.9486 160.74C15.7549 160.943 15.5391 161.141 15.2749 161.22C15.0063 161.3 14.676 161.234 14.5263 160.996C14.4339 160.846 14.4295 160.661 14.4295 160.485C14.4515 158.301 15.2969 156.205 16.3229 154.276C16.4022 154.131 16.4814 153.977 16.4902 153.814C16.499 153.611 16.4022 153.422 16.3053 153.246C14.5483 149.935 12.5228 147.53 12.197 143.796C12.1661 143.457 12.1441 143.109 12.2542 142.788C12.4083 142.334 12.7958 142.008 13.1701 141.705C13.9935 141.044 15.9662 139.278 20.6822 135.342" fill="white"/>
<path d="M21.0961 140.564C19.6078 142.277 17.4458 143.277 15.5347 144.496C17.1772 147.257 18.278 150.335 18.7624 153.51C18.7888 153.686 18.8196 153.871 18.9341 154.003C19.0398 154.127 19.2027 154.184 19.3568 154.232C20.2683 154.54 21.1842 154.897 21.9284 155.505C22.6725 156.112 23.4652 156.764 23.5796 157.539C23.6413 157.949 23.2142 158.389 22.743 158.407C21.6157 158.455 20.6382 157.861 19.8676 157.086C20.3212 157.654 20.9949 158.618 21.4528 159.961C21.7919 160.961 22.241 162.841 21.7258 163.109C21.2899 163.334 20.3564 162.312 20.2463 162.185C18.8372 160.617 19.2335 158.503 19.1675 157.398C19.3172 159.996 19.7707 162.149 18.7139 164.554C18.5818 164.853 18.0534 165.58 17.4414 165.421C17.0671 165.324 16.8029 164.743 16.7368 164.228C16.477 162.145 17.1287 160.102 17.5426 158.041C17.2212 159.045 16.6708 159.974 15.9486 160.74C15.7549 160.943 15.5391 161.141 15.2749 161.22C15.0063 161.3 14.676 161.234 14.5263 160.996C14.4339 160.846 14.4295 160.661 14.4295 160.485C14.4515 158.301 15.2969 156.205 16.3229 154.276C16.4022 154.131 16.4814 153.977 16.4902 153.814C16.499 153.611 16.4022 153.422 16.3053 153.246C14.5483 149.935 12.5228 147.53 12.197 143.796C12.1661 143.457 12.1441 143.109 12.2542 142.788C12.4083 142.334 12.7958 142.008 13.1701 141.705C13.9935 141.044 15.9662 139.278 20.6822 135.342" stroke="#403B36" stroke-linecap="square" stroke-linejoin="round"/>
<path d="M26.7548 122.656C26.8341 123.096 27.1511 124.919 26.8473 126.17C26.7328 126.636 26.5743 126.848 26.4906 126.94C26.1516 127.315 25.7244 127.284 25.5703 127.262" fill="white"/>
<path d="M26.7548 122.656C26.8341 123.096 27.1511 124.919 26.8473 126.17C26.7328 126.636 26.5743 126.848 26.4906 126.94C26.1516 127.315 25.7244 127.284 25.5703 127.262" stroke="#403B36" stroke-linecap="round" stroke-linejoin="round"/>
<path d="M24.3395 125.364C24.6435 125.364 24.8899 125.117 24.8899 124.813C24.8899 124.509 24.6435 124.263 24.3395 124.263C24.0355 124.263 23.7891 124.509 23.7891 124.813C23.7891 125.117 24.0355 125.364 24.3395 125.364Z" fill="#403B36"/>
<path d="M28.5504 125.003C28.8544 125.003 29.1008 124.756 29.1008 124.452C29.1008 124.148 28.8544 123.902 28.5504 123.902C28.2464 123.902 28 124.148 28 124.452C28 124.756 28.2464 125.003 28.5504 125.003Z" fill="#403B36"/>
<path d="M30.549 119.73L21.1523 120.809L21.4527 123.425L30.8494 122.346L30.549 119.73Z" fill="#403B36"/>
<path d="M111.022 74.6543C110.811 75.4161 110.331 77.5605 111.458 79.5729C111.974 80.4932 113.396 82.3866 114.682 81.9771C115.862 81.6028 116.095 79.5508 116.104 79.4628C115.752 78.7758 115.201 77.8908 114.356 77.0057C113.145 75.7375 111.868 75.033 111.022 74.6587V74.6543Z" fill="white" stroke="#403B36" stroke-linejoin="round"/>
<path d="M132.364 96.975C132.84 95.4647 133.311 93.9499 133.787 92.4396C134.751 93.241 135.715 94.0424 136.684 94.8438C138.74 94.0248 140.801 93.2058 142.858 92.3867L138.379 86.6491C135.354 86.6139 132.334 86.5743 129.308 86.5391C127.706 89.5994 126.103 92.6597 124.5 95.7157C127.124 96.134 129.744 96.5523 132.369 96.9706L132.364 96.975Z" stroke="#403B36" stroke-linejoin="round"/>
<path d="M135.879 71.5764C136.258 70.5945 136.861 68.0405 137.24 67.0586C138.878 67.1907 139.027 67.5694 140.665 67.7015C140.753 68.8287 140.709 70.4932 140.797 71.6205C138.688 71.3431 137.988 71.8539 135.879 71.5764Z" fill="white" stroke="#403B36" stroke-linejoin="round"/>
<path d="M124.665 74.9585C125.092 74.6546 129.645 71.4446 132.749 70.6432C133.414 70.4714 134.202 70.2689 135.206 70.423C136.338 70.5991 136.695 71.0703 137.663 71.242C139.086 71.493 140.274 70.8237 140.666 70.6432C142.256 69.9034 147.663 69.331 161.371 69.3882C161.472 69.7581 161.648 70.63 161.318 71.6295C161.124 72.2064 160.829 72.6291 160.609 72.8845C155.33 73.7784 150.046 74.6679 144.766 75.5617C143.128 79.4587 141.49 83.3557 139.847 87.2527C135.933 87.2703 132.018 87.2879 128.104 87.3055C129.416 85.6366 131.049 83.1399 132.203 79.8198C132.859 77.9352 133.211 76.2002 133.405 74.7383C132.146 75.8347 130.605 77.0104 128.76 78.1245C127.694 78.7674 126.664 79.309 125.699 79.7625C125.351 78.1597 125.008 76.5569 124.66 74.9541L124.665 74.9585Z" fill="#403B36" stroke="#403B36" stroke-linejoin="round"/>
<path d="M134.916 58.4017C134.947 59.4409 134.974 60.4801 135.004 61.5192C134.956 61.4708 134.511 61.0217 133.952 61.1229C133.331 61.2374 133.018 61.942 133.032 62.4836C133.04 62.8843 133.234 63.536 133.824 63.7121C134.247 63.8398 134.727 63.6857 135.053 63.3158C135.062 63.7694 135.141 64.8482 135.889 65.8654C136.858 67.1864 138.479 67.7456 139.844 67.6223C141.918 67.433 143.736 65.6232 144.106 63.1881C144.212 63.2498 144.533 63.4127 144.899 63.3202C145.445 63.1793 145.722 62.5496 145.691 62.0476C145.674 61.735 145.515 61.1273 145.031 61.0393C144.723 60.982 144.375 61.1582 144.155 61.4796C144.124 60.3215 144.097 59.1678 144.066 58.0098" fill="white"/>
<path d="M134.916 58.4017C134.947 59.4409 134.974 60.4801 135.004 61.5192C134.956 61.4708 134.511 61.0217 133.952 61.1229C133.331 61.2374 133.018 61.942 133.032 62.4836C133.04 62.8843 133.234 63.536 133.824 63.7121C134.247 63.8398 134.727 63.6857 135.053 63.3158C135.062 63.7694 135.141 64.8482 135.889 65.8654C136.858 67.1864 138.479 67.7456 139.844 67.6223C141.918 67.433 143.736 65.6232 144.106 63.1881C144.212 63.2498 144.533 63.4127 144.899 63.3202C145.445 63.1793 145.722 62.5496 145.691 62.0476C145.674 61.735 145.515 61.1273 145.031 61.0393C144.723 60.982 144.375 61.1582 144.155 61.4796C144.124 60.3215 144.097 59.1678 144.066 58.0098" stroke="#403B36" stroke-linejoin="round"/>
<path d="M140.729 58.5293C140.725 59.0313 140.729 59.8063 140.769 60.7618C140.831 62.2237 140.932 62.7433 140.58 63.1484C140.426 63.3246 139.99 63.7032 138.801 63.5667" stroke="#403B36" stroke-linejoin="round"/>
<path d="M138.14 61.3826C138.444 61.3826 138.691 61.1361 138.691 60.8322C138.691 60.5282 138.444 60.2817 138.14 60.2817C137.836 60.2817 137.59 60.5282 137.59 60.8322C137.59 61.1361 137.836 61.3826 138.14 61.3826Z" fill="#403B36"/>
<path d="M142.3 61.3826C142.604 61.3826 142.851 61.1361 142.851 60.8322C142.851 60.5282 142.604 60.2817 142.3 60.2817C141.996 60.2817 141.75 60.5282 141.75 60.8322C141.75 61.1361 141.996 61.3826 142.3 61.3826Z" fill="#403B36"/>
<path d="M161.376 69.3881C162.692 67.8249 164.018 66.8253 164.96 66.2221C164.96 66.2221 169.02 63.6109 173.467 64.0336C173.784 64.0644 174.696 64.1481 174.731 64.4211C174.757 64.6148 174.339 64.8174 174.145 64.9055C172.45 65.7069 169.597 66.6316 168.601 67.0455C167.721 67.411 166.536 68.1067 165.343 69.573C165.391 69.551 166.307 69.1063 166.946 69.573C167.025 69.6303 167.25 69.7976 167.333 70.1058C167.333 70.1058 167.448 70.5418 167.043 71.1274C166.541 71.8496 164.542 72.0874 161.988 71.8099L161.371 69.3837L161.376 69.3881Z" fill="white" stroke="#403B36" stroke-linejoin="round"/>
<path d="M170.863 66.3936C171.229 66.332 171.889 66.2703 172.633 66.5213C173.025 66.6534 173.413 66.7811 173.668 67.1114C174.342 67.9744 173.906 69.9427 172.629 70.5284C171.933 70.8454 171.216 70.6473 170.921 70.5416" stroke="#403B36" stroke-linejoin="round"/>
<path d="M168.377 67.4459C168.474 67.4459 169.662 67.5119 170.046 68.3398C170.112 68.4807 170.182 68.6392 170.151 68.8329C170.032 69.5683 168.531 70.2552 167.963 70.515C167.875 70.5547 167.659 70.6515 167.641 70.81C167.624 71.0126 167.954 71.1975 168.029 71.2372C168.667 71.5894 169.768 71.2636 170.565 70.7308C170.966 70.4622 172.569 69.3878 172.221 68.1284C172.005 67.349 171.12 66.7678 170.046 66.6753C169.491 66.9351 168.936 67.1905 168.377 67.4503V67.4459Z" stroke="#403B36" stroke-linejoin="round"/>
<path d="M142.537 66.3144C142.559 67.0894 143.505 67.8953 144.258 67.7235C145.117 67.5298 145.557 66.5742 145.355 65.9358C145.187 65.4074 144.76 64.8878 144.478 65.1432C144.197 65.403 144.809 66.2836 145.592 66.3717C146.161 66.4333 146.843 65.9842 146.909 65.3589C146.984 64.6588 146.231 63.5579 145.918 63.9102C145.54 64.3373 146.425 64.8305 147.054 64.9186C147.622 64.9978 148.287 64.4562 148.499 63.8089C148.701 63.1969 148.494 62.4703 147.997 62.0564C147.799 61.8891 147.389 61.8538 147.371 62.1136C147.363 62.2545 147.495 62.3602 147.627 62.4087C148.239 62.6464 148.952 62.1885 149.186 61.572C149.419 60.96 149.283 60.2642 149.049 59.6522C148.943 59.3747 148.816 59.0973 148.587 58.908C148.362 58.7186 148.014 58.6438 147.768 58.8023C147.521 58.9608 147.473 59.388 147.719 59.5421C147.869 59.639 148.067 59.6081 148.235 59.5421C148.996 59.2515 149.34 58.2211 148.961 57.4989C148.547 56.7019 147.512 56.4201 146.856 56.7283C146.319 56.9793 145.989 57.6442 146.108 57.7807C146.218 57.9084 146.781 57.7059 147.085 57.3052C147.402 56.8913 147.341 56.3893 147.323 56.2087C147.248 55.4558 146.733 54.7204 146.002 54.5266C145.271 54.3329 144.386 54.8129 144.271 55.5614C144.236 55.7904 144.289 56.059 144.487 56.1823C144.835 56.3937 145.253 55.9842 145.35 55.5879C145.5 54.9758 145.315 54.2933 144.87 53.8441C144.8 53.7693 144.012 53.0119 143.131 53.3465C142.374 53.6372 142.215 54.3461 142.334 54.4518C142.426 54.5311 142.761 54.4518 142.972 54.0159C143.268 53.4082 142.946 52.6464 142.453 52.2809C141.929 51.8934 141.185 51.867 140.608 52.1664C140.022 52.4703 139.445 53.0867 139.529 53.7076C139.573 54.0335 139.846 54.3461 140.084 54.236C140.493 54.0511 139.776 52.6332 138.864 52.4306C138.032 52.2413 136.909 53.3069 136.98 54.0951C137.002 54.3549 137.169 54.7028 137.367 54.7116C137.552 54.7204 137.75 54.4386 137.768 54.1832C137.79 53.8529 137.512 53.6063 137.402 53.5051C136.905 53.0603 135.94 52.827 135.126 53.2673C134.412 53.6504 133.972 54.4958 134.073 55.3016C134.1 55.5262 134.17 55.7596 134.337 55.9181C134.5 56.0766 134.773 56.1383 134.963 56.0106C135.183 55.8609 135.196 55.5306 135.099 55.284C134.87 54.7072 134.17 54.4034 133.558 54.5134C132.946 54.6191 132.431 55.0639 132.105 55.5923C131.792 56.1031 131.638 56.7944 131.986 57.2832C132.118 57.4725 132.378 57.6134 132.576 57.4945C132.708 57.4153 132.757 57.2479 132.748 57.0938C132.717 56.6403 132.219 56.3188 131.762 56.3584C131.308 56.3981 130.916 56.7063 130.634 57.063C130.106 57.7367 129.868 58.6306 129.996 59.476C130.053 59.8635 130.194 60.251 130.485 60.5152C130.775 60.775 131.238 60.8719 131.563 60.6561C131.713 60.5593 131.828 60.3875 131.806 60.2114C131.788 60.0573 131.673 59.934 131.541 59.8503C131.176 59.6301 130.678 59.727 130.352 60.0044C130.027 60.2818 129.864 60.709 129.806 61.1317C129.723 61.7526 129.881 62.4439 130.361 62.849C130.841 63.2541 131.673 63.2365 132.026 62.7169C132.092 62.62 132.14 62.5011 132.123 62.3822C132.083 62.1136 131.709 62.0124 131.475 62.1489C131.238 62.281 131.119 62.5496 131.031 62.8094C130.854 63.3246 130.744 63.8838 130.868 64.4166C130.991 64.9494 131.383 65.4426 131.916 65.5527C132.448 65.6627 133.069 65.2709 133.091 64.7292C133.1 64.4871 132.889 64.1964 132.669 64.2977C132.603 64.3285 132.559 64.3858 132.519 64.443C132.175 64.945 132.241 65.6848 132.664 66.1163C133.087 66.5522 133.827 66.6359 134.333 66.3056C134.888 65.949 135.293 65.3633 135.258 64.6456" stroke="#403B36" stroke-miterlimit="10"/>
<path d="M134.43 57.6045C134.307 58.0272 134.606 58.5072 135.029 58.6349C135.452 58.7626 135.932 58.5644 136.192 58.2122C136.456 57.8599 136.509 57.3799 136.399 56.9528C136.57 57.5252 137.165 57.9656 137.759 57.8863C138.354 57.807 138.829 57.1642 138.666 56.5873C138.75 56.9396 138.975 57.2654 139.296 57.4328C139.617 57.6001 140.04 57.5869 140.322 57.3623C140.604 57.1377 140.714 56.7018 140.529 56.3892C140.643 56.7062 140.824 57.0012 141.057 57.2434C141.238 57.4328 141.467 57.6001 141.727 57.5869C141.96 57.5781 142.167 57.4195 142.286 57.2214C142.409 57.0232 142.453 56.7899 142.48 56.5565C142.405 57.1069 142.722 57.6837 143.228 57.9171C143.73 58.1461 144.382 58.0096 144.747 57.5957" stroke="#403B36" stroke-miterlimit="10"/>
<path d="M201.34 109.785C203.224 110.908 205.114 112.03 206.998 113.149C209.024 111.216 211.054 109.278 213.079 107.345C211.291 109.173 209.68 111.176 208.284 113.316C210.825 114.672 213.427 115.914 216.078 117.041C218.156 113.034 220.239 109.027 222.317 105.02C222.331 104.994 218.271 103.849 217.888 103.77C216.355 103.448 214.797 103.241 213.233 103.14C212.45 103.092 211.666 103.07 210.886 103.074C210.543 103.074 210.094 103.017 209.759 103.105C209.446 103.188 209.442 103.294 209.239 103.523C208.218 104.668 206.813 105.615 205.616 106.57C204.22 107.68 202.793 108.754 201.34 109.785Z" stroke="#403B36" stroke-linecap="round" stroke-linejoin="round"/>
<path d="M227.377 97.2172C227.549 99.4805 228.188 102.272 228.994 104.395C226.03 105.628 223.304 107.437 221.019 109.696C220.891 109.82 220.759 109.952 220.583 109.991C220.425 110.027 220.262 109.974 220.108 109.925C219.192 109.63 218.245 109.366 217.285 109.41C216.325 109.454 215.299 109.503 214.744 110.057C214.449 110.352 214.533 110.956 214.898 111.251C215.775 111.96 216.915 112.07 217.994 111.911C217.289 112.096 216.175 112.466 215.008 113.272C214.137 113.871 212.653 115.112 212.908 115.632C213.124 116.072 214.484 115.808 214.647 115.777C216.713 115.363 217.659 113.43 218.373 112.585C216.699 114.58 215.052 116.037 214.462 118.596C214.388 118.913 214.379 119.811 214.964 120.053C215.321 120.198 215.885 119.89 216.241 119.516C217.694 118.001 218.39 115.971 219.293 114.073C218.949 115.068 218.835 116.143 218.958 117.191C218.993 117.468 219.046 117.754 219.214 117.979C219.381 118.204 219.685 118.349 219.945 118.248C220.108 118.182 220.226 118.036 220.328 117.895C221.613 116.13 222.186 113.946 222.521 111.788C222.547 111.625 222.573 111.453 222.666 111.317C222.78 111.149 222.97 111.057 223.155 110.969C226.541 109.362 229.601 108.644 232.093 105.843C232.318 105.588 232.543 105.324 232.648 105.002C232.798 104.544 232.679 104.051 232.56 103.589C232.296 102.567 231.16 98.3621 229.729 92.3867" fill="white"/>
<path d="M227.377 97.2172C227.549 99.4805 228.188 102.272 228.994 104.395C226.03 105.628 223.304 107.437 221.019 109.696C220.891 109.82 220.759 109.952 220.583 109.991C220.425 110.027 220.262 109.974 220.108 109.925C219.192 109.63 218.245 109.366 217.285 109.41C216.325 109.454 215.299 109.503 214.744 110.057C214.449 110.352 214.533 110.956 214.898 111.251C215.775 111.96 216.915 112.07 217.994 111.911C217.289 112.096 216.175 112.466 215.008 113.272C214.137 113.871 212.653 115.112 212.908 115.632C213.124 116.072 214.484 115.808 214.647 115.777C216.713 115.363 217.659 113.43 218.373 112.585C216.699 114.58 215.052 116.037 214.462 118.596C214.388 118.913 214.379 119.811 214.964 120.053C215.321 120.198 215.885 119.89 216.241 119.516C217.694 118.001 218.39 115.971 219.293 114.073C218.949 115.068 218.835 116.143 218.958 117.191C218.993 117.468 219.046 117.754 219.214 117.979C219.381 118.204 219.685 118.349 219.945 118.248C220.108 118.182 220.226 118.036 220.328 117.895C221.613 116.13 222.186 113.946 222.521 111.788C222.547 111.625 222.573 111.453 222.666 111.317C222.78 111.149 222.97 111.057 223.155 110.969C226.541 109.362 229.601 108.644 232.093 105.843C232.318 105.588 232.543 105.324 232.648 105.002C232.798 104.544 232.679 104.051 232.56 103.589C232.296 102.567 231.16 98.3621 229.729 92.3867" stroke="#403B36" stroke-linecap="round" stroke-linejoin="round"/>
<path d="M225.325 87.7192C224.858 88.9698 223.956 90.1411 223.484 91.3916C223.586 91.537 224.193 92.378 225.347 92.5541C226.465 92.7259 227.276 92.1446 227.425 92.0345C227.386 90.7311 227.377 89.7844 227.337 88.481C226.532 88.3181 226.126 87.8822 225.321 87.7192H225.325Z" fill="white" stroke="#403B36" stroke-miterlimit="10"/>
<path d="M218.127 94.2803C216.11 96.667 214.093 99.058 211.843 101.224C210.958 102.079 210.033 102.898 209.082 103.677C211.711 103.342 214.362 103.968 216.933 104.624C218.646 105.06 220.377 105.522 221.909 106.398C224.406 101.66 227.814 97.3847 229.725 92.3825C229.161 91.6912 228.404 91.1627 227.563 90.8677C227.043 91.4225 226.233 91.6823 225.489 91.5326C224.745 91.3829 224.097 90.8281 223.833 90.1147C222.843 90.3085 221.442 90.2865 220.751 91.1231C219.879 92.1799 219.007 93.2367 218.127 94.2847V94.2803Z" fill="white" stroke="#403B36" stroke-miterlimit="10"/>
<path d="M201.985 110.167C197.56 113.157 193.654 116.09 189.523 119.481C191.157 120.934 191.285 120.995 192.654 122.246C196.903 118.323 200.554 115.513 205.226 112.101" stroke="#403B36" stroke-miterlimit="10"/>
<path d="M208.864 113.554C206.592 116.557 204.364 119.586 202.18 122.651C203.047 123.25 204.738 124.316 205.663 124.809C207.904 121.493 209.903 118.578 212.144 115.267" stroke="#403B36" stroke-miterlimit="10"/>
<path d="M180.508 119.925C182.41 121.273 184.308 122.616 186.21 123.963C187.095 123.893 187.985 123.818 188.87 123.747C188.584 124.152 188.302 124.553 188.016 124.958C188.562 125.346 189.108 125.733 189.654 126.121C190.653 124.826 191.653 123.532 192.652 122.241C191.609 121.321 190.565 120.401 189.521 119.476C188.469 119.74 187.232 119.974 185.836 120.093C183.757 120.269 181.943 120.137 180.508 119.925Z" fill="#403B36" stroke="#403B36" stroke-miterlimit="10"/>
<path d="M193.09 124.606C195.168 125.658 197.242 126.711 199.321 127.768C200.188 127.565 201.056 127.367 201.923 127.164C201.698 127.605 201.478 128.045 201.254 128.49C201.853 128.794 202.447 129.097 203.046 129.401C203.843 127.975 204.644 126.548 205.441 125.126C204.274 124.368 203.107 123.606 201.941 122.849C200.937 123.267 199.748 123.677 198.383 123.998C196.353 124.478 194.539 124.61 193.09 124.61V124.606Z" fill="#403B36" stroke="#403B36" stroke-miterlimit="10"/>
<path d="M221.034 90.6342C219.757 90.1058 217.771 89.6963 215.904 89.4321C213.416 89.0799 210.761 88.8553 209.083 88.9301C207.432 87.4022 205.759 85.3854 203.28 83.7694C201.386 82.5365 199.576 81.5545 197.934 80.7707C198.141 80.2379 198.453 79.1943 198.229 77.957C197.912 76.2044 196.6 74.5091 195.904 74.6897C195.406 74.8174 195.301 75.8742 195.274 76.1164C195.142 77.3889 195.891 78.3224 196.08 78.5426C195.657 76.0327 194.724 74.377 194.01 73.3819C193.715 72.9724 192.469 71.233 191.813 71.4928C191.408 71.6558 191.395 72.5144 191.39 72.827C191.373 74.3286 192.324 75.4647 192.8 75.9534C191.919 73.765 190.756 72.5761 189.951 71.9288C189.598 71.647 188.704 70.9292 188.321 71.189C188.264 71.2286 188.009 71.4312 188.286 72.5805C188.524 73.5536 189.158 75.2709 191.184 77.4682C190.298 76.3145 189.405 75.588 188.757 75.1388C187.85 74.5135 187.573 74.54 187.427 74.6148C186.899 74.879 187.044 76.2441 187.19 76.9398C187.656 79.1459 189.537 81.2947 192.038 82.171C193.786 82.7831 195.38 82.6113 196.349 82.4044C197.432 84.0688 199.255 86.0327 201.338 88.0627C203.258 89.9341 204.601 92.1094 207.388 92.7479C212.003 93.8091 215.64 93.8223 218.533 93.7826C219.264 92.7391 220.232 91.6646 221.029 90.6254L221.034 90.6342Z" stroke="#403B36" stroke-linecap="round" stroke-linejoin="round"/>
<path d="M231.174 76.7286C230.632 77.781 230.095 78.8334 229.553 79.8902C228.268 82.8404 226.982 85.7863 225.696 88.7365C223.917 88.0628 222.279 87.2438 220.5 86.5745C220.791 86.2927 221.081 85.9668 221.478 85.3063C222.741 83.2015 222.006 81.8453 223.173 79.5643C223.855 78.2257 224.732 77.4771 225.027 77.2438C225.559 76.8122 226.555 76.0108 228.061 75.9007C229.593 75.7862 230.747 76.4556 231.174 76.7374V76.7286Z" fill="#403B36" stroke="#403B36" stroke-miterlimit="10"/>
<path d="M231.843 77.1333C229.893 81.0611 227.845 84.7996 225.895 88.7274C227.946 89.4319 229.831 89.9823 231.883 90.6869C231.808 90.1364 231.923 89.4451 232.147 88.472C232.636 86.3407 233.913 85.9665 234.71 83.8C235.001 83.003 235.644 81.2549 234.873 79.5463C234.08 77.7894 232.354 77.3006 231.839 77.1289L231.843 77.1333Z" fill="#403B36" stroke="#403B36" stroke-miterlimit="10"/>
<path d="M230.085 79.4808C228.83 78.9039 227.822 78.7982 226.386 78.9347C225.074 79.058 223.898 79.7538 223.647 81.5635C223.63 81.5283 223.26 80.9074 222.617 80.903C222 80.903 221.512 81.4623 221.437 82.0435C221.353 82.682 221.758 83.4086 222.348 83.4878C222.802 83.5495 223.163 83.2016 223.233 83.1311C223.154 83.6463 223.097 84.4301 223.282 85.3372C223.405 85.9317 223.806 87.8692 225.47 88.8379C227.434 89.9828 229.596 88.8775 229.97 88.6838C231.503 87.9 232.243 86.5922 232.502 86.0682C232.502 86.2135 232.52 86.5966 232.771 86.8036C233.211 87.1646 234.171 86.8388 234.391 86.1695C234.501 85.8392 234.449 85.3725 234.123 85.0774C233.815 84.8 233.348 84.756 232.969 84.9762C233.189 84.4654 233.423 83.6728 233.216 82.8185C232.846 81.3038 231.837 80.2734 230.094 79.4676L230.085 79.4808Z" fill="white" stroke="#403B36" stroke-linecap="round" stroke-linejoin="round"/>
<path d="M229.852 79.0889C228.614 81.383 227.236 83.3513 227.346 84.0471C227.469 84.822 228.007 85.051 228.597 85.2272" stroke="#403B36" stroke-linecap="round" stroke-linejoin="round"/>
<path d="M225.89 82.7083C226.194 82.7083 226.441 82.4618 226.441 82.1578C226.441 81.8539 226.194 81.6074 225.89 81.6074C225.586 81.6074 225.34 81.8539 225.34 82.1578C225.34 82.4618 225.586 82.7083 225.89 82.7083Z" fill="#403B36"/>
<path d="M230.148 84.0823C230.452 84.0823 230.698 83.8359 230.698 83.5319C230.698 83.2279 230.452 82.9814 230.148 82.9814C229.844 82.9814 229.598 83.2279 229.598 83.5319C229.598 83.8359 229.844 84.0823 230.148 84.0823Z" fill="#403B36"/>
<path d="M128.153 96.4775L198.69 73.2938L174.52 109.304L196.964 149.503L148.377 136.187L76.6068 172.933L94.6077 139.393L26.043 105.848L98.8041 107.081L122.512 63.1572" fill="#FF8C00"/>
<path d="M171.453 197.609C169.409 197.513 167.366 197.416 165.319 197.319C164.966 198.332 164.619 199.344 164.266 200.357L167.128 200.683C166.098 201.273 165.063 201.863 164.033 202.453C163.214 204.998 162.831 206.575 162.012 209.12C164.988 206.698 166.133 206.205 167.93 205.183C169.903 204.06 170.422 203.55 171.712 203.29C171.624 201.396 171.536 199.503 171.448 197.609H171.453Z" stroke="#403B36" stroke-miterlimit="10"/>
<path d="M180.183 192.815C178.549 191.582 176.916 190.349 175.286 189.116C174.423 189.754 173.565 190.393 172.702 191.031C173.428 191.661 174.155 192.286 174.881 192.916C173.697 192.819 172.512 192.726 171.328 192.63C169.219 194.268 168.008 195.355 165.898 196.993C169.721 196.676 170.945 196.914 173.005 197.081C175.264 197.266 175.987 197.139 177.197 197.649L180.187 192.815H180.183Z" stroke="#403B36" stroke-miterlimit="10"/>
<path d="M186.953 194.941C185.861 193.928 184.192 192.656 181.898 191.77C181.018 191.431 180.185 191.202 179.437 191.048C178.103 192.418 176.764 193.783 175.43 195.152C179.344 200.524 183.774 202.744 185.751 201.537C187.755 200.317 187.068 195.672 186.953 194.941Z" fill="#403B36" stroke="white" stroke-miterlimit="10"/>
<path d="M189.429 152.004C186.047 152.682 184.237 155.452 183.167 157.09C182.141 158.657 181.683 160.04 181.472 160.701C179.539 166.698 177.738 174.096 177.051 176.984C177.887 176.491 178.72 176.002 179.556 175.509C179.754 176.293 179.948 177.081 180.146 177.865C180.565 177.323 180.983 176.786 181.397 176.244C181.767 176.883 182.132 177.521 182.502 178.16C187.658 173.959 192.819 169.763 197.976 165.562C198.5 164.325 199.794 160.806 198.416 157.09C198.143 156.354 197.654 155.073 196.426 153.924C193.568 151.247 189.592 151.973 189.424 152.008L189.429 152.004Z" fill="#403B36"/>
<path d="M189.112 185.932C188.095 188.851 187.13 192.013 186.276 195.404C185.858 197.059 185.492 198.671 185.171 200.243C183.903 199.248 182.388 198.195 180.609 197.2C177.531 195.483 174.638 194.483 172.313 193.884C171.829 194.915 171.203 196.553 171.001 198.653C170.803 200.705 171.08 202.396 171.344 203.493C173.911 204.51 177.064 205.712 180.745 207.02C183.418 207.966 185.479 209.063 188.68 209.124C189.028 209.133 190.208 209.133 191.115 208.75C192.04 208.358 192.502 207.526 192.705 207.161C193.63 205.492 194.475 200.512 194.849 193.818L194.792 193.827C194.77 194.426 194.744 195.034 194.704 195.65C194.48 199.168 194.066 202.493 193.388 205.487C194.55 206.174 195.409 207.006 198.786 206.399C199.055 206.35 201.996 205.791 202.864 204.188C203.291 203.4 203.203 201.969 203.141 201.286C202.925 198.939 202.643 195.901 201.965 192.925C201.538 191.044 200.79 188.486 199.407 185.527C195.972 185.663 192.542 185.804 189.107 185.941L189.112 185.932Z" fill="#403B36" stroke="white" stroke-miterlimit="10"/>
<path d="M187.05 167.473C185.174 165.275 184.236 164.316 181.59 162.299C180.304 161.321 178.063 158.957 176.909 157.292C177.609 154.91 178.979 151.603 181.779 148.618C182.427 147.926 183.083 147.323 183.726 146.799C183.897 145.689 184.479 145.236 184.822 144.87C185.676 143.954 186.531 143.585 187.147 143.219C187.689 142.902 188.856 141.982 188.917 141.348C188.93 141.194 188.948 140.81 188.688 140.546C188.406 140.256 188.01 140.234 187.015 140.471C185.157 140.912 183.25 142.312 183.299 142.387C183.356 142.479 185.315 140.881 187.068 138.996C187.27 138.78 187.583 138.067 187.306 137.732C186.861 137.2 185.694 137.464 185.24 137.644C184.307 138.014 183.365 138.794 180.317 141.841C181.383 140.581 183.915 138.054 183.946 137.27C183.955 136.997 183.783 136.654 183.321 136.544C183.052 136.477 182.061 136.759 180.974 137.433C180.291 137.856 179.036 139.199 178.332 140.52C177.473 142.127 177.579 143.188 176.79 143.659C176.033 144.113 174.945 143.659 174.192 143.245C173.95 143.932 174.192 144.809 174.76 145.681C175.505 146.825 176.275 147.257 177.966 147.169C176.579 148.97 175.042 151.33 173.748 154.271C173.109 155.716 172.625 157.094 172.246 158.362C172.669 160.097 174.007 162.308 176.214 165.099C179.741 169.564 183.875 171.704 185.637 172.198C186.108 170.621 186.579 169.045 187.055 167.464L187.05 167.473Z" fill="white" stroke="#403B36" stroke-linecap="round" stroke-linejoin="round"/>
<path d="M195.658 167.407C196.42 165.28 197.437 162.273 199.753 159.199C201.92 156.328 204.218 154.338 205.971 153.039C204.544 151.335 203.038 149.327 201.572 146.997C200.572 145.408 199.718 143.871 198.992 142.422C196.279 141.696 194.593 142.281 193.329 142.295C192.479 142.303 191.858 142.347 190.942 141.929C190.128 141.555 189.344 140.815 189.551 140.251C189.692 139.864 190.233 139.745 190.841 139.604C191.427 139.472 192.378 139.349 193.597 139.604C191.682 139.366 190.009 139.252 189.062 138.913C188.41 138.679 188.023 138.27 188.018 137.935C188.014 137.526 189.088 137.217 189.361 137.187C190.11 137.094 191.532 136.658 193.659 137.376C189.59 136.782 188.767 136.266 188.089 135.791C187.745 135.553 187.072 135.104 187.151 134.677C187.23 134.241 188.168 134.029 188.441 133.972C190.555 133.519 193.584 134.597 195.42 135.381C195.073 134.941 194.575 134.192 194.364 133.153C194.262 132.651 194.077 131.753 194.483 131.453C194.967 131.092 196.041 131.793 196.42 132.039C198.71 133.532 199.784 136.98 200.291 139.371C202.281 140.67 205.117 142.863 207.679 146.293C209.63 148.9 210.819 151.41 211.55 153.329C210.581 155.839 208.807 159.556 205.566 163.299C202.607 166.72 199.511 168.9 197.296 170.221C196.649 169.261 196.31 168.358 195.663 167.403L195.658 167.407Z" fill="white" stroke="#403B36" stroke-linecap="round" stroke-linejoin="round"/>
<path d="M190.43 166.35C190.302 167.099 190.175 167.843 190.047 168.591C190.201 168.724 190.91 169.3 191.962 169.248C193.129 169.19 193.821 168.398 193.931 168.266C193.693 167.464 193.455 166.663 193.222 165.861C192.293 166.024 191.363 166.187 190.434 166.355L190.43 166.35Z" fill="white" stroke="#403B36" stroke-miterlimit="10"/>
<path d="M186.708 167.332C186.73 167.764 186.725 168.723 186.192 169.776C185.66 170.828 184.885 171.405 184.523 171.638C184.656 174.311 184.766 177.033 184.845 179.798C184.907 181.925 184.946 184.025 184.973 186.095C186.756 186.795 189.988 187.794 194.096 187.574C197.65 187.38 200.411 186.35 202.066 185.584C200.825 180.273 199.583 174.959 198.341 169.648C198.024 169.542 197.408 169.283 196.862 168.684C196.122 167.869 195.994 166.949 195.963 166.627C195.215 166.821 194.462 167.015 193.713 167.204C193.379 168.01 192.617 168.543 191.785 168.552C190.728 168.565 190.107 167.733 190.05 167.653C188.936 167.548 187.822 167.438 186.708 167.332Z" fill="white" stroke="#403B36" stroke-miterlimit="10"/>
<path d="M187.31 157.174C187.266 158.23 187.222 159.283 187.178 160.34C187.077 160.3 186.346 160.022 185.641 160.428C185.536 160.489 184.911 160.846 184.849 161.528C184.787 162.189 185.289 162.779 185.862 162.982C186.284 163.131 186.667 163.034 186.83 162.982C186.91 163.404 187.077 164.038 187.491 164.694C188.253 165.905 189.772 167.09 191.582 167.024C194.285 166.927 195.646 164.104 195.893 163.55C196.394 162.422 196.531 161.41 196.544 160.124C196.562 158.433 196.152 157.041 195.893 156.121C194.695 156.271 193.493 156.416 192.295 156.566C190.635 156.768 188.979 156.975 187.319 157.178L187.31 157.174Z" fill="white" stroke="#403B36" stroke-linecap="round" stroke-linejoin="round"/>
<path d="M192.732 157.165C192.75 157.512 192.856 159.754 192.865 161.647C192.865 161.863 192.865 162.255 192.6 162.572C192.169 163.091 191.332 163.043 191.02 163.012" fill="white"/>
<path d="M192.732 157.165C192.75 157.512 192.856 159.754 192.865 161.647C192.865 161.863 192.865 162.255 192.6 162.572C192.169 163.091 191.332 163.043 191.02 163.012" stroke="#403B36" stroke-linecap="round" stroke-linejoin="round"/>
<path d="M190.277 161.713C190.581 161.713 190.827 161.467 190.827 161.163C190.827 160.859 190.581 160.612 190.277 160.612C189.973 160.612 189.727 160.859 189.727 161.163C189.727 161.467 189.973 161.713 190.277 161.713Z" fill="#403B36"/>
<path d="M194.14 161.515C194.444 161.515 194.691 161.269 194.691 160.965C194.691 160.661 194.444 160.415 194.14 160.415C193.836 160.415 193.59 160.661 193.59 160.965C193.59 161.269 193.836 161.515 194.14 161.515Z" fill="#403B36"/>
<path d="M187.332 156.711C187.429 157.354 187.794 158.886 187.891 159.529C187.9 159.529 195.773 158.578 195.773 158.578C195.773 158.578 195.892 156.139 195.892 156.13C193.365 156.517 189.855 156.324 187.332 156.711Z" fill="#403B36"/>
<path d="M110.951 73.7564C111.686 72.2196 112.572 71.1716 113.192 70.5331C113.192 70.5331 114.936 68.7454 118.001 67.803C118.261 67.7238 118.661 67.6225 118.82 67.803C119 68.0056 118.785 68.4635 118.71 68.6221C117.97 70.2029 114.395 71.9554 114.395 71.9554C114.395 71.9554 116.539 71.0659 118.578 70.445C118.578 70.445 120.616 69.8242 122.153 70.3702C122.585 70.5243 122.673 70.7093 122.699 70.8061C122.779 71.1144 122.448 71.4402 122.316 71.5723C121.51 72.3693 120.176 72.5234 119.37 72.6247C116.433 72.9946 115.812 73.2148 115.812 73.2104C115.812 73.2016 119.41 72.2857 121.823 73.7564C122.048 73.8929 122.765 74.3332 122.699 74.7383C122.62 75.1919 121.616 75.368 121.114 75.4473C118.098 75.9448 114.971 74.888 114.993 74.7912C115.011 74.7075 117.23 75.2447 118.873 76.2135C119.287 76.46 119.855 76.8387 119.965 77.4684C120.022 77.7987 119.947 78.1333 119.855 78.2874C119.243 79.3222 114.87 77.8603 113.734 77.4684C113.65 77.8955 113.474 78.0541 113.351 78.1245C112.792 78.4372 111.801 77.6974 111.33 77.0853C110.357 75.8216 110.845 74.0866 110.947 73.752L110.951 73.7564Z" fill="white"/>
<path d="M109.998 164.752C110.359 164.409 111.156 163.691 112.133 163.004C114.128 161.604 116.083 161.097 117.263 160.859C117.373 159.301 117.602 157.5 118.043 155.536C118.417 153.88 118.87 152.405 119.342 151.119C118.104 150.793 117.382 150.146 117.069 149.82C116.026 148.746 115.409 147.037 115.902 145.729C115.964 145.562 116.268 144.748 116.81 144.69C116.902 144.681 117.149 144.677 117.523 145.016C118.483 145.884 118.795 147.667 118.888 148.327C120.861 146.808 121.301 145.514 121.354 144.624C121.468 142.806 120.033 141.326 120.768 139.56C120.874 139.305 121.019 138.675 121.416 138.587C121.812 138.499 122.221 138.979 122.389 139.173C123.564 140.538 123.23 144.25 123.102 145.408C123.115 143.889 123.199 140.441 123.815 138.979C123.912 138.75 124.146 138.204 124.463 138.2C124.775 138.2 125.017 138.706 125.11 138.913C125.77 140.322 125.189 143.497 124.916 144.822C125.11 143.607 125.519 142.057 126.409 141.251C126.563 141.11 126.968 140.745 127.188 140.864C127.391 140.969 127.342 141.432 127.316 141.643C126.854 145.685 126.62 147.702 125.497 149.045C125.026 149.609 124.137 150.503 122.64 151.19C122.336 155.496 122.032 159.807 121.733 164.113C118.117 166.06 116.092 167.174 112.477 169.125C111.653 168.019 110.636 166.104 109.984 164.761L109.998 164.752Z" fill="white"/>
<path d="M30.5508 132.096C30.9999 131.916 31.9907 131.277 33.0827 130.881C35.4693 130.009 36.2928 129.507 41.7838 128.869C42.4531 127.504 43.3161 125.967 44.4302 124.355C45.3681 122.999 46.3192 121.837 47.2087 120.85C46.2223 120.106 45.8128 119.261 45.6455 118.855C45.1039 117.508 45.1788 115.747 46.0947 114.743C46.2091 114.615 46.7816 113.994 47.288 114.139C47.3716 114.161 47.5962 114.25 47.8076 114.69C48.3492 115.822 47.9749 117.539 47.8164 118.169C50.1369 117.517 51.0088 116.508 51.3787 115.733C52.1449 114.135 51.4007 112.281 52.7085 110.956C52.8978 110.762 53.2545 110.247 53.6464 110.313C54.0339 110.379 54.2277 110.956 54.3069 111.194C54.8617 112.849 53.2017 116.073 52.6689 117.068C53.2369 115.703 54.5711 112.625 55.6588 111.537C55.8305 111.365 56.2356 110.96 56.5262 111.07C56.808 111.18 56.8345 111.731 56.8477 111.951C56.9225 113.461 55.2404 116.112 54.5139 117.204C55.1348 116.178 56.0683 114.932 57.1603 114.531C57.3496 114.461 57.8472 114.28 58.0013 114.465C58.1423 114.637 57.9309 115.033 57.834 115.214C55.9406 118.684 54.9938 120.419 53.4967 121.22C52.8714 121.555 51.7442 122.039 50.1546 122.11C48.3095 125.879 46.1475 129.208 44.3025 132.977C39.723 133.444 36.9797 134.923 32.0171 135.874C31.6824 134.58 30.6477 133.545 30.5508 132.096Z" fill="white"/>
<path d="M110.951 73.7564C111.686 72.2196 112.572 71.1716 113.192 70.5331C113.192 70.5331 114.936 68.7454 118.001 67.803C118.261 67.7238 118.661 67.6225 118.82 67.803C119 68.0056 118.785 68.4635 118.71 68.6221C117.97 70.2029 114.395 71.9554 114.395 71.9554C114.395 71.9554 116.539 71.0659 118.578 70.445C118.578 70.445 120.616 69.8242 122.153 70.3702C122.585 70.5243 122.673 70.7093 122.699 70.8061C122.779 71.1144 122.448 71.4402 122.316 71.5723C121.51 72.3693 120.176 72.5234 119.37 72.6247C116.433 72.9946 115.812 73.2148 115.812 73.2104C115.812 73.2016 119.41 72.2857 121.823 73.7564C122.048 73.8929 122.765 74.3332 122.699 74.7383C122.62 75.1919 121.616 75.368 121.114 75.4473C118.098 75.9448 114.971 74.888 114.993 74.7912C115.011 74.7075 117.23 75.2447 118.873 76.2135C119.287 76.46 119.855 76.8387 119.965 77.4684C120.022 77.7987 119.947 78.1333 119.855 78.2874C119.243 79.3222 114.87 77.8603 113.734 77.4684C113.65 77.8955 113.474 78.0541 113.351 78.1245C112.792 78.4372 111.801 77.6974 111.33 77.0853C110.357 75.8216 110.845 74.0866 110.947 73.752L110.951 73.7564Z" fill="white" stroke="#403B36" stroke-linejoin="round"/>
<path d="M109.998 164.752C110.359 164.409 111.156 163.691 112.133 163.004C114.128 161.604 116.083 161.097 117.263 160.859C117.373 159.301 117.602 157.5 118.043 155.536C118.417 153.88 118.87 152.405 119.342 151.119C118.104 150.793 117.382 150.146 117.069 149.82C116.026 148.746 115.409 147.037 115.902 145.729C115.964 145.562 116.268 144.748 116.81 144.69C116.902 144.681 117.149 144.677 117.523 145.016C118.483 145.884 118.795 147.667 118.888 148.327C120.861 146.808 121.301 145.514 121.354 144.624C121.468 142.806 120.033 141.326 120.768 139.56C120.874 139.305 121.019 138.675 121.416 138.587C121.812 138.499 122.221 138.979 122.389 139.173C123.564 140.538 123.23 144.25 123.102 145.408C123.115 143.889 123.199 140.441 123.815 138.979C123.912 138.75 124.146 138.204 124.463 138.2C124.775 138.2 125.017 138.706 125.11 138.913C125.77 140.322 125.189 143.497 124.916 144.822C125.11 143.607 125.519 142.057 126.409 141.251C126.563 141.11 126.968 140.745 127.188 140.864C127.391 140.969 127.342 141.432 127.316 141.643C126.854 145.685 126.62 147.702 125.497 149.045C125.026 149.609 124.137 150.503 122.64 151.19C122.336 155.496 122.032 159.807 121.733 164.113C118.117 166.06 116.092 167.174 112.477 169.125C111.653 168.019 110.636 166.104 109.984 164.761L109.998 164.752Z" fill="white" stroke="#403B36" stroke-miterlimit="10"/>
<path d="M30.5508 132.096C30.9999 131.916 31.9907 131.277 33.0827 130.881C35.4693 130.009 36.2928 129.507 41.7838 128.869C42.4531 127.504 43.3161 125.967 44.4302 124.355C45.3681 122.999 46.3192 121.837 47.2087 120.85C46.2223 120.106 45.8128 119.261 45.6455 118.855C45.1039 117.508 45.1788 115.747 46.0947 114.743C46.2091 114.615 46.7816 113.994 47.288 114.139C47.3716 114.161 47.5962 114.25 47.8076 114.69C48.3492 115.822 47.9749 117.539 47.8164 118.169C50.1369 117.517 51.0088 116.508 51.3787 115.733C52.1449 114.135 51.4007 112.281 52.7085 110.956C52.8978 110.762 53.2545 110.247 53.6464 110.313C54.0339 110.379 54.2277 110.956 54.3069 111.194C54.8617 112.849 53.2017 116.073 52.6689 117.068C53.2369 115.703 54.5711 112.625 55.6588 111.537C55.8305 111.365 56.2356 110.96 56.5262 111.07C56.808 111.18 56.8345 111.731 56.8477 111.951C56.9225 113.461 55.2404 116.112 54.5139 117.204C55.1348 116.178 56.0683 114.932 57.1603 114.531C57.3496 114.461 57.8472 114.28 58.0013 114.465C58.1423 114.637 57.9309 115.033 57.834 115.214C55.9406 118.684 54.9938 120.419 53.4967 121.22C52.8714 121.555 51.7442 122.039 50.1546 122.11C48.3095 125.879 46.1475 129.208 44.3025 132.977C39.723 133.444 36.9797 134.923 32.0171 135.874C31.6824 134.58 30.6477 133.545 30.5508 132.096Z" fill="white" stroke="#403B36" stroke-miterlimit="10"/>
<path d="M110.951 73.7564C111.686 72.2196 112.572 71.1716 113.192 70.5331C113.192 70.5331 114.936 68.7454 118.001 67.803C118.261 67.7238 118.661 67.6225 118.82 67.803C119 68.0056 118.785 68.4635 118.71 68.6221C117.97 70.2029 114.395 71.9554 114.395 71.9554C114.395 71.9554 116.539 71.0659 118.578 70.445C118.578 70.445 120.616 69.8242 122.153 70.3702C122.585 70.5243 122.673 70.7093 122.699 70.8061C122.779 71.1144 122.448 71.4402 122.316 71.5723C121.51 72.3693 120.176 72.5234 119.37 72.6247C116.433 72.9946 115.812 73.2148 115.812 73.2104C115.812 73.2016 119.41 72.2857 121.823 73.7564C122.048 73.8929 122.765 74.3332 122.699 74.7383C122.62 75.1919 121.616 75.368 121.114 75.4473C118.098 75.9448 114.971 74.888 114.993 74.7912C115.011 74.7075 117.23 75.2447 118.873 76.2135C119.287 76.46 119.855 76.8387 119.965 77.4684C120.022 77.7987 119.947 78.1333 119.855 78.2874C119.243 79.3222 114.87 77.8603 113.734 77.4684C113.65 77.8955 113.474 78.0541 113.351 78.1245C112.792 78.4372 111.801 77.6974 111.33 77.0853C110.357 75.8216 110.845 74.0866 110.947 73.752L110.951 73.7564Z" stroke="#403B36" stroke-linejoin="round"/>
<path d="M109.998 164.752C110.359 164.409 111.156 163.691 112.133 163.004C114.128 161.604 116.083 161.097 117.263 160.859C117.373 159.301 117.602 157.5 118.043 155.536C118.417 153.88 118.87 152.405 119.342 151.119C118.104 150.793 117.382 150.146 117.069 149.82C116.026 148.746 115.409 147.037 115.902 145.729C115.964 145.562 116.268 144.748 116.81 144.69C116.902 144.681 117.149 144.677 117.523 145.016C118.483 145.884 118.795 147.667 118.888 148.327C120.861 146.808 121.301 145.514 121.354 144.624C121.468 142.806 120.033 141.326 120.768 139.56C120.874 139.305 121.019 138.675 121.416 138.587C121.812 138.499 122.221 138.979 122.389 139.173C123.564 140.538 123.23 144.25 123.102 145.408C123.115 143.889 123.199 140.441 123.815 138.979C123.912 138.75 124.146 138.204 124.463 138.2C124.775 138.2 125.017 138.706 125.11 138.913C125.77 140.322 125.189 143.497 124.916 144.822C125.11 143.607 125.519 142.057 126.409 141.251C126.563 141.11 126.968 140.745 127.188 140.864C127.391 140.969 127.342 141.432 127.316 141.643C126.854 145.685 126.62 147.702 125.497 149.045C125.026 149.609 124.137 150.503 122.64 151.19C122.336 155.496 122.032 159.807 121.733 164.113C118.117 166.06 116.092 167.174 112.477 169.125C111.653 168.019 110.636 166.104 109.984 164.761L109.998 164.752Z" stroke="#403B36" stroke-linejoin="round"/>
<path d="M30.5508 132.096C30.9999 131.916 31.9907 131.277 33.0827 130.881C35.4693 130.009 36.2928 129.507 41.7838 128.869C42.4531 127.504 43.3161 125.967 44.4302 124.355C45.3681 122.999 46.3192 121.837 47.2087 120.85C46.2223 120.106 45.8128 119.261 45.6455 118.855C45.1039 117.508 45.1788 115.747 46.0947 114.743C46.2091 114.615 46.7816 113.994 47.288 114.139C47.3716 114.161 47.5962 114.25 47.8076 114.69C48.3492 115.822 47.9749 117.539 47.8164 118.169C50.1369 117.517 51.0088 116.508 51.3787 115.733C52.1449 114.135 51.4007 112.281 52.7085 110.956C52.8978 110.762 53.2545 110.247 53.6464 110.313C54.0339 110.379 54.2277 110.956 54.3069 111.194C54.8617 112.849 53.2017 116.073 52.6689 117.068C53.2369 115.703 54.5711 112.625 55.6588 111.537C55.8305 111.365 56.2356 110.96 56.5262 111.07C56.808 111.18 56.8345 111.731 56.8477 111.951C56.9225 113.461 55.2404 116.112 54.5139 117.204C55.1348 116.178 56.0683 114.932 57.1603 114.531C57.3496 114.461 57.8472 114.28 58.0013 114.465C58.1423 114.637 57.9309 115.033 57.834 115.214C55.9406 118.684 54.9938 120.419 53.4967 121.22C52.8714 121.555 51.7442 122.039 50.1546 122.11C48.3095 125.879 46.1475 129.208 44.3025 132.977C39.723 133.444 36.9797 134.923 32.0171 135.874C31.6824 134.58 30.6477 133.545 30.5508 132.096Z" stroke="#403B36" stroke-linejoin="round"/>
</svg>
