<svg fill="none" height="252" viewBox="0 0 252 252" width="252" xmlns="http://www.w3.org/2000/svg" xmlns:xlink="http://www.w3.org/1999/xlink"><clipPath id="a"><path d="m6.68359 58.27h238.635v135.46h-238.635z"/></clipPath><g clip-path="url(#a)"><path d="m162.652 123.183-.654 29.041 6.951 5.82-1.948-35.957z" fill="#fff" stroke="#000" stroke-linecap="round" stroke-miterlimit="10" stroke-width=".701867"/><path d="m135.047 185.45c-.014-2.804-.384-6.674-1.905-10.985-.796-2.263-1.748-4.184-2.658-5.763 1.265-1.793 2.9-4.425 4.236-7.826 4.094-10.416 3.255-22.397.924-22.895-1.535-.327-3.71 4.326-4.619 6.247-2.118 4.511-2.303 8.651-2.232 10.928.299-2.263.64-7.499-2.232-12.835-1.165-2.177-2.558-3.799-3.752-4.951-1.592 10.116-3.184 20.233-4.776 30.336l5.373 6.246c-.512 2.078-.952 4.81-.867 7.997.043 1.722.242 3.273.483 4.625" fill="#fff"/><path d="m135.047 185.45c-.014-2.804-.384-6.674-1.905-10.985-.796-2.263-1.748-4.184-2.658-5.763 1.265-1.793 2.9-4.425 4.236-7.826 4.094-10.416 3.255-22.397.924-22.895-1.535-.327-3.71 4.326-4.619 6.247-2.118 4.511-2.303 8.651-2.232 10.928.299-2.263.64-7.499-2.232-12.835-1.165-2.177-2.558-3.799-3.752-4.951-1.592 10.116-3.184 20.233-4.776 30.336l5.373 6.246c-.512 2.078-.952 4.81-.867 7.997.043 1.722.242 3.273.483 4.625" stroke="#000" stroke-linecap="round" stroke-linejoin="round" stroke-width=".701867"/><path d="m116.584 180.184-3.752.968 8.699-61.057 4.179-.384z" fill="#fff" stroke="#000" stroke-linecap="round" stroke-linejoin="round" stroke-width=".701867"/><path d="m21.9068 181.977c.5117-3.387.8954-7.3.9239-11.639.0426-5.493-.4975-10.331-1.194-14.357 1.9331-.555 4.7758-1.623 7.6612-3.814 1.8194-1.366 3.8662-4.069 4.8327-5.279" stroke="#000" stroke-linecap="round" stroke-miterlimit="10" stroke-width=".701867"/><path d="m24.3931 167.293c1.9189-.327 3.8377-.655 5.7566-.982-.3269-14.3-.6538-28.6-.9808-42.9-.9665-.071-1.9188-.143-2.8854-.214-.6396 14.699-1.265 29.397-1.9046 44.096z" fill="#fff" stroke="#000" stroke-linecap="round" stroke-miterlimit="10" stroke-width=".701867"/><path d="m15.5938 150.403c1.3503-1.337 9.4663-9.277 12.707-7.256.9239.569 1.3361 1.892 1.2224 2.931-.2842 2.604-3.9372 4.923-9.3668 5.378" fill="#fff"/><path d="m15.5938 150.403c1.3503-1.337 9.4663-9.277 12.707-7.256.9239.569 1.3361 1.892 1.2224 2.931-.2842 2.604-3.9372 4.923-9.3668 5.378" stroke="#000" stroke-linecap="round" stroke-linejoin="round" stroke-width=".701867"/><path d="m29.4531 135.647c.0284-1.152.071-2.319.1421-3.514.0284-.598.0711-1.196.0995-1.793 2.3595 1.465 4.719 2.945 7.0927 4.411-1.3646 1.935-4.321 5.876-6.9363 7.1-.4122.199-1.3788.64-1.8763.242-.3127-.256-1.1655-1.892-.2842-2.689.8812-.797 1.862-3.145 1.7625-3.757z" fill="#fff" stroke="#000" stroke-linecap="round" stroke-linejoin="round" stroke-width=".701867"/><path d="m12.3425 178.306c-.1706-2.86-.128-6.46.4832-10.529.0285-.157.0427-.313.0711-.456" fill="#fff"/><path d="m12.3425 178.306c-.1706-2.86-.128-6.46.4832-10.529.0285-.157.0427-.313.0711-.456" stroke="#000" stroke-linecap="round" stroke-linejoin="round" stroke-width=".701867"/><path d="m13.6072 153.59c.3837 1.153.9665 2.448 1.9046 3.828-.9665 2.632-1.9757 5.962-2.6153 9.903" fill="#fff"/><g stroke="#000"><path d="m13.6072 153.59c.3837 1.153.9665 2.448 1.9046 3.828-.9665 2.632-1.9757 5.962-2.6153 9.903" stroke-linecap="round" stroke-linejoin="round" stroke-width=".701867"/><path d="m13.6043 153.59c-.3979-1.209-.5543-2.262-.6112-3.102-.1563-2.091.2275-4.226 1.0803-6.289" stroke-linecap="round" stroke-linejoin="round" stroke-width=".701867"/><path d="m25.0188 132.631c-5.3159 3.088-9.1536 7.2-10.9446 11.568" stroke-linecap="round" stroke-linejoin="round" stroke-width=".701867"/><path d="m32.5104 131.806c1.3077-.683 2.2173-.968 3.525-1.665 1.4498 1.665 2.8996 3.33 4.3494 5.009-.199.797-1.4924 5.706-5.7566 7.399-.7391.284-1.933 1.067-2.6011.541-.6822-.513-.3695-1.921-.3269-2.121" stroke-linecap="round" stroke-miterlimit="10" stroke-width=".701867"/><path d="m39.3323 138.579c.3554.54.7249 1.081 1.0803 1.636-.6823 1.522-2.857 6.005-6.2967 6.688-.3838.071-1.2366.241-1.5209-.143-.5117-.711 1.1371-2.789 2.7148-4.525" stroke-linecap="round" stroke-miterlimit="10" stroke-width=".701867"/><path d="m8.5461 65.0001c-.14214 19.7641-.28428 39.5139-.44063 59.2779 14.55493-1.01 29.10973-2.035 43.67883-3.045-.0426-18.882-.071-37.7778-.1137-56.6598-14.3701.1423-28.7544.2846-43.1245.4411z" stroke-linecap="round" stroke-linejoin="round" stroke-width="1.40373"/></g><path d="m20.4844 79.7984-1.9473 33.2816h5.4297l.4264-11.753 10.5466 11.099 3.3686-3.487-9.8927-12.5069 10.3192-17.0748-4.6053-2.4901-9.111 13.916v-10.871z" fill="#000"/><path d="m60.2559 73.8223.4264 49.3747 36.9415-.811-.4264-48.5637z" stroke="#000" stroke-linecap="round" stroke-miterlimit="10" stroke-width="1.40373"/><path d="m83.0694 85.6748-8.4856 3.045-6.2967 27.4052h6.2967l2.1747-6.858 4.3494-1.295.7676 7.498 6.3962-1.408zm-6.0835 16.4772c.3269-2.3905.6396-4.7952.9666-7.1856.7249 2.0916 1.4498 4.1691 2.1747 6.2606-1.0519.299-2.1037.612-3.1413.925z" fill="#000"/><path d="m105.441 66.6369.768 53.4011 34.326 1.039 7.832-56.2899z" stroke="#000" stroke-linecap="round" stroke-miterlimit="10" stroke-width="1.40373"/><path d="m113.6 85.6751v6.6307l7.277-.5407.213 7.4987-6.737.9822-.213 5.649 19.771-2.491-1.08-6.3172-7.292 1.4229-.213-7.2995 8.585-.9676-1.961-5.4355z" fill="#000"/><path d="m154.008 72.0722-5.643 52.8608 38.775-4.895 4.677-49.161z" stroke="#000" stroke-linecap="round" stroke-miterlimit="10" stroke-width="1.40373"/><path d="m163.136 94.967-3.156-15.1682 10.874 14.5706 8.585-8.1533-6.524 14.2429 6.524 13.703-10.547-4.354-16.076 6.318 10.647-12.508-8.145-1.465z" fill="#ff8c00"/><path d="m203.004 62.0696-5.217 45.3484 40.097 2.29 4.563-49.915z" stroke="#000" stroke-linecap="round" stroke-miterlimit="10" stroke-width="1.40373"/><path d="m219.249 70.0664c-7.007 0-12.935 7.3991-12.935 17.0179 0 8.8078 4.293 14.8977 10.32 14.8977 6.026 0 13.261-7.399 13.204-16.904-.071-11.0986-5.87-15.0116-10.589-15.0116zm-2.715 22.8376c-2.885 0-3.425-3.045-3.098-7.456.113-1.5794 1.293-8.9785 4.647-8.9785 2.26 0 3.17 2.9881 2.843 8.5374-.256 4.3968-1.961 7.8829-4.406 7.8829z" fill="#000"/><path d="m78.2628 183.77c.4975-3.457.8671-7.342.9808-11.582.1279-4.838-.0995-9.249-.4833-13.134 1.0803-.085 2.7006-.939 3.7951-1.024-1.0803-8.125-2.7006-15.481-3.7951-23.62-.7533.412-5.4723 3.045-6.9221 8.893-1.4071 5.62 1.2366 10.003 1.7057 10.771-1.8194 3.828-3.8377 9.064-5.0459 15.496-.995 5.279-1.1798 9.96-1.066 13.702" stroke="#000" stroke-linecap="round" stroke-miterlimit="10" stroke-width=".701867"/><path d="m81.1074 132.873c1.2366-2.676 2.857-3.828 3.7525-4.326.5116-.285 1.6345-.911 2.2031-.484.5259.399.2985 1.537.1563 2.12-.6538 2.96-3.0701 6.318-4.8895 8.566-.4122-1.963-.8102-3.913-1.2224-5.876z" stroke="#000" stroke-linecap="round" stroke-miterlimit="10" stroke-width=".701867"/><path d="m87.3896 165.927-4.4347 1.366-9.0115-44.096 4.989-.811z" fill="#fff" stroke="#000" stroke-linecap="round" stroke-miterlimit="10" stroke-width=".701867"/><path d="m86.3244 133.357c.4974-.128 2.4589-.598 4.3209.512.7107.413 1.1798.939 1.4925 1.352-2.0468 2.988-7.5475 11.411-11.1862 13.973-.5544.384-1.7199.939-2.4874.241-.3838-.341-1.5067-.853.0426-3.386 1.663-2.718 3.9088-7.3 7.8176-12.678z" fill="#fff" stroke="#000" stroke-linecap="round" stroke-linejoin="round" stroke-width=".701867"/><path d="m90.8865 138.095c.6538.37 2.0894 1.295 2.4874 2.902.2416 1.011.0426 2.064-1.3503 4.411-1.4356 2.419-4.1647 5.863-8.7131 9.007-1.5919 1.096-2.8143 1.594-3.6245.698-.8101-.897-.1137-2.946.8529-4.113 3.7098-4.482 7.2916-10.074 10.3476-12.891z" fill="#fff" stroke="#000" stroke-linecap="round" stroke-linejoin="round" stroke-width=".701867"/><path d="m92.3504 145.48c.5827.427 2.3168 1.821 2.8569 4.24.0995.456.2985 1.366.0853 2.405-.8102 3.856-6.5525 5.265-9.3669 5.948-2.5016.612-2.9849.355-3.3828-.043-1.2793-1.281.5117-2.832.6112-2.974 4.2214-2.888 5.5149-5.506 9.2105-9.59z" fill="#fff" stroke="#000" stroke-linecap="round" stroke-linejoin="round" stroke-width=".701867"/><path d="m118.533 137.17c-.569.328-10.859 6.717-11.456 9.192-.256 1.053.113 1.736.113 1.736.37.683 1.123.954 1.521 1.082 1.45.483 4.676.91 11.13.811 0 0 1.392-.029 2.657-.598 1.109-.498 1.891-.839 1.962-1.409.085-.739-1.08-1.422-1.635-1.735-1.165-.683-4.477-2.277-5.372-2.291" fill="#fff"/><path d="m118.533 137.17c-.569.328-10.859 6.717-11.456 9.192-.256 1.053.113 1.736.113 1.736.37.683 1.123.954 1.521 1.082 1.45.483 4.676.91 11.13.811 0 0 1.392-.029 2.657-.598 1.109-.498 1.891-.839 1.962-1.409.085-.739-1.08-1.422-1.635-1.735-1.165-.683-4.477-2.277-5.372-2.291" stroke="#000" stroke-linecap="round" stroke-linejoin="round" stroke-width=".701867"/><path d="m108.54 150.004c-2.388 1.395-3.852 3.102-3.639 4.241.143.74.597 1.138.597 1.138.484.413 1.081.427 1.308.441 10.22.327 11.272.242 13.361.057.441-.043 1.379-.128 2.004-.811.668-.74.611-1.722.597-1.85-.099-1.181-1.094-2.248-2.502-2.661-3.908-.185-7.817-.355-11.726-.54z" fill="#fff" stroke="#000" stroke-linecap="round" stroke-linejoin="round" stroke-width=".701867"/><path d="m213.354 108.313 14.753 80.025 5.544-2.32-15.564-77.705z" fill="#fff" stroke="#000" stroke-miterlimit="10" stroke-width=".701867"/><path d="m109.25 156.195c-1.279.54-2.061 1.266-2.501 1.736-.555.611-1.265 1.394-1.08 2.177.156.711.98 1.109 1.634 1.366 2.701 1.053 5.543.825 12.977-.328 1.095-.17 2.53-.412 2.886-1.366.27-.74-.27-1.608-.484-1.963-.724-1.153-1.876-1.565-2.288-1.679-3.71.014-7.42.042-11.129.057z" fill="#fff" stroke="#000" stroke-linecap="round" stroke-linejoin="round" stroke-width=".701867"/><path d="m162.182 185.051c-.469-1.452-.924-3.372-1.08-5.649-.185-2.647.099-4.895.44-6.531-3.141-5.635-3.709-10.587-3.809-13.262 0 0-.455-13.304 10.76-22.837.384-.328 1.393-1.181 2.061-.868.554.256.725 1.223.654 1.636-.583 3.33-4.705 11.554-5.231 12.934.441-.526 2.857-5.393 3.298-5.919.199-.043 2.174-.37 2.857.655.412.626.17 1.479-.185 2.39-1.208 3.13-3.696 6.303-3.696 6.303s1.08-.512 3.312-4.709c.128-.256 1.862-.726 2.885.057 0 0 .441.341.654.953.825 2.433-4.903 6.702-4.889 6.716 0 0 1.009-.854 4.42-3.828.498-.056 2.928-.611 3.426.257.341.597-.057 2.347-.242 2.732-.981 1.977-2.814 5.421-5.941 11.013.113 6.431.256 12.493.369 18.924" fill="#fff"/><path d="m162.182 185.051c-.469-1.452-.924-3.372-1.08-5.649-.185-2.647.099-4.895.44-6.531-3.141-5.635-3.709-10.587-3.809-13.262 0 0-.455-13.304 10.76-22.837.384-.328 1.393-1.181 2.061-.868.554.256.725 1.223.654 1.636-.583 3.33-4.705 11.554-5.231 12.934.441-.526 2.857-5.393 3.298-5.919.199-.043 2.174-.37 2.857.655.412.626.17 1.479-.185 2.39-1.208 3.13-3.696 6.303-3.696 6.303s1.08-.512 3.312-4.709c.128-.256 1.862-.726 2.885.057 0 0 .441.341.654.953.825 2.433-4.903 6.702-4.889 6.716 0 0 1.009-.854 4.42-3.828.498-.056 2.928-.611 3.426.257.341.597-.057 2.347-.242 2.732-.981 1.977-2.814 5.421-5.941 11.013.113 6.431.256 12.493.369 18.924" stroke="#000" stroke-linecap="round" stroke-linejoin="round" stroke-width=".701867"/><path d="m207.026 159.411c-.299-3.856.682-6.574 1.308-7.94 2.018-4.411 6.055-6.275 14.128-10.003.867-.399 2.402-1.067 3.155-.441.796.668.271 2.433.214 2.604-.654 2.12-2.673 3.23-3.483 3.699-2.103 1.224-4.974 3.358-8.471 7.399" fill="#fff"/><path d="m207.026 159.411c-.299-3.856.682-6.574 1.308-7.94 2.018-4.411 6.055-6.275 14.128-10.003.867-.399 2.402-1.067 3.155-.441.796.668.271 2.433.214 2.604-.654 2.12-2.673 3.23-3.483 3.699-2.103 1.224-4.974 3.358-8.471 7.399" stroke="#000" stroke-linecap="round" stroke-miterlimit="10" stroke-width=".701867"/><path d="m229.043 140.771c-6.424 7.271-10.12 11.055-11.058 12.108-.554.626-2.558 2.633-.967 3.743.811.555 1.976.071 2.928-.669 1.266-.996 1.934-1.992 12.594-12.55-1.393-.897-2.274-1.864-3.497-2.604z" fill="#fff" stroke="#000" stroke-linecap="round" stroke-miterlimit="10" stroke-width=".701867"/><path d="m241.709 154.145c-1.378-2.149-2.672-3.885-4.05-6.033-8.714 8.509-12.608 13.361-14.328 16.093-2.175 3.443-2.132 4.567-1.734 5.008.554.627 2.061.114 2.715-.113 4.705-1.594 9.196-6.987 11.726-10.444" fill="#fff"/><path d="m241.709 154.145c-1.378-2.149-2.672-3.885-4.05-6.033-8.714 8.509-12.608 13.361-14.328 16.093-2.175 3.443-2.132 4.567-1.734 5.008.554.627 2.061.114 2.715-.113 4.705-1.594 9.196-6.987 11.726-10.444" stroke="#000" stroke-linecap="round" stroke-miterlimit="10" stroke-width=".701867"/><path d="m237.557 147.685c-.455-1.935-2.956-3.073-4.704-4.112-3.81 4.141-10.462 10.914-13.589 15.567-.739 1.095-1.961 2.718-.91 3.87.725.811 1.649.84 3.099 0 4.591-2.661 12.593-10.729 16.104-15.339z" fill="#fff" stroke="#000" stroke-linecap="round" stroke-miterlimit="10" stroke-width=".701867"/><path d="m207.027 159.41c.441 5.806 6.88 11.412 9.012 13.162s4.179 3.401 6.567 5.165c-.356 2.092-.64 4.44-.768 7.015-.156 3.059-.057 5.834.156 8.267" fill="#fff"/><path d="m207.027 159.41c.441 5.806 6.88 11.412 9.012 13.162s4.179 3.401 6.567 5.165c-.356 2.092-.64 4.44-.768 7.015-.156 3.059-.057 5.834.156 8.267" stroke="#000" stroke-linecap="round" stroke-miterlimit="10" stroke-width=".701867"/><path d="m241.566 153.975c.967 1.252 1.919 2.504 2.886 3.756-1.237 1.949-2.644 3.998-4.236 6.09-2.644 3.472-5.316 6.417-7.818 8.922 1.109 1.608 2.374 3.799 3.369 6.574 1.478 4.154 1.692 7.84 1.635 10.273" fill="#fff"/><path d="m241.566 153.975c.967 1.252 1.919 2.504 2.886 3.756-1.237 1.949-2.644 3.998-4.236 6.09-2.644 3.472-5.316 6.417-7.818 8.922 1.109 1.608 2.374 3.799 3.369 6.574 1.478 4.154 1.692 7.84 1.635 10.273" stroke="#000" stroke-linecap="round" stroke-miterlimit="10" stroke-width=".701867"/></g></svg>