<svg width="252" height="252" viewBox="0 0 252 252" fill="none" xmlns="http://www.w3.org/2000/svg">
<path d="M6.35156 187.041L211.477 174.327L213.732 141.831L188.158 135.832L188.593 97.2671L6.35156 187.041Z" fill="#FFFBEC" stroke="#403B36" stroke-linecap="round" stroke-linejoin="round"/>
<path d="M163.072 70.9644L6.87109 186.492L203.302 109.031L245.506 144.693L6.87109 186.492L189.113 96.7187L163.072 70.9644Z" fill="#FFFBEC"/>
<path d="M6.87109 186.492L163.072 70.9644L189.112 96.7187L6.87109 186.492ZM6.87109 186.492L203.302 109.031L245.506 144.693L6.87109 186.492Z" stroke="#403B36" stroke-linejoin="round"/>
<path d="M126.233 93.4102C125.189 89.6131 117.678 76.2867 118.639 65.3749C118.954 61.8083 119.333 59.684 120.9 57.4905C125.032 51.7029 130.43 53.4723 130.43 53.4723C136.074 49.2145 141.357 55.0944 142.332 56.4676C145.951 61.5456 147.583 67.3057 148.438 72.0565C150.018 80.8302 151.899 90.802 154.511 104.096C144.356 100.709 136.388 96.8017 126.229 93.4148L126.233 93.4102Z" fill="#403B36"/>
<path d="M144.825 122.92C144.395 124.685 144.92 127.219 144.92 127.219C144.92 127.219 134.086 128.814 131.216 128.726C118.385 128.335 100.965 125.183 97.5584 124.556C95.0348 119.69 92.5112 114.828 89.9922 109.962C94.8361 111.253 99.6845 112.543 104.528 113.833C104.515 111.552 104.616 96.2811 114.188 90.8021C116.435 89.5165 118.732 89.0372 120.761 88.6179C125.919 87.5488 130.546 88.3184 139.582 89.9082C145.868 91.0141 147.217 91.6131 148.442 92.3919C151.437 94.2904 152.902 96.7419 154.816 99.9352C158.592 106.244 159.512 111.93 159.697 113.137C160.404 117.837 160.016 121.846 159.498 124.653C156.166 124.961 151.969 124.989 147.25 124.155C136.49 122.252 128.965 116.92 125.143 113.732C125.494 112.253 126.049 110.483 126.936 108.571C127.638 107.05 128.406 105.76 129.127 104.7C135.001 108.11 142.896 111.635 148.77 115.045C148.77 115.045 146.672 110.815 146.029 108.87C145.424 107.032 144.44 104.599 144.403 102.746" fill="#FFBB32"/>
<path d="M144.825 122.92C144.395 124.685 144.92 127.219 144.92 127.219C144.92 127.219 134.086 128.814 131.216 128.726C118.385 128.335 100.965 125.183 97.5584 124.556C95.0348 119.69 92.5112 114.828 89.9922 109.962C94.8361 111.253 99.6845 112.543 104.528 113.833C104.515 111.552 104.616 96.2811 114.188 90.8021C116.435 89.5165 118.732 89.0372 120.761 88.6179C125.919 87.5488 130.546 88.3184 139.582 89.9082C145.868 91.0141 147.217 91.6131 148.442 92.3919C151.437 94.2904 152.902 96.7419 154.816 99.9352C158.592 106.244 159.512 111.93 159.697 113.137C160.404 117.837 160.016 121.846 159.498 124.653C156.166 124.961 151.969 124.989 147.25 124.155C136.49 122.252 128.965 116.92 125.143 113.732C125.494 112.253 126.049 110.483 126.936 108.571C127.638 107.05 128.406 105.76 129.127 104.7C135.001 108.11 142.896 111.635 148.77 115.045C148.77 115.045 146.672 110.815 146.029 108.87C145.424 107.032 144.44 104.599 144.403 102.746" stroke="#403B36" stroke-width="0.5" stroke-linecap="round" stroke-linejoin="round"/>
<path d="M131.211 128.726C136.554 128.072 139.577 127.878 144.915 127.219L148.197 130.611C143.469 131.638 141.287 133.242 136.563 134.27C133.111 130.597 134.659 132.389 131.211 128.721V128.726Z" fill="#FFD86D" stroke="#403B36" stroke-width="0.5" stroke-linecap="round" stroke-linejoin="round"/>
<path d="M128.523 82.8577C127.76 84.8761 126.998 86.8944 126.23 88.9127C127.15 89.5117 128.86 90.4564 131.208 90.7974C133.94 91.1983 136.117 90.5808 137.185 90.2029C136.954 87.4888 136.718 84.7747 136.487 82.0605C133.829 82.3232 131.176 82.5905 128.518 82.8531L128.523 82.8577Z" fill="#FFFBEC" stroke="#403B36" stroke-width="0.5" stroke-linecap="round" stroke-linejoin="round"/>
<path d="M132.095 84.7381C129.526 84.7381 127.552 83.7289 127.182 83.5262C123.78 81.6553 122.62 78.2638 121.391 74.6695C120.383 71.7204 120.055 67.6976 119.953 65.5548C119.949 65.4396 120.032 65.3337 120.147 65.3152L139.699 62.1265C139.699 62.1265 139.722 62.1265 139.736 62.1265C139.828 62.1265 139.911 62.1818 139.948 62.2647C140.29 63.0481 140.632 64.2415 140.965 65.3936C141.219 66.2737 141.478 67.1723 141.732 67.8865C141.991 67.3013 142.467 66.541 143.082 66.3612C143.336 66.2875 143.581 66.2507 143.812 66.2507C144.977 66.2507 145.883 67.163 146.368 68.8173C146.724 70.0246 146.465 72.0153 144.792 72.6696C144.635 72.7295 144.464 72.7618 144.288 72.7618C143.794 72.7618 143.322 72.513 143.013 72.3102C142.518 78.3882 138.945 83.3649 134.217 84.4939C133.533 84.6551 132.816 84.7381 132.091 84.7381H132.095Z" fill="#FFFBEC"/>
<path d="M139.735 62.3568C140.405 63.8913 141.08 67.0247 141.75 68.5592C141.787 68.2228 142.374 66.8035 143.146 66.5824C143.382 66.5132 143.608 66.481 143.812 66.481C145.069 66.481 145.785 67.6422 146.146 68.8818C146.483 70.0338 146.229 71.8586 144.708 72.453C144.57 72.5083 144.431 72.5313 144.292 72.5313C143.557 72.5313 142.855 71.9 142.813 71.8632C142.457 78.1577 138.824 83.1528 134.165 84.268C133.449 84.4385 132.751 84.5076 132.095 84.5076C129.511 84.5076 127.519 83.4478 127.297 83.3233C123.969 81.494 122.804 78.0794 121.612 74.5819C120.572 71.5452 120.276 67.3012 120.188 65.5456C126.705 64.4811 133.222 63.4213 139.74 62.3568M139.74 61.896C139.716 61.896 139.689 61.896 139.666 61.9006L129.437 63.5687L120.119 65.0894C119.888 65.1262 119.722 65.3336 119.731 65.5686C119.837 67.7205 120.165 71.771 121.178 74.7294C122.37 78.2176 123.599 81.8119 127.08 83.7242C127.459 83.9316 129.474 84.9684 132.104 84.9684C132.848 84.9684 133.583 84.8855 134.286 84.715C139.014 83.586 142.61 78.7015 143.225 72.6926C143.53 72.8539 143.909 72.9921 144.306 72.9921C144.509 72.9921 144.708 72.9553 144.893 72.8862C146.705 72.1811 146.982 70.0476 146.608 68.7574C146.09 66.9971 145.101 66.0248 143.83 66.0248C143.576 66.0248 143.308 66.0663 143.035 66.1446C142.508 66.2967 142.088 66.7897 141.792 67.2966C141.598 66.693 141.399 66.011 141.205 65.3382C140.872 64.177 140.525 62.9743 140.179 62.1817C140.105 62.0112 139.938 61.9052 139.753 61.9052L139.74 61.896Z" fill="#403B36"/>
<path d="M87.6719 154.595C87.8152 147.568 90.6485 129.237 98.663 114.418C100.734 110.584 104.122 110.008 106.354 109.478C114.332 107.589 121.963 114.165 127.204 118.68C131.003 121.952 133.111 125.035 137.631 134.698C118.949 142.264 107.32 146.845 87.6719 154.595Z" fill="#FFD86D" stroke="#403B36" stroke-width="0.5" stroke-linecap="round" stroke-linejoin="round"/>
<path d="M99.4023 149.914C99.5179 144.334 101.515 130.616 108.064 118.022C109.654 114.962 112.367 114.52 114.128 114.1C120.414 112.598 124.773 116.179 128.775 119.907C130.536 121.547 135.218 126.45 138.782 134.118C124.056 140.122 114.891 143.758 99.4023 149.914Z" fill="#FFD86D" stroke="#403B36" stroke-width="0.5" stroke-linecap="round" stroke-linejoin="round"/>
<path d="M118.042 132.454C118.185 133.735 118.246 135.431 117.945 137.389C117.552 139.956 116.697 141.97 116.004 143.292" stroke="#403B36" stroke-width="0.5" stroke-linecap="round" stroke-linejoin="round"/>
<path d="M121.333 84.5073H98.75C98.5968 84.5073 98.4727 84.6311 98.4727 84.7838V117.685C98.4727 117.838 98.5968 117.962 98.75 117.962H121.333C121.486 117.962 121.61 117.838 121.61 117.685V84.7838C121.61 84.6311 121.486 84.5073 121.333 84.5073Z" fill="#403B36"/>
<path d="M92.0037 110.497C92.2486 110.013 92.7247 108.833 92.5028 108.078C92.2902 107.345 91.6709 106.202 91.3104 105.562C90.9036 104.843 90.2889 102.917 90.5061 100.58C90.765 97.7742 91.9205 96.2674 92.5722 95.143C93.2655 93.9495 94.6752 92.6086 95.387 92.7376C96.561 92.9496 96.6442 93.9265 96.5656 95.2259C96.4547 96.9862 96.3715 96.9263 95.8954 101.23C97.3744 97.3318 99.0245 96.3365 100.383 95.1338C101.83 93.8574 103.517 92.7929 106.716 91.6225C107.409 91.369 108.43 90.9958 108.823 91.4151C109.258 91.8759 108.708 93.0325 108.481 93.5117C107.108 96.4056 102.856 99.5713 100.148 101.401C103.069 99.8939 105.528 99.3225 107.178 99.0783C109.891 98.6727 110.339 99.1658 110.464 99.3824C110.898 100.138 109.771 101.534 109.507 101.857C106.309 105.815 99.6855 105.861 99.7224 106.124C99.7455 106.276 101.437 106.373 104.423 106.617C105.394 106.695 106.341 106.82 106.642 107.11C107.552 107.995 107.081 109.409 104.885 110.538C103.078 111.469 100.101 112.027 98.4283 109.967V112.202C96.1034 111.584 94.1899 111.082 91.9991 110.492L92.0037 110.497Z" fill="#FFFBEC" stroke="#403B36" stroke-width="0.5" stroke-linecap="round" stroke-linejoin="round"/>
<path d="M128.391 105.538C127.504 102.064 125.65 99.3176 124.583 97.7785C123.196 95.7786 122.577 95.6404 122.239 95.7187C121.181 95.9537 121.01 98.6909 121.001 98.8798C120.811 102.354 122.896 105.142 122.794 105.202C122.669 105.271 120.635 100.433 116.18 97.3684C115.731 97.0596 112.76 95.0183 111.77 95.857C111.04 96.4744 111.724 98.3683 111.909 98.8798C113.624 103.64 119.873 105.801 119.905 105.75C119.928 105.709 116.771 103.566 112.903 103.207C112.057 103.128 110.518 102.999 110.139 103.718C109.667 104.603 111.23 106.234 111.512 106.534C113.873 109.008 117.534 109.363 119.864 109.331C117.876 109.552 113.134 110.179 111.757 111.474C111.562 111.658 111.193 112.109 111.179 112.469C111.142 113.335 111.817 113.644 112.917 113.755C116.499 114.109 116.915 114.068 119.591 114.054C123.048 114.04 124.911 113.1 125.322 112.944C126.242 110.381 127.217 107.852 128.396 105.543L128.391 105.538Z" fill="#FFFBEC" stroke="#403B36" stroke-width="0.5" stroke-linecap="round" stroke-linejoin="round"/>
<path d="M125.031 70.9234C125.669 70.9234 126.186 70.4076 126.186 69.7713C126.186 69.135 125.669 68.6191 125.031 68.6191C124.392 68.6191 123.875 69.135 123.875 69.7713C123.875 70.4076 124.392 70.9234 125.031 70.9234Z" fill="#403B36"/>
<path d="M135.3 69.9649C135.938 69.9649 136.456 69.4491 136.456 68.8128C136.456 68.1765 135.938 67.6606 135.3 67.6606C134.662 67.6606 134.145 68.1765 134.145 68.8128C134.145 69.4491 134.662 69.9649 135.3 69.9649Z" fill="#403B36"/>
<path d="M129.378 65.0386C129.337 65.9694 129.096 71.711 130.33 74.2362C130.793 75.1808 131.361 75.4666 131.625 75.5725C132.715 76.0011 133.949 75.4481 134.301 75.2776" stroke="#403B36" stroke-width="0.5" stroke-linecap="round" stroke-linejoin="round"/>
</svg>
