<svg width="252" height="252" viewBox="0 0 252 252" fill="none" xmlns="http://www.w3.org/2000/svg">
<g clip-path="url(#clip0_4995_11408)">
<path d="M159.277 168.804C160.427 168.536 162.035 168.264 163.782 167.937C165.8 170.245 166.758 172.614 168.779 174.923C167.669 176.499 166.563 178.079 165.453 179.656C163.396 176.039 161.338 172.418 159.277 168.801V168.804Z" fill="#FFFBEC" stroke="#403B36" stroke-width="0.4" stroke-miterlimit="10"/>
<path d="M56.0285 191.34C54.0866 191.436 51.6824 191.678 49.7405 191.777C47.2669 187.007 44.79 182.237 42.3164 177.467V195.749C43.9181 196.371 45.5199 196.994 47.1216 197.617C45.5199 198.154 43.9181 198.687 42.3164 199.223V205.65C46.6361 204.871 50.9525 204.09 55.2722 203.311C55.368 199.369 55.9294 195.282 56.0285 191.34Z" fill="#403B36"/>
<path d="M146.112 173.8C144.19 168.324 142.017 159.88 142.43 149.522C142.658 143.765 143.632 138.803 144.722 134.848C149.375 134.94 155.663 135.566 162.737 137.806C167.873 139.429 172.11 141.489 175.402 143.391C177.608 142.019 179.365 140.83 180.97 140.078C182.575 139.326 184.791 138.601 186.674 138.541C187.199 138.525 188.586 138.571 188.83 139.121C189.005 139.508 188.52 140.062 188.322 140.29C187.017 141.791 184.481 142.635 182.912 142.993C187.615 142.572 187.004 142.364 189.104 142.324C191.297 142.284 193.89 142.059 196.509 142.775C196.822 142.861 198.008 143.444 197.975 143.914C197.945 144.325 197.123 144.871 196.562 145.06C194.461 145.756 191.396 146.269 189.24 146.408C190.145 146.703 192.764 147.094 194.316 147.614C197.252 148.598 197.836 148.929 198.493 149.31C198.652 149.403 200.703 150.35 200.31 151.198C200.105 151.636 198.054 151.725 197.674 151.692C194.937 151.457 188.695 150.542 188.695 150.542C188.695 150.542 191.763 151.944 193.12 152.639C194.478 153.335 196.816 155.14 196.839 155.409C196.882 155.905 196.7 156.127 196.657 156.174C196.304 156.575 195.554 156.432 195.274 156.392C189.497 155.561 185.118 154.239 182.744 153.169C180.779 152.285 178.384 151.463 174.527 149.274C164.263 148.618 159.266 147.803 151.234 145.769C152.612 149.993 153.893 152.619 155.019 157.78C156.099 162.736 157.479 167.718 157.985 171.981C154.24 172.7 149.854 173.091 146.109 173.806L146.112 173.8Z" fill="#FFFBEC" stroke="#403B36" stroke-width="0.4" stroke-linejoin="round"/>
<path d="M162.302 180.912C166.311 180.517 173.309 180.574 178.854 181.084C183.907 181.548 188.316 182.462 191.952 183.452C191.176 173.571 190.4 163.69 189.621 153.809C187.408 152.961 184.317 151.354 181.807 148.3C179.512 145.507 178.92 142.987 179.102 141.509C179.145 141.165 179.257 140.25 179.789 140.055C180.152 139.922 180.595 140.171 181.08 140.575C182.646 141.883 184.062 144.355 184.799 145.759C183.26 142.569 180.093 135.772 179.64 132.539C179.571 132.052 179.403 130.839 179.914 130.555C180.433 130.266 181.381 131.068 181.751 131.383C184.188 133.443 185.869 139.369 186.635 142.473C185.932 140.691 184.578 136.954 184.835 134.526C184.951 133.433 185.327 133.241 185.42 133.201C186.09 132.913 187.124 133.99 187.348 134.228C188.617 135.55 188.887 137.047 189.379 139.24C189.657 140.469 190.099 142.354 190.747 144.726C190.591 143.046 190.737 141.705 190.905 140.777C191.176 139.3 191.477 139.011 191.731 138.935C192.302 138.76 193.006 139.528 193.273 139.82C195.284 142.023 195.228 149.519 195.165 152.079C197.164 155.674 199.703 161.252 200.932 168.48C202.448 177.39 201.288 184.771 200.251 189.137C196.064 190.975 188.963 193.46 179.858 193.681C171.675 193.884 162.996 191.956 158.848 190.531C159.997 187.325 161.146 184.118 162.299 180.912H162.302Z" fill="#FFFBEC" stroke="#403B36" stroke-width="0.4" stroke-miterlimit="10"/>
<path d="M161.41 153.759C163.818 151.655 167.434 148.976 172.328 146.915C176.892 144.991 180.254 144.076 184.065 145.146C189.561 146.693 192.077 151.778 192.692 153.212C191.562 154.471 190.436 155.73 189.307 156.992C190.925 156.591 192.546 156.19 194.165 155.786C195.116 156.893 196.486 158.811 197.058 161.48C198.21 166.847 195.786 171.047 194.439 173.088C190.297 179.361 183.359 181.674 181.12 182.286C174.551 172.776 167.982 163.266 161.413 153.759H161.41Z" fill="#403B36"/>
<path d="M168.455 181.293C167.558 182.592 166.162 184.435 164.194 186.354C158.666 191.744 152.797 193.711 143.313 196.487C133.993 199.217 125.869 201.356 119.293 202.995C118.681 199.476 117.209 188.179 123.881 179.149C127.826 173.81 133.014 171.432 137.779 169.255C145.458 165.746 152.407 164.921 156.806 164.753C160.691 170.266 164.573 175.78 168.455 181.293Z" fill="#FFA40A" stroke="#403B36" stroke-width="0.4"/>
<path d="M83.0519 205.504C73.6463 205.504 64.1318 204.97 54.7724 203.917L54.6172 203.9L55.456 190.799L55.5848 190.776C56.4699 190.627 57.3517 190.478 58.2368 190.336L58.4844 190.014C63.4151 183.667 69.4818 177.231 76.5195 170.881C83.2104 164.846 90.4925 159.387 98.1609 154.656L98.2567 154.597L98.3459 154.666C104.967 159.695 111.001 165.452 116.279 171.775C118.514 174.455 120.648 177.278 122.619 180.166L122.656 180.219L119.132 202.91L119.01 202.926C109.574 204.285 99.9608 205.113 90.4396 205.391C87.9892 205.464 85.4991 205.5 83.0453 205.5L83.0519 205.504ZM96.2917 174.707C93.1609 179.003 88.7091 182.829 84.4026 186.533L83.7388 187.103H83.686C76.2256 187.798 69.5974 188.596 62.7018 189.643C77.6192 187.421 92.5533 186.168 107.203 185.91C102.646 182.491 101.16 180.66 98.7389 177.672C98.042 176.81 97.2527 175.84 96.2917 174.707Z" fill="#FFD86D"/>
<path d="M98.2467 154.799C103.854 159.055 110.113 164.644 116.153 171.881C118.534 174.737 120.634 177.549 122.487 180.259C121.321 187.762 120.159 195.261 118.993 202.764C110.42 203.996 100.856 204.924 90.4428 205.229C87.9362 205.302 85.4725 205.338 83.0551 205.338C72.7281 205.338 63.2564 204.705 54.7921 203.751C55.0662 199.481 55.337 195.208 55.6111 190.938C73.0253 187.98 90.5848 186.337 107.692 186.066C101.414 181.412 100.776 179.712 96.2817 174.439C93.0056 179.003 88.1244 183.111 83.6726 186.94C75.3734 187.705 67.6785 188.636 58.6164 190.117C63.164 184.264 69.1613 177.745 76.6317 171.007C84.3331 164.057 91.81 158.77 98.25 154.799M98.2665 154.398L98.0749 154.517C90.3966 159.251 83.1079 164.716 76.4104 170.762C69.3661 177.115 63.2928 183.561 58.3555 189.915L58.1474 190.183C57.2855 190.322 56.4202 190.468 55.5583 190.614L55.3007 190.657L55.2842 190.919L54.8879 197.113L54.4651 203.731L54.4453 204.046L54.7591 204.083C64.1217 205.136 73.6429 205.673 83.0584 205.673C85.5121 205.673 88.0022 205.636 90.456 205.563C99.9838 205.285 109.604 204.454 119.046 203.095L119.287 203.062L119.323 202.82L121.652 187.818L122.817 180.315L122.837 180.186L122.765 180.077C120.79 177.185 118.653 174.356 116.414 171.673C111.13 165.339 105.086 159.575 98.4547 154.537L98.2731 154.401L98.2665 154.398ZM84.1746 186.947L84.5115 186.659C88.7717 182.998 93.1707 179.219 96.3048 174.975C97.2031 176.039 97.9494 176.956 98.6132 177.778C100.975 180.689 102.451 182.508 106.724 185.754C99.2671 185.897 91.7407 186.294 84.1779 186.95L84.1746 186.947Z" fill="#403B36"/>
<path d="M176.672 152.46C177.164 152.464 183.055 152.623 186.437 157.989C189.548 162.925 187.973 168.198 187.775 168.831C187.854 168.824 189.779 168.659 190.757 170.133C191.695 171.547 191.123 173.521 190.037 174.578C188.987 175.602 187.157 176.059 185.823 175.012C184.802 174.21 184.347 172.746 184.693 171.325C183.27 172.372 181.153 174.214 177.96 174.959C175.123 175.618 168.759 176.824 165.265 172.041C163.158 169.156 163.395 164.425 164.749 161.096C166.734 156.23 171.506 154.733 172.355 154.411C172.216 154.352 170.783 153.713 170.506 152.242C170.212 150.698 171.384 149.251 172.666 148.774C173.94 148.297 175.595 148.677 176.368 149.966C176.995 151.019 176.744 152.185 176.675 152.46H176.672Z" fill="#FFFBEC" stroke="#403B36" stroke-width="0.4" stroke-miterlimit="10"/>
<path d="M183.464 158.085C179.587 159.592 176.843 160.947 173.299 163.59C172.645 164.2 172.117 164.905 171.889 165.75C171.618 166.747 172.398 168.009 173.884 168.49" stroke="#403B36" stroke-width="0.4" stroke-miterlimit="10" stroke-linecap="round"/>
<path d="M175.001 160C175.482 160 175.873 159.608 175.873 159.125C175.873 158.642 175.482 158.25 175.001 158.25C174.519 158.25 174.129 158.642 174.129 159.125C174.129 159.608 174.519 160 175.001 160Z" fill="#403B36"/>
<path d="M180.255 167.284C180.736 167.284 181.127 166.893 181.127 166.41C181.127 165.927 180.736 165.535 180.255 165.535C179.773 165.535 179.383 165.927 179.383 166.41C179.383 166.893 179.773 167.284 180.255 167.284Z" fill="#403B36"/>
<path d="M77.9725 58.4244L90.958 53.4424L86.6581 66.9376L99.3035 88.3763L81.2651 77.8557L60.5154 96.7471L69.2505 76.0868L47.9922 58.335L67.2129 64.0756L70.8258 31" fill="#FF8C00"/>
<path d="M108.473 121.618L118.955 113.296L117.317 131.144L128.889 141.986L111.204 142.973L117.644 164.767L95.5901 143.52L69.7148 137.826L93.9289 127.756L93.0802 96.2104" fill="#FF8C00"/>
<path d="M155.846 58.7028L177.464 53.1146L158.138 73.8146L157.048 102.07L143.455 76.1134L116.539 86.2995L134.227 67.6069L125.657 50.8157L143.072 61.0017L150.823 35.376" fill="#FF8C00"/>
<path d="M72.3191 97.0685C72.6361 99.8908 72.8772 103.978 72.4446 108.854C72.0351 113.446 70.6843 118.974 66.9426 128.832C61.751 142.52 48.2635 148.068 38.5541 169.133C33.3824 180.352 32.2529 186.477 32.4411 192.35C32.5072 194.424 32.8573 205.332 38.7754 212.5C51.2391 227.599 79.5747 217.893 87.2894 213.954C88.1844 213.497 90.9486 211.781 94.9876 211.874C95.3839 211.884 96.7544 212.371 98.4387 213.043C99.8918 213.623 100.922 214.146 101.074 214.223C102.785 215.071 122.379 223.001 139.01 215.786C142.055 214.464 146.253 212.275 152.973 210.39C154.687 209.91 156.599 209.509 158.881 209.214C163.455 208.624 167.551 208.717 169.8 208.777C179.654 209.035 182.656 210.814 187.488 210.966C197.891 211.301 208.396 203.845 213.693 195.855C220.919 184.953 218.591 172.839 216.534 162.123C213.436 146.008 202.25 128.882 194.75 119.464C194.03 118.56 190.556 114.297 190.602 110.776C190.675 104.936 191.256 106.761 191.474 98.5823C191.682 90.7548 191.996 80.1646 186.187 76.3586C183.829 74.8116 181.656 75.2919 179.39 75.7027C177.481 76.0472 173.446 77.1171 173.446 77.1171C173.446 77.1171 173.878 69.1041 173.112 65.4073C172.217 61.0845 166.061 61.6344 164.615 61.6841C160.064 61.8033 155.787 62.8302 155.153 62.9528C144.215 65.0463 96.8502 79.4525 80.9089 84.4908C80.2617 84.6962 74.905 86.2398 73.2834 87.8729C71.3911 89.7776 71.7081 93.0173 71.9723 94.8822C72.8673 101.176 79.0496 118.789 85.4202 143.775C86.2194 143.192 86.4407 142.169 87.2399 141.586C82.5206 117.46 78.1546 101.309 77.8673 96.8532C77.7881 95.6242 77.722 93.3055 78.868 91.7916C80.3541 89.8273 82.7319 89.3072 83.4552 89.0919C92.263 86.4651 147.729 69.1604 156.388 67.1895C163.667 65.4007 167.851 65.255 169.235 66.6793C170.78 68.2694 169.707 70.2204 170.364 77.9221" stroke="#403B36" stroke-linejoin="round"/>
<path d="M190.638 111.574C190.506 109.411 188.171 93.6366 185.268 86.2463C184.479 84.2389 183.438 82.533 181.665 81.6452C179.601 80.615 177.418 81.1351 176.642 81.3173C169.247 83.0365 121.612 98.072 111.424 102.024C109.145 102.908 103.045 105.562 100.978 108.255C98.6857 111.246 97.9195 115.403 97.1567 118C94.3429 127.56 91.2683 138.697 90.4955 142.311C89.7689 141.874 89.0391 141.436 88.3125 140.996C91.8462 125.284 94.5047 113.717 95.4096 109.017C95.5847 108.116 96.0107 105.81 97.8106 103.869C99.759 101.769 104.501 99.4732 105.235 99.1585C110.367 96.969 113.643 95.8725 140.281 86.2364C148.884 83.1226 161.549 80.3401 173.432 77.1104" stroke="#403B36" stroke-linecap="round" stroke-linejoin="round"/>
<path d="M87.1653 151.265C89.6988 151.265 91.7525 148.526 91.7525 145.147C91.7525 141.768 89.6988 139.028 87.1653 139.028C84.6319 139.028 82.5781 141.768 82.5781 145.147C82.5781 148.526 84.6319 151.265 87.1653 151.265Z" fill="white" stroke="#403B36" stroke-linejoin="round"/>
<path d="M87.1629 148.926C88.7005 148.926 89.947 147.234 89.947 145.146C89.947 143.059 88.7005 141.367 87.1629 141.367C85.6254 141.367 84.3789 143.059 84.3789 145.146C84.3789 147.234 85.6254 148.926 87.1629 148.926Z" fill="white" stroke="#403B36" stroke-linejoin="round"/>
<path d="M145.164 65.4504C144.907 65.0131 144.375 64.2744 143.49 63.9895C142.625 63.7113 141.832 64.0094 141.452 64.1353C141.452 64.1353 139.382 64.8773 131.115 67.2027C130.828 67.2822 130.329 67.4213 129.659 67.4213C128.163 67.4246 126.951 66.7522 126.165 66.1791C125.462 66.5203 124.758 66.8615 124.055 67.2027C124.408 67.3716 124.943 67.6797 125.438 68.2263C125.765 68.5906 126.063 68.9186 126.092 69.3227C126.145 70.0216 125.399 70.7802 124.273 71.2208C131.238 69.2995 138.199 67.3749 145.164 65.4537V65.4504Z" stroke="#403B36" stroke-linejoin="round"/>
<path d="M115.333 95.2463C115.29 94.7395 115.293 93.8285 115.848 93.0832C116.389 92.3545 117.205 92.1325 117.592 92.0133C117.592 92.0133 119.705 91.4104 127.78 88.4788C128.061 88.3761 128.546 88.1972 129.091 87.8097C130.31 86.9418 130.904 85.6863 131.214 84.7621C131.984 84.6296 132.753 84.4971 133.523 84.3613C133.331 84.7058 133.074 85.2656 132.991 86.001C132.935 86.488 132.886 86.9285 133.094 87.273C133.454 87.8726 134.501 88.0548 135.673 87.7567C128.893 90.2543 122.113 92.7487 115.333 95.2463Z" stroke="#403B36" stroke-linejoin="round"/>
<path d="M122.778 67.991C125.432 67.991 127.583 65.8332 127.583 63.1713C127.583 60.5094 125.432 58.3516 122.778 58.3516C120.124 58.3516 117.973 60.5094 117.973 63.1713C117.973 65.8332 120.124 67.991 122.778 67.991Z" fill="white" stroke="#403B36" stroke-linejoin="round"/>
<path d="M133.696 85.2923C136.35 85.2923 138.501 83.1344 138.501 80.4726C138.501 77.8107 136.35 75.6528 133.696 75.6528C131.042 75.6528 128.891 77.8107 128.891 80.4726C128.891 83.1344 131.042 85.2923 133.696 85.2923Z" fill="white" stroke="#403B36" stroke-linejoin="round"/>
</g>
<defs>
<clipPath id="clip0_4995_11408">
<rect width="189" height="190" fill="white" transform="translate(31 31)"/>
</clipPath>
</defs>
</svg>
