<svg width="194" height="195" viewBox="0 0 194 195" fill="none" xmlns="http://www.w3.org/2000/svg">
<path d="M114.087 1.47905C102.605 -0.487807 90.9171 -0.487807 79.4395 1.47905L70.0931 32.0449L42.2761 17.4727C42.0063 17.3333 41.7682 17.393 41.4943 17.4687C39.9663 17.8907 32.2908 24.5199 30.6755 26.0289C25.7344 30.6434 21.2894 35.9507 17.527 41.5646L31.8383 70.4264L1.97746 79.3449C1.53693 79.524 1.50518 79.9939 1.40993 80.404C0.763028 83.1392 0.310591 87.9289 0.151841 90.7916C-0.276784 98.5476 0.258995 106.765 1.65599 114.39L31.8383 123.555C32.2233 123.997 29.4253 129.213 28.9491 130.153C25.2145 137.475 20.7973 144.562 17.5111 152.059C17.527 153.424 24.0874 161.216 25.4566 162.721C30.2072 167.937 35.7476 172.412 41.3911 176.62L70.0971 161.941L79.6578 192.57C91.0521 194.521 102.712 194.557 114.095 192.503L123.441 161.937L150.897 176.469C151.437 176.812 151.849 176.724 152.405 176.473C153.651 175.908 158.045 172.181 159.386 171.054C165.74 165.699 171.415 159.333 176.003 152.405L161.7 123.555L191.557 114.637C192.005 114.466 192.033 113.988 192.128 113.582C192.775 110.854 193.231 106.049 193.386 103.194C193.815 95.4102 193.259 87.2521 191.882 79.5997L161.315 70.4343C165.97 60.8151 171.578 51.594 176.031 41.9269C176.015 40.8201 171.455 35.242 170.399 33.9839C165.065 27.6294 158.695 21.9598 151.782 17.397L123.441 32.0489L114.095 1.48302L114.087 1.47905Z" fill="#FEFEFE"/>
<path d="M114.087 1.47912L123.433 32.045L151.774 17.3931C158.684 21.9559 165.057 27.6255 170.391 33.98C171.447 35.2381 176.007 40.8162 176.023 41.923C171.57 51.59 165.962 60.8112 161.307 70.4304L191.874 79.5958C193.251 87.2482 193.807 95.4062 193.379 103.19C193.22 106.049 192.767 110.85 192.12 113.578C192.025 113.984 191.997 114.458 191.549 114.633L161.692 123.551L175.995 152.401C171.411 159.329 165.732 165.691 159.378 171.05C158.041 172.181 153.643 175.904 152.397 176.469C151.846 176.72 151.433 176.804 150.889 176.465L123.433 161.933L114.087 192.499C102.704 194.553 91.0443 194.517 79.65 192.566L70.0893 161.937L41.3833 176.617C35.7397 172.408 30.1994 167.933 25.4488 162.717C24.0796 161.212 17.5192 153.42 17.5033 152.055C20.7895 144.558 25.2107 137.471 28.9413 130.149C29.4215 129.209 32.2155 123.993 31.8305 123.551L1.64818 114.386C0.251182 106.761 -0.284597 98.5476 0.144028 90.7877C0.302778 87.925 0.755215 83.1353 1.40212 80.4001C1.49737 79.9939 1.52912 79.5241 1.96966 79.341L31.8305 70.4225L17.5192 41.5607C21.2816 35.9468 25.7266 30.6395 30.6677 26.025C32.283 24.516 39.9585 17.8868 41.4865 17.4648C41.7603 17.3891 41.9985 17.3294 42.2683 17.4688L70.0853 32.041L79.4317 1.47514C90.9093 -0.491713 102.601 -0.491713 114.079 1.47514L114.087 1.47912ZM97.1442 1.02523L80.1421 55.6989L29.1318 29.3336L55.7938 80.1213L0.909994 96.9909L55.7938 113.86L29.1318 165.038L79.5389 138.299L96.5727 192.961L113.384 138.287L164.395 165.042L137.733 113.864L192.616 96.9949L137.733 80.1253L164.395 28.9513L113.384 55.7069L97.1482 1.0332L97.1442 1.02523Z" fill="#FE9018"/>
</svg>
