<svg fill="none" height="195" viewBox="0 0 648 195" width="648" xmlns="http://www.w3.org/2000/svg"><path d="m114.087 1.47905c-11.482-1.966857-23.1699-1.966857-34.6475 0l-9.3464 30.56585-27.817-14.5722c-.2698-.1394-.5079-.0797-.7818-.004-1.528.422-9.2035 7.0512-10.8188 8.5602-4.9411 4.6145-9.3861 9.9218-13.1485 15.5357l14.3113 28.8618-29.86084 8.9185c-.44053.1791-.47228.649-.56753 1.0591-.646902 2.7352-1.099339 7.5249-1.258089 10.3876-.428625 7.756.107154 15.9734 1.504149 23.5984l30.18231 9.165c.385.442-2.413 5.658-2.8892 6.598-3.7346 7.322-8.1518 14.409-11.438 21.906.0159 1.365 6.5763 9.157 7.9455 10.662 4.7506 5.216 10.291 9.691 15.9345 13.899l28.706-14.679 9.5607 30.629c11.3943 1.951 23.0542 1.987 34.4372-.067l9.346-30.566 27.456 14.532c.54.343.952.255 1.508.004 1.246-.565 5.64-4.292 6.981-5.419 6.354-5.355 12.029-11.721 16.617-18.649l-14.303-28.85 29.857-8.918c.448-.171.476-.649.571-1.055.647-2.728 1.103-7.533 1.258-10.388.429-7.7838-.127-15.9419-1.504-23.5943l-30.567-9.1654c4.655-9.6192 10.263-18.8403 14.716-28.5074-.016-1.1068-4.576-6.6849-5.632-7.943-5.334-6.3545-11.704-12.0241-18.617-16.5869l-28.341 14.6519-9.346-30.56588z" fill="#fefefe"/><path d="m114.087 1.47912 9.346 30.56588 28.341-14.6519c6.91 4.5628 13.283 10.2324 18.617 16.5869 1.056 1.2581 5.616 6.8362 5.632 7.943-4.453 9.667-10.061 18.8882-14.716 28.5074l30.567 9.1654c1.377 7.6524 1.933 15.8104 1.505 23.5942-.159 2.859-.612 7.66-1.259 10.388-.095.406-.123.88-.571 1.055l-29.857 8.918 14.303 28.85c-4.584 6.928-10.263 13.29-16.617 18.649-1.337 1.131-5.735 4.854-6.981 5.419-.551.251-.964.335-1.508-.004l-27.456-14.532-9.346 30.566c-11.383 2.054-23.0427 2.018-34.437.067l-9.5607-30.629-28.706 14.68c-5.6436-4.209-11.1839-8.684-15.9345-13.9-1.3692-1.505-7.9296-9.297-7.9455-10.662 3.2862-7.497 7.7074-14.584 11.438-21.906.4802-.94 3.2742-6.156 2.8892-6.598l-30.18232-9.165c-1.396998-7.625-1.932777-15.8384-1.504152-23.5983.15875-2.8627.611187-7.6524 1.258092-10.3876.09525-.4062.127-.876.56754-1.0591l29.86084-8.9185-14.3113-28.8618c3.7624-5.6139 8.2074-10.9212 13.1485-15.5357 1.6153-1.509 9.2908-8.1382 10.8188-8.5602.2738-.0757.512-.1354.7818.004l27.817 14.5722 9.3464-30.56586c11.4776-1.966853 23.1693-1.966853 34.6473 0zm-16.9428-.45389-17.0021 54.67367-51.0103-26.3653 26.662 50.7877-54.883806 16.8696 54.883806 16.8691-26.662 51.178 50.4071-26.739 17.0338 54.662 16.8113-54.674 51.011 26.755-26.662-51.178 54.883-16.8691-54.883-16.8696 26.662-51.174-51.011 26.7556-16.2358-54.6737z" fill="#fe9018"/><g fill="#fefefe"><path d="m451.749 33.0562c-.179.2747-.81.6649-.81.8122v17.8649c0 .0557.755.8122.81.8122h15.649c.055 0 .809-.7565.809-.8122v-17.8649c0-.0558-.754-.8122-.809-.8122z"/><path d="m318.179 33.5977h-16.728v105.0353h16.728v-34.109c1.909.302 5.946-.669 7.295.533l16.724 33.576h18.078l-21.463-42.0483.865-2.1699 20.062-33.2056h-18.347c-4.886 9.6193-11.061 18.7409-16.467 28.1491-1.444 1.2024-4.822.2668-6.739.5455v-56.3061z"/><path d="m388.879 33.5977h-17.268v105.0353h17.268v-56.0353c5.898-5.9284 19.927-9.8501 24.845-1.1028.278.4977 1.599 3.6032 1.599 3.8102v53.3279h17.268v-56.5767c0-1.1109-1.429-6.4898-1.901-7.8396-6.358-18.1794-29.13-17.4827-41.815-6.5097v-34.1093z"/><path d="m504.906 33.5977h-16.728v105.0353h16.728z"/><path d="m286.339 106.148v-23.0086c0-2.4327-3.009-10.0811-4.414-12.3585-9.699-15.711-41.521-14.3493-50.387 2.3172-4.631 8.7075-4.334 32.8069-3.476 43.0559 2.028 24.315 29.202 27.962 47.851 20.409 1.829-.741 6.461-2.903 7.929-3.958.496-.354.881-.422.81-1.182-.099-1.015-5.052-11.515-5.679-11.702-4.116 1.238-7.668 3.763-11.938 4.678-6.501 1.398-17.907 1.641-21.031-5.673-.246-.577-1.214-3.842-1.214-4.193v-8.393h41.557z"/><path d="m619.321 61.209h-14.569v77.424h17.268v-53.8695c0-1.1149 4.33-4.6663 5.445-5.3671 5.806-3.643 11.386-3.3245 17.76-1.4015l2.735-16.4674c-10.426-4.2283-21.193.5973-27.289 9.4361l-1.35-9.7506z"/><path d="m468.207 61.209h-17.268v77.424h17.268z"/><path d="m541.605 61.2091h-17.268c.666 16.6664-.897 34.0257.003 50.6169.572 10.531 2.775 22.049 13.661 26.361 11.303 4.475 22.796.307 31.663-7.135l1.083 7.581h14.034v-77.4239h-16.729v56.0349c-5.985 6.212-20.899 10.197-25.094.271-.294-.689-1.35-4.145-1.35-4.602v-51.7079z"/></g><path d="m388.879 33.5977v34.1093c12.684-10.973 35.453-11.6737 41.815 6.5097.472 1.3458 1.901 6.7287 1.901 7.8396v56.5767h-17.268v-53.3279c0-.207-1.322-3.3125-1.599-3.8102-4.918-8.7473-18.947-4.8256-24.845 1.1028v56.0353h-17.268v-105.0353h17.268z" fill="#1a47ba"/><path d="m318.18 33.5977v56.3061c1.92-.2827 5.294.6529 6.739-.5455 5.405-9.4082 11.58-18.5298 16.466-28.1491h18.347l-20.062 33.2056-.865 2.1699 21.463 42.0483h-18.077l-16.725-33.576c-1.345-1.202-5.385-.231-7.294-.533v34.109h-16.729v-105.0353h16.729z" fill="#1a47ba"/><path d="m286.339 106.148h-41.557v8.393c0 .351.969 3.615 1.215 4.193 3.123 7.31 14.529 7.071 21.03 5.673 4.27-.915 7.823-3.444 11.938-4.678.627.183 5.584 10.686 5.679 11.702.072.76-.313.824-.809 1.182-1.469 1.055-6.1 3.217-7.93 3.958-18.645 7.553-45.823 3.906-47.851-20.409-.853-10.253-1.155-34.3526 3.477-43.0561 8.866-16.6665 40.687-18.0282 50.387-2.3172 1.405 2.2734 4.413 9.9258 4.413 12.3585v23.0088zm-16.188-13.5368c-.481-8.8429-.778-17.2797-11.577-17.8888-12.252-.6888-13.673 7.5927-13.788 17.8888z" fill="#1a47ba"/><path d="m541.605 61.209v51.707c0 .458 1.056 3.914 1.349 4.603 4.195 9.926 19.11 5.94 25.095-.271v-56.035h16.728v77.424h-14.033l-1.084-7.581c-8.87 7.441-20.36 11.614-31.663 7.135-10.886-4.312-13.084-15.83-13.66-26.361-.901-16.5913.659-33.9505-.004-50.617h17.268z" fill="#1a47ba"/><path d="m504.906 33.5977h-16.728v105.0353h16.728z" fill="#1a47ba"/><path d="m619.321 61.2091 1.35 9.7506c6.096-8.8389 16.863-13.6644 27.289-9.4361l-2.735 16.4674c-6.374-1.923-11.954-2.2415-17.76 1.4015-1.115.7008-5.445 4.2522-5.445 5.367v53.8695h-17.268v-77.4239h14.569z" fill="#1a47ba"/><path d="m468.207 61.209h-17.268v77.424h17.268z" fill="#1a47ba"/><path d="m451.749 33.0562h15.649c.055 0 .809.7564.809.8122v17.8649c0 .0557-.754.8122-.809.8122h-15.649c-.055 0-.81-.7565-.81-.8122v-17.8649c0-.1473.631-.5375.81-.8122z" fill="#1a47ba"/><path d="m270.151 92.611h-25.364c.115-10.2961 1.536-18.5776 13.788-17.8888 10.799.6092 11.096 9.0459 11.576 17.8888z" fill="#fefefe"/></svg>