<svg width="421" height="108" viewBox="0 0 421 108" fill="none" xmlns="http://www.w3.org/2000/svg">
<path d="M224.202 0C224.024 0.274722 223.393 0.664911 223.393 0.812226V18.6771C223.393 18.7329 224.147 19.4893 224.202 19.4893H239.851C239.907 19.4893 240.661 18.7329 240.661 18.6771V0.812226C240.661 0.756485 239.907 0 239.851 0H224.202Z" fill="#FEFEFE"/>
<path d="M90.6326 0.541504H73.9043V105.577H90.6326V71.4676C92.5415 71.7702 96.5778 70.7987 97.9271 72.0011L114.651 105.577H132.729L111.266 63.5285L112.131 61.3586L132.193 28.1531H113.846C108.96 37.7723 102.785 46.8939 97.3794 56.3022C95.9348 57.5046 92.5574 56.5689 90.6405 56.8476V0.541504H90.6326Z" fill="#FEFEFE"/>
<path d="M161.332 0.541504H144.064V105.577H161.332V49.5416C167.23 43.6132 181.26 39.6914 186.177 48.4387C186.455 48.9364 187.776 52.042 187.776 52.249V105.577H205.044V49.0001C205.044 47.8893 203.616 42.5103 203.143 41.1606C196.785 22.9811 174.013 23.6779 161.329 34.6509V0.541504H161.332Z" fill="#FEFEFE"/>
<path d="M277.359 0.541504H260.631V105.577H277.359V0.541504Z" fill="#FEFEFE"/>
<path d="M58.7919 73.0922V50.0832C58.7919 47.6505 55.7836 40.0021 54.3786 37.7247C44.679 22.0138 12.8575 23.3754 3.99135 40.0419C-0.640179 48.7494 -0.342503 72.8493 0.514747 83.0977C2.54278 107.413 29.7168 111.06 48.3659 103.507C50.1955 102.766 54.8271 100.604 56.2955 99.5491C56.7916 99.1948 57.1766 99.1271 57.1051 98.3666C57.0059 97.3514 52.0529 86.8522 51.4259 86.6651C47.3103 87.9033 43.7582 90.4276 39.4879 91.3433C32.987 92.7408 21.5809 92.9837 18.4575 85.6697C18.2114 85.0924 17.243 81.8276 17.243 81.4772V73.0842H58.7998L58.7919 73.0922Z" fill="#FEFEFE"/>
<path d="M391.774 28.1529H377.205V105.577H394.473V51.7073C394.473 50.5925 398.803 47.041 399.918 46.3403C405.725 42.6972 411.305 43.0157 417.678 44.9388L420.413 28.4714C409.987 24.243 399.22 29.0686 393.124 37.9075L391.774 28.1568V28.1529Z" fill="#FEFEFE"/>
<path d="M240.661 28.1528H223.393V105.577H240.661V28.1528Z" fill="#FEFEFE"/>
<path d="M314.058 28.1529H296.79C297.456 44.8194 295.893 62.1787 296.794 78.7695C297.365 89.3005 299.568 100.819 310.454 105.131C321.757 109.606 333.251 105.437 342.117 97.9961L343.2 105.577H357.234V28.1529H340.505V84.1883C334.521 90.3994 319.606 94.3848 315.411 84.459C315.117 83.7702 314.062 80.3143 314.062 79.8564V28.1489L314.058 28.1529Z" fill="#FEFEFE"/>
<path d="M161.332 0.541504V34.6509C174.017 23.6779 196.785 22.9772 203.147 41.1606C203.619 42.5063 205.048 47.8893 205.048 49.0001V105.577H187.78V52.249C187.78 52.042 186.459 48.9364 186.181 48.4387C181.263 39.6914 167.234 43.6132 161.336 49.5416V105.577H144.068V0.541504H161.336H161.332Z" fill="#1A47BA"/>
<path d="M90.6327 0.541504V56.8476C92.5536 56.5649 95.927 57.5006 97.3717 56.3022C102.777 46.8939 108.952 37.7723 113.838 28.1531H132.186L112.123 61.3586L111.258 63.5285L132.721 105.577H114.644L97.9193 72.0011C96.5739 70.7987 92.5337 71.7702 90.6248 71.4676V105.577H73.8965V0.541504H90.6248H90.6327Z" fill="#1A47BA"/>
<path d="M58.7922 73.092H17.2354V81.485C17.2354 81.8354 18.2038 85.1002 18.4498 85.6775C21.5732 92.9875 32.9794 92.7486 39.4802 91.3511C43.7506 90.4354 47.3026 87.9071 51.4182 86.6729C52.0453 86.856 57.0023 97.3592 57.0975 98.3745C57.1689 99.1349 56.784 99.1986 56.2879 99.557C54.8195 100.612 50.1879 102.774 48.3583 103.515C29.7132 111.067 2.53515 107.42 0.507118 83.1055C-0.346164 72.8532 -0.647785 48.7533 3.98375 40.0497C12.8499 23.3833 44.6713 22.0216 54.371 37.7325C55.7759 40.0059 58.7842 47.6583 58.7842 50.091V73.1L58.7922 73.092ZM42.6036 59.555C42.1234 50.7121 41.8258 42.2754 31.0268 41.6662C18.7753 40.9774 17.3545 49.2589 17.2394 59.555H42.6036Z" fill="#1A47BA"/>
<path d="M314.058 28.1528V79.8603C314.058 80.3182 315.114 83.7741 315.408 84.4629C319.603 94.3888 334.517 90.4033 340.502 84.1922V28.1568H357.23V105.581H343.197L342.113 98C333.243 105.441 321.754 109.614 310.451 105.135C299.564 100.823 297.366 89.3044 296.79 78.7734C295.889 62.1826 297.449 44.8233 296.786 28.1568H314.054L314.058 28.1528Z" fill="#1A47BA"/>
<path d="M277.359 0.541504H260.631V105.577H277.359V0.541504Z" fill="#1A47BA"/>
<path d="M391.774 28.1529L393.124 37.9036C399.22 29.0647 409.987 24.2391 420.413 28.4675L417.678 44.9349C411.305 43.0118 405.725 42.6933 399.918 46.3364C398.803 47.0371 394.473 50.5886 394.473 51.7034V105.573H377.205V28.1489H391.774V28.1529Z" fill="#1A47BA"/>
<path d="M240.661 28.1528H223.393V105.577H240.661V28.1528Z" fill="#1A47BA"/>
<path d="M224.202 0H239.851C239.907 0 240.661 0.756485 240.661 0.812226V18.6771C240.661 18.7329 239.907 19.4893 239.851 19.4893H224.202C224.147 19.4893 223.393 18.7329 223.393 18.6771V0.812226C223.393 0.664911 224.024 0.274722 224.202 0Z" fill="#1A47BA"/>
<path d="M42.6045 59.5548H17.2402C17.3553 49.2587 18.7761 40.9773 31.0277 41.666C41.8266 42.2752 42.1243 50.712 42.6045 59.5548Z" fill="#FEFEFE"/>
</svg>
