<svg width="250" height="316" viewBox="0 0 250 316" fill="none" xmlns="http://www.w3.org/2000/svg">
<rect x="0.5" y="0.5" width="249" height="315" fill="#ED1639"/>
<rect x="0.5" y="0.5" width="249" height="315" stroke="#DEE2E6"/>
<g clip-path="url(#clip0_3109_48194)">
<path d="M128.036 85.6211C135.84 86.3601 141.998 80.1711 145.898 74.0466C148.319 69.6858 150.57 65.0041 149.95 59.65C149.636 58.0535 148.513 56.2573 146.82 55.8101C142.946 54.888 139.746 57.3567 137.256 60.2446C134.123 64.628 132.093 69.5065 132.294 75.2027C132.342 75.3006 132.367 75.4974 132.539 75.4496C133.944 73.809 135.693 72.1709 137.465 70.9493C138.399 70.2401 139.457 69.7774 140.343 69.0439C140.698 65.9522 141.542 63.0827 143.539 60.6839C144.401 59.8029 145.461 58.751 146.735 59.3205C148.155 60.3812 147.731 62.4908 147.553 64.0361C146.48 69.2125 143.861 73.7937 139.97 77.7582C137.409 79.958 134.136 82.3043 130.729 80.4754C126.86 77.811 128.107 71.9721 129.029 68.1706C132.01 58.0418 137.246 48.8287 144.15 40.3344C148.018 35.9533 152.208 31.3284 157.443 29.5789C157.836 29.5065 158.377 29.3124 158.695 29.6324C158.793 29.7801 158.646 29.902 158.571 30.0246C155.347 32.4685 152.365 35.65 150.439 39.0303C148.758 42.1423 146.731 46.4068 149.026 49.901C149.857 51.0087 151.181 51.431 152.558 51.1407C155.703 50.2434 157.848 47.4524 159.699 44.783C162.019 40.9611 163.728 36.7691 163.621 31.9571C163.697 31.4664 163.454 30.827 163.97 30.5587C168.661 29.7894 172.805 31.4981 176.405 33.9407L184.12 39.2454C184.291 39.3443 184.561 39.4188 184.734 39.2474C186.237 37.3136 187.644 35.4032 189.32 33.5439C189.517 33.3227 189.69 32.9309 189.322 32.7334C186.407 30.9062 183.517 29.0064 180.478 27.5225C175.233 24.9019 167.964 25.6381 162.728 27.7313C162.31 27.877 161.967 27.6304 161.674 27.3842C160.156 26.0287 157.922 25.8489 155.933 26.1365C148.637 27.5109 142.608 32.0069 137.04 37.5601C131.299 43.4819 127.251 50.194 123.887 57.1542L122.055 61.4933C120.072 67.1818 118.033 74.7364 120.983 80.614C122.25 83.3676 125.042 85.4394 128.036 85.6211ZM151.898 85.2864C154.67 86.1069 157.155 84.6177 159.174 82.8328C163.016 79.1876 165.461 74.9736 167.686 70.6119L168.179 70.0487L171.199 70.0099C171.395 70.0353 171.639 70.2574 171.639 70.4786C170.741 74.3292 169.4 78.719 170.663 82.7253C171.076 83.9539 172.275 85.2834 173.649 85.3863C177.257 85.694 179.969 82.4867 182.114 79.9165L182.36 79.8193C182.481 79.8938 182.431 80.0405 182.529 80.115C182.671 82.0054 182.884 84.2158 184.796 85.1057C187.862 85.9515 190.225 83.7501 192.417 81.7936C192.54 81.7208 192.787 81.6967 192.884 81.8444C193.371 82.8769 193.268 84.2268 194.346 84.9671C195.693 85.7083 197.389 85.1501 198.619 84.5402C203.907 81.7602 207.289 76.2727 209.712 71.2482C209.787 70.8797 210.231 70.4642 209.888 70.1442C209.323 70.069 208.612 69.9681 208.096 70.2117C207.133 71.6564 206.318 73.151 205.306 74.5713C204.295 76.0172 203.161 77.4362 201.61 78.2907C201.291 78.3629 200.899 78.3368 200.777 77.9687C200.731 77.1092 201.226 76.3001 201.597 75.5411L209.853 58.8756L211.188 56.1798C211.238 56.0088 211.361 55.7636 211.19 55.6153C209.325 55.4616 207.263 55.5285 205.324 55.5462C204.734 55.5197 204.707 56.1818 204.289 56.4751C203.928 56.654 203.651 56.4847 203.378 56.2864L203.23 56.1773C203.105 56.0871 202.979 56.0029 202.843 55.9547C200.048 54.6682 197.195 56.132 195.029 57.8424C191.379 60.9399 189.019 64.6653 186.724 68.4326L186.196 69.3025L185.666 70.1722C184.16 72.6348 182.602 75.0768 180.649 77.3343C179.91 78.0191 179.072 79.0226 178.018 78.5523C177.626 78.3054 177.456 77.8628 177.433 77.3965C177.541 74.6221 178.311 72.048 179.081 69.5219C179.18 69.3028 179.257 69.0727 179.328 68.8394L179.432 68.488C179.622 67.843 179.825 67.2029 180.367 66.7282L184.356 63.4518C189.871 58.438 194.407 52.9309 198.405 47.1751C198.726 46.5628 199.317 46.0247 199.368 45.3372L199.197 45.2878C198.313 45.3586 197.429 45.3549 196.666 45.7213C193.09 50.7655 189.218 55.7356 184.44 60.0649C184.263 60.187 184.096 60.3413 183.931 60.501L183.732 60.6935C183.365 61.0448 182.982 61.37 182.472 61.3831C182.349 61.2848 182.3 61.1859 182.326 61.0386C183.292 58.4895 184.528 56.0633 185.714 53.6123C189.323 46.5544 193.251 39.5715 198.674 33.2816C200.128 31.6411 201.656 29.9524 203.55 29.0267C203.919 28.9048 204.458 28.7598 204.702 29.2018C204.898 29.6448 204.822 30.037 204.771 30.5036C204.597 31.3625 204.128 32.1458 204.1 33.0297C204.149 33.0792 204.198 33.0548 204.248 33.0802C205.254 32.7635 206.777 32.6218 206.929 31.2472C207.303 29.7023 207.703 27.6905 206.283 26.532C205.01 25.5453 203.093 26.1035 201.765 26.5651C196.16 28.9763 191.331 34.1397 187.556 39.1348C181.512 47.7797 176.425 56.8452 173.002 66.6036L172.633 67.0693C171.772 67.5086 170.642 67.6515 169.66 67.5005C169.464 67.426 169.269 67.2293 169.343 66.9594C170.09 63.9181 171.798 60.0698 169.771 57.0678C169.037 56.0586 167.983 55.5645 166.781 55.5348C162.017 55.8381 158.246 59.9246 155.411 63.6706C152.153 68.4712 149.485 73.4954 148.998 79.4342C148.99 81.7909 149.595 84.2966 151.898 85.2864ZM114.31 86.335C114.458 86.3604 114.459 86.2128 114.459 86.0905C111.357 81.4151 106.456 78.6976 101.7 76.717C93.8305 73.5973 83.7392 74.1264 75.6788 76.4795L67.1759 79.0032L62.7524 80.3625C57.9364 81.6716 51.7194 83.3937 46.9164 80.8485C42.4814 78.4511 40.9024 73.5605 41.2882 68.5781C42.0733 61.7071 44.7697 55.6287 47.9325 49.7473C51.8092 43.2063 56.4225 36.6428 62.7744 31.5335C64.4477 30.3864 66.0975 29.0171 68.281 29.2706C68.7717 29.3705 69.0901 29.6905 69.3582 30.1094C69.4558 30.4037 69.6018 30.821 69.2567 31.0411C67.243 31.3043 65.4933 33.311 65.0447 35.1994C64.894 36.1073 64.8412 37.1139 65.5514 37.8036C65.8691 38.1487 66.286 38.3224 66.7767 38.3234C69.5033 37.9403 71.1341 34.9265 71.6575 32.5473C72.0574 30.535 71.8196 28.3002 70.0564 26.9931C68.0732 25.4641 65.1004 26.0918 62.8643 26.6493C51.9769 30.2447 42.7581 41.0152 37.4216 50.8888C36.1612 53.2913 35.0234 55.7422 34.1064 58.2673C31.283 65.426 30.5835 75.9066 36.5287 81.844C40.2951 85.9806 46.0879 86.1476 51.4905 85.6512C55.0436 85.2051 58.4482 84.3112 61.8284 83.3581L62.8418 83.0708C63.3483 82.9267 63.8545 82.7821 64.3609 82.6383L65.374 82.3523C70.9482 80.79 76.5744 79.437 82.8102 80.0395C86.3187 80.739 89.7491 82.5429 91.7755 85.7908L92.0944 85.8647C98.7832 82.6728 107.565 84.4951 114.31 86.335ZM196.183 43.6081C205.341 43.4919 213.81 36.2794 217.3 28.0674C217.547 27.4296 217.87 26.7686 217.896 26.0561C212.575 31.3655 206.668 35.8621 199.106 36.0074L198.712 36.3498L196.099 39.7288L194.001 42.8889C193.902 43.0843 193.631 43.4769 194.022 43.5761L196.183 43.6081ZM154.829 47.27C153.845 48.0273 152.785 49.0061 151.461 48.6333C150.774 48.3848 150.507 47.6722 150.435 47.0091C150.545 43.7204 152.101 41.0252 153.804 38.404C155.433 36.0528 157.674 33.7282 160.061 32.1408C160.307 31.9701 160.627 31.8485 160.921 31.8982C161.337 32.5383 161.087 33.4703 161.085 34.2066C160.528 39.1882 158.377 43.5266 154.829 47.27ZM101.255 70.6516C101.891 71.2676 102.922 71.1978 103.757 71.1019C108.795 69.8439 112.371 64.9454 115.11 60.7329C115.259 60.4633 115.41 60.1951 115.563 59.9273L116.023 59.1247C116.634 58.0539 117.227 56.976 117.656 55.8318C117.407 55.5952 117.05 55.5881 116.683 55.6039L116.438 55.6157C116.275 55.6227 116.114 55.6253 115.963 55.6052C115.423 55.5297 115.102 56.0188 114.831 56.411C114.188 57.7593 113.398 59.0326 112.51 60.2573C111.499 61.5547 110.365 63.0974 108.913 63.9272C108.643 64.024 108.275 64.0481 108.104 63.7531C108.055 63.507 108.082 63.2119 108.18 62.9918L118.267 42.5031L118.787 41.2534L118.665 41.0813C116.824 40.903 114.762 40.9942 112.969 40.9631C112.434 40.8273 112.137 41.1718 111.877 41.5288L111.775 41.6711C111.691 41.7885 111.607 41.9003 111.518 41.9893C111.026 42.1837 110.709 41.6673 110.317 41.5186C107.89 40.2335 105.039 41.3039 103.021 42.6962C99.2525 45.4453 96.8025 49.0252 94.4617 52.6839L93.9786 53.4418C92.4511 55.8437 90.9346 58.2572 89.089 60.4708C86.9708 62.7707 84.5319 64.9965 81.7542 66.0918C80.7958 66.3336 79.8635 66.011 79.3023 65.2487C78.5454 64.0427 78.9195 62.3511 79.2185 61.05C80.3105 57.4452 81.9674 54.0393 84.0161 50.8296C85.645 48.4298 87.4719 45.5636 90.2739 44.3948C90.7403 44.3968 91.1822 44.4473 91.4755 44.8658C91.7138 45.5134 91.2717 45.6426 90.7859 45.7526L90.6317 45.7873C90.3749 45.846 90.1245 45.9138 89.9733 46.0637C88.3257 47.1374 87.1398 49.0244 87.5504 51.0632C87.7208 51.5058 88.0872 51.9484 88.5291 52.0974C89.6328 52.4451 90.5916 51.884 91.3559 51.1497C93.3519 48.9229 94.7863 45.712 93.3232 42.8104C92.7629 41.8016 91.7094 41.1842 90.6294 41.0086C84.8626 40.3999 81.0637 45.5908 77.5151 49.5552C75.8646 51.1213 74.0196 52.1946 71.7364 52.2604C71.565 52.2347 71.4183 52.0386 71.4187 51.8659C72.2882 48.8501 73.286 44.4589 70.7168 41.8974C69.4929 40.8368 67.7752 40.6839 66.1781 41.0466C60.2063 42.9407 55.8883 49.2596 53.0719 54.4301C51.7367 57.1994 50.6217 60.0679 50.0464 63.1588C49.7424 65.8831 49.9528 68.8301 52.3537 70.4826C54.6563 71.7917 57.5812 70.8196 59.5502 69.4026C64.3004 65.7611 67.1662 60.5666 69.8099 55.6664L70.2044 55.2251C71.3342 55.0571 72.4643 54.865 73.6428 54.7711C73.8877 54.8205 73.9117 55.0918 73.8375 55.2872C72.1296 59.4305 69.5567 65.0185 72.807 69.2773C74.1526 70.705 75.8929 71.3007 77.9073 71.0621C82.2553 70.242 85.8006 67.3339 89.0766 64.1045C89.1756 64.031 89.4211 63.9579 89.4933 64.1543C89.537 65.8242 89.1621 67.7617 89.9425 69.2623C90.3574 70.1479 91.2387 70.8624 92.1703 71.0621C95.1888 71.4406 97.4049 69.5095 99.5475 67.5766C99.6948 67.5286 99.8662 67.5533 99.9641 67.6772C100 67.8213 100.033 67.9676 100.064 68.1148L100.156 68.5575C100.325 69.3439 100.543 70.1137 101.255 70.6516ZM119.008 48.0293C120.874 48.2077 122.961 48.0921 124.925 48.0503C125.491 47.9786 126.007 47.5132 126.254 47.0235C127.268 45.1608 128.158 43.2494 128.975 41.3132L128.779 41.1161L123.943 41.0503C123.28 41.1211 122.519 41.0947 122.026 41.6332C120.816 43.4451 120 45.431 119.036 47.3421C118.986 47.5633 118.813 47.8328 119.008 48.0293ZM68.6701 51.7095C68.3986 52.1017 67.8837 51.8542 67.5651 51.755C66.2652 51.2599 64.8953 49.9781 64.8025 48.5047C64.759 46.8354 65.8196 45.3419 67.2951 44.61C67.7625 44.3905 68.4246 44.4175 68.8658 44.6648C70.164 45.553 69.9616 47.3689 69.7113 48.7181C69.4625 49.7483 69.1642 50.7789 68.6701 51.7095ZM98.1833 64.3811C97.9136 64.3066 97.6197 64.1093 97.4985 63.8386C97.1099 62.4871 97.6788 61.1639 98.0517 59.9372L98.9179 57.7549C101.094 53.1967 103.444 48.3931 107.8 45.0449C108.193 44.8502 108.661 44.5078 109.151 44.7302C109.347 44.8541 109.592 45.0265 109.616 45.272C109.629 46.0415 109.371 46.7227 109.087 47.3963L108.915 47.8002C108.83 48.0024 108.747 48.2053 108.672 48.4111C106.446 53.3136 103.974 58.141 100.742 62.622C100.028 63.4057 99.2883 64.4092 98.1833 64.3811ZM60.845 64.0558C60.2794 64.4212 59.6641 64.8124 58.9281 64.6136C58.2413 64.4393 57.8756 63.7254 57.7303 63.1117C57.7871 60.0264 59.0122 57.3706 60.2981 54.7643L60.5844 54.1858L61.9182 51.9567C62.09 51.785 62.1895 51.5398 62.435 51.492L62.705 51.5419C63.952 52.9449 65.5194 54.0559 67.1375 54.6993C67.3086 55.0194 67.086 55.3871 66.9625 55.6804C65.4302 58.6709 63.5531 61.7816 60.845 64.0558ZM166.939 66.5097C166.741 66.8525 166.251 66.7282 165.981 66.6286C164.608 66.1329 163.41 64.7295 163.317 63.232C163.371 61.6363 164.039 60.141 165.418 59.2374C165.884 59.0182 166.45 58.8482 166.99 58.9969C167.528 59.1712 167.969 59.6877 168.139 60.2045C168.573 62.4152 167.781 64.5976 166.939 66.5097ZM191.814 78.6742C191.446 78.7955 190.98 78.7691 190.686 78.4734C190.148 77.9316 190.323 77.048 190.374 76.3365L191.07 73.933C193.025 69.2018 195.104 64.4957 199.02 60.6064C199.197 60.4793 199.377 60.3247 199.56 60.1633L199.744 60.0003C200.426 59.4 201.165 58.7998 202.046 59.2171C202.462 59.513 202.337 60.1263 202.262 60.5679C200.231 65.569 198.054 70.4959 195.092 75.1012C194.204 76.3746 193.266 77.9182 191.814 78.6742ZM159.189 78.6832C158.696 78.9274 158.082 79.1709 157.518 78.9729C156.66 78.6996 156.245 77.8387 156.199 77.0043C156.208 74.6472 157.122 72.687 157.964 70.7008L158.304 69.9775C158.927 68.6534 159.561 67.3451 160.459 66.1433C160.631 66.0454 160.902 66.0708 161.049 66.219C162.222 67.5242 163.642 68.6834 165.112 69.424C165.504 69.6471 165.38 70.1128 165.231 70.4071C163.7 73.3478 162.018 76.5824 159.189 78.6832ZM207.402 85.2467C208.584 85.2467 209.594 84.3287 209.594 83.0727C209.594 81.827 208.584 80.909 207.402 80.909C206.21 80.909 205.199 81.827 205.199 83.0727C205.199 84.3287 206.21 85.2467 207.402 85.2467ZM207.402 84.8856C206.41 84.8856 205.635 84.1169 205.635 83.0727C205.635 82.0451 206.41 81.2701 207.402 81.2701C208.384 81.2701 209.158 82.0451 209.158 83.0727C209.158 84.1169 208.384 84.8856 207.402 84.8856ZM206.943 84.3287V83.2447H207.379L208.04 84.3287H208.465L207.752 83.2273C208.12 83.1816 208.401 82.9858 208.401 82.5389C208.401 82.0451 208.108 81.827 207.517 81.827H206.564V84.3287H206.943ZM207.396 82.9227H206.943V82.1487H207.46C207.724 82.1487 208.005 82.2055 208.005 82.5158C208.005 82.9006 207.718 82.9227 207.396 82.9227Z" fill="white"/>
</g>
<rect x="33" y="99" width="184" height="184" fill="#F8F9FA" stroke="#CED4DA" stroke-width="2" stroke-dasharray="2 2"/>
<defs>
<clipPath id="clip0_3109_48194">
<rect width="186" height="61.5724" fill="white" transform="translate(32 25.2129)"/>
</clipPath>
</defs>
</svg>
