<svg width="250" height="316" viewBox="0 0 250 316" fill="none" xmlns="http://www.w3.org/2000/svg">
<rect x="0.5" y="0.5" width="249" height="315" fill="#F2E5D2"/>
<rect x="0.5" y="0.5" width="249" height="315" stroke="#E3CFB0"/>
<path d="M61.3789 86.9687C49.2791 86.9687 42.5864 85.9715 38.2292 83.5046C35.0267 81.6936 33.0322 78.9648 33.0322 76.3926V42.2494C33.0322 38.4175 35.8404 34.0349 40.3289 30.8328C44.0567 28.182 50.7489 25.0332 61.3789 25.0332C79.8832 25.0332 89.7261 35.0321 89.7261 42.2494V76.3653C89.7261 78.9636 87.7312 81.693 84.5025 83.5039C80.172 85.9715 73.4792 86.9687 61.3789 86.9687Z" fill="#F5EBDC"/>
<path d="M83.013 80.8069C78.7915 83.1895 71.5489 83.8708 61.5307 83.8708C51.5126 83.8708 44.2699 83.1895 40.049 80.8069C37.5145 79.3799 36.2324 77.4345 36.2324 76.0395C36.2324 75.2457 36.6549 74.7909 37.5956 74.7909H85.4648C86.4063 74.7909 86.8288 75.2455 86.8288 76.0395C86.8294 77.4345 85.5466 79.3797 83.0134 80.8069H83.013ZM85.465 43.8395H37.5957C36.6543 43.8395 36.2325 43.3533 36.2325 42.4781C36.2325 37.2892 44.0426 28.1289 61.5307 28.1289C78.8572 28.1289 86.8295 37.2892 86.8295 42.4781C86.8295 43.3533 86.4071 43.8395 85.465 43.8395Z" fill="#FF8732"/>
<path d="M46.4289 65.2428C46.2827 65.0161 46.2672 64.87 46.2672 64.8056C46.2672 64.6272 46.3644 64.4978 46.5589 64.3194C47.0136 63.897 48.1347 62.8434 48.7514 61.8871C49.2222 61.1576 49.4166 60.4929 49.4166 59.9423C49.4166 58.5316 48.1346 57.4283 46.7372 57.4283C45.8441 57.4283 44.9999 57.9312 44.432 58.8553C43.6688 60.0872 42.7591 61.5142 42.1751 62.0822C42.0289 62.2284 41.9478 62.2606 41.8345 62.2606C41.6393 62.2606 41.5583 62.1306 41.5583 61.9201V60.2991C41.5583 58.7104 40.6168 57.4289 38.9116 57.4289C37.1905 57.4289 36.2644 58.7098 36.2644 60.2991V70.2868C36.2644 71.8755 37.1897 73.1576 38.9116 73.1576C40.6168 73.1576 41.5583 71.8767 41.5583 70.2868V67.9853C41.5583 67.7902 41.6393 67.6447 41.8345 67.6447C42.0946 67.6447 42.1595 67.9044 42.2247 68.0338C42.598 68.9257 43.685 70.8222 44.6927 71.9414C45.3745 72.6872 46.2188 73.1578 47.112 73.1578C48.622 73.1578 49.8892 71.8441 49.8892 70.4332C49.8892 69.558 49.5151 68.9094 48.801 68.1316C47.8913 67.1406 46.8191 65.8432 46.4289 65.2435V65.2428ZM66.6787 56.5037C69.2278 56.5037 70.8357 54.8823 70.8357 52.5151C70.8357 51.0076 69.9252 49.9695 68.1074 49.9695H67.5884C66.6296 49.9695 65.8827 50.4241 65.8827 51.4455C65.8827 52.3534 66.6786 52.7913 67.2793 52.7913C67.5878 52.7913 67.7835 52.8886 67.7835 53.1159C67.7835 53.407 67.4428 53.602 67.0526 53.602C65.8343 53.602 65.0063 52.7423 65.0063 51.137C65.0063 49.3539 66.1435 48.706 67.0199 48.706C68.0914 48.706 68.2703 49.2573 69.0173 49.2573C69.8782 49.2573 70.4629 48.5438 70.4629 47.7981C70.4629 47.2468 70.2189 46.8257 69.8455 46.5334C69.1636 46.0304 68.206 45.6582 66.7771 45.6582C64.2595 45.6582 61.8081 47.3119 61.8081 51.1383C61.8068 54.8011 64.259 56.5037 66.6787 56.5037ZM38.1314 56.4065H40.4217C42.5814 56.4065 43.8963 54.9635 43.8963 53.1635C43.8963 51.7204 43.0354 51.0559 42.8409 50.8936C42.7604 50.8286 42.6793 50.7642 42.6793 50.6991C42.6793 50.6186 42.7276 50.5858 42.8094 50.4886C43.1172 50.1318 43.4257 49.5645 43.4257 48.737C43.4257 46.7922 42.1102 45.7536 40.0644 45.7536H38.132C36.8493 45.7536 36.2324 46.5005 36.2324 47.5051V54.655C36.2324 55.6608 36.8493 56.4065 38.1314 56.4065ZM39.0901 48.5432C39.0901 48.3326 39.2203 48.1697 39.4958 48.1697H39.707C40.405 48.1697 40.6168 48.6559 40.6168 49.0783C40.6168 49.4672 40.4062 50.0185 39.707 50.0185H39.4964C39.2202 50.0185 39.09 49.8568 39.09 49.6456L39.0901 48.5432ZM39.0901 52.3373C39.0901 52.1267 39.2203 51.9639 39.4958 51.9639H39.7882C40.568 51.9639 40.7947 52.4823 40.7947 52.953C40.7947 53.3754 40.5674 53.9749 39.7882 53.9749H39.4965C39.2203 53.9749 39.0901 53.8126 39.0901 53.6014V52.3373ZM80.5294 56.487C81.5685 56.487 82.1365 55.7085 82.1365 54.7361V53.0174C82.1365 52.8067 82.2343 52.7096 82.3968 52.7096C82.5912 52.7096 82.6556 52.8229 82.6878 53.0174C82.8345 53.8442 83.224 54.9628 83.662 55.5307C84.2146 56.2609 84.7335 56.4883 85.2537 56.4883C86.0973 56.4883 86.8289 55.8231 86.8289 54.9956C86.8289 54.4444 86.6016 54.0387 86.3091 53.6665C85.7567 52.9697 85.4162 52.5159 85.2056 51.9484C85.1566 51.8183 85.1889 51.7043 85.3357 51.5915C85.8392 51.2026 86.4239 50.3429 86.4239 48.9816C86.4239 46.9222 84.7183 45.7547 82.6558 45.7547H80.8216C79.5388 45.7547 78.9222 46.4998 78.9222 47.5056V54.7372C78.9222 55.7096 79.4901 56.4869 80.53 56.4869L80.5294 56.487ZM81.9582 48.8194C81.9582 48.6088 82.0882 48.4453 82.3639 48.4453H82.5911C83.2737 48.4453 83.4842 48.9321 83.4842 49.3539C83.4842 49.7596 83.2737 50.2941 82.5911 50.2941H82.3639C82.0876 50.2941 81.9582 50.133 81.9582 49.9212V48.8188V48.8194ZM53.8339 57.4278C52.0154 57.4278 51.0244 58.7891 51.0244 60.4918V70.0911C51.0244 71.7944 52.0154 73.1557 53.8339 73.1557C55.6522 73.1557 56.6426 71.7938 56.6426 70.0911V60.4918C56.6426 58.7903 55.6529 57.4278 53.8339 57.4278ZM82.7045 63.6703H81.9091C80.4804 63.6703 79.3761 64.3348 79.3761 65.7934C79.3761 67.1232 80.5777 67.7555 81.4706 67.7555C81.9091 67.7555 82.2176 67.8856 82.2176 68.2256C82.2176 68.6468 81.6979 68.9224 81.1461 68.9224C79.3109 68.9224 78.0604 67.6738 78.0604 65.3549C78.0604 62.7772 79.7656 61.837 81.0804 61.837C82.6883 61.837 82.9478 62.6483 84.0681 62.6483C85.3668 62.6483 86.2438 61.5941 86.2438 60.524C86.2438 59.7299 85.8865 59.1135 85.3185 58.6919C84.3275 57.9617 82.8344 57.4264 80.7228 57.4264C76.9398 57.4264 73.2534 59.8096 73.2534 65.3549C73.2534 70.6565 76.9386 73.1377 80.5767 73.1377C84.3919 73.1377 86.8115 70.7868 86.8115 67.3492C86.8125 65.1778 85.4495 63.6703 82.7045 63.6703ZM76.5667 56.4065C77.4771 56.4065 78.1912 55.8714 78.1912 54.8985C78.1912 53.9415 77.4765 53.4064 76.5673 53.4064H75.1057C74.8301 53.4064 74.6999 53.2448 74.6999 53.0336V52.7251C74.6999 52.5146 74.8301 52.3523 75.1063 52.3523H76.2267C77.0066 52.3523 77.6235 51.8822 77.6235 51.0547C77.6235 50.2285 77.0065 49.7578 76.2267 49.7578H75.1059C74.8302 49.7578 74.7001 49.5955 74.7001 49.3843V49.1248C74.7001 48.9143 74.8302 48.752 75.1065 48.752H76.5675C77.4768 48.752 78.1914 48.2169 78.1914 47.2445C78.1914 46.287 77.4767 45.7518 76.5675 45.7518H73.4987C72.2167 45.7518 71.5991 46.4975 71.5991 47.5034V54.6533C71.5991 55.6584 72.2161 56.4047 73.4987 56.4047H76.5675V56.4067H76.5668M48.6703 56.487C51.3007 56.487 52.6973 54.9138 52.6973 52.9369V47.4723C52.6973 46.4999 52.1294 45.7208 51.0896 45.7208C50.0503 45.7208 49.4824 46.4999 49.4824 47.4723V52.7579C49.4824 53.1462 49.2551 53.6002 48.6704 53.6002C48.0857 53.6002 47.89 53.1462 47.89 52.7579V47.4723C47.89 46.4999 47.306 45.7208 46.2662 45.7208C45.227 45.7208 44.659 46.4999 44.659 47.4723V52.9362C44.6597 54.9146 46.0402 56.4865 48.6705 56.4865L48.6703 56.487ZM60.0695 56.487C60.9139 56.487 61.6453 55.8224 61.6453 54.995C61.6453 54.4438 61.418 54.0381 61.1256 53.6658C60.6549 53.0496 60.2325 52.5145 60.0219 51.9478C59.973 51.8177 60.0053 51.7037 60.1521 51.5904C60.6556 51.202 61.2403 50.3424 61.2403 48.9804C61.2403 46.9211 59.5346 45.7536 57.4722 45.7536H55.6364C54.3543 45.7536 53.7368 46.4993 53.7368 47.5051V54.7367C53.7368 55.7091 54.3055 56.4883 55.3447 56.4883C56.384 56.4883 56.9525 55.7091 56.9525 54.7367V53.0186C56.9525 52.808 57.0497 52.7102 57.212 52.7102C57.4071 52.7102 57.4715 52.8235 57.5037 53.0186C57.65 53.8448 58.0394 54.9634 58.478 55.532C59.0303 56.2603 59.5493 56.487 60.0695 56.487ZM57.4063 50.2935H57.1784C56.9022 50.2935 56.7727 50.1318 56.7727 49.9206V48.8188C56.7727 48.6082 56.9028 48.4453 57.1784 48.4453H57.4057C58.0882 48.4453 58.2988 48.9321 58.2988 49.3539C58.2988 49.7583 58.0882 50.2935 57.4057 50.2935H57.4063ZM69.4057 57.4278C67.7335 57.4278 66.8242 58.6758 66.8242 60.249V63.7508C66.8242 64.0419 66.7264 64.1726 66.548 64.1726C66.4179 64.1726 66.3207 64.0921 66.2073 63.8648L63.9504 59.4878C63.0895 57.8174 62.1964 57.4285 61.1738 57.4285C59.4688 57.4285 58.5267 58.7087 58.5267 60.3147V70.3353C58.5267 71.9083 59.4359 73.1565 61.1082 73.1565C62.7811 73.1565 63.6897 71.9078 63.6897 70.3353V66.8333C63.6897 66.5423 63.7875 66.4109 63.966 66.4109C64.0961 66.4109 64.1939 66.4921 64.3066 66.7194L66.5635 71.097C67.4244 72.7674 68.3498 73.1563 69.3407 73.1563C71.0458 73.1563 71.9879 71.8754 71.9879 70.2701V60.2496C71.9879 58.6764 71.0785 57.4284 69.4057 57.4284V57.4278Z" fill="#D62300"/>
<rect x="33" y="99" width="184" height="184" fill="#F8F9FA" stroke="#CED4DA" stroke-width="2" stroke-dasharray="2 2"/>
</svg>
