<svg width="453" height="212" viewBox="0 0 453 212" fill="none" xmlns="http://www.w3.org/2000/svg">
<path d="M97.9659 0L67.6729 211.356H30.5709L0 0H26.4022L49.0524 184.398L71.5637 0H97.9659Z" fill="#020202"/>
<path d="M139.648 0V211.356H113.246V0H139.648Z" fill="#020202"/>
<path d="M254.298 0L223.866 211.356H186.903L156.332 0H182.734L205.384 184.398L227.896 0H254.298Z" fill="#020202"/>
<path d="M336.965 184.954V211.356H269.57V0H295.972V184.954H336.965Z" fill="#020202"/>
<path d="M421.318 168.835H386.718L381.437 211.356H355.035L385.606 0H422.569L453.001 211.356H426.599L421.318 168.835ZM418.122 142.433L404.088 26.958L389.775 142.433H418.122Z" fill="#020202"/>
</svg>
