<svg width="320" height="345" viewBox="0 0 320 345" fill="none" xmlns="http://www.w3.org/2000/svg">
<path d="M269.427 136.009C269.427 84.455 227.645 42.7051 176.091 42.7051C124.537 42.7051 82.7868 84.487 82.7868 136.009C82.7868 164.142 95.2188 189.326 114.892 206.437L74.0395 217.458C74.0395 217.458 62.7609 201.278 47.381 198.714C36.5191 196.921 54.7827 239.76 57.2499 242.772C59.717 245.816 64.363 247.706 74.7444 244.725C83.7479 242.13 133.572 228.257 146.741 224.604C155.521 227.52 164.877 229.153 174.585 229.313L185.479 285.579C185.479 285.579 163.691 290.065 162.089 300.958C160.487 311.853 206.305 306.405 209.511 304.162C212.715 301.92 214.956 297.434 212.715 286.859C210.793 277.857 203.295 237.613 201.115 225.95C240.527 215.023 269.427 178.881 269.427 136.009Z" stroke="url(#paint0_linear_3743_16364)" stroke-width="21.891" stroke-miterlimit="10"/>
<path d="M185.474 285.52C185.474 285.52 163.686 290.007 162.084 300.9C160.482 311.795 206.3 306.348 209.506 304.104C212.71 301.862 214.952 297.376 212.71 286.802C210.466 276.229 200.533 222.72 200.533 222.72L173.619 224.322L185.474 285.52Z" fill="black"/>
<path d="M74.0727 217.465C74.0727 217.465 62.7942 201.282 47.4143 198.72C36.5523 196.925 54.8157 239.764 57.2829 242.776C59.7503 245.82 64.3962 247.71 74.7776 244.732C85.159 241.719 149.947 223.712 149.947 223.712L134.246 201.219L74.0727 217.465Z" fill="black"/>
<path d="M176.12 214.227C155.229 214.227 135.556 206.088 120.785 191.317C106.014 176.546 97.875 156.872 97.875 135.981C97.875 115.09 106.014 95.4169 120.785 80.6459C135.556 65.8747 155.229 57.7363 176.12 57.7363C197.011 57.7363 216.684 65.8747 231.456 80.6459C246.226 95.4169 254.365 115.09 254.365 135.981C254.365 156.872 246.226 176.546 231.456 191.317C216.684 206.088 197.011 214.227 176.12 214.227Z" fill="white"/>
<path d="M176.117 72.7678C193.003 72.7678 208.863 79.3364 220.815 91.2878C232.767 103.239 239.334 119.1 239.334 135.985C239.334 152.871 232.767 168.732 220.815 180.683C208.863 192.634 193.003 199.204 176.117 199.204C159.231 199.204 143.371 192.634 131.419 180.683C119.468 168.732 112.899 152.871 112.899 135.985C112.899 119.1 119.468 103.239 131.419 91.2878C143.371 79.3364 159.231 72.7678 176.117 72.7678ZM176.117 42.6489C124.562 42.6489 82.8125 84.4309 82.8125 135.953C82.8125 187.475 124.562 229.289 176.117 229.289C227.671 229.289 269.421 187.507 269.421 135.985C269.421 84.4629 227.639 42.6489 176.117 42.6489Z" fill="black"/>
<path d="M190.795 112.239C185.925 104.165 177.05 98.75 166.925 98.75C151.545 98.75 139.049 111.246 139.049 126.626C139.049 142.006 151.545 154.502 166.925 154.502C172.949 154.502 178.524 152.58 183.106 149.343C180.574 145.146 179.101 140.212 179.101 134.957C179.068 125.569 183.682 117.27 190.795 112.239Z" fill="black"/>
<defs>
<linearGradient id="paint0_linear_3743_16364" x1="32.9159" y1="175.111" x2="280.489" y2="175.111" gradientUnits="userSpaceOnUse">
<stop offset="1.24601e-07" stop-color="#49A9F8"/>
<stop offset="0.1613" stop-color="#77B8AC"/>
<stop offset="0.4106" stop-color="#CBD31C"/>
<stop offset="0.7281" stop-color="#DE833C"/>
<stop offset="1" stop-color="#F7067E"/>
</linearGradient>
</defs>
</svg>
