<svg fill="none" height="209" viewBox="0 0 209 209" width="209" xmlns="http://www.w3.org/2000/svg"><g fill="#583bff"><path d="m146.537 147.711h-84.9159v9.869h84.9159z"/><path d="m61.6605 111.813h-9.8695v35.917h9.8695z"/><path d="m156.368 111.813h-9.869v35.917h9.869z"/><path d="m181.245 102.607h-9.672v34.063h9.672z"/><path d="m181.245 166.106h-9.672v14.719h9.672z"/><path d="m188.815 67.8907-81.124-39.6654-3.369-.05-87.9216 39.5902.0194 12.0623 81.8789 36.2372h13.1103l77.348-36.2122zm-83.738 37.5883h-.252l-71.6731-31.7324 72.7191-32.7583 66.986 32.7333z"/><path d="m176.622 167.159c-8.63 0-15.655-7.024-15.655-15.655s7.025-15.656 15.655-15.656c8.631 0 15.656 7.025 15.656 15.656s-7.025 15.655-15.656 15.655zm0-21.441c-3.193 0-5.786 2.593-5.786 5.786s2.593 5.786 5.786 5.786c3.194 0 5.787-2.593 5.787-5.786s-2.593-5.786-5.787-5.786z"/></g></svg>