<svg fill="none" height="209" viewBox="0 0 209 209" width="209" xmlns="http://www.w3.org/2000/svg" xmlns:xlink="http://www.w3.org/1999/xlink"><clipPath id="a"><path d="m26.9136 21.0264h154.753v167.368h-154.753z"/></clipPath><g clip-path="url(#a)"><path d="m51.9065 176.75v11.645h-13.6949v-11.645zm61.8555 0v11.645h-19.2871l-.0002-11.577h.16l-.0002-.068zm-30.8137-75.122v11.645h-19.287v63.477h19.287v11.645h-19.287v-11.577h-11.6406v-63.705h11.6406v-11.485zm87.0767 0v11.645h-13.695v63.477h13.695v11.645h-13.695v-11.577h-11.527l.001 11.577h-19.287v-11.645h19.172v-63.477h.115l-.001-.16h11.527v-11.485zm-56.263 0v11.645h-19.1275v63.477h-.1596l-.0002.068h-11.4807v-63.705h11.4807l.0002-11.485zm31.042 75.122h-.115l.001.068h.113zm-19.356-63.637v63.705h-11.64v-63.705zm-73.5415-11.485v11.645h-13.6949v-11.645zm92.8975 0-.001 11.485h-.113l-.001.16h-19.172v-11.645zm-50.1693 11.485h-.16l.0002.16h.1596zm9.5633-56.0099c9.153 0 16.571 7.4209 16.571 16.577 0 9.1562-7.418 16.577-16.571 16.577-9.1525 0-16.5706-7.4208-16.5706-16.577 0-9.1561 7.4181-16.577 16.5706-16.577zm0 7.8319c-4.8158 0-8.7417 3.9273-8.7417 8.7451s3.9259 8.7452 8.7417 8.7452c4.816 0 8.742-3.9274 8.742-8.7452s-3.926-8.7451-8.742-8.7451zm.05-43.7807 3.18 2.0714 74.142 48.2999-6.352 9.7583-70.963-46.2286-70.9651 46.3321-6.3622-9.7519 74.1423-48.4066z" fill="#583bff"/></g></svg>