<svg fill="none" height="209" viewBox="0 0 209 209" width="209" xmlns="http://www.w3.org/2000/svg" xmlns:xlink="http://www.w3.org/1999/xlink"><clipPath id="a"><path d="m28.5957 44.9961h151.388v119.831h-151.388z"/></clipPath><g clip-path="url(#a)"><path clip-rule="evenodd" d="m39.5765 120.659c0-35.7329 28.9636-64.6821 64.7295-64.6821 35.766 0 64.73 28.9492 64.73 64.6821h10.874c0-41.7456-33.839-75.5565-75.604-75.5565-41.7647 0-75.6039 33.8109-75.6039 75.5565zm64.7295-37.8562c-20.9352 0-37.8853 16.944-37.8853 37.8562h-10.8744c0-26.9249 21.8257-48.7306 48.7597-48.7306s48.76 21.8057 48.76 48.7306h-10.874c0-20.9122-16.951-37.8562-37.886-37.8562zm11.899 37.7722c0-6.789-5.506-12.261-12.26-12.261-6.7536 0-12.2604 5.472-12.2604 12.261 0 6.788 5.5068 12.26 12.2604 12.26 6.788 0 12.26-5.472 12.26-12.26zm-35.1815.026c0-12.642 10.3124-22.9478 22.9635-22.9478 12.651 0 22.964 10.3058 22.964 22.9478 0 12.643-10.313 22.948-22.964 22.948-12.6511 0-22.9635-10.305-22.9635-22.948zm-40.8073 44.226h128.1468v-10.874h-128.1468z" fill="#583bff" fill-rule="evenodd"/></g></svg>