<svg fill="none" height="209" viewBox="0 0 209 209" width="209" xmlns="http://www.w3.org/2000/svg" xmlns:xlink="http://www.w3.org/1999/xlink"><clipPath id="a"><path d="m21.0264 42.8936h166.455v123.634h-166.455z"/></clipPath><g clip-path="url(#a)"><path clip-rule="evenodd" d="m32.4402 54.137h81.6908v-11.1995h-81.6908zm81.5948 85.523-40.3193.021c.8546 2.045 1.3266 4.289 1.3266 6.643 0 9.521-7.718 17.239-17.2385 17.239s-17.2385-7.718-17.2385-17.239c0-2.348.4694-4.586 1.3195-6.626l-9.4362.005-.006-11.199 81.4744-.044.104-74.0015 11.199.0158-.034 24.6969h44.942v11.1995h-44.958l-.054 38.2103h45.012v11.199h-5.869c.828 2.018 1.285 4.228 1.285 6.544 0 9.521-7.718 17.239-17.238 17.239-9.521 0-17.239-7.718-17.239-17.239 0-2.316.457-4.526 1.286-6.544h-7.242v-11.125l-11.082-.016zm-62.2701 6.664c0-3.335 2.7037-6.039 6.0389-6.039s6.039 2.704 6.039 6.039c0 3.336-2.7038 6.039-6.039 6.039s-6.0389-2.703-6.0389-6.039zm90.5021 0c0-3.335 2.703-6.039 6.039-6.039 3.335 0 6.039 2.704 6.039 6.039 0 3.336-2.704 6.039-6.039 6.039-3.336 0-6.039-2.703-6.039-6.039zm-109.9366-91.8576v74.2246h-11.1995v-74.2246zm149.1076 36.2337v14.9329 23.058h-11.2v-23.058-14.9329z" fill="#583bff" fill-rule="evenodd"/></g></svg>