<svg height="61" viewBox="0 0 150 61" width="150" xmlns="http://www.w3.org/2000/svg"><g fill="none" fill-rule="evenodd"><g fill="#d82332"><path d="m3.99870649 20.812423h19.95649111v-3.2784419h-19.95649111z"/><path d="m10.0752587 10.8774329c0-2.16814291 1.7726952-3.92538773 3.9599012-3.92538773s3.9599012 1.75724482 3.9599012 3.92538773c0 2.1681428-1.7726952 3.9253876-3.9599012 3.9253876s-3.9599012-1.7572448-3.9599012-3.9253876"/><path d="m0 10.8774329c0-2.16814291 1.7726952-3.92538773 3.95990122-3.92538773 2.1889699 0 3.95990123 1.75724482 3.95990123 3.92538773 0 2.1681428-1.77093133 3.9253876-3.95990123 3.9253876-2.18720602 0-3.95990122-1.7572448-3.95990122-3.9253876"/><path d="m20.0341016 10.8774329c0-2.16814291 1.7744591-3.92538773 3.9616651-3.92538773 2.1854421 0 3.9599012 1.75724482 3.9599012 3.92538773 0 2.1681428-1.7744591 3.9253876-3.9599012 3.9253876-2.187206 0-3.9616651-1.7572448-3.9616651-3.9253876"/><path d="m11.5163452 2.43916072c0-1.34634678 1.1024224-2.43916072 2.4606068-2.43916072 1.3599483 0 2.4606068 1.09281394 2.4606068 2.43916072 0 1.34809528-1.1006585 2.43916072-2.4606068 2.43916072-1.3581844 0-2.4606068-1.09106544-2.4606068-2.43916072"/></g><g fill="#1a1919"><path d="m.19931797 26.0474389h6.8138523v18.93628c0 4.4324533 2.3565381 8.0046435 6.84560203 8.0046435 5.3286689 0 7.4347366-4.2173875 7.4347366-8.6271104v-18.3138131h6.9479069v31.2090177h-6.9479069v-3.9883338c-1.2047272 1.4722389-4.6460489 5.1336028-8.9551975 5.1336028-5.39216841 0-6.52281281-1.3096283-7.27775166-1.6698197-.75670273-.36194-4.86124177-3.6246453-4.86124177-10.0276608z"/><path d="m43.9998824 46.9367959h1.079492c1.6280574 0 2.2789276.6626824 2.2948025 1.7519994.0176387.9669217-.4956491 1.8848854-2.2948025 1.8848854h-1.079492zm-1.6792098-1.4250293v11.5803307h1.6792098v-5.0251956h.7020226c.8572436 0 1.5610301.2727664 3.1008937 2.648981l1.5433913 2.3762146h2.003763c-.8060913-1.1015564-1.0971308-1.4914724-1.5945438-2.290538-.8889934-1.4442629-1.5416275-2.5125978-2.6034807-3.2102502 1.2523518-.4913292 1.9543744-1.4949695 1.9543744-2.8343223 0-2.0037836-1.4746002-3.2452202-3.8381938-3.2452202z"/><path d="m53.6024224 52.5110213c.2046096-1.2099636.9066322-1.8848855 2.0725541-1.8848855 1.079492 0 1.7480009.7256285 1.7991533 1.8848855zm5.2422389 2.3762146c-.8907573.5770058-1.7656397.9144667-2.6899106.9144667-1.4728363 0-2.3477187-.7780835-2.5876058-2.290538h5.4150988c0-2.8203342-1.3035043-4.194657-3.3425447-4.194657-2.1219427 0-3.5965428 1.5614125-3.5965428 3.8729326 0 2.1034483 1.3370178 4.0582738 3.735889 4.0582738 1.2999764 0 2.1395813-.2902513 3.0656161-.9022271z"/><path d="m66.7856303 49.4668788h-1.7162512l-1.9843603 4.2995672-2.0725541-4.2995672h-1.7303622l2.9809502 5.9973629-2.6228834 5.5357583h1.6968486z"/><path d="m74.5184619 45.5117666h-1.6774459v11.2253848c0 1.8009574-.1552211 2.6822025-1.9367357 2.6822025h-.4286218l.3086783 1.5456761c.1710959.017485.3086783.03497.5150517.03497 2.3459549 0 3.2190734-1.6156161 3.2190734-3.769771z"/><path d="m82.9638993 57.0920973v-7.6252185h-1.5222248v5.4535787c-.497413.6976524-1.150047 1.0700834-1.8344308 1.0700834-1.0442145 0-1.5751412-.6119758-1.5751412-1.6803107v-4.8433514h-1.5257525v4.7401897c0 1.9373406 1.0971307 3.0406455 2.6563969 3.0406455.7549389 0 1.6439323-.442371 2.2789276-1.1207899v.9651732z"/><path d="m88.4619003 55.5499183c-.4074553.3881675-.8554798.6277123-1.335254.6277123-.6332314 0-1.0971308-.4441196-1.0971308-1.0718319 0-.8987302 1.1324083-1.3393527 2.4323848-1.7834723zm2.6211195.1835927c-.3404281.2570299-.6491063.4108981-.8025635.4108981-.1887348 0-.2928034-.1031616-.2928034-.393413v-3.9201422c0-1.7345143-1.2329492-2.5143463-2.7922155-2.5143463-1.1130056 0-1.9526105.3392094-2.5523283 1.0351133v1.6470892c.7355362-.8655086 1.5945438-1.2571731 2.4323848-1.2571731.9260348 0 1.3864064.3916645 1.3864064 1.3411012v.4108981l-1.349365.4738441c-1.236477.4406226-2.6228834.8987302-2.6228834 2.4111847 0 .9844068.753175 1.8691489 1.8838194 1.8691489.7020226 0 1.4040452-.2570298 2.0725541-.783329.1375823.5437842.497413.783329 1.1659219.783329.4797742 0 .7708138-.1381316 1.4710725-.5944907z"/><path d="m93.9228598 49.4668788h-1.5222248v7.6252185h1.5222248v-5.4675667c.7196614-.7990655 1.2523519-1.1015564 1.9208608-1.1015564.9260348 0 1.50635.7308739 1.50635 1.8499154v4.7192077h1.5257525v-4.7017227c0-2.0894602-1.164158-3.073867-2.6211194-3.073867-.8554798 0-1.7127235.4231375-2.2965664 1.1540115h-.0352775z"/><path d="m115.916627 46.3125806c-1.594543-.6626824-2.811618-.9529337-4.011053-.9529337-3.716487 0-6.408161 2.5807894-6.408161 6.112764 0 2.4269212 1.920861 5.7753031 6.305856 5.7753031 1.832667 0 3.083255-.424886 4.231538-1.0193768v-1.8166939c-1.319379.8480236-2.758702 1.3078797-4.076317 1.3078797-2.809854 0-4.728951-1.8027058-4.728951-4.3974833 0-2.5475678 1.987888-4.4324533 4.658396-4.4324533 1.354657 0 2.587606.3706825 4.028692 1.2047181z"/><path d="m121.218838 55.5499183c-.410983.3881675-.857243.6277123-1.335254.6277123-.634995 0-1.097131-.4441196-1.097131-1.0718319 0-.8987302 1.130645-1.3393527 2.432385-1.7834723zm2.62112.1835927c-.342192.2570299-.650871.4108981-.804328.4108981-.188734 0-.291039-.1031616-.291039-.393413v-3.9201422c0-1.7345143-1.234713-2.5143463-2.792216-2.5143463-1.113005 0-1.954374.3392094-2.554092 1.0351133v1.6470892c.735536-.8655086 1.596308-1.2571731 2.432385-1.2571731.926035 0 1.38817.3916645 1.38817 1.3411012v.4108981l-1.352893.4738441c-1.232949.4406226-2.621119.8987302-2.621119 2.4111847 0 .9844068.753175 1.8691489 1.883819 1.8691489.702023 0 1.405809-.2570298 2.074318-.783329.135819.5437842.495649.783329 1.164158.783329.479775 0 .76905-.1381316 1.472837-.5944907z"/><path d="m125.291627 49.4668788v7.6252185h1.523989v-3.9865852c0-1.3096282.821966-2.3482386 1.869709-2.3482386.358066 0 .957784.3077364 1.421683.748359l.806092-1.3078798c-.636759-.5944907-1.218838-.8812451-1.836195-.8812451-.719661 0-1.455198.5612692-2.226011 1.9023705h-.035278v-1.7519993z"/><path d="m132.004939 57.0920973h1.525752v-11.5803307h-1.525752z"/><path d="m139.296802 50.6733454c1.525752 0 2.622883 1.0718319 2.622883 2.5493163 0 1.6470892-1.010701 2.6647176-2.622883 2.6647176-1.471073 0-2.483538-1.068335-2.483538-2.6839511 0-1.4582509 1.044215-2.5300828 2.483538-2.5300828zm.017638-1.3568378c-2.293038 0-4.058678 1.6977957-4.058678 3.8869206 0 2.3464901 1.693321 4.0442858 4.058678 4.0442858 2.469426 0 4.164511-1.6296041 4.164511-4.0442858 0-2.2573165-1.749765-3.8869206-4.164511-3.8869206z"/><path d="m149.640169 49.9442199c-.804327-.4248861-1.541627-.6277123-2.259525-.6277123-1.543391 0-2.536453.779832-2.536453 2.0877117 0 2.0492447 3.596543 2.6052685 3.596543 3.6561184 0 .5402872-.513288.8270416-1.130645.8620116-.617356 0-1.523988-.3217244-2.518814-.9983948v1.6261071c.994826.5088142 1.730362.6976524 2.674035.6976524 1.456962 0 2.53469-.9022271 2.53469-2.2415799 0-.7745865-.462135-1.3008857-1.730362-2.1314243-1.352893-.7745865-1.867945-1.1837361-1.867945-1.5229455 0-.4161436.396872-.709892 1.012465-.709892.56444 0 1.368768.2430419 2.226011.8130536z"/><path d="m52.1031279 26.0264568h-1.6774459v6.7439734c0 1.08582-.1375823 1.9373406-.7373001 2.5283344-.5326905.5280477-1.4551975.9354487-2.741063.9354487-1.0107008 0-1.8503057-.3217244-2.5188147-.9844068-.5326905-.5245507-.7020225-1.0718319-.7020225-2.3797116v-6.8436381h-1.6792098v7.2020811c0 3.1595436 2.3988711 4.5356149 4.8647695 4.5356149 3.4783631 0 5.1910865-1.8674004 5.1910865-4.7069682z"/><path d="m55.6943791 29.9850661h-1.5239887v7.6252185h1.5239887v-5.4675667c.7196614-.7990655 1.2523519-1.1050534 1.9190969-1.1050534.9242709 0 1.5081138.7308739 1.5081138 1.8499154v4.7227047h1.5239888v-4.7034712c0-2.0894602-1.1641581-3.0756155-2.6211195-3.0756155-.8554798 0-1.7109596.4266345-2.2948025 1.15576h-.0352775z"/><path d="m64.4820085 27.6752945c0-.4913291-.4109831-.9004787-.9066322-.9004787-.497413 0-.9083961.4091496-.9083961.9004787 0 .4913292.4109831.9004787.9083961.9004787.4956491 0 .9066322-.4091495.9066322-.9004787zm-1.6792098 9.9349901h1.5257526v-7.6252185h-1.5257526z"/><path d="m68.9657808 37.7641528h.5150517l3.3919333-7.7790867h-1.6262936l-2.0231655 4.6842377-2.0725541-4.6842377h-1.661571z"/><path d="m74.8571261 33.0239631c.2063734-1.2047181.9066321-1.8848855 2.0743179-1.8848855 1.0777282 0 1.7444732.730874 1.7991534 1.8848855zm5.2422389 2.3797116c-.8907573.5770058-1.7638758.9144667-2.6881467.9144667-1.4746002 0-2.3477188-.7815805-2.5876059-2.290538h5.4133349c0-2.8203342-1.3035042-4.1964055-3.3407808-4.1964055-2.1237065 0-3.5983067 1.563161-3.5983067 3.8729326 0 2.1069453 1.3370179 4.0600223 3.735889 4.0600223 1.3017404 0 2.1413453-.2902513 3.0656162-.9022272z"/><path d="m81.9761289 29.9850661v7.6252185h1.5239887v-3.9918307c0-1.3078798.82373-2.3447416 1.8661806-2.3447416.3615946 0 .9595485.3077364 1.4234478.748359l.8043274-1.3078798c-.6332314-.5927422-1.2153105-.8829936-1.832667-.8829936-.7196613 0-1.4551976.5612692-2.2277752 1.904119h-.0335136v-1.7502508z"/><path d="m93.1238241 30.4606587c-.8043274-.4231376-1.5398636-.6294608-2.2595249-.6294608-1.5416275 0-2.5364535.783329-2.5364535 2.0894602 0 2.0492447 3.5965428 2.6052685 3.5965428 3.6543698 0 .5437843-.5132878.8305386-1.1306444.8637602-.6155926 0-1.5239887-.3199759-2.5170508-1.0001433v1.6278556c.9930621.5105627 1.7303622.6976524 2.6722719.6976524 1.4569614 0 2.5364534-.9022272 2.5364534-2.2398314 0-.7780835-.4638993-1.3026342-1.7303622-2.1314243-1.3528927-.7780836-1.8679445-1.1837361-1.8679445-1.5264425 0-.4143951.3933444-.709892 1.008937-.709892.5662042 0 1.3722954.2430418 2.2277752.8148021z"/><path d="m96.9584901 27.6752945c0-.4913291-.4127469-.9004787-.9101599-.9004787-.4956491 0-.9066322.4091496-.9066322.9004787 0 .4913292.4109831.9004787.9066322.9004787.497413 0 .9101599-.4091495.9101599-.9004787zm-1.6809736 9.9349901h1.5239887v-7.6252185h-1.5239887z"/><path d="m104.114534 36.3356265h-1.541627c-1.76564 0-2.347719-1.068335-2.347719-2.4951128 0-1.5963826.994826-2.648981 2.467662-2.648981.513288 0 .906633.0821796 1.421684.2885028zm1.522225-10.3091697h-1.522225v4.110729c-.617356-.2203113-1.09713-.3059879-1.610418-.3059879-2.24365 0-3.8381941 1.5806461-3.8381941 3.787256 0 2.4444062 1.4393231 3.9918307 3.7358891 3.9918307h3.234948z"/><path d="m111.065969 36.0628601c-.412747.393413-.859008.6294608-1.338782.6294608-.631467 0-1.095367-.4406226-1.095367-1.0700834 0-.8969817 1.130645-1.3411013 2.434149-1.7817238zm2.619356.1888382c-.340428.2552814-.650871.4091496-.804328.4091496-.186971 0-.291039-.1031617-.291039-.393413v-3.9218907c0-1.7310173-1.23295-2.5143463-2.792216-2.5143463-1.114769 0-1.954374.3392094-2.552328 1.0368618v1.6488377c.7373-.8672571 1.59278-1.2571731 2.432385-1.2571731.926034 0 1.38817.389916 1.38817 1.3411012v.4056526l-1.354657.4790896c-1.232949.4406226-2.621119.8969817-2.621119 2.4111847 0 .9826583.753175 1.8674004 1.883819 1.8674004.703787 0 1.405809-.2570298 2.074318-.7815805.135819.5420357.497413.7815805 1.164158.7815805.481538 0 .770814-.1363831 1.472837-.5944907z"/><path d="m120.156985 36.3356265h-1.541628c-1.763875 0-2.345954-1.068335-2.345954-2.4951128 0-1.5963826.991298-2.648981 2.465898-2.648981.513288 0 .906632.0821796 1.421684.2885028zm1.525753-10.3091697h-1.525753v4.110729c-.617357-.2203113-1.095367-.3059879-1.610419-.3059879-2.245414 0-3.83643 1.5806461-3.83643 3.787256 0 2.4444062 1.435795 3.9918307 3.732362 3.9918307h3.24024z"/></g></g></svg>