<svg height="49" viewBox="0 0 150 49" width="150" xmlns="http://www.w3.org/2000/svg"><path d="m22.4282034 7.62481419c.6399886.7253136 2.8853117 3.25128141 5.1914158 5.75920651 2.1058843 2.2878051 4.9661685 5.2359704 5.1878405 5.4380478 1.0511544 1.0681235 1.2907032 1.2810265 1.4480188 1.2810265.1430143 0 .1787678-.0974301.1787678-1.421759l.0429043-11.76018427c0-1.20163896.0786578-1.63827053.7365232-1.78261155.2359734-.05773641.3754123-.05773641.4719468-.05773641.1430143 0 .2216721-.06134493.2216721-.13712396 0-.12629839-.1394389-.14794954-.3575356-.14794954-.8151809 0-1.4730463.06134493-1.691143.06134493s-1.1727165-.06134493-2.0665553-.06134493c-.2395488 0-.3968644.02165115-.3968644.14794954 0 .07577903.0178767.13712396.1573156.13712396.1573156 0 .6185364.01804263.9724966.10103871.6185365.15877512.7579753.60262375.7794275 1.90169289l.2180966 10.19047573c-.6399886-.6567516-2.8030785-3.1069404-4.7730992-5.2287533-3.0569287-3.31623484-6.0208982-6.54586508-6.3212281-6.88506647-.1966445-.20207742-.5363033-.64231752-.6936189-.64231752s-.2180967.22372858-.2180967.99956154l-.0178767 11.50037045c0 1.8259139-.10011 2.4068865-.6006597 2.547619-.2967545.1010387-.65429.1154728-.815181.1154728-.0965346 0-.1573157.0433023-.1573157.1226898 0 .1407325.1179868.1623837.3182067.1623837.8938388 0 1.7304719-.0577364 1.9092397-.0577364.1787677 0 .9724966.0577364 2.1058842.0577364.2395488 0 .3575355-.0433023.3575355-.1623837 0-.0793875-.060781-.1226898-.160891-.1226898-.1787677 0-.6149611-.0144341-.9903734-.1154728-.5398786-.1623837-.7365231-.6820113-.7758521-2.3274989zm20.3616481 2.99507611c0-3.13220008 0-3.69873857.0393289-4.33744757.0393289-.70005392.2002199-1.03925531.7365232-1.14390255.2395488-.03969378.3575355-.05773641.4969744-.05773641.0822331 0 .160891-.03608525.160891-.12268986 0-.11908134-.10011-.16238364-.321782-.16238364-.593509 0-1.8448833.06134493-1.9449933.06134493-.1001099 0-1.3514842-.06134493-2.0093496-.06134493-.2180967 0-.3146313.0433023-.3146313.16238364 0 .08660461.0786578.12268986.1573157.12268986.1394388 0 .3968644.01804263.6149611.07938756.4361933.10103871.6364132.4402401.6757421 1.1222514.0429043.638709.0429043 1.20524749.0429043 4.33744757v3.5291378c0 1.9233441 0 3.5074867-.1036853 4.3518817-.0786579.5809726-.1787678 1.0212127-.5756322 1.1042087-.1787678.0360853-.4183166.0757791-.593509.0757791-.1215621 0-.160891.0649534-.160891.1226898 0 .1190814.10011.1623837.3182066.1623837.5970844 0 1.8484587-.0577364 1.9485686-.0577364.10011 0 1.3514843.0577364 2.4419677.0577364.221672 0 .3182066-.0577364.3182066-.1623837 0-.0577364-.0393289-.1226898-.1573157-.1226898-.1787677 0-.6149611-.0396938-.8938388-.0757791-.5970843-.082996-.715071-.5232361-.775852-1.1042087-.10011-.844395-.10011-2.4285376-.10011-4.3518817zm7.6441095-3.37397128c-.3003298-.78305002-.5398786-1.40732491-.5398786-1.66353021 0-.1407325.0393289-.29950761.2610009-.40054633.1751924-.08299608.5363033-.10103871.7544-.10103871.1394388 0 .1966445-.03608525.1966445-.13712396 0-.10464724-.1787678-.14794954-.5327279-.14794954-.7579753 0-1.6482388.06134493-1.8484587.06134493-.2395488 0-1.3729364-.06134493-2.3275563-.06134493-.3182066 0-.5184265.02165115-.5184265.14794954 0 .07577903.0429043.13712396.160891.13712396s.4576455 0 .7544.07938756c.7007696.20207743.9975241.42219748 1.4337174 1.54444888l4.8696339 12.29785459c.3754123.9634763.4755222 1.2449413.715071 1.2449413.1966445 0 .2788777-.3247673.8294824-1.5264063.4612209-.9851274 1.358635-3.1466341 2.5671051-6.0803653 1.0118255-2.4682314 2.012925-4.87511782 2.2238709-5.43443926.5398787-1.36763113.8402085-1.70683252 1.0976341-1.88365026.3754123-.24177121.815181-.24177121.9546199-.24177121.1537402 0 .2359734-.03608525.2359734-.13712396 0-.10464724-.1179867-.14794954-.3396587-.14794954-.5720569 0-1.4301421.06134493-1.5481289.06134493-.2395488 0-1.1548397-.06134493-1.9449932-.06134493-.3182066 0-.4361934.0433023-.4361934.16238364 0 .10103871.0965346.12268986.2145214.12268986.221672 0 .5184265 0 .7543999.07938756.2002199.10103871.2574256.30311614.2574256.46189125 0 .1840348-.0750825.46549978-.1751924.76139887-.4397687 1.44341016-3.1034084 8.44394945-4.2582481 11.13590945zm14.3657774 6.90310908c0 1.9233441 0 3.5074867-.10011 4.3518817-.0786578.5809726-.1751924 1.0212127-.5756322 1.1042087-.1787677.0360853-.4147412.0757791-.593509.0757791-.1179867 0-.1608909.0649534-.1608909.1226898 0 .1190814.1001099.1623837.3182066.1623837.5970843 0 1.8484586-.0577364 1.9485686-.0577364.5756322 0 1.9092397.1190813 4.9089627.1190813.7758521 0 .9331677 0 1.0726066-.5196276.1001099-.425806.2610009-1.7862201.2610009-1.9486038 0-.1371239 0-.3031161-.1179867-.3031161-.1072606 0-.1430142.0829961-.1787678.3031161-.1394388.8227438-.382563 1.2196816-.8974141 1.4434102-.5148512.22012-1.3908132.22012-1.9092397.22012-1.9449933 0-2.2453231-.2598138-2.3061041-1.6454875-.0178768-.4221975 0-2.7496964 0-3.4280992v-1.7645689c0-.0793876.0429042-.1407325.1394388-.1407325.3432341 0 2.3096795.0360853 2.8424074.0974302.7758521.0829961.9546199.425806 1.0332777.7000539.0822332.2634224.0822332.4654998.0822332.6639687 0 .0974302.0357535.1804263.1394388.1804263.1394389 0 .1394389-.2201201.1394389-.3788952 0-.144341.0357535-.8840887.0750824-1.284635.0607811-.6603602.160891-.9995616.160891-1.12586 0-.1190813-.0429042-.1587751-.1001099-.1587751-.0822332 0-.1573157.1010387-.2967545.2598138-.1787678.1984689-.4576455.2417712-.9331677.281465-.4576455.0433023-2.9031885.0433023-3.1641894.0433023-.0965346 0-.1179867-.0613449-.1179867-.2020774v-5.53547797c0-.14073249.0429042-.20207742.1179867-.20207742.221672 0 2.3883373.01804262 2.7244207.06134493 1.0761819.11908134 1.2728264.36085254 1.4122653.67840277.1001099.24177121.1215621.58097259.1215621.72170509 0 .16238364.0357535.2562053.1573156.2562053.0786578 0 .1179867-.11186429.1394389-.21651153.0429042-.23455415.0786578-1.11864287.0965345-1.32072029.0643564-.56292997.160891-.80470117.160891-.94543366 0-.09382166-.0214521-.1840348-.0786578-.1840348-.1001099 0-.1787677.09021314-.282453.10825577-.1573157.03969377-.4719469.07577903-.8509346.09743018-.4540701.01804263-4.4119884.01804263-4.5514272.01804263-.10011 0-1.3514843-.06134493-2.2453231-.06134493-.221672 0-.3182066.0433023-.3182066.16238364 0 .08660461.0786578.12268986.1573156.12268986.1823431 0 .5148512.01804263.6793175.05773641.65429.14434102.8116056.46189125.8545099 1.14390255.0357536.638709.0357536 1.20524749.0357536 4.33744757zm36.8261586-3.5291378c0-3.13220008 0-3.69873857.035754-4.33744757.042904-.70005392.20022-1.03925531.740098-1.14390255.232399-.03969378.353961-.05773641.493399-.05773641.082234 0 .157316-.03608525.157316-.12268986 0-.11908134-.10011-.16238364-.314631-.16238364-.60066 0-1.844883.06134493-1.952144.06134493-.096535 0-1.3514844-.06134493-2.0021991-.06134493-.2252474 0-.321782.0433023-.321782.16238364 0 .08660461.0786579.12268986.160891.12268986.1394389 0 .3968645.01804263.6149611.07938756.4361934.10103871.6364133.4402401.6721668 1.1222514.0464796.638709.0464796 1.20524749.0464796 4.33744757v3.5291378c0 1.9233441 0 3.5074867-.1036853 4.3518817-.0786578.5809726-.1787677 1.0212127-.5720568 1.1042087-.1787678.0360853-.4218919.0757791-.6006597.0757791-.1215621 0-.1537403.0649534-.1537403.1226898 0 .1190814.0965346.1623837.3146313.1623837.593509 0 1.8484584-.0577364 1.9449934-.0577364.107261 0 1.351484.0577364 2.449118.0577364.218097 0 .318207-.0577364.318207-.1623837 0-.0577364-.039329-.1226898-.160891-.1226898-.178768 0-.618537-.0396938-.890264-.0757791-.600659-.082996-.718646-.5232361-.779427-1.1042087-.096535-.844395-.096535-2.4285376-.096535-4.3518817zm-95.64075233-7.45882204c-.38256301-1.01399564-.69361892-1.81508828-.69361892-2.14707262 0-.1840348.05363033-.39693779.33250804-.52323618.23239809-.10103872.69719427-.12629839.97965151-.12629839.17876359 0 .25384605-.05412788.25384605-.1840348 0-.12990691-.23239809-.18042627-.69361892-.18042627-.97607198 0-2.13091172.07577903-2.3883373.07577903-.3110559 0-1.7733762-.07577903-3.00687375-.07577903-.41116586 0-.66501608.02165115-.66501608.18042627 0 .10103871.05005498.1840348.20379525.1840348.15374028 0 .58993362 0 .97607198.10103871.90098952.25981383 1.28355253.54849586 1.85203401 1.99551455l6.29262523 15.89555437c.48624831 1.2449413.61496113 1.6094024.92601703 1.6094024.2574256 0 .3575355-.418589 1.0761819-1.9738634.593509-1.2665924 1.7483487-4.0668082 3.3143543-7.8521513 1.30858-3.19354499 2.5992833-6.30409389 2.878161-7.03301602.6936189-1.7609604 1.0797573-2.2012005 1.4122653-2.43214613.4898237-.31033318 1.0547298-.31033318 1.2334976-.31033318.2073706 0 .3110559-.05412788.3110559-.1840348 0-.12990691-.1537403-.18042627-.4397687-.18042627-.7436739 0-1.8484587.07577903-2.002199.07577903-.3074805 0-1.4909231-.07577903-2.5170501-.07577903-.4111658 0-.5649061.05051936-.5649061.20929447 0 .12629839.1287128.1551666.2824531.1551666.282453 0 .6685914 0 .9724966.10103871.2610009.12990691.3360834.38972074.3360834.59540669 0 .23094563-.10011.59540669-.2323981.98512744-.5613308 1.86560763-4.0079732 10.91939789-5.495321 14.39440789zm2.02007571 34.74649114c0 1.2305072 0 2.2517199-.06078104 2.7893901-.05363033.3752867-.11798672.6531431-.37183694.707271-.11441137.0252597-.26815165.0505194-.37898766.0505194-.07865781 0-.1036853.0360852-.1036853.075779 0 .0793876.06435639.0974302.20379525.0974302.38256301 0 1.18344258-.0360853 1.24422362-.0360853.37183695 0 1.22277149.0793876 3.14631259.0793876.4969744 0 .5970843 0 .6864682-.3355929.0643564-.2634223.1644664-1.140294.1644664-1.2413327 0-.0938217 0-.1984689-.0750825-.1984689-.0643564 0-.0893839.0577364-.1144114.1984689-.0893838.5232362-.2431241.7794415-.5720568.9237825-.3289327.1407325-.8902635.1407325-1.2263468.1407325-1.24422367 0-1.43371749-.1659922-1.4730464-1.0572979-.01430142-.2670309 0-1.7573519 0-2.1939835v-1.133077c0-.0469108.02502748-.0829961.08938388-.0829961.21452131 0 1.47662172.0216512 1.81985582.061345.4969744.0505193.6113857.2670309.6650161.4510657.0500549.1659921.0500549.295899.0500549.4221974 0 .0649535.0250275.1154728.0893839.1154728.0858086 0 .0858086-.1371239.0858086-.2417712 0-.0974302.0250274-.5665385.0500549-.8263523.0393289-.425806.1036853-.638709.1036853-.7180965 0-.0757791-.0250275-.1010388-.0643564-.1010388-.0500549 0-.1001099.061345-.1894938.1659922-.1144114.1299069-.2931791.1551666-.5970843.1804263-.2931792.0252597-1.85918475.0252597-2.02722644.0252597-.06078104 0-.07508246-.0433023-.07508246-.129907v-3.5435719c0-.0938217.02502748-.1262984.07508246-.1262984.13943885 0 1.53025204.0108256 1.74834874.0324767.6864682.0829961.8116056.2345542.9009895.4438487.0643564.1479495.0750825.3680696.0750825.4582827 0 .1046472.0250274.1659922.1036853.1659922.0500549 0 .0750824-.0757791.0893838-.1407325.0250275-.1515581.050055-.7217051.0643564-.844395.0357536-.364461.10011-.5160191.10011-.6062322 0-.061345-.0143014-.1154729-.050055-.1154729-.0643564 0-.1144114.0541279-.1787678.061345-.1036853.0288682-.3039052.0541279-.5470293.068562-.2931791.0108255-2.82810601.0108255-2.91748989.0108255-.06078104 0-.86166061-.0396937-1.43371745-.0396937-.13943885 0-.20379525.0288682-.20379525.1046472 0 .0541279.05005498.075779.10010995.075779.11441137 0 .33250804.0144341.43261798.0433023.41831657.0866046.52200187.2922906.54702935.7289222.02502749.4113719.02502749.7686159.02502749 2.774956zm33.62979142-10.6126732c-.3861384-1.0139957-.693619-1.8150883-.693619-2.1542897 0-.1840348.0536304-.3897207.3325081-.5196276.2323981-.1046473.6971943-.129907.9796515-.129907.1787636 0 .253846-.0505193.253846-.1804262s-.2288227-.1804263-.6900435-.1804263c-.9796474 0-2.1344871.075779-2.3919127.075779-.3074805 0-1.7698008-.075779-3.0032984-.075779-.4147412 0-.6685914.0252597-.6685914.1804263 0 .1046472.050055.1804262.2037952.1804262.1537403 0 .5899337 0 .976072.1046473.9009895.2562053 1.2835526.5448873 1.8484587 1.9955145l6.2962006 15.899163c.4862483 1.2413327.6185364 1.6021853.926017 1.6021853.2574255 0 .3575355-.4113719 1.0761819-1.9702549.5899336-1.2665924 1.7519241-4.0668082 3.3179297-7.8557598 1.30858-3.186328 2.5957079-6.3040939 2.8781609-7.0294075.6900436-1.7573519 1.076182-2.197592 1.4122653-2.4357547.4862484-.3103332 1.0511545-.3103332 1.2334976-.3103332.2037952 0 .3074806-.0505193.3074806-.1804262s-.1537403-.1804263-.4397687-.1804263c-.7400986 0-1.8484587.075779-2.0057743.075779-.3039052 0-1.4873478-.075779-2.5134748-.075779-.4111658 0-.5649061.0505194-.5649061.2020774 0 .1299069.1287128.1587751.2788777.1587751.2860284 0 .6685914 0 .976072.1046473.2610009.1299069.3360834.3861122.3360834.5954067 0 .2345541-.10011.5990152-.2288227.9851274-.5649062 1.8656076-4.0079733 10.9193979-5.4988964 14.3907993zm-8.7381682 8.2382635c.0536303 2.0821191-.0679318 4.3302305-.7973043 6.2607916-.8545099 1.1366855-1.1798672 1.8908673-2.8352567 2.3527585-.5684814.1262984-1.1262369.137124-1.7948283.1479496-.1894938 1.1006002-.2788777 2.0315998-.3396587 3.1682853.9188663-.2525968 2.0629799-1.483104 3.1427372-.714488.2860284.1948603.2860284.6423175.2860284.8949143-1.0475791.9634762-2.7315714 1.573317-4.186741 1.284635l-.2860284-.4149804s.271727-4.3374476.2860284-4.3374476c-.1465895-.0036085-.9903734-.1623836-.9903734-.1623836-1.6804169-.3752866-2.5814064-2.1795494-2.8960377-3.6518277-.2359734-3.3956224.5720568-6.3149195 1.791253-9.4579451.6078104-1.5733171 2.1273363-3.3198434 3.8756851-3.5904828 1.4623202-.0577364 2.6028586 1.0320383 3.3250803 2.1398556.5577554 1.1222514.9081403 2.2986307 1.1262369 3.5291378l.1859185 1.0248212c.0107261.0866046.0178768.1659922.0393289.2489883 1.1083601.1154728 2.4312416-.2273371 3.3822861-.0974302.0321782.1551666.221672.3175502.0643564.5088021-1.0154009.6423175-2.173816.6747942-3.3787107.8660461zm-1.0797573-.0108256c.1072606 2.0352083-.2896038 4.0487655-.9045649 5.8385941-1.0082502 1.4181505-2.5206254 1.9558208-4.1617135 1.7429178-1.086908-.0288682-2.2274463-.3247673-2.7601742-1.4506272-1.3264568-3.5580061.2681516-7.1953997 1.2442236-10.432247.4540701-1.2124645 1.4372928-2.493491 2.8674349-2.6270065 1.086908-.0541279 2.0165003.8552205 2.5206254 1.764569.4504948 1.1511196.6113858 1.504755.8437839 3.0095101 0 0 .1537402.7433563.2145213.8768717.010726.0541279.0071507.0902132.0286028.1479496-1.0690312.1226898-2.0915828.082996-2.9067638-.5881897-.1322881.0649535-.3503848.3031162-.382563.494368.5970843 1.1727708 2.0486786 1.3135032 3.3965875 1.2232901zm-3.4144643-4.2508429c.1251375.6062322-.1930692 1.1547281-.6971942 1.3748482-.4147413.2237285-.8866881-.1912519-.9510445-.5773641-.0965346-.638709.443344-1.0500809.9510445-1.3387629.3146312 0 .6971942.1876433.6971942.5412788zm4.408413-7.9748412-2.828106 2.1687238.5112758.7866585 3.0569288-1.9197355zm-10.4007084 0-.7615506 1.0356468 3.0748055 1.9197355.4969744-.7866585zm4.730195 2.1434641-.1787677-3.6410021h1.2764018l-.1787678 3.6410021zm67.3918709-10.446681c-.7794274.5521044-1.7554994.7722244-2.727996.7722244-.8437839 0-1.6768416-.1335154-2.4169402-.494368-.2860284-.1407325-.3039052-.2562053-.3039052-.7469647 0-.8949143.0679318-1.6202279.0858086-1.9125185.0143014-.1226899.0321782-.3464184.2145213-.3464184.1644663 0 .1859185.1190813.1859185.2670308 0 .212903.010726.4366316.0536303.6531431.2538502 1.2882436 1.3908132 1.7826116 2.5778311 1.7826116 1.6661156 0 2.4812966-1.2124645 2.4812966-2.3274989 0-1.2124645-.5005498-1.9125185-2.0308018-3.19354498l-.8008796-.66036015c-1.8985136-1.57692561-2.3382823-2.70639406-2.3382823-3.95855237 0-1.97025488 1.4623203-3.30180075 3.7576983-3.30180075.6971943 0 1.2191962.07217051 1.6696909.18042627.3360834.07217051.4683716.08660461.6078104.08660461.1394389 0 .2431242.03969378.2431242.19125184 0 .09382166-.0715071.68561983-.0715071 1.90530142 0 .12629839.0143014.4835424-.1859185.4835424-.1716171 0-.1930692-.16238364-.210946-.29229055-.0178767-.212903-.121562-.68922836-.2252473-.87687168-.0929593-.18042627-.5541801-.91656545-2.1702407-.91656545-1.2013193 0-2.1273363.75057328-2.1273363 2.02077423 0 .99234448.4719469 1.58053412 2.1523638 2.96981641l.5005497.39693779c2.1094596 1.67796432 2.6243108 2.81464986 2.6243108 4.27971116 0 .7505733-.2896038 2.1434641-1.5445535 3.0383784zm28.6207185-1.6707473c-.057205 0-.10726-.0360853-.082233-.137124l.618537-5.42000512c.035753-.29950761.135863-.29950761.296754 0l3.014024 5.42000512c.039329.0793876.053631.137124-.046479.137124zm-1.855609 4.4384863c-.14659.9995615-.389714 1.7609604-1.279977 1.8800417-.153741.0252597-.425468.0396938-.568482.0396938-.096534 0-.171617.0433023-.150165.1226898.025028.1190814.150165.1623837.407591.1623837.936743 0 2.020075-.0577364 2.234597-.0577364.221672 0 1.086908.0577364 1.566005.0577364.178768 0 .289604-.0433023.264577-.1623837-.017877-.0793875-.085809-.1226898-.225248-.1226898h-.20022c-.336083 0-.793728-.1732092-.872386-.5809726-.078658-.357244-.082233-.8371779-.003576-1.3387629l.457646-3.550789c.014301-.1046473.060781-.1623837.160891-.1623837h4.272549c.10011 0 .150165.0433023.203796.1190813l2.874585 4.9328543c.189494.3247673.103686.5051935-.003575.5412788-.075083.0252597-.125138.0649534-.110836.1407325.025027.1262984.243124.1262984.625687.1407325 1.383662.0433023 2.831681.0433023 3.12486.0433023.221673 0 .39329-.0433023.364687-.1623837-.021452-.0974302-.10011-.1226898-.221672-.1226898-.196645 0-.50055-.0144341-.818757-.1154728-.443344-.1226899-1.083332-.4438487-2.173816-2.2264602-1.848458-3.0528125-6.693065-11.33437832-7.15071-12.09577718-.368262-.6242749-.464796-.72531361-.589934-.72531361-.117986 0-.171617.11547281-.268151.78305001zm-8.294824-12.09938574 2.509899.04330231c1.902089.03608525 2.359735.49797651 2.438392 1.10060025l.021452.22012005c.021453.27424793.060782.33920139.157316.33920139.078658 0 .139439-.07938756.139439-.25981383 0-.21651153.057206-1.60579381.057206-2.20480903 0-.11908134 0-.2417712-.10011-.2417712-.153741 0-.690044.1984689-1.96287.1984689h-7.454616c-.243124 0-.993949-.03969378-1.569581-.10103871-.536303-.03247673-.732948-.23816268-.875962-.23816268-.082233 0-.157316.26342235-.20022.38250369-.035753.15877512-.436193 1.88365027-.436193 2.08572769 0 .11908134.039329.18042627.096534.18042627.082234 0 .143015-.03608526.203796-.20207742.057205-.14073249.117986-.27785646.336083-.62066637.318207-.48354241.797304-.6242749 2.023651-.638709l2.942517-.04330231v8.48725174c0 1.9233441 0 3.5074867-.096534 4.3518817-.078658.5809726-.178768 1.0212127-.579208 1.1042087-.178767.0360853-.414741.0757791-.593509.0757791-.117986 0-.160891.0649534-.160891.1226898 0 .1190814.103686.1623837.318207.1623837.60066 0 1.848459-.0577364 1.952144-.0577364.096535 0 1.347909.0577364 2.441968.0577364.218096 0 .318206-.0577364.318206-.1623837 0-.0577364-.042904-.1226898-.160891-.1226898-.175192 0-.614961-.0396938-.890263-.0757791-.597085-.082996-.718647-.5232361-.775852-1.1042087-.10011-.844395-.10011-2.4285376-.10011-4.3518817zm26.22523 0 2.5099.04330231c1.909239.03608525 2.359734.49797651 2.441967 1.10060025l.025028.22012005c.017877.27424793.05363.33920139.157316.33920139.078657 0 .135863-.07938756.135863-.25981383 0-.21651153.057206-1.60579381.057206-2.20480903 0-.11908134 0-.2417712-.096535-.2417712-.157316 0-.693619.1984689-1.970021.1984689h-7.45104c-.235973 0-.993949-.03969378-1.569581-.10103871-.539879-.03247673-.736523-.23816268-.875962-.23816268-.078658 0-.157316.26342235-.196644.38250369-.042905.15877512-.439769 1.88365027-.439769 2.08572769 0 .11908134.042904.18042627.096534.18042627.082234 0 .143015-.03608526.203796-.20207742.060781-.14073249.121562-.27785646.336083-.62066637.318207-.48354241.793729-.6242749 2.030802-.638709l2.935366-.04330231v8.48725174c0 1.9233441 0 3.5074867-.096534 4.3518817-.078658.5809726-.178768 1.0212127-.575632 1.1042087-.178768.0360853-.414742.0757791-.593509.0757791-.121562 0-.164467.0649534-.164467.1226898 0 .1190814.103686.1623837.318207.1623837.60066 0 1.852034-.0577364 1.952144-.0577364.096535 0 1.351484.0577364 2.441968.0577364.221672 0 .321782-.0577364.321782-.1623837 0-.0577364-.042905-.1226898-.160891-.1226898-.178768 0-.614962-.0396938-.897415-.0757791-.593509-.082996-.715071-.5232361-.768701-1.1042087-.107261-.844395-.107261-2.4285376-.107261-4.3518817zm-60.3591468.27063941c0-.12268986.0607811-.20207742.160891-.2417712.1930692-.06134493.7329478-.12268987 1.3228815-.12268987 2.1309117 0 3.4394917 1.5047551 3.4394917 4.01268026 0 1.52640624-.5148512 2.60896384-1.2084701 3.09250624-.4576454.3175503-1.0189762.3788952-1.4873478.3788952-.8795373 0-1.7948283-.1407325-2.0915828-.3211588-.0965346-.0577364-.1358635-.1371239-.1358635-.2417712zm-76.77360303 32.38290703c0 1.9125184 0 3.482227-.11798672 4.3194049-.09653459.5773641-.21809667 1.0139956-.70076963 1.0933832-.21452131.0360852-.50770044.0829961-.72222176.0829961-.14658956 0-.19664454.0541279-.19664454.1118643 0 .1226898.12156208.1623836.38971373.1623836.72222175 0 2.24174773-.0577364 2.36330981-.0577364.2395488 0 3.27860075.2381627 5.35588215.2381627 4.10093249 0 6.26759769-1.3928908 7.30802609-2.2914137 1.3479089-1.1727707 2.6028586-3.0997233 2.6028586-5.6076484 0-2.3708012-1.1333876-4.0198973-2.3382823-5.0555441-2.8710103-2.4501888-7.28299862-2.2697625-9.67133592-2.2697625-1.44801887 0-2.96754485.0613449-3.25714862.0613449-.12156208 0-1.64108806-.0613449-2.72799605-.0613449-.26457629 0-.38256301.0396938-.38256301.1623836 0 .0793876.09653459.1154728.19306918.1154728.21452132 0 .62568717.0216512.81875635.0649535.79372887.137124.98679805.4546742 1.03685302 1.1294684.04647962.6423176.04647962 1.1980305.04647962 4.3013623zm83.61683303-10.86527c.1001099 0 .1787677-.0396938.1787677-.0974302 0-.0829961-.1787677-.1407325-.3789876-.2850735-.815181-.5196277-2.2345971-1.5155807-2.395488-1.6743558-.1823432-.1768178-.2002199-.3175502-.3003299-.3175502-.0786578 0-.1573156.0360852-.3146312.0974301-.2395489.0974302-.7794275.2598139-1.1941687.3788952-.1394389.0433023-.221672.0649535-.221672.1623837 0 .1010387.160891.1768177.5827829.3428099.3146312.1190813 3.6826159 1.3928908 4.0437268 1.3928908zm51.1383058 14.5567915c-.150165.9995615-.389714 1.7573518-1.272826 1.8836502-.157316.0180427-.429043.0360853-.572057.0360853-.103685 0-.171617.0433023-.15374.1226898.025027.1190814.15374.1623837.411165.1623837.936743 0 2.016501-.0613449 2.231022-.0613449.221672 0 1.086908.0613449 1.566006.0613449.178767 0 .293179-.0433023.264576-.1623837-.017877-.0793875-.085809-.1226898-.225247-.1226898h-.196645c-.339659 0-.793729-.1804263-.875962-.5809726-.075082-.3608525-.075082-.8407864-.007151-1.3387629l.457646-3.5543976c.017877-.1010387.064356-.1623836.160891-.1623836h4.2797c.096535 0 .14659.0433023.20022.1226899l2.874585 4.9328542c.189494.3247673.107261.501585-.003575.5448873-.078658.0180427-.125137.061345-.110836.137124.025028.1226899.243124.1226899.622112.1407325 1.383662.0433023 2.831681.0433023 3.132011.0433023.221672 0 .393289-.0433023.364686-.1623837-.017876-.0974301-.103685-.1226898-.225247-.1226898-.196645 0-.50055-.0180426-.818756-.1154728-.439769-.1190814-1.086908-.4474572-2.173816-2.2300687-1.844884-3.0455955-6.693065-11.3307698-7.147135-12.0957772-.371837-.6242749-.468372-.7217051-.589934-.7217051s-.175192.1190814-.275302.78305zm-83.9386148-.0938217c-.3611109 1.0031701-.7579753 1.7645689-1.6732663 1.8836503-.1573156.0180426-.4361933.0396937-.5720568.0396937-.1001099 0-.1787678.0396938-.1787678.1190814 0 .1226899.1179868.1623836.3754123.1623836.9367431 0 2.0272265-.0649534 2.2453231-.0649534.2180967 0 1.076182.0649534 1.5481288.0649534.1787678 0 .3003299-.0396937.3003299-.1623836 0-.0793876-.0572057-.1190814-.1930692-.1190814h-.2037952c-.3396588 0-.7544-.1768177-.7544-.577364 0-.3644611.1001099-.8480035.2788777-1.34598l1.1905933-3.550789c.0429043-.0974302.1036853-.1623836.2002199-.1623836h4.2725495c.0965346 0 .1394389.0396937.1787678.1190813l1.8484586 4.9400713c.1215621.3175502 0 .4979765-.1179867.5376703-.0822332.0180426-.1430142.0613449-.1430142.1407325 0 .1154728.221672.1154728.6006597.1407325 1.3729447.0396937 2.8209553.0396937 3.1212851.0396937.2180967 0 .3968644-.0396937.3968644-.1623836 0-.0974302-.0822331-.1190814-.2002199-.1190814-.1966445 0-.4969743-.0216511-.7973042-.1190813-.4147412-.1226899-.9903734-.4438486-1.7054444-2.2300687-1.2120455-3.0455954-4.3333306-11.3307698-4.6336604-12.0957772-.2359735-.6206663-.3146313-.7180965-.4361934-.7180965-.1144113 0-.1966445.1190813-.4361933.7794415zm2.7816264-4.4348777c-.0572057 0-.10011-.0396938-.0572057-.1407325l1.7447733-5.4163966c.1036853-.3031162.2002199-.3031162.3003299 0l1.8877875 5.4163966c.0214522.0829961.0214522.1407325-.0786578.1407325zm83.0197484.0938216c-.064356 0-.110836-.0396937-.092959-.144341l.622112-5.4163966c.035753-.2995076.135863-.2995076.296754 0l3.0176 5.4163966c.039329.0829961.050055.144341-.050055.144341zm-56.9411073.7722245c0 1.9269525 0 3.5110952-.10011 4.3554901-.0750824.5773641-.1751924 1.0248213-.5756322 1.1006003-.1751924.0433023-.4147412.0793876-.5899336.0793876-.1215621 0-.1644663.0613449-.1644663.1190813 0 .1262984.1036853.1623836.321782.1623836.5935089 0 1.8484586-.0577364 1.9449932-.0577364.5792076 0 1.9092397.1190814 4.9125381.1190814.7722767 0 .9295924 0 1.0726066-.5196277.0965346-.425806.2574256-1.7862201.2574256-1.9486037 0-.137124 0-.2995076-.1179868-.2995076-.0965346 0-.1394388.075779-.1787677.2995076-.1394389.8191353-.3789877 1.2232901-.8974142 1.4470187-.5112758.22012-1.3872378.22012-1.9092397.22012-1.9449932 0-2.2453231-.2670309-2.3025288-1.6454876-.0178767-.425806 0-2.7496963 0-3.4317076v-1.7645689c0-.0793876.0393289-.1407325.1394389-.1407325.3396587 0 2.3061041.0360852 2.8424074.0974301.7758521.0829961.9546199.425806 1.0332777.7036625.0786578.2598138.0786578.4618913.0786578.6603602 0 .1010387.0393289.1804262.1358635.1804262.1430142 0 .1430142-.22012.1430142-.3788951 0-.1407325.0393289-.8840888.0786578-1.2810266.0572057-.6711857.160891-1.0067786.160891-1.1294684 0-.1154728-.0393289-.1551666-.1036853-.1551666-.0750825 0-.1537403.0974302-.2967545.2598138-.1751924.2020774-.4540701.2381627-.9295924.281465-.4576454.0396938-2.9067638.0396938-3.1641893.0396938-.0965346 0-.1179868-.0613449-.1179868-.2020774v-5.535478c0-.1407325.0393289-.205686.1179868-.205686.2180966 0 2.3883373.0252597 2.727996.0649535 1.0654559.1154728 1.2692511.3608525 1.40869.6820113.1001099.2381627.1179867.5809726.1179867.7253136 0 .1515581.0393289.2598138.1573156.2598138.0822332 0 .1215621-.1226898.1394389-.2237285.0429042-.2417712.0822331-1.1222514.1001099-1.3279374.0572057-.5557129.160891-.7974841.160891-.9418251 0-.0974302-.0214521-.1804263-.0822332-.1804263-.0965346 0-.1787677.0829961-.2753023.1046472-.160891.0396938-.4790976.0757791-.8545099.0974302-.4576455.0216512-4.4119884.0216512-4.5550026.0216512-.0965346 0-1.3514843-.061345-2.2453231-.061345-.2180967 0-.3146312.0396938-.3146312.1623837 0 .0793876.0786578.1190813.1573156.1190813.1787677 0 .5148511.0216512.6757421.0577364.65429.1443411.8187564.4654998.8545099 1.1475111.0357536.638709.0357536 1.201639.0357536 4.333839zm-77.64956511-3.8502966c0-1.5300148 0-3.5652231.02502749-4.2400174 0-.2165115.0715071-.3175502.28602842-.3897207.19664454-.0902132 1.08690799-.144341 1.56958095-.144341 2.87101025 0 6.43563945.2778564 8.70241465 2.2481113.986798.851612 2.3132548 2.4826655 2.3132548 5.0122418 0 1.8331309-.6721667 3.7456493-1.9271164 4.759645-1.4229914 1.1727707-4.3118785 1.8511735-6.55720154 1.8511735-2.84240742 0-3.7863012-.4221975-4.10093246-.7974841-.18949383-.22012-.2395488-1.0139956-.26457629-1.5119721-.02145213-.3825037-.04647962-2.2084176-.04647962-4.319405zm78.94384371-21.3263852c1.7841022-1.6635302 2.395488-3.1430256 2.395488-4.62612956 0-1.38567376-.8723867-2.37080119-1.3693611-2.73165373-1.0511544-.76139887-2.3847619-.88769725-3.6325609-.88769725-.6185364 0-2.1273364.06495345-2.3490084.06495345-.0965346 0-1.3514843-.06495345-2.2453231-.06495345-.2180966 0-.3182066.0433023-.3182066.16238364 0 .08660461.0822332.12629839.160891.12629839.1787678 0 .5148511.0144341.6793175.0577364.6507146.13712397.8044549.46189126.8509345 1.14029403.0357536.64953458.0357536 1.20885601.0357536 4.33744758v3.5291378c0 1.9305611 0 3.5110952-.10011 4.3482731-.0786578.5845811-.1787677 1.0248212-.5756322 1.1078173-.1787677.0433023-.4147412.0793876-.5935089.0793876-.1179867 0-.1573157.0613449-.1573157.1226899 0 .1190813.10011.1623836.3182067.1623836.5935089 0 1.8484586-.0649535 1.86276-.0649535.1072607 0 1.3514843.0649535 2.4491184.0649535.2180967 0 .3146312-.0649535.3146312-.1623836 0-.061345-.0393289-.1226899-.1573156-.1226899-.1751924 0-.6113857-.0360853-.8902634-.0793876-.6006597-.0829961-.7150711-.5232362-.7794275-1.1078173-.0965346-.8371779-.0965346-2.417712-.0965346-4.3482731v-.4835424c0-.1010387.0393289-.1587751.1358635-.1587751l2.445543.0396938c2.0165004 1.3459799 2.9854216 3.5038781 4.4977969 5.2720556 1.8234312 1.984689 4.7981267 2.0496424 7.0112716 1.1042088.493399-.3788952 1.4766217-.6964454 1.3765118-1.3928908-.4969744.1335154-.8580853.5448873-1.3443336.6639686-1.8877875.3788952-4.0794803.78305-5.2414708-1.0681235-1.147689-1.916127-2.4205155-4.3410561-4.6837153-5.0844123zm-11.9202344 21.6475439c0-3.1322 0-3.69513.0393289-4.333839.0357536-.707271.1966446-1.0428638.7687014-1.1475111.2431242-.0360852.5220019-.0577364.6614407-.0577364.0786578 0 .160891-.0396937.160891-.1190813 0-.1226899-.1001099-.1623837-.321782-.1623837-.5970843 0-2.0451032.061345-2.1452131.061345-.0965346 0-1.3514843-.061345-2.2453231-.061345-.2180967 0-.321782.0396938-.321782.1623837 0 .0793876.0822332.1190813.160891.1190813.1787678 0 .5148512.0216512.6757421.0577364.6578654.1443411.815181.4654998.85451 1.1475111.0393289.638709.0393289 1.201639.0393289 4.333839v3.5291379c0 1.9269525 0 3.5110952-.0965346 4.3554901-.0822332.5773641-.1787678 1.0248213-.5756322 1.1006003-.1787678.0433023-.4183166.0793876-.6006597.0793876-.1179867 0-.1573156.0613449-.1573156.1190813 0 .1262984.1001099.1623836.3182066.1623836.5970843 0 1.7698008-.0577364 1.9485686-.0577364 1.1512644 0 2.4669951.1190814 5.3308546.1190814 1.0475791 0 1.1119355-.0793876 1.247799-.5412788.1573157-.5809726.2967545-1.7826116.2967545-2.0063402 0-.22012-.0178768-.3031161-.1144114-.3031161-.121562 0-.1608909.1046472-.1823431.2562053-.0572057.3861122-.2574256.8876972-.5148511 1.208856-.4755223.5845811-1.3514843.5990152-2.4026388.5990152-1.5552795 0-2.0701306-.1371239-2.3883373-.4582827-.3611108-.3608525-.4361933-1.6454876-.4361933-4.5936528zm23.7975645-2.9914675c.6328379.721705 2.878161 3.2512814 5.1878406 5.755598 2.105884 2.2841966 4.966168 5.2359704 5.184265 5.4380478 1.05473 1.064515 1.290703 1.2810265 1.451594 1.2810265.139439 0 .178768-.1010387.178768-1.421759l.042904-11.7565758c0-1.2016389.075083-1.641879.732948-1.7862201.239549-.0577364.375412-.0577364.479098-.0577364.139438 0 .218096-.0613449.218096-.1371239 0-.1262984-.143014-.1443411-.361111-.1443411-.815181 0-1.469471.061345-1.687567.061345-.221672 0-1.169141-.061345-2.066556-.061345-.239548 0-.400439.0180427-.400439.1443411 0 .075779.025027.1371239.160891.1371239.157315 0 .614961.0216512.972496.1010387.618537.1587752.757976.6026238.775852 1.9053015l.221672 10.1940842c-.639988-.6639686-2.803078-3.1105489-4.773099-5.2431874-3.0569286-3.3090178-6.0208981-6.5350395-6.3176526-6.8814579-.2037953-.1948604-.5398787-.638709-.7007696-.638709-.1573157 0-.210946.2237285-.210946 1.0067786l-.0250275 11.4895449c0 1.8295223-.1001099 2.4104949-.5970843 2.5512274-.2967545.1010387-.6578654.1190814-.8116057.1190814-.1036853 0-.1608909.0396937-.1608909.1190813 0 .144341.1179867.1623836.3146312.1623836.8974142 0 1.7340473-.0577364 1.9056644-.0577364.1787677 0 .9832227.0577364 2.1130349.0577364.2395488 0 .3539602-.0360852.3539602-.1623836 0-.0793876-.0607811-.1190813-.1573157-.1190813-.1787677 0-.6185364-.0180427-.9903734-.1190814-.5398786-.1623836-.7365231-.6784028-.775852-2.3274989zm25.3885976 12.6226218c1.276402 0 2.778051-.1479495 3.575355-.4654997.361111-.1587752.396865-.2020775.518427-.5773641.196644-.6856198.436193-2.4321461.436193-2.5692701 0-.1623836-.039329-.3031161-.139439-.3031161-.117987 0-.160891.0793875-.20022.3031161-.060781.357244-.318206 1.2449413-.732948 1.6815728-.797304.8227438-1.97002 1.0067786-3.457368 1.0067786-4.254673 0-7.175738-3.5147037-7.175738-7.3433492 0-2.0496424.336083-3.8322539 1.787678-5.2323618.697194-.6892284 1.927116-1.4686698 4.572879-1.4686698 1.748349 0 3.275025.5412788 3.975795 1.1439025.514851.4402401.833058 1.2593754.833058 2.0424254 0 .2850735.017877.4221975.160891.4221975.117986 0 .157315-.1190814.178767-.4221975.017877-.2958991.017877-1.4037164.057206-2.0640765.039329-.7217051.10011-.9634763.10011-1.1222514 0-.1262984-.042904-.2020775-.261001-.2201201-.632838-.0433023-1.269251-.1587751-2.027226-.2995076-.972497-.1840348-2.084432-.2453797-2.878161-.2453797-3.06408 0-4.873209.9454336-6.063803 2.1470726-1.769801 1.7862201-2.227446 4.1317616-2.227446 5.4777416 0 1.9016928.475522 4.1931065 2.406214 5.9396328 1.573156 1.4253675 3.575355 2.1687237 6.560777 2.1687237zm11.094327-9.6311543c0-3.1322 0-3.69513.039329-4.333839.042904-.707271.20022-1.0428638.736523-1.1475111.243124-.0360852.361111-.0577364.496975-.0577364.082233 0 .160891-.0396937.160891-.1190813 0-.1226899-.096535-.1623837-.318207-.1623837-.60066 0-1.848459.061345-1.944993.061345-.103685 0-1.35506-.061345-2.00935-.061345-.218096 0-.314631.0396938-.314631.1623837 0 .0793876.071507.1190813.15374.1190813.139439 0 .396865.0216512.618537.0757791.432618.1010387.632838.4474571.675742 1.1294684.039329.638709.039329 1.201639.039329 4.333839v3.5291379c0 1.9269525 0 3.5110952-.10011 4.3554901-.078658.5773641-.182343 1.0248213-.575632 1.1006003-.178768.0433023-.421892.0793876-.597085.0793876-.117986 0-.160891.0613449-.160891.1190813 0 .1262984.10011.1623836.318207.1623836.597084 0 1.848459-.0577364 1.952144-.0577364.096534 0 1.344333.0577364 2.441967.0577364.218097 0 .318207-.0577364.318207-.1623836 0-.0577364-.039329-.1190813-.160891-.1190813-.178768 0-.611386-.0360853-.890263-.0793876-.593509-.075779-.718647-.5232362-.779428-1.1006003-.10011-.8443949-.10011-2.4285376-.10011-4.3554901z" fill="#0b1c28" fill-rule="evenodd"/></svg>