<svg height="90" viewBox="0 0 62 90" width="62" xmlns="http://www.w3.org/2000/svg"><g fill="none" fill-rule="evenodd"><path d="m0 46.4530467h62v-46.4530467h-62z" fill="#74edff"/><g fill="#000179"><path d="m46.8469 14.9474377v5.82277c0 7.069448-3.7569319 10.980927-10.4399356 10.980927-6.6787538 0-10.4378106-3.911479-10.4378106-10.980927v-5.82277c0-7.0736812 3.7590568-10.98304364 10.4378106-10.98304364 6.6830037 0 10.4399356 3.91147904 10.4399356 10.98304364m-6.4280084 6.1550764v-6.4894994c0-3.577056-1.3366008-4.94861358-4.0119272-4.94861358-2.6710765 0-4.0098023 1.37155758-4.0098023 4.94861358v6.491616c0 3.5749394 1.3387258 4.9486136 4.0098023 4.9486136 2.6753264 0 4.0119272-1.3736742 4.0119272-4.9507302"/><path d="m9.56232649 0v12.2191388c0 3.5749394 1.33660071 4.946497 4.00980221 4.946497s4.0076773-1.3715576 4.0076773-4.9486136v-12.2149056l6.4322583-.0021166v11.8825992c0 7.0715646-3.7569318 10.9830437-10.4399356 10.9830437-6.68087874 0-10.43993553-3.9114791-10.43993553-10.9830437v-11.8825992z"/><path d="m62 34.0561134c-.658738.6116978-1.5788464.8826228-2.7645748.8826228-2.6710766 0-4.0076773-1.3736742-4.0076773-4.9486137v-6.4916159c0-3.577056 1.3366007-4.9486136 4.0076773-4.9486136 1.1857284 0 2.1058368.2709249 2.7645748.8826227v-6.3244044c-.8542345-.1714447-1.7764678-.2582254-2.7645748-.2582254-6.6787538 0-10.4378106 3.9093625-10.4378106 10.9809271v5.8248865c0 7.0715647 3.7590568 10.9809271 10.4378106 10.9809271.988107 0 1.9103403-.0867806 2.7645748-.2561087z"/></g><path d="m48.6722418 71.6617671v.2328262l-.4589916.116413c-.1912466.0529151-.2358708.1164131-.2358708.2349428 0 .0613814.0339994.1672115.0658738.2412925l1.4661205 3.048861.8415877-2.9430309c.0302807-.1031844.0438273-.2063687.0487081-.2818718l.0022909-.0652508c0-.1185297-.050999-.1926107-.2337457-.2434092l-.3484937-.1079466v-.2328262h1.6043459v.2116601l-.0871234.0740811c-.167872.1502787-.3081194.3280732-.3931179.5630159l-1.5512218 4.2755345c-.5418652 1.4837374-1.1687288 2.0763857-2.2758337 2.1271842v-.8043085c1.0114816-.0402154 1.7127189-.6328638 1.872091-1.4075398l-2.0824622-4.2649514c-.1296227-.2561088-.2549954-.4148539-.4271173-.563016v-.2116601zm-33.1451485-1.9366901c.7224868 0 1.4470987.1375791 1.9443397.3577056v1.6742316h-.167872l-.1721219-.3577056c-.4016177-.8593401-.9647324-1.3334588-1.6340953-1.3334588-1.1921034 0-1.8083422 1.109099-1.8083422 3.2257003 0 2.0552197.6502382 3.2087674 1.816842 3.2087674.7564863 0 1.3939748-.5608993 1.7233438-1.4816209l.1253727-.3619388h.1721219v1.7610122c-.4781163.2624586-1.213353.4212037-2.1164616.4212037-1.8274669 0-2.9643212-1.3652078-2.9643212-3.5474236 0-2.0954352 1.264352-3.5664731 3.0811941-3.5664731zm4.8257874 1.7483126c1.2643521 0 1.8912157.6243974 1.8912157 1.8626091v2.5505044c0 .2645752.0977482.4021543.3506186.4656523l.4356171.1164131v.1587451l-.0934983.031749c-.3421188.1079466-.5843644.1587451-.7883607.1587451-.4866162 0-.7968605-.3492392-.82661-.9418876-.3102444.615931-.7989855.9524706-1.3833499.9524706-.881859 0-1.4364739-.4952847-1.4364739-1.3122928 0-.8593401.5971141-1.3122927 2.1823354-1.6530655l.5716146-.1248795v-.668846c0-.8466405-.2974946-1.2382117-.9859821-1.2382117-.5758646 0-1.0667306.4360199-1.3833499 1.1874133h-.1381225v-1.1323816c.4143675-.2476424 1.0752305-.4127373 1.6043459-.4127373zm33.395894 0c1.268602 0 1.8954656.6243974 1.8954656 1.8626091v2.5505044c0 .2645752.0934983.4021543.3484937.4656523l.4377421.1164131v.1587451l-.0956233.031749c-.3421188.1079466-.5864894.1587451-.7883607.1587451-.4887411 0-.7968605-.3492392-.828735-.9418876-.3081194.615931-.7968605.9524706-1.3812249.9524706-.881859 0-1.434349-.4952847-1.434349-1.3122928 0-.8593401.5928643-1.3122927 2.1780855-1.6530655l.5737396-.1248795v-.668846c0-.8466405-.2953696-1.2382117-.990232-1.2382117-.5716147 0-1.0624808.4360199-1.3791 1.1874133h-.1402475v-1.1323816c.4164925-.2476424 1.0752305-.4127373 1.6043459-.4127373zm-24.6793022 0c1.2643521 0 1.8933407.6243974 1.8933407 1.8626091v2.5505044c0 .2645752.0956232.4021543.3506186.4656523l.4356171.1164131v.1587451l-.0977482.031749c-.3378689.1079466-.5843644.1587451-.7841108.1587451-.4908661 0-.7989855-.3492392-.8308599-.9418876-.3081194.615931-.7968606.9524706-1.381225.9524706-.881859 0-1.4343489-.4952847-1.4343489-1.3122928 0-.8593401.5928642-1.3122927 2.1780855-1.6530655l.5737395-.1248795v-.668846c0-.8466405-.2974946-1.2382117-.988107-1.2382117-.5737396 0-1.0624807.4360199-1.381225 1.1874133h-.1402474v-1.1323816c.4164924-.2476424 1.0752305-.4127373 1.6064708-.4127373zm-24.53267982-2.2478305v6.523365c0 .3047905.06162388.3915712.32936902.4762352l.52274052.1587451v.2031937l-1.55334682.1989606h-.22099599v-.9313046c-.29961956.6243974-.80961031.9736366-1.39609966.9736366-1.28347671 0-2.03996299-.960937-2.03996299-2.6245855 0-1.6107335.97748226-2.7092496 2.39058162-2.7092496.3527436 0 .6396134.0402155.97960723.1439289v-1.3313421c0-.2645752-.06374884-.3704053-.2868698-.4656523l-.54186516-.2328261v-.2010772l1.31747609-.1820277zm20.50587792 1.2403283v1.1958797h1.4428488v.3809882h-1.4428488v3.2489829c0 .6815456.2953696.9461207.9116085.9461207.2868698 0 .4589916-.0550316.6821126-.1841443v.1926107c-.2868698.3492392-.7331117.5820654-1.2027282.5820654-.9031086 0-1.3812249-.4868183-1.3812249-1.4287058v-3.3569296h-.605614v-.2328261l.3081194-.1164131c.276245-.10583.3399938-.1799111.4037426-.5291503l.1381225-.6984784zm-16.81694486 1.0075022c1.15810399 0 1.80621726.7281108 1.80621726 2.0404036 0 .1396957-.0106248.3492392-.0212496.4148538h-3.05994452c0 1.4710379.57161463 2.3092119 1.60434589 2.3092119.54186516 0 .98810707-.1502786 1.40247455-.4677688v.2645751c-.46749152.5291503-1.0306063.7937255-1.66809473.7937255-1.49809782 0-2.37145697-.9948026-2.37145697-2.7113662 0-1.5662849.9477328-2.6436349 2.30770812-2.6436349zm28.32786096.1460455v3.1770184c0 .9313045.2337458 1.2805437.8499846 1.2805437.4462419 0 .8372348-.2328261 1.2324776-.7725594v-2.7219491c0-.2751582-.053124-.3704053-.2549953-.4847017l-.3633684-.2116601v-.1502787l1.1049799-.1164131h.5036159v4.140072c0 .2857411.0488741.3809882.327244.4656522l.5206156.1587451v.2031937l-1.5512219.1989606h-.2231209v-1.1958797c-.5333653.827591-1.1156048 1.2382117-1.7212188 1.2382117-.9477328 0-1.4152243-.5608993-1.4152243-1.703864v-2.383293c0-.2963241-.0318744-.4021542-.2337458-.5693657l-.2656201-.2349427v-.1587451l.988107-.1587451zm7.7263598-.1460455c.9562327 0 1.434349.6328638 1.434349 1.8308601v2.6140025c0 .2434091.0637489.3492392.2868698.4148538l.5206156.1587451v.2095435h-2.539329v-.2095435l.4568667-.1396957c.223121-.063498.2847449-.1693281.2847449-.4127372v-2.467957c0-.8995556-.220996-1.2593778-.8478596-1.2593778-.4781164 0-.9264832.2645752-1.2962265.7831425v2.9441923c0 .2539921.0743736.3492392.2847448.4127372l.4568667.1396957v.2095435h-2.5074545v-.2095435l.4908661-.1587451c.220996-.0761976.2868698-.1714447.2868698-.4148538v-3.0711884c0-.3047906-.0424992-.4106206-.2358707-.5714823l-.2656202-.2328262v-.1566284l.990232-.2666918h.4674916v1.1112156c.5078657-.8360574 1.1134798-1.2572611 1.7318435-1.2572611zm-10.522809-2.2478305v6.6926931c0 .2434091.0637488.3492392.2868698.4148538l.5652397.1587451v.2095435h-2.6158275v-.2095435l.4887411-.1587451c.220996-.0761976.2868698-.1714447.2868698-.4148538v-5.5984102c0-.2772748-.0743736-.3725219-.276245-.4783519l-.5227405-.2222431v-.2116602l1.2877266-.1820277zm20.8968708 4.787752-.4356171.1037134c-.9264832.2137768-1.3281009.626514-1.3281009 1.2932434 0 .5926483.2974946.9228381.8181102.9228381.5206155 0 .9456078-.5841819.9456078-1.2953599zm-33.398019 0-.4356171.1037134c-.9243582.2137768-1.3281009.626514-1.3281009 1.2932434 0 .5926483.2974946.9228381.8181102.9228381.5206155 0 .9456078-.5841819.9456078-1.2953599zm8.7165918 0-.4334921.1037134c-.9264832.2137768-1.3302259.626514-1.3302259 1.2932434 0 .5926483.2996196.9228381.8181102.9228381.5227405 0 .9456078-.5841819.9456078-1.2953599zm-27.49700102-2.2245479c-.79686054 0-1.22397779.7831424-1.22397779 2.2351309 0 1.4181228.46961648 2.1483502 1.3833499 2.1483502.36974329 0 .7437365-.2222431.91373342-.5503163v-2.457374c0-.8254745-.42499229-1.3757908-1.07310553-1.3757908zm5.68427186-.021166c-.63748843 0-1.1241046.7619764-1.18785345 1.852026h2.07183741c.01062481-.10583.01062481-.2307095.01062481-.5185673 0-.8445238-.32936903-1.3334587-.89460877-1.3334587zm.39524283-12.7440559v3.1664354c.31874421-.6243973.79686054-.9207215 1.48747303-.9207215 1.1899784 0 1.9230901.9948026 1.9230901 2.5822535 0 1.6848145-.9562327 2.7536981-2.46495529 2.7536981-.56311478 0-1.06248072-.137579-1.48747301-.4021542l-.20187134.4656523h-.24649553v-6.565697c0-.2539921-.06162388-.3577056-.27412002-.4741186l-.52061556-.2243598v-.1989605l1.28347672-.1820277zm-5.34640299.4995179c1.79559242 0 2.98769579 1.4181228 2.98769579 3.5580066 0 2.1060182-1.2239778 3.5558901-2.98769579 3.5558901-1.79771738 0-2.98769579-1.4181229-2.98769579-3.5558901 0-2.1102514 1.22185283-3.5580066 2.98769579-3.5580066zm11.93590842 1.746196c1.158104 0 1.8083422.7302274 1.8083422 2.0425202 0 .137579-.0106248.3492392-.0233746.4127372h-3.0599445c0 1.4731544.5737396 2.3092119 1.6043459 2.3092119.5418652 0 .9881071-.1481621 1.4024746-.4656523v.2624586c-.4674915.5312669-1.0284814.7937254-1.6659698.7937254-1.5002228 0-2.3735819-.9926859-2.3735819-2.7092495 0-1.5662849.9477328-2.6457515 2.3077081-2.6457515zm7.9409809-1.0053856v1.1958797h1.4449738v.3809882h-1.4449738v3.2489829c0 .679429.2953696.9440041.9137334.9440041.2868698 0 .4568667-.052915.6821127-.1820277v.1926107c-.2889948.3492392-.7352367.5799487-1.2048532.5799487-.9031086 0-1.3791-.4847016-1.3791-1.4265892v-3.3569295h-.605614v-.2349427l.3059945-.1142965c.276245-.10583.3399938-.1799111.4058676-.5291503l.1359975-.6984784zm4.0268019 1.0053856c1.2664771 0 1.8933407.6243973 1.8933407 1.8626091v2.552621c0 .2645752.0956233.4021542.3506186.4656523l.4356171.116413v.1587451l-.0956232.0338657c-.3399939.1037134-.5843644.1566284-.7862358.1566284-.4887411 0-.7968605-.3492392-.8308599-.9440041-.3059945.615931-.7947356.9524705-1.3791.9524705-.8839839 0-1.4364739-.4952846-1.4364739-1.3122927 0-.8572235.5949892-1.3122927 2.1780855-1.6509489l.5758645-.1248795v-.668846c0-.8466405-.2996195-1.2382117-.9881071-1.2382117-.5737395 0-1.0646056.4339032-1.3833499 1.1874133h-.1381224v-1.1323817c.4164924-.2476423 1.0731055-.4148538 1.6043458-.4148538zm-6.1411385.021166v.9948026c-.9158584.052915-1.3514755.2878577-1.6914693.9207215v2.47854c0 .2539922.0743736.3598222.2889947.4127372l.7756109.1693281v.2328262h-2.8283236v-.2116601l.4887411-.1587451c.223121-.0740811.2868698-.1693281.2868698-.4127373v-3.0711883c0-.3069072-.0446242-.4127373-.2358707-.5714823l-.2634952-.2328262v-.1566285l.9859821-.2688083h.4696164v1.5472355c.4674916-1.1217987.9456079-1.598034 1.7233438-1.672115zm-17.7859273-1.4287058c-1.1241046 0-1.708469 1.1006326-1.708469 3.2193504 0 2.0213542.65661309 3.2172339 1.75309319 3.2172339 1.12622957 0 1.71059396-1.1006327 1.71059396-3.2172339 0-2.0234707-.65873804-3.2193504-1.75521815-3.2193504zm6.34725983 2.0954352c-.38249306 0-.66936285.1566285-.97748226.5376167v2.4594906c0 .8360575.41436748 1.3440418 1.00935668 1.3440418.81811015 0 1.28560165-.8805061 1.28560165-2.2774629 0-1.3122928-.4781163-2.0636862-1.31747607-2.0636862zm18.48503957 1.8541426-.4356171.1037135c-.9264832.2137767-1.3281009.6243974-1.3281009 1.2932433 0 .5926484.2953697.9207216.8181102.9207216.5206155 0 .9456078-.5820654.9456078-1.2911268zm-12.9367652-2.2457138c-.6374885 0-1.1262296.7619764-1.1878535 1.852026h2.0697125c.0060713-.0604743.0086733-.1271688.0097884-.2269391l.0008364-.2916282c0-.8466405-.3293691-1.3334587-.8924838-1.3334587zm-12.02090692-12.1090756v.2349428l-.61623882.1883775c-.31024437.095247-.38249306.2222431-.38249306.6349803v3.1452694c0 1.598034.53124036 2.436208 1.5703465 2.436208 1.05185592 0 1.75734312-.827591 1.75734312-2.3494273v-3.2320501c0-.4127372-.07649861-.5397333-.38461802-.6349803l-.61623882-.1883775v-.2349428h2.43308085v.2349428l-.57161463.1799111c-.25499537.0825474-.32086918.2095435-.32086918.5926483v3.0584888c0 1.9070577-.90098365 2.9124432-2.39270658 2.9124432-1.67871954 0-2.590328-1.0180852-2.590328-3.0394393v-2.9314927c0-.3831048-.06374884-.5101009-.32086918-.5926483l-.55036501-.1799111v-.2349428zm44.21619772.6032314v1.1979963h1.4470987v.3788716h-1.4470987v3.253216c0 .6773124.2996195.9418876.9158583.9418876.2868698 0 .4568668-.052915.6778627-.1820277v.1926107c-.2847448.3492392-.7309867.5799487-1.1984782.5799487-.9052336 0-1.3812249-.4847017-1.3812249-1.4287058v-3.3569295h-.607739v-.2328261l.3081194-.1164131c.276245-.1037135.3421188-.1777945.4037427-.5270337l.1381225-.700595zm-4.68554 1.0075022c1.264352 0 1.8912157.6243973 1.8912157 1.862609v2.5526211c0 .2645751.0956232.4000376.3506186.4656523l.4356171.1142964v.1608617l-.0956233.031749c-.3399938.1058301-.5843644.1587451-.7862357.1587451-.4887411 0-.7968605-.3513558-.8308599-.9440041-.3059945.6159309-.7968606.9524705-1.381225.9524705-.879734 0-1.4343489-.4952847-1.4343489-1.3122927 0-.8551069.5971141-1.3122928 2.1802104-1.650949l.5737396-.126996v-.6667294c0-.8466405-.2974946-1.2382117-.990232-1.2382117-.5716147 0-1.0624808.4339032-1.381225 1.1852966h-.1359975v-1.1323816c.4143675-.2455257 1.0709806-.4127372 1.6043459-.4127372zm-19.124653 0c1.160229 0 1.8083422.7281108 1.8083422 2.0425201 0 .1375791-.0106248.3492392-.0212496.4127373h-3.0620695c0 1.4710378.5737396 2.3092119 1.6064709 2.3092119.5439901 0 .990232-.1481621 1.4045995-.4677689v.2645752c-.4696165.5291503-1.0327313.7937254-1.6702197.7937254-1.4980978 0-2.369332-.9926859-2.369332-2.7092495 0-1.5662849.9456078-2.6457515 2.3034582-2.6457515zm15.0957261-1.0075022v1.1979963h1.4470987v.3788716h-1.4470987v3.253216c0 .6773124.2996196.9418876.9158584.9418876.2847448 0 .4547417-.052915.6778627-.1820277v.1926107c-.2868698.3492392-.7331117.5799487-1.1984783.5799487-.9052336 0-1.3833499-.4847017-1.3833499-1.4287058v-3.3569295h-.607739v-.2328261l.3081195-.1164131c.2783699-.1037135.3421188-.1777945.4058676-.5270337l.1381225-.700595zm-6.8445008 1.0075022c.497241 0 .9774823.0719644 1.3706001.2116601v1.1958797h-.1274977l-.1168728-.2222432c-.3293691-.6159309-.6906125-.8889725-1.1921034-.8889725-.5099908 0-.8478596.3492392-.8478596.8762729 0 .5101009.2422456.7852591.8287349.9757532l.6162388.2010771c.7437366.2328261 1.1156048.7090614 1.1156048 1.3779074 0 .9842196-.7437365 1.6191999-1.9018405 1.6191999-.5546149 0-1.1814785-.1269961-1.5108476-.3069072v-1.2382117h.1274977l.0871234.1799111c.3484937.7302275.7416116 1.0688836 1.3174761 1.0688836.6268637 0 .9987319-.3386561.9987319-.9334211 0-.4529526-.2337458-.7281108-.7543613-.8974389l-.4993659-.1608617c-.9137335-.2984408-1.3089763-.7725594-1.3089763-1.5662849 0-.8678065.7437365-1.4922038 1.7977174-1.4922038zm-13.5848785.1904941v.2222431l-.4356171.1375791c-.1912465.063498-.2549954.1375791-.2549954.2539921 0 .1269961.0531241.2539922.1041231.3809882l1.1814786 2.9103267 1.0093567-2.9103267c.053124-.158745.0871234-.3492392.0871234-.4339032 0-.1375791-.0977482-.2222431-.27837-.2645752l-.3081194-.074081v-.2222431h1.5830963v.2222431c-.2549954.2116601-.4143675.4423697-.5312403.7196444l-1.6893444 4.118906h-.4037427l-1.872091-4.3834811c-.0849985-.2031938-.1806217-.3174902-.3718683-.4762353v-.2010771zm-7.5584879-.1904941c.9562327 0 1.436474.6349803 1.436474 1.83086v2.6140025c0 .2455257.0616239.3492392.2868698.4148538l.5206155.1587451v.2116602h-2.5414539v-.2116602l.4568667-.137579c.225246-.0656147.2868698-.1693281.2868698-.4148539v-2.467957c0-.8995555-.2231209-1.2572611-.8499845-1.2572611-.47811636 0-.92435826.2666917-1.29622652.7810258v2.9441923c0 .2539922.07224869.3492392.2868698.4148539l.45686671.137579v.2116602h-2.50957947v-.2116602l.4908661-.1587451c.22099599-.074081.28474483-.1693281.28474483-.4148538v-3.0711884c0-.3047905-.04037427-.4106206-.23374576-.5693657l-.26349522-.2349427v-.1566285l.98810707-.2666918h.46749152v1.1133323c.50999075-.8381741 1.11560476-1.2593777 1.73184354-1.2593777zm4.3476711.1460454v4.2988171c0 .2455257.0637489.3492392.2889948.4148538l.5609898.1587451v.2116602h-2.6137025v-.2116602l.4866161-.1587451c.2252459-.074081.2889948-.1693281.2889948-.4148538v-3.0711884c0-.2942075-.0339994-.4000376-.2337458-.5693657l-.2656202-.2349427v-.1566285l.9859821-.2666918zm14.3732392-.1248794v.9926859c-.9158583.0550317-1.3514754.2878578-1.6914693.9228382v2.47854c0 .2539921.0743737.3598222.2847449.4106206l.7777359.1693281v.2349428h-2.8261988v-.2116602l.4887412-.1587451c.220996-.074081.2868698-.1693281.2868698-.4148538v-3.0711884c0-.3047905-.0446242-.4106206-.2337458-.5693657l-.2677451-.2349427v-.1566285l.990232-.2666918h.4674915v1.5472355c.4674915-1.1239152.9456079-1.5980339 1.7233437-1.6721149zm6.3855092.1248794v4.2988171c0 .2455257.0658738.3492392.2868698.4148538l.5652397.1587451v.2116602h-2.6158275v-.2116602l.4887411-.1587451c.223121-.074081.2868698-.1693281.2868698-.4148538v-3.0711884c0-.2942075-.0318744-.4000376-.2337458-.5693657l-.2656201-.2349427v-.1566285l.988107-.2666918zm7.8134832 2.393876-.4377421.1058301c-.9222332.2116601-1.3281009.6243973-1.3281009 1.2911267 0 .594765.2974946.9228381.8181102.9228381.5227405 0 .9477328-.5841819.9477328-1.2911267zm-20.0893855-2.2435973c-.6396134 0-1.1262295.7619765-1.1899784 1.8520261h2.0718374c.0070832-.0705534.0094443-.1505139.0102313-.2806456l.0003935-.2379217c0-.8466405-.327244-1.3334588-.8924838-1.3334588zm-9.0565856-2.4044589c.3527436 0 .6162388.2539921.6162388.6159309 0 .3598222-.2634952.6116978-.6162388.6116978-.3506187 0-.6183638-.2518756-.6183638-.6116978 0-.3619388.2677451-.6159309.6183638-.6159309zm20.7587483 0c.3506186 0 .6183638.2539921.6183638.6159309 0 .3598222-.2677452.6116978-.6183638.6116978-.3506187 0-.6162388-.2518756-.6162388-.6116978 0-.3619388.2656201-.6159309.6162388-.6159309z" fill="#000078"/><path d="m.01062481 90h61.98937519v-2.9039769h-61.98937519z" fill="#74edff"/></g></svg>