<svg height="31" viewBox="0 0 182 31" width="182" xmlns="http://www.w3.org/2000/svg"><g fill="none" fill-rule="evenodd"><g fill="#29662c"><path d="m15.0582314 10.1880943h-3.2680385c-.3060443 0-.5650048.2563042-.5650048.5617335v12.6678379c0 2.5523632-1.0936265 3.7420422-3.42641105 3.7420422-2.33278458 0-3.4264111-1.189679-3.4264111-3.7420422v-12.6678379c0-.3054293-.25896049-.5617335-.56500471-.5617335h-3.27017874c-.26966133 0-.5371825.2776629-.5371825.5617335v13.464517c0 2.0782003.69341486 3.7975747 2.00747883 4.965895 1.35686736 1.2089017 3.30870179 1.8197602 5.79129822 1.8197602 2.48045625 0 4.43443085-.6108585 5.79129825-1.8197602 1.3119238-1.1683203 2.0053386-2.8876947 2.0053386-4.965895v-13.464517c0-.2840706-.265381-.5617335-.5371825-.5617335"/><path d="m57.8851599 10.1880943h-4.1990122c-.1712136 0-.404492.1025217-.5222013.2456249l-5.1299859 6.104313c-.0406632.0405816-.0941675.0640761-.1540922.0640761h-.0406632c-.0599248 0-.1155692-.0234945-.1540922-.0640761l-5.1321261-6.104313c-.1155691-.1431032-.3488476-.2456249-.5222013-.2456249h-4.1990122c-.2696614 0-.5371825.2776629-.5371825.5617335v19.0861237c0 .2840705.2675211.5638694.5371825.5638694h3.2701787c.3060442 0 .5650047-.2584402.5650047-.5638694v-13.5563594l5.8405221 6.8006063c.0149812.017087.0278222.0320381.0428034.0448533l.0021402.0021358c.0791863.0704837.1883349.115337.3060442.115337.1198495 0 .226858-.0448533.3060442-.115337l.0021402-.0021358c.0171213-.0128152.0299624-.0277663.0449435-.0448533l5.8405222-6.8006063v13.5563594c0 .3054292.2589604.5638694.5650047.5638694h3.2680385c.2718015 0 .5371825-.2797989.5371825-.5638694v-19.0861237c0-.2840706-.265381-.5617335-.5371825-.5617335"/><path d="m35.591016 30.4425382h-9.7078081v-.7625051h4.2482361l-.7511994-2.3345046-1.2841016-3.8894172h-6.167968l-1.3718486 3.8936889-.7426387 2.3302329h2.7757996v.7625051h-6.4012465v-.7625051h2.5189793l.922413-2.4455698 6.0716604-17.1574342h.2503998l.0256821.0704836 5.9582314 17.0335539.9266933 2.4989665h2.7287159zm-13.39746-7.8642689h5.6350658l-2.7865004-8.3256167z"/></g><g fill="#007eb9"><path d="m30.5337959 0-1.7463782 10.1411051 8.5071731-3.58185197v-6.55925313z"/><path d="m70.5228598 10.0343117v.2584401h-1.0679445l-.012841.9162877v4.1158193c.012841 1.0657985.0321026 2.0803362 2.0417216 2.0803362 2.0288805 0 2.1594308-.8842497 2.1915334-1.8432548v-4.3529007l-.0107009-.9162877h-1.0914863v-.2584401h2.3862888v.2584401h-.9395344l-.0107008.9162877v3.9214552c-.0107009 1.4118093-.0214017 2.6185752-2.818603 2.6185752-.3980715 0-1.3483067-.0427174-1.9518345-.2904782-.960936-.4100868-.9844779-1.2494833-.9951787-2.2853796v-3.9641726l-.0107009-.9162877h-.9266933v-.2584401z"/><path d="m80.8662982 17.3817004h.8410866v.260576h-2.7843603v-.260576h.8517874l.0107008-.8500758v-1.9607275c-.0107008-1.0999725-.0107008-1.4224887-.2803622-1.6809288-.1733537-.162326-.4002116-.1730054-.4965193-.1730054-.3895108 0-.6805738.1943641-.8860301.3865923-.5714252.5724128-.5928269 1.3370539-.6142286 2.0162602v1.4118092l.0107009.8500758h.8838899v.260576h-2.8935089v-.260576h.9502352l.0107008-.8500758v-2.8983739l-.0107008-.9376465h-.9502352v-.2584401h1.0251411c.4751176 0 .6377704-.0106793 1.0272813-.0427174l-.0107009 1.0124019c.2803622-.4207662.6912747-1.0551192 1.8555268-1.0551192 1.4595955 0 1.4595955 1.1191952 1.4595955 1.7129668 0 .2584401 0 .5275596-.0107008.7859997v1.6809287z"/><path d="m83.2183443 12.4371641c.4323142-.0106793.5842662-.0106793 1.0037394-.0427174l-.0085607 1.1298746v2.9432273l.0085607.9141518h.8646284v.260576h-2.8721072v-.260576h.9288335l.0107008-.9141518v-2.9432273l-.0107008-.8287171h-.9288335v-.2584401zm-.2054562-1.7022874c0-.3438749.2825023-.6364889.6377704-.6364889.3338664 0 .6270696.292614.6270696.6364889s-.2932032.6258095-.6270696.6258095c-.1733537 0-.3338664-.0662119-.4537159-.1836847-.1177093-.1196086-.1840545-.2819347-.1840545-.4421248z"/><path d="m91.1219897 12.4371641v.2584401h-.7875824l-.4216133.9803638-1.5773048 4.0624225h-.2803622l-1.6072672-4.0624225-.4002116-.9803638h-.7768815v-.2584401h3.0005174v.2584401h-.9716369l.2589605.7432824 1.0593838 2.7915805 1.0786454-2.8022599.2696613-.732603h-1.0037394v-.2584401z"/><path d="m96.1663688 16.1428965c-.3146049.7432824-.7661807 1.6061734-2.2899812 1.6061734-.4644168 0-1.1428504-.0533968-1.7592192-.668527-.6142286-.6236737-.7233772-1.4224886-.7233772-2.0568416 0-.2819347.0214017-.5275596.0749059-.7539617.1091486-.4955216.37881-1.0038584.7340781-1.3263746.4002116-.3865922 1.0165804-.6471682 1.6736124-.6471682.7019755 0 1.2648401.2797988 1.6415099.6578476.5842662.5937715.6377704 1.2601626.669873 1.7450048h-3.5954845c0 .6044509 0 1.2601626.2268579 1.8112168.3253058.8287171 1.035842.9162877 1.3611477.9162877.2803622 0 .5286219-.0768913.7233773-.1623261.6249294-.3225161.8624882-.9162877.9823377-1.2174452zm-1.2626999-1.7450048c-.0128411-.4100868-.0235419-.8287171-.1840546-1.1960865-.226858-.4955216-.6270696-.6023151-.9395343-.6023151-1.035842 0-1.1214488 1.1512333-1.1770932 1.7984016z"/><path d="m98.6168627 17.3817004h.9181326v.260576h-2.8828081v-.260576h.9074318l.0107008-.9141518v-2.8770153l-.0107008-.9056084h-.9074318v-.2477608h.9930386c.4216133-.0106793.5714252-.0106793.9930385-.0533967l-.0107008 1.2494833c.2696613-.570277.6270696-1.30288 1.4895575-1.30288.712677 0 .971637.5489183.971637 1.0124018 0 .3994075-.162653.7219237-.550023.7219237-.162653 0-.539323-.1196087-.539323-.5595977 0-.0768913.053504-.4100868.053504-.4869781 0-.3118368-.2161568-.3225162-.2803619-.3225162-.0770461 0-.1947554.0320381-.37881.2050435-.7340781.7219236-.7661806 1.8432547-.7875823 2.7574066v.8094943z"/><path d="m102.006891 15.6922282c.032102.472027.074906.9803638.50722 1.3883147.333866.3139727.680574.3673695.982338.3673695.776881 0 1.209195-.3887282 1.209195-.9269671 0-.6129944-.539322-.8201736-1.2627-1.0657985-.63777-.2157228-1.598706-.5510542-1.598706-1.6061734 0-.9376464.701976-1.5420973 1.737818-1.5420973.562864 0 1.059383.1730054 1.513099.3139727l.021402 1.3776354h-.314605c-.074906-.4293096-.246119-1.3904506-1.2627-1.3904506-.603528 0-.950235.3673695-.950235.7667769 0 .1943641.077046.3652336.194755.4848422.151952.1495109.237559.1836848 1.080786.4848423.841086.3118368 1.660771.6471682 1.660771 1.7236461 0 .9803638-.798283 1.6809288-2.02888 1.6809288-.669873 0-1.230598-.1730054-1.793462-.3438749v-1.7129668z"/><path d="m107.241745 12.4371641c.432314-.0106793.584266-.0106793 1.00588-.0427174l-.010701 1.1298746v2.9432273l.010701.9141518h.862488v.260576h-2.872107v-.260576h.928833l.010701-.9141518v-2.9432273l-.010701-.8287171h-.928833v-.2584401zm-.203316-1.7022874c0-.3438749.280362-.6364889.63563-.6364889.336007 0 .62707.292614.62707.6364889s-.291063.6258095-.62707.6258095c-.171213 0-.333866-.0662119-.453716-.1836847-.117709-.1196086-.181914-.2819347-.181914-.4421248z"/><path d="m113.525282 10.0343117c.453716 0 .605668-.0106793.973777-.04271738l-.010701 1.14268978v5.3119058l.010701.9355105h.862489v.260576h-1.943274v-.8308529c-.141251.2691194-.485819.9162877-1.489558.9162877-1.13429 0-2.063123-.9590051-2.063123-2.6826513 0-1.4758853.734078-2.7146892 2.127328-2.7146892.960936 0 1.219896.5168802 1.425353.9162877v-2.1123743l-.010701-.8415323h-1.059384v-.2584401zm-2.471895 4.8270635c0 .9910432 0 2.4776079 1.187794 2.4776079 1.177093 0 1.177093-1.6040375 1.177093-2.2405264 0-.4314455-.010701-1.270842-.237559-1.7663635-.194755-.3994075-.539323-.6471683-.982338-.6471683-1.14499.0106793-1.14499 1.5506408-1.14499 2.1764503z"/><path d="m121.127164 17.3817004v.260576h-.787583c-.141251 0-.25896 0-.38951-.0213587-.637771-.0768912-.744779-.4762987-.808984-.7219236-.205457.2904781-.594968.8500758-1.705715.8500758-.184055 0-.680574-.0106794-1.016581-.3438749-.160513-.162326-.398071-.5296955-.398071-1.2195811 0-.407951.085606-.7539617.355268-1.0316246.303904-.3032934.605668-.3673695 1.545202-.5617335.624929-.1281522.915993-.2370815 1.284102-.3673695v-.3865922c-.010701-.732603-.021402-1.2729779-.87533-1.2729779-.841086 0-.851787.5296955-.862488.862891-.010701.2264021-.021402.5510542-.517921.5510542-.226858 0-.530762 0-.530762-.4528042 0-.1409673.032103-.2712553.087747-.3994075.258961-.6364889 1.057244-.8073584 1.857667-.8073584.430174 0 .894591.0640761 1.228457.2242663.669873.3353314.669873.9376464.669873 1.4353038v2.3579992c-.010701.8073584.087747 1.0444398.594967 1.0444398zm-1.921872-2.8748794-.971637.2904782c-.560725.1708695-1.035842.3759129-1.035842 1.4438473 0 .3118368 0 1.1405539.734078 1.1405539.37667 0 .614228-.1922282.76618-.3438749.464417-.4634835.485819-1.0444398.507221-1.6061733z"/><path d="m125.563735 10.0343117c.453716 0 .605668-.0106793.971637-.04271738l-.010701 1.14268978v5.3119058l.010701.9355105h.864628v.260576h-1.943274v-.8308529c-.141251.2691194-.485818.9162877-1.489558.9162877-1.134289 0-2.063123-.9590051-2.063123-2.6826513 0-1.4758853.734078-2.7146892 2.127328-2.7146892.960937 0 1.219897.5168802 1.425353.9162877v-2.1123743l-.010701-.8415323h-1.059383v-.2584401zm-2.471896 4.8270635c0 .9910432 0 2.4776079 1.187794 2.4776079 1.177093 0 1.177093-1.6040375 1.177093-2.2405264 0-.4314455-.010701-1.270842-.237559-1.7663635-.194755-.3994075-.541462-.6471683-.982337-.6471683-1.144991.0106793-1.144991 1.5506408-1.144991 2.1764503z"/><path d="m134.137253 9.94887695h.214017l2.138029 6.47381835.336007.9590051h.971637v.260576h-3.445673v-.260576h1.112888l-.24826-.9034725-.464416-1.4865647h-1.964676l-.496519 1.4865647-.269661.9034725h1.121448v.260576h-2.40769v-.260576h.896731l.336006-.9355105zm-.325306 2.01412425-.915992 2.7275045h1.76992z"/><path d="m142.150047 12.4371641c.50722 0 .62707-.0106793 1.025141-.0427174l-.010701 1.1213312v2.9838087l.010701.8821138h.896731v.260576h-.907432c-.464416.0106794-.648471.0213587-1.035842.0427174l-.053504-.9590051c-.194755.2904782-.680574 1.0230812-1.846966 1.0230812-.517921 0-.971637-.1601902-1.209196-.4207662-.346707-.3438749-.346707-.8714345-.346707-1.1191953l.012841-1.3050158-.032103-2.2084884h-.811124v-.2584401h.843227c.496519-.0106793.667733-.0106793 1.057244-.0427174l-.010701 1.1213312v1.8197602c.010701 1.0337605.021401 1.5506408.312464 1.8411189.11771.1196087.336007.2178586.605668.2178586.301764 0 .646331-.130288.915993-.3994074.50936-.4955216.520061-1.0871573.530762-1.595494v-1.8838363l-.010701-.8201737h-.971637v-.2584401z"/><path d="m146.370461 11.0146755-.021402 1.4224886h1.155692v.3011575h-1.144991l-.021402 3.5882596c.010701.3673695.010701 1.0038584.594967 1.0038584.37667 0 .603528-.2712554.766181-.6364889l.226858.1067934c-.237559.4955216-.496519.894929-1.39325.894929-1.241298 0-1.241298-.7753203-1.241298-1.2922006l.032102-3.6651509h-.843227v-.3011575h.832526l.021402-1.4224886z"/><path d="m153.118415 15.0237013c0 1.6168526-1.067945 2.7146892-2.482597 2.7146892-1.371848 0-2.471895-1.0657985-2.471895-2.6826512 0-1.8432548 1.230597-2.7595425 2.514699-2.768086 1.403951-.0128152 2.439793 1.1085159 2.439793 2.736048m-3.734596.064076c0 1.4865647.192616 2.3708144 1.251999 2.3708144 1.230598 0 1.273401-1.0551192 1.273401-2.4242111 0-.6471683-.042803-1.0551192-.053504-1.1960865-.053504-.3994075-.151952-1.2943365-1.209196-1.2729779-1.123589.0234946-1.2627 1.0679345-1.2627 2.5224611m1.057244-3.1034174h-.312465l.550024-1.5613201c.109148-.292614.194755-.3780488.475117-.3887281h.485819c.141251 0 .336006.0213587.336006.2477608 0 .1409673-.119849.2691195-.250399.3994075z"/><path d="m159.241439 17.3817004h.841087v.260576h-2.786501v-.260576h.853928l.010701-.8500758v-1.9607275c-.010701-1.0999725-.010701-1.4224887-.280362-1.6809288-.173354-.162326-.400212-.1730054-.49652-.1730054-.38951 0-.680574.1943641-.88603.3865923-.571425.5724128-.592827 1.3370539-.614228 2.0162602v1.4118092l.0107.8500758h.88389v.260576h-2.891368v-.260576h.948095l.010701-.8500758v-2.8983739l-.010701-.9376465h-.948095v-.2584401h1.025141c.475117 0 .63563-.0106793 1.025141-.0427174l-.010701 1.0124019c.280362-.4207662.691275-1.0551192 1.855527-1.0551192 1.459595 0 1.459595 1.1191952 1.459595 1.7129668 0 .2584401 0 .5275596-.010701.7859997v1.6809287z"/><path d="m165.82674 15.0237013c0 1.6168526-1.070084 2.7146892-2.484736 2.7146892-1.369709 0-2.471896-1.0657985-2.471896-2.6826512 0-1.8432548 1.230598-2.7595425 2.516839-2.768086 1.401811-.0128152 2.439793 1.1085159 2.439793 2.736048m-3.736735.064076c0 1.4865647.194755 2.3708144 1.251999 2.3708144 1.232737 0 1.275541-1.0551192 1.275541-2.4242111 0-.6471683-.042804-1.0572551-.053505-1.1960865-.053504-.3994075-.151952-1.2943365-1.209195-1.2729779-1.123589.0234946-1.26484 1.0679345-1.26484 2.5224611"/><path d="m168.621802 13.3107345c.151952-.2392173.280362-.4421249.560724-.6471683.303904-.2050434.75762-.3673694 1.275541-.3673694.216157 0 .50722.0341739.76618.1516467.560725.2584401.669873.7005649.744779 1.0337605.216157-.3972716.648472-1.1619127 1.857667-1.1619127.291063 0 .734078.0320381 1.078646.3438749.421613.3887281.421613.9056084.421613 1.3242387l-.032103 2.4797437.010701.9141518h.88389v.260576h-2.816463v-.260576h.851788l.010701-.9141518c.010701-.6898857.021401-1.3797713.021401-2.0803363 0-.8821138 0-1.6488907-.798283-1.6488907-.421613 0-.712676.1836847-.918132.3780488-.539323.5275596-.560725 1.3562767-.582127 2.0696569v1.2815213l.010701.9141518h.862489v.260576h-2.795062v-.260576h.853928l.010701-.9141518v-2.0803363c0-.6129943-.010701-.862891-.066345-1.0871572-.042804-.130288-.160513-.5937715-.776882-.5937715-.387371 0-.723377.1516467-.939534.3652336-.475118.4848422-.496519 1.2943365-.517921 2.0824721v1.3135593l.010701.9141518h.830385v.260576h-2.848565v-.260576h.928833l.010701-.9141518v-2.7488632l-.010701-1.0230812h-.928833v-.2584401h1.046543c.485818 0 .594967-.0106793 1.003739-.0427174z"/><path d="m182 17.3817004v.260576h-.789722c-.141252 0-.258961 0-.387371-.0213587-.637771-.0768912-.746919-.4762987-.811124-.7219236-.203316.2904781-.592827.8500758-1.705715.8500758-.181915 0-.680574-.0106794-1.014441-.3438749-.162652-.162326-.400211-.5296955-.400211-1.2195811 0-.407951.087747-.7539617.357408-1.0316246.301764-.3032934.603528-.3673695 1.543062-.5617335.62707-.1281522.918133-.2370815 1.284102-.3673695v-.3865922c-.010701-.732603-.021402-1.2729779-.873189-1.2729779-.843227 0-.853928.5296955-.862489.862891-.012841.2264021-.023541.5510542-.520061.5510542-.226858 0-.528622 0-.528622-.4528042 0-.1409673.032103-.2712553.085607-.3994075.261101-.6364889 1.059384-.8073584 1.857667-.8073584.432314 0 .894591.0640761 1.230598.2242663.669873.3353314.669873.9376464.669873 1.4353038v2.3579992c-.010701.8073584.085606 1.0444398.592826 1.0444398zm-1.924012-2.8748794-.969497.2904782c-.562864.1708695-1.037982.3759129-1.037982 1.4438473 0 .3118368 0 1.1405539.734078 1.1405539.37881 0 .616369-.1922282.766181-.3438749.464416-.4634835.485818-1.0444398.50722-1.6061733z"/><path d="m71.2141345 22.6038997c.4537159 0 .6035278-.0106794.9694967-.0427174l-.0085606 1.1426898v5.3119058l.0085606.9376464h.8646284v.2584401h-1.9432737v-.830853c-.1412512.2712554-.4858184.9162878-1.4895579.9162878-1.1342897 0-2.060983-.9590051-2.060983-2.6826513 0-1.4758853.734078-2.7146892 2.1273283-2.7146892.9587958 0 1.2177563.5168802 1.4232126.9162877v-2.1123743l-.0107009-.8415323h-1.0572436v-.2584401zm-2.4718956 4.8291994c0 .9889072 0 2.4776078 1.1856539 2.4776078 1.1770931 0 1.1770931-1.6061733 1.1770931-2.2426623 0-.4293096-.0107009-1.2708419-.2375588-1.7663635-.1947554-.3994074-.5393227-.6471682-.9823377-.6471682-1.1428505.0106793-1.1428505 1.5527766-1.1428505 2.1785862z"/><path d="m78.5442145 28.7146204c-.3124647.7432823-.7661806 1.6061733-2.2899812 1.6061733-.4622766 0-1.1428504-.0555326-1.7592192-.6685269-.6142286-.6258096-.7233772-1.4224887-.7233772-2.0589776 0-.2797988.0214017-.5275596.0749059-.7539617.1091486-.4955215.37881-1.0017224.7362183-1.3242386.3980714-.3887281 1.0144402-.6471683 1.6714722-.6471683.7019755 0 1.2648401.2797988 1.6415099.6557118.5842662.5937715.6377704 1.2601626.669873 1.7471406h-3.5954845c0 .6023151 0 1.2601626.226858 1.8090809.3231655.830853 1.0358419.9162878 1.3611476.9162878.2803622 0 .5286219-.0747555.7233773-.1623261.6249294-.3225162.8624882-.9141518.9823377-1.2174452zm-1.2626999-1.7450049c-.0107009-.4100868-.0214017-.8308529-.1840546-1.1960865-.2268579-.4955216-.6270696-.6044509-.9395343-.6044509-1.035842 0-1.1235889 1.1533692-1.1770932 1.8005374z"/><path d="m89.0824083 22.6038997h2.3627469v.2584401h-.9930385l-.0107009.8415323v5.1495797l.0107009 1.0999725h.9930385v.2584401h-3.3793274v-.2584401h1.1663923l.0107009-1.0999725v-5.7647099l-2.9042098 7.2640898h-.1733537l-2.8485654-7.2640898-.0107008.6151302v5.1495797l.0107008 1.0999725h1.1770931v.2584401h-2.5061383v-.2584401h.9930386l.0107009-1.0999725v-5.1495797l-.0107009-.8415323h-.9930386v-.2584401h2.4290922l2.3113829 5.8949979z"/><path d="m97.3306209 29.9534243v.2584401h-.7875823c-.1433914 0-.2611007 0-.3895108-.0213587-.6377705-.0747554-.744779-.4741629-.8111242-.7219236-.2033161.2904781-.5928269.8522116-1.705715.8522116-.1840545 0-.6805738-.0128152-1.0144402-.3460107-.1626529-.1623261-.4002117-.5275596-.4002117-1.2174453 0-.4100868.0877469-.7560975.3574083-1.0337605.3017638-.3032933.6035277-.3673694 1.5430621-.5617335.6270696-.1281521.9181326-.2370814 1.2862417-.3652335v-.3887282c-.012841-.732603-.0214017-1.2708419-.8753292-1.2708419-.8432267 0-.8539276.5275596-.8624883.862891-.012841.2242662-.0235418.5489183-.5200611.5489183-.226858 0-.5286218 0-.5286218-.4528042 0-.1409673.0321025-.2691195.0856067-.3994075.2611007-.6364889 1.0593838-.8073584 1.857667-.8073584.4323142 0 .896731.0640761 1.2305974.2264021.669873.3331955.669873.9376464.669873 1.433168v2.360135c-.0107009.8073584.0856067 1.0444399.5928269 1.0444399zm-1.9218721-2.8770153-.9716369.2904781c-.5628645.1730054-1.0379821.3780488-1.0379821 1.4438474 0 .3118368 0 1.1426898.7362183 1.1426898.3766698 0 .6142286-.1943641.7640404-.3460108.4644168-.4613476.4879586-1.0444398.5093603-1.6061733z"/><path d="m101.767192 22.6038997c.453716 0 .603528-.0106794.971637-.0427174l-.010701 1.1426898v5.3119058l.010701.9376464h.862488v.2584401h-1.943274v-.830853c-.139111.2712554-.485818.9162878-1.489558.9162878-1.1321492 0-2.0609826-.9590051-2.0609826-2.6826513 0-1.4758853.734078-2.7146892 2.1273286-2.7146892.960936 0 1.219896.5168802 1.423212.9162877v-2.1123743l-.010701-.8415323h-1.057243v-.2584401zm-2.4718957 4.8291994c0 .9889072 0 2.4776078 1.1877937 2.4776078 1.174953 0 1.174953-1.6061733 1.174953-2.2426623 0-.4293096-.010701-1.2708419-.237559-1.7663635-.192615-.3994074-.539322-.6471682-.982337-.6471682-1.1428507.0106793-1.1428507 1.5527766-1.1428507 2.1785862z"/><path d="m105.976905 29.9534243h.918133v.2584401h-2.882808v-.2584401h.907431l.010701-.9162877v-2.8770153l-.010701-.9056084h-.907431v-.2477608h.993038c.421613-.0106793.573565-.0106793.993039-.0533967l-.010701 1.2516191c.269661-.5724128.627069-1.3050158 1.489558-1.3050158.712676 0 .973777.5489182.973777 1.0124018 0 .3994074-.162653.7219236-.552164.7219236-.162653 0-.539323-.1174727-.539323-.5595976 0-.0747554.053505-.4100868.053505-.4848422 0-.3118369-.216157-.3246521-.280363-.3246521-.074906 0-.194755.0320381-.37881.2050434-.731937.7219237-.76618 1.8432548-.787582 2.7595425v.8073585z"/><path d="m109.713641 25.0067521c.430174-.0106793.582126-.0106793 1.003739-.0427174l-.010701 1.1320105v2.9410914l.010701.9162877h.862488v.2584401h-2.869967v-.2584401h.926694l.012841-.9162877v-2.9410914l-.012841-.830853h-.926694v-.2584401zm-.205457-1.7022874c0-.3438749.280363-.636489.635631-.636489.336006 0 .627069.2926141.627069.636489 0 .3460107-.291063.6258095-.627069.6258095-.171214 0-.333867-.064076-.451576-.1836847-.11985-.1174728-.184055-.2797988-.184055-.4421248z"/><path d="m115.997178 22.6038997c.451576 0 .603528-.0106794.971637-.0427174l-.010701 1.1426898v5.3119058l.010701.9376464h.862488v.2584401h-1.943274v-.830853c-.141251.2712554-.485818.9162878-1.489558.9162878-1.134289 0-2.063123-.9590051-2.063123-2.6826513 0-1.4758853.734078-2.7146892 2.127328-2.7146892.960936 0 1.219897.5168802 1.425353.9162877v-2.1123743l-.010701-.8415323h-1.057243v-.2584401zm-2.474036 4.8291994c0 .9889072 0 2.4776078 1.187794 2.4776078 1.177093 0 1.177093-1.6061733 1.177093-2.2426623 0-.4293096-.010701-1.2708419-.237559-1.7663635-.194755-.3994074-.539322-.6471682-.982337-.6471682-1.144991.0106793-1.144991 1.5527766-1.144991 2.1785862z"/></g></g></svg>