<svg xmlns="http://www.w3.org/2000/svg" height="53" width="124" xmlns:v="https://vecta.io/nano"><style><![CDATA[.B{fill:#a09369}.C{fill:#1a1919}.D{fill:#00acdd}.E{fill:#dc3e33}]]></style><g fill-rule="evenodd"><path d="M57.226 52.99h-.565L56.684 0h.539zm13.251-35.843v-4.154h-.949v4.11c0 .836-.519 1.355-1.302 1.355s-1.294-.519-1.294-1.355v-4.11h-.949v4.154c0 1.294.967 2.164 2.243 2.164s2.252-.87 2.252-2.164zm6.607 2.111v-6.264h-.949v4.399l-2.895-4.399h-.87v6.264h.949V14.85l2.895 4.408zm1.989 0h.949v-6.264h-.949zm7.038-6.264h-1.003l-1.443 4.557-1.443-4.557h-.985l2.059 6.264h.739zm5.216 6.264v-.852h-3.053v-1.884h2.604v-.844h-2.604v-1.831h3.053v-.853h-4.002v6.264zm6.219 0l-1.441-2.772a1.64 1.64 0 0 0 1.248-1.663c0-1.065-.756-1.83-1.944-1.83h-2.428v6.264h.949v-2.64h1.188l1.32 2.64zm-1.142-4.426c0 .616-.431.977-1.065.977h-1.408v-1.963h1.408c.634 0 1.065.37 1.065.986zm6.606 2.64c0-.537-.167-.986-.51-1.285-.264-.238-.589-.379-1.17-.466l-.713-.105c-.29-.044-.546-.15-.704-.291-.167-.149-.238-.352-.238-.581 0-.555.405-.977 1.144-.977.528 0 .977.115 1.364.484l.607-.599c-.536-.501-1.117-.712-1.944-.712-1.302 0-2.093.747-2.093 1.838 0 .51.149.907.457 1.197.272.255.677.431 1.187.502l.739.106c.37.053.528.114.686.264.167.15.246.379.246.651 0 .607-.475.959-1.294.959-.642 0-1.144-.141-1.601-.599l-.633.625c.598.606 1.275.826 2.216.826 1.311 0 2.252-.685 2.252-1.838zm1.629 1.785h.949v-6.264h-.949zm7.389-3.176c0-.907.044-1.822-.633-2.499-.395-.396-.967-.589-1.619-.589h-2.199v6.264h2.199c.651 0 1.223-.193 1.619-.589.677-.677.633-1.681.633-2.588zm-.949 0c0 .863-.009 1.54-.334 1.901-.264.29-.616.423-1.065.423h-1.153v-4.559h1.153c.449 0 .801.132 1.065.422.325.361.334.951.334 1.813zm7.231 3.176l-2.296-6.264h-.765l-2.296 6.264h1.011l.431-1.258h2.472l.431 1.258zm-1.707-2.067h-1.927l.977-2.78zm7.398-1.109c0-.907.044-1.822-.632-2.499-.396-.396-.968-.589-1.619-.589h-2.199v6.264h2.199c.651 0 1.223-.193 1.619-.589.676-.677.632-1.681.632-2.588zm-.949 0c0 .863-.009 1.54-.334 1.901-.264.29-.616.423-1.065.423H120.5v-4.559h1.153c.449 0 .801.132 1.065.422.325.361.334.951.334 1.813zm-52.689 9.373c0-1.091-.782-1.9-2.005-1.9h-2.375v6.264h.949v-2.464h1.426c1.223 0 2.005-.809 2.005-1.9zm-.949 0c0 .66-.449 1.039-1.109 1.039h-1.373v-2.086h1.373c.66 0 1.109.387 1.109 1.048zm6.729 1.232c0-1.206.018-1.901-.598-2.517a2.26 2.26 0 0 0-1.654-.668 2.24 2.24 0 0 0-1.645.668c-.615.616-.606 1.311-.606 2.517s-.009 1.901.606 2.517a2.24 2.24 0 0 0 1.645.668 2.26 2.26 0 0 0 1.654-.668c.615-.616.598-1.311.598-2.517zm-.949 0c0 1.258-.061 1.611-.37 1.945-.22.238-.563.387-.933.387a1.28 1.28 0 0 1-.933-.387c-.308-.334-.37-.687-.37-1.945s.062-1.611.37-1.945a1.28 1.28 0 0 1 .933-.387c.37 0 .713.15.933.387.308.335.37.687.37 1.945zm6.676 3.132v-.852h-3.017v-5.412h-.949v6.264zm1.435 0h.949v-6.264h-.949zm6.782-5.412v-.853h-4.398v.853h1.724v5.412h.949v-5.412zm5.437 5.412v-.852H92.47v-1.884h2.604v-.844H92.47v-1.831h3.053v-.853h-4.002v6.264zm-.888-8.297h-.994l-.66 1.424h.678zm6.8 6.423h-.959c-.149.634-.581 1.074-1.276 1.074-.369 0-.704-.141-.924-.379-.308-.334-.378-.695-.378-1.954s.07-1.619.378-1.954c.22-.238.554-.379.924-.379.695 0 1.118.44 1.267 1.074h.968c-.22-1.25-1.082-1.926-2.235-1.926a2.27 2.27 0 0 0-1.645.668c-.615.616-.606 1.311-.606 2.517s-.009 1.901.606 2.517a2.27 2.27 0 0 0 1.645.668c1.135 0 2.024-.677 2.235-1.926zm6.334 1.874v-6.264h-.949v4.399l-2.895-4.399h-.87v6.264h.949V25.41l2.895 4.408zm1.989 0h.949v-6.264h-.949zm7.195-1.874h-.959c-.149.634-.581 1.074-1.276 1.074-.369 0-.704-.141-.924-.379-.308-.334-.379-.695-.379-1.954s.071-1.619.379-1.954c.22-.238.554-.379.924-.379.695 0 1.118.44 1.267 1.074h.968c-.22-1.25-1.082-1.926-2.235-1.926a2.27 2.27 0 0 0-1.645.668c-.615.616-.606 1.311-.606 2.517s-.009 1.901.606 2.517a2.27 2.27 0 0 0 1.645.668c1.135 0 2.024-.677 2.235-1.926zm6.141 1.874l-2.296-6.264h-.765l-2.296 6.264h1.012l.431-1.258h2.472l.431 1.258zm-1.707-2.067h-1.927l.976-2.78zm-50.955 9.48c0-.907.044-1.822-.632-2.499-.396-.395-.968-.589-1.619-.589h-2.199v6.264h2.199c.651 0 1.223-.193 1.619-.589.676-.677.632-1.681.632-2.587zm-.949 0c0 .863-.009 1.54-.334 1.901-.264.291-.616.423-1.065.423h-1.153v-4.559h1.153c.449 0 .801.132 1.065.423.325.361.334.951.334 1.813zm6.711 3.176v-.853h-3.052V37.67h2.604v-.844h-2.604v-1.832h3.052v-.852h-4.002v6.264zm9.642 0v-6.264h-.949l-1.795 3.898-1.831-3.898h-.949v6.264h.949v-4.188l1.478 3.053h.704l1.443-3.053v4.188zm6.59 0l-2.296-6.264h-.765l-2.296 6.264h1.011l.431-1.258h2.472l.431 1.258zM90.72 38.34h-1.927l.977-2.781zm7.398-1.109c0-.907.044-1.822-.633-2.499-.395-.395-.967-.589-1.619-.589h-2.199v6.264h2.199c.651 0 1.223-.193 1.619-.589.677-.677.633-1.681.633-2.587zm-.949 0c0 .863-.009 1.54-.334 1.901-.264.291-.616.423-1.065.423h-1.153v-4.559h1.153c.449 0 .801.132 1.065.423.325.361.334.951.334 1.813zm7.274 3.176l-1.442-2.772a1.64 1.64 0 0 0 1.248-1.663c0-1.065-.756-1.83-1.944-1.83h-2.428v6.264h.949v-2.64h1.188l1.32 2.64zm-1.143-4.426c0 .617-.431.977-1.065.977h-1.408v-1.963h1.408c.634 0 1.065.37 1.065.986zm2.692 4.426h.949v-6.264h-.949zm7.389-3.176c0-.907.044-1.822-.632-2.499-.396-.395-.968-.589-1.619-.589h-2.199v6.264h2.199c.651 0 1.223-.193 1.619-.589.676-.677.632-1.681.632-2.587zm-.949 0c0 .863-.009 1.54-.334 1.901-.264.291-.616.423-1.065.423h-1.153v-4.559h1.153c.449 0 .801.132 1.065.423.325.361.334.951.334 1.813z" fill="#666665"/><path d="M23.746.01c14.513 0 24.126 11.225 24.126 26.451 0 14.573-8.766 26.54-24.042 26.54C9.571 53 0 40.995 0 26.419S9.907.01 23.746.01" fill="#fffffe"/><path d="M15.166 11.994c.07-.207.233-.345.467-.338a.55.55 0 0 1 .381.148c.081-.233.307-.459.586-.421l.105.084c-.102.026-.189.295-.031.81a.71.71 0 0 1 .018.33c.003-.003.182-.309.267-.393s.168-.147.179-.252.011-.2.074-.221.189.042.274.168.074.2.189.305.368.179.568.253c-.168.179-.284.295-.242.442s.21.2.168.4-.21.116-.273.084-.105-.105-.2-.063-.168.221-.105.316.442.042.526 0 .348-.095.284-.4c-.105-.074-.116-.295-.031-.452s.39-.221.505-.168.231-.021.137-.116-.326-.189-.39-.221l-.168-.074s.032-.231.168-.473.231-.221.21-.442a.42.42 0 0 1 .358-.431c-.073.157.063.305.264.42-.211-.641-.285-.725-.726-.715.032-.337.463-.505.747-.358.084-.337.316-.557.316-.557s.369.126.432.326c.263-.189.779-.115.863.147-.179-.042-.442.105-.432.62.021-.042.263-.168.232-.368.231.105.294.042.368.526.137-.031.568.211.579.358.084.053.231-.189.337-.284s.294-.179.294-.179-.063-.536.242-.631c.126.158.221.326.305.347.011-.389-.105-.694-.4-.715.011-.263.147-.326.306-.326s.442.095.442.095-.032-.252.326-.473c.232.168.348.347.358.452.126-.095.758-.126.863.032-.21.042-.337.357-.389.484s-.053.336 0 .326.2-.116.284-.211c.169.084.369.242.327.589.189-.021.41.589.41.589s-.231.431-.326.494c.032.379.116.431.168.41s.137-.158.084-.221c.095-.032.221-.053.284.021s.032.168.158.147.221-.221.126-.357-.39-.442-.316-.589.347-.326.526-.358c-.095-.221.221-.536.411-.557-.011.074.053.347.252.547.053-.347.042-.41-.031-.536s-.105-.2-.011-.263.221-.126.358-.105.284.2.284.2.432-.231.59-.452c.105.326.126.568.2.673s.526.116.621.284c-.074.095-.526.473-.558.547s-.011.095.063.116.379-.126.474-.274c.053.253 0 .494-.042.557s.221.526.158.715c-.095 0-.2-.011-.189.052s.21.084.316.274.189.4.126.536-.168.105-.168.105-.011.284.231.347.547.032.547.032.053-.274-.095-.316-.358 0-.358 0 .011-.431.263-.515c-.2-.158-.305-.641-.305-.641s.274-.316.8-.211c.011-.158.253-.421.253-.421s.105.211.168.274.264.231.285.315c.105-.147.326-.494.147-.725.295.021.442.011.589.347.505-.147.768-.221 1.042.378-.294.032-.453-.063-.642.347s-.484.526-.484.526.084.368-.137.536-.474.178-.61.315-.19.221-.242.515-.053.589-.274.683c.126.242.147.389.158.536s-.306.221-.348.284-.042.105.021.231c.049.099.118.544.131.789h2.101a.42.42 0 0 1 .421.421v17.287.21l-.002.113c-.137 1.763-1.464 2.474-3.009 2.474l-3.621.021c-.912 0-1.852 1.02-2.168 1.609-.779-1.098-1.291-1.561-2.59-1.619l-3.484-.01c-1.299 0-2.721-.932-2.844-2.502-.006-.027-.009-.056-.009-.085v-.137-17.36a.42.42 0 0 1 .421-.421h1.908c-.014-.035-.024-.078-.024-.126 0-.137.042-.41.116-.515s.179-.21.179-.21-.179-.168-.242-.337-.011-.336 0-.42-.021-.179-.158-.305-.189-.336-.126-.452.158-.189.053-.284-.379-.41-.379-.41-.179.032-.336 0-.316-.284-.337-.463c-.008-.074.027-.165.073-.247-.445.049-.572-.831-.794-.995-.079-.058-.155-.057-.248-.055l.031-.141" class="C"/><path d="M23.746.01c14.513 0 24.126 11.225 24.126 26.451 0 14.573-8.766 26.54-24.042 26.54C9.571 53 0 40.995 0 26.419S9.907.01 23.746.01m.338 1.004c-13.577 0-23.031 11.561-23.031 25.614S10.106 51.99 24 51.99c13.722 0 22.669-11.526 22.669-25.583s-8.8-25.393-22.585-25.393m-.118 5.744c-10.319 0-16.935 9.019-16.935 19.828 0 11.156 6.574 19.768 16.884 19.768s17.178-8.462 17.178-19.642c0-10.967-6.534-19.955-17.127-19.955m.103-.97c10.442 0 18.035 8.769 18.035 20.798 0 11.777-7.235 20.63-18.1 20.63-11.373 0-18.109-9.113-18.109-20.504 0-12.239 7.426-20.925 18.175-20.925m4.613 4.923s-.21-.074-.326-.031-.095.262-.095.262.147-.031.21-.073.21-.158.21-.158m3.591 1.315s-.084-.137-.21-.137-.568.221-.568.221-.063-.242-.158-.305c.011.147-.221.305-.221.536s.105.4.327.536c.263-.126.263-.452.432-.652s.4-.2.4-.2m-1.844-.094s-.095.211-.126.368c-.158-.231-.61-.105-.695.053.095.316.316.421.474.389 0-.063-.116-.231-.126-.263.621.126.737.442.863.515a5.06 5.06 0 0 0-.116-.789c-.042-.136-.273-.273-.273-.273" class="B"/><g class="E"><path d="M25.82 16.45c-.031.052-.01.21-.01.326s.095.105.095.105.01-.147-.011-.221-.074-.21-.074-.21m-5.221.242s-.053.063-.063.126-.021.137.021.137.105-.063.105-.116-.021-.147-.063-.147m.263.021s-.032.052-.01.105.021.095.073.126.053-.105.042-.158-.042-.073-.105-.073m.369-.073c-.042.042-.042.063-.042.126s-.011.137.053.158.074-.074.074-.147-.084-.137-.084-.137"/><path d="M21.568 16.587c-.053.01-.084.063-.084.126s.011.147.063.189.095.042.116-.031 0-.168-.01-.221-.084-.063-.084-.063m.315-.231c-.042.01-.042.105-.042.179s-.053.231-.053.284.042.105.105.126.137-.031.137-.105-.042-.189-.042-.242-.031-.211-.031-.211zm.4-.053c-.042.01-.084.084-.084.137l.011.326c-.011.042.074.158.074.158s.126.052.158-.011a.86.86 0 0 0-.01-.368c-.021-.053-.147-.242-.147-.242"/><path d="M22.641 16.335a4.28 4.28 0 0 0-.053.4c0 .074.011.137.053.179s.137 0 .137 0 .032-.063.032-.126a1.63 1.63 0 0 0-.032-.252c-.01-.042-.084-.242-.084-.242zm.442-.074s-.063.063-.074.168l-.021.389a.21.21 0 0 0 .116.147c.042.011.137-.074.147-.116a.52.52 0 0 0-.021-.326c-.063-.116-.095-.242-.095-.242z"/><path d="M23.473 16.261c-.053.053-.084.158-.084.263a7.85 7.85 0 0 0 .021.379s.168.052.21.052.084-.22.084-.294-.052-.179-.074-.263-.158-.137-.158-.137m.475-.031c-.053.01-.105.052-.105.211l.011.431s.074.094.137.074.2-.084.158-.274-.095-.284-.116-.358-.084-.084-.084-.084m.388.01s-.084.295-.074.358.053.294.074.336.116.021.147-.021-.011-.295-.032-.368-.074-.295-.116-.305"/><path d="M24.726 16.324l-.063.105v.295a.55.55 0 0 0 .063.221s.084-.032.105-.084-.01-.347-.01-.347.021-.179-.095-.189m.347.115c-.105.021-.105.231-.105.315s.053.158.116.168.084-.189.084-.189zm.347-.011c-.052.021-.063.211-.063.284s-.021.211.063.221.105-.2.095-.326-.095-.179-.095-.179"/></g><path d="M18.315 16.366c-.021.053-.126.126-.168.158s-.053.137-.053.137.179-.084.337-.137 1.411-.305 2.537-.41l3.347-.189c1.273 0 2.737.189 2.895.189 0-.031-.116-.2-.042-.231s1.326.168 1.484.189.852.295.958.326.147 0 .2.095-.189.074-.273.021a.99.99 0 0 0-.337-.116c-.095-.01-.221-.105-.326-.084s0 .168.063.168.21-.021.327.031.158.053.263.084.137.105.147.168.063.147.137.084a.53.53 0 0 0 .158-.242.52.52 0 0 0-.2-.305 2.41 2.41 0 0 0-.442-.137c-.105-.011-.547-.116-.621-.126s-.632-.168-.842-.2l-.873-.116c-.053-.01-.937-.053-1.158-.084s-1.389-.063-2.147-.074-1.137-.063-2.526.126l-2.358.41c-.179.063-.526.115-.558.168s.074.095.074.095m-.529.065l-.084.011s-.126.126-.126.2-.011.242.084.252.074-.042.095-.084.168-.116.242-.158 0-.074-.063-.074-.126-.073-.147-.147" class="B"/><path d="M29.494 15.252s-.01.168.042.179.063.074.137.116.063-.074.063-.116-.021-.126-.063-.168-.179-.01-.179-.01" class="E"/><path d="M18.273 15.43c-.074 0-.126-.032-.21.031s-.168.242-.105.284.126-.105.179-.147.137-.168.137-.168m-.327-.294c.105.01.253.01.432.053s.358.084.358.158-.252.347-.442.431-.158.158-.063.158.453-.011.558-.063.273-.095.316-.263.126-.242.2-.252.168.063.179.158-.032.157.095.157.368-.063.368-.126-.158-.242-.158-.326v-.557c0-.063-.294 0-.369.01s-.147.021-.147.073.084.084.095.137-.021.295-.179.295-.242 0-.158-.095.137-.242.137-.242.084-.136.032-.136-.547.126-.747.168-.326.137-.442.168-.063.095-.063.095" class="B"/><path d="M20.042 14.873c0 .042.01.389.063.421s.116.063.316 0 .4-.042.516-.042-.084-.231-.2-.242-.253.074-.379.126-.179.021-.2-.042-.021-.263-.021-.263z" class="D"/><path d="M22.21 14.368c-.147 0-.095-.053-.326-.01s-.232.105-.211.231l.053.41c0 .063-.074.263-.01.316s.252.032.294.011.063-.189.116-.253.137-.179.137-.242-.221-.031-.221-.126.042-.105.105-.158.063-.179.063-.179m.316-.042c-.042.053-.021.41-.021.41s-.189.063-.147.126.095.073.105.126a7.25 7.25 0 0 1 .032.347l.4-.01c.137 0 .284.031.326-.042s-.084-.168-.126-.211-.4-.189-.432-.263a.27.27 0 0 1 0-.221c.032-.073.211-.168.221-.242s-.358-.021-.358-.021" class="B"/><path d="M23.757 14.284s-.768.168-.8.379c.179.168.832.515.927.526s.516-.242.726-.358.295-.126.231-.21-.347-.295-.516-.316c-.063.084 0 .116.074.179s.294.074.179.179-.2-.032-.336-.032-.137.053-.316.158-.232.147-.305.126-.369-.105-.358-.221.189-.178.263-.231l.231-.179" class="E"/><path d="M24.894 14.305l.358.273c.095.063-.021.147-.063.2s-.179.147-.337.21-.263.252-.263.252l.589.021c.273 0 .179-.168.263-.273a.28.28 0 0 1 .263-.126c.116 0 .074.178.053.263s-.021.2-.021.2.252.01.284-.095-.021-.379-.021-.557.074-.284.074-.284-.168-.074-.231.011-.021.147-.084.231-.137.116-.253.095 0-.158-.01-.379c-.116-.053-.6-.042-.6-.042" class="B"/><path d="M26.336 14.558s-.137.116-.168.189-.063.305.01.358.306.084.4.084l.274-.01s-.011-.2-.116-.231-.231.01-.305.021-.221-.052-.2-.136.105-.274.105-.274m1.137.346s-.053.231-.126.295-.032.084.021.073.168-.158.168-.221-.063-.147-.063-.147" class="D"/><g class="B"><path d="M27.789 14.589s-.031.116 0 .189a.3.3 0 0 1-.01.232 1.18 1.18 0 0 0-.074.2c-.021.074.01.147-.084.21s-.042.105.021.126.285.074.369.011.116-.21.179-.21l.285.01s.116-.189-.211-.21.074-.137.137-.189-.053-.147-.095-.147-.242.074-.242.074l-.032-.242c0-.053-.242-.053-.242-.053m-.065-.537c.01.052 0 .105.063.105s.053-.094.053-.094zm-10.252.526c-.105.021-.147.095-.158.158s.063.168.126.158.042-.168.042-.221-.011-.095-.011-.095m.327-.084c-.021.053 0 .179.053.211s.158.021.126-.053-.042-.2-.105-.2-.074.042-.074.042m.306-.063c0 .052-.01.042.021.105s.063.147.116.147.074-.231.032-.263-.168.011-.168.011m.357-.095s-.063.063-.011.116.053.084.126.105.074-.105.032-.168-.147-.053-.147-.053m.273-.053c-.053 0-.063.053-.021.074s.126.01.126.084.042.136.084.094a.25.25 0 0 0 0-.242c-.042-.053-.189-.01-.189-.01m.39.158c.044.009.119.003.116-.031.005.006.014.01.032.01.074 0 .558-.179 2.074-.326s3.726-.084 4.052-.063l1.495.084c.073.021.21.042.252-.021s.105-.011.095-.063-.179-.137-.21-.073-.032.157-.084.126.053-.179-.158-.189-1.337-.178-2.6-.168-3.221.158-3.979.274l-1.168.21c-.042.042-.052.053 0 .105s.032.116.084.126M27.41 14s-.074.074-.021.147.116.042.126 0 .084-.052.105-.094-.21-.053-.21-.053"/><path d="M17.094 13.853s-.032.063.021.084.263.232.831.2.863-.599.937-.589.379.231.779.242.81-.526.863-.526.379.263.842.294.821-.379.895-.379.2.253.652.263.853-.463.905-.463.337.337.737.442.673-.168.852-.326c.084.074.516.421.895.452s.737-.284.737-.284.4.431.726.526.716-.147.8-.158.168.053.232.126a1.05 1.05 0 0 0 .652.337c.379.053.642-.042.811-.105s.158-.189.084-.147-.484.158-.884.116-.568-.368-.6-.505-.074-.179-.147-.116-.495.274-.726.263-.558-.295-.642-.452-.158-.253-.253-.211-.294.358-.8.368-.59-.368-.642-.505-.084-.126-.137-.116-.063.095-.337.347-.737.105-.916-.021-.263-.316-.348-.505-.179.032-.284.242-.442.431-.716.442-.516-.211-.621-.326-.158-.137-.231.01-.358.463-.737.442-.484-.168-.6-.273-.168-.274-.242-.263-.126.063-.158.231-.316.557-.684.557-.505-.147-.852-.326a1.16 1.16 0 0 1-.674.62c-.326.116-.516.063-.695.021s-.305-.074-.326-.032m10.748-1.401s.026.179.11.263.116.211.048.242-.311-.031-.337.095.168.247.289.289.442.021.484-.095-.042-.316-.174-.484-.421-.31-.421-.31m-1.146-.142s-.121-.047-.247-.011-.363.153-.411.353-.031.305.116.368.463.1.521-.168c-.052.021-.315-.047-.289-.158s.074-.121.168-.194.142-.189.142-.189m1.937-.847s-.316.094-.468.105-.216.032-.226.131.132.2.247.237.453.157.521.226c.074-.11.047-.352-.142-.431.084-.089.068-.268.068-.268"/><path d="M27.631 11.608s-.132-.147-.247-.131-.252.105-.279.179-.079.279.121.384c-.016-.126.158-.31.231-.353s.174-.079.174-.079m-.621-1.388l.084.168a.87.87 0 0 1 .058.368c-.005.157.047.389.126.463s.173.073.311-.021.237-.421.226-.552.048-.426.048-.426-.226.037-.306.289c-.053-.084-.252-.284-.353-.316s-.195.026-.195.026m-.499.369s-.063.047-.074.105-.021.215.032.374c-.342-.063-.584.199-.579.321s.253.289.363.3.21-.063.21-.063-.289-.11-.305-.205.121-.063.284-.021.458.058.584-.042c-.384-.437-.516-.768-.516-.768m-1.983 1.461s-.047.116.021.158.1.037.1.116-.084.126-.274.21-.047.253.084.342.553.142.642-.105.011-.326-.158-.447l-.416-.274m-1.478-.063s-.2.126-.316.268-.205.331-.168.505.274.242.453.184.263-.074.384-.389a.61.61 0 0 1-.458-.089c-.089-.089.026-.205.105-.294s0-.184 0-.184m1.763-1.552l-.358.358a1.19 1.19 0 0 0-.29.342c-.047.1.074.142.237.158s.658-.042.795-.005c.021-.215-.163-.357-.337-.357.074-.237.074-.295.053-.379s-.1-.116-.1-.116m-.869.935s-.1-.116-.247-.079-.184.189-.2.252.058.126.089.095.089-.168.168-.189.189-.079.189-.079m.659-1.762s-.174-.032-.321.032-.168.194-.152.305.147.037.189-.011z"/><path d="M23.015 9.684a1.02 1.02 0 0 0 .047.189c.031.079.074.189.116.357s.068.447.221.599.316.158.316.158l-.032-.846c-.005-.295-.037-.521-.037-.521s-.121.126-.132.194-.047.268-.152.047-.348-.179-.348-.179m-.278.759s-.074.079-.079.168.031.215.152.436a.92.92 0 0 0-.526.063c-.068.037-.105.189.068.347s.342.142.511.1c-.042-.137-.189-.152-.263-.168s-.311-.089-.142-.137.747 0 .984-.016c-.09-.253-.258-.321-.384-.394s-.321-.4-.321-.4m-1.779 1.93s.047.011.126.042.147.095.179.152-.053.237-.242.31c.237.337.668.179.768.011s-.032-.236-.016-.358a.47.47 0 0 1 .226-.379c.189-.137.342.005.421.053.058-.578-.29-.773-.442-.773s-.247.273-.295.41-.026.573-.095.636-.205.053-.258.005-.189-.168-.273-.184-.1.074-.1.074m-1.536.301s.005.01.089.005.195-.1.195-.211c-.153-.026-.226.105-.226.105z"/><path d="M19.368 12.786s-.121.047-.153.126-.058.211.037.274a.54.54 0 0 0 .632-.058c-.237-.037-.516-.342-.516-.342m.868-1.078s-.195.016-.242.089-.11.252.021.358.084-.079.147-.194.074-.253.074-.253m.721-.888s-.005.184-.205.4-.205.257-.221.358a.5.5 0 0 0 .489-.032c.158-.105.416-.173.511-.147-.042-.147-.111-.237-.253-.247s-.231.016-.231.016.032-.1.032-.2-.121-.147-.121-.147m-.222-.737s-.348-.163-.437.221c.037.168.074.3.126.358a1.43 1.43 0 0 1 .221-.489c.042-.058.089-.089.089-.089"/><path d="M19.789 10.194s-.084.263-.063.368c-.263-.326-.463-.231-.568-.168.158.031.432.641.526.852a.42.42 0 0 0 .389.263c-.031-.82-.284-1.314-.284-1.314m0 1.597s-.263-.242-.39-.316-.316-.179-.368-.305c-.074.137-.011.442-.011.442s-.61.253-.168.557c0-.126.021-.326.284-.305s.421.021.495.01.158-.084.158-.084m-3.2 1.337s-.179-.01-.253.084-.052.442.242.484c.021-.073.063-.126-.01-.158s-.053-.21.031-.221-.01-.189-.01-.189"/><path d="M17.315 12.002s-.126.2-.231.284-.147.263-.158.41a.87.87 0 0 0 .021.263l.852-.452c-.084-.063-.327-.095-.348-.21s-.137-.295-.137-.295m-.909-.449c-.185.04-.284.416-.301.586-.053 0-.516-.652-.814-.123.245.05.28.17.372.334.096.17.333.777.601.675-.043-.517.209-.728.142-1.472"/></g><path d="M29.955 16.593l-.089-.014c.029.001.057-.003.083.011z" class="D"/><g class="C"><path d="M26.41 15.767l.137.021-.042.126s-.095 0-.158-.074 0-.063.063-.074m-.421-.052s.084.021.137.063-.01.147-.084.147-.105-.179-.053-.21m-.348-.01l.053.074s-.063.084-.126.052-.032-.063.074-.126m-.527-.032l.063.032-.01.126s-.095 0-.126-.042.011-.074.074-.116m-5.843.431s.095.084.074.126-.053.053-.126.011-.021-.084.053-.137m-.327.042s.105.063.105.116-.032.063-.095.042-.052-.084-.01-.158"/><path d="M18.557 16.24l.105.021c.042.011.021.168-.021.189s-.042 0-.105-.063.021-.147.021-.147m8.316-.421c.063-.01.063-.021.126.031s.095.126.01.137-.263-.042-.263-.042v-.147zm1.158-.63l.095.084s-.095.063-.126.011.031-.095.031-.095m-8.747-.905c-.014.049-.046.092-.053.105-.042-.053-.116-.084-.063-.105s.137-.074.116 0m.163 27.097c.079.016.269.037.279.152s-.089.11-.095.174a14.54 14.54 0 0 0 .016.831c.01.074.089.152.073.189s-.073.058-.163.042l-.258-.047c-.074-.021-.121-.116-.068-.142s.095-.037.1-.111.026-.857.01-.888-.052-.037-.074-.084-.01-.1.032-.105l.147-.01"/><path d="M20.015 41.544c.032-.01.253-.01.284.005s.121.163.147.215.226.384.247.405.074.016.121-.047l.263-.368c.021-.047.069-.068.116-.068s.294.047.305.079-.079.131-.084.179.021.915.026.952.058.095.037.131-.226.032-.295.032-.174-.063-.168-.1.063-.068.074-.105 0-.557 0-.594-.068-.032-.121.032-.258.484-.295.494-.079-.037-.11-.089l-.269-.478c-.021-.047-.053-.11-.079-.074s-.037.221-.037.295.016.236.016.279.063.116.037.137-.121.021-.179.016-.126.011-.126-.074.058-.1.063-.136.005-.736.011-.836-.016-.269.016-.279"/><path d="M22.347 41.955c-.047.005-.068.037-.058.1s-.037.279-.026.347-.021.11.158.105.184-.168.189-.263-.021-.189-.047-.232-.168-.063-.216-.058m-.411-.158l.337-.026c.09 0 .342.011.542.126s.211.326.195.489-.179.273-.326.3-.4-.016-.426 0-.005.189-.005.263.053.068.068.116-.1.089-.2.079-.221-.058-.269-.105.052-.084.068-.116.037-.694.037-.752-.021-.236-.042-.273a.07.07 0 0 1 .021-.1"/><path d="M23.147 41.865l.132-.005.495.01c.184-.005.468-.026.484.016a2.45 2.45 0 0 1 .021.342c0 .047-.042.074-.084.063s-.047-.069-.079-.126-.105-.121-.147-.121l-.327.005c-.095 0-.105.042-.116.126s0 .221.042.221.089.026.168-.021.105-.105.137-.142.074-.005.079.037-.011.447-.011.505-.042.068-.079.058-.074-.095-.084-.131-.032-.058-.063-.063-.116-.01-.147.005-.027.147-.021.205.016.147.058.168.21.031.269.031a.58.58 0 0 0 .184-.042c.037-.016.174-.168.21-.2s.084.021.079.068-.058.137-.084.215-.089.105-.184.11a25.39 25.39 0 0 1-.942-.021c-.053-.005-.1-.037-.111-.089s.158-.131.168-.168.016-.794-.005-.862-.11-.131-.042-.194m1.431.042c.042-.037.147-.042.242-.042a.71.71 0 0 1 .205.021c.058.016.263.326.327.4s.184.236.205.21.021-.363.011-.405-.121-.1-.1-.179.131-.089.2-.089.121.016.153.074-.032.047-.042.121-.037.92-.021 1.03-.131.084-.173.084-.074-.042-.158-.147l-.405-.499c-.058-.074-.132-.105-.148-.053s-.01.305-.01.389.016.147.068.199.047.131.016.152-.2.026-.252.011-.116-.032-.121-.079.073-.058.089-.084 0-.704.005-.794a.52.52 0 0 0-.031-.205c-.016-.047-.1-.079-.058-.116m1.919.069l-.005.147-.021.678c0 .042.053.163.252.052s.29-.358.253-.594-.158-.257-.221-.279-.21-.005-.258-.005m-.447-.089c0-.026-.005-.058.047-.073a2.75 2.75 0 0 1 .779-.011c.358.047.448.279.453.457s-.037.463-.089.542-.29.205-.447.241-.574.069-.674.047-.058-.084-.053-.126.026-.063.047-.1.011-.242.005-.379l-.016-.484c-.011-.037-.053-.089-.053-.116m1.927-.291c.111-.011.153.058.121.11s-.094.079-.094.116l-.011.746c.006.048.021.063.105.079s.074.142.037.152l-.484.121c-.11.021-.137-.011-.147-.058s.131-.158.131-.236l.005-.773c-.01-.047-.179-.074-.126-.147s.353-.1.463-.11"/></g><path d="M32.339 34.664V17.503c0-.093-.075-.168-.168-.168H15.624c-.093 0-.168.075-.168.168v17.203c0 .715.432 2.376 2.768 2.376l3.176-.021c1.126.051 1.689.438 2.424 1.377.404-.654 1.459-1.42 2.263-1.42h3.61c.926 0 2.642-.725 2.642-2.355" class="D"/><path d="M22.757 20.625c.116-.021.074-.232-.053-.337s-.284-.379-.284-.599-.021-.368-.147-.515-.189-.578-.189-.789-.01-.431-.095-.473c.137-.021.316.168.369.295s.074.431.179.578.369.452.39.62.2.494.337.641.126.211.21.263.116-.031.147-.305l.295-2.555.305 2.734c0 .084.032.137.095.147s.126-.084.179-.178.179-.179.252-.284.148-.294.169-.557a.83.83 0 0 1 .2-.515c.105-.137.189-.2.221-.484s.368-.494.368-.494-.147.2-.116.421a.99.99 0 0 1-.116.725c-.168.295-.084.631-.158.883s-.263.452-.348.62-.095.211-.01.232.221-.105.368-.211l2.274-1.693-2.021 2.25c-.116.115-.168.242-.074.284s.274-.042.389-.074.337.011.421-.021.432-.305.568-.337.168.042.39-.021.537-.41 1.105-.305c-.179.074-.379.147-.495.263s-.347.336-.495.368-.284.052-.411.126-.411.389-.642.389-.505.074-.516.211.126.168.284.2 2.842.294 2.842.294l-2.895.316c-.158.021-.211.063-.158.126s.158.084.295.189.221.168.4.189.474.147.59.242.379.295.589.379.579.147.726.578c-.21-.137-.4-.242-.695-.263s-.453-.095-.695-.221-.305-.147-.505-.158-.558-.179-.737-.284-.242-.105-.263-.042.032.147.095.231l1.968 2.503-2.421-2.092c-.063-.042-.147-.032-.158.073s.063.179.052.274.011.252.063.347.189.347.252.599.011.536.042.641.253.431.158.831c-.042-.179-.189-.358-.326-.526s-.189-.463-.252-.683-.179-.326-.284-.463-.231-.494-.274-.704-.231-.2-.252.053l-.39 3.018-.242-2.808c-.021-.284-.105-.305-.21-.158s-.105.263-.294.358-.253.21-.274.431-.21.431-.295.526-.484.82-.789.883c.063-.063.264-.179.242-.431s-.021-.389.116-.547.232-.126.242-.305.011-.505.179-.704.379-.526.242-.652-.284.084-.453.221l-2.116 1.819 1.842-2.513c.084-.158-.042-.305-.189-.242s-.2.052-.4.126-.411.284-.726.379-1.147.063-1.453.452c.095-.347.284-.599.495-.641s.39-.011.579-.095.39-.368.537-.452.41-.147.558-.2.305-.273.284-.347-.126-.084-.284-.095l-2.937-.179 3.19-.442c.126-.031.263-.168.021-.242s-.369-.052-.484-.084-.263-.316-.642-.368a1.5 1.5 0 0 1-.758-.295c-.189-.136-.527-.41-.684-.421.358-.052.537-.052.663 0s.305.242.495.274.368-.021.579.063.663.316.81.316.252.01.316-.032.084-.21-.084-.368-1.789-2.282-1.789-2.282l2.263 1.882c.179.147.221.242.337.221" class="C"/><path d="M21.999 22.412a1.8 1.8 0 0 0 1.8 1.798 1.8 1.8 0 0 0 1.8-1.798 1.8 1.8 0 0 0-1.8-1.798 1.8 1.8 0 0 0-1.8 1.798" class="B"/><g class="C"><path d="M22.557 22.433c.016.053.047.337.068.394s.053.173.053.226-.031.058-.031.058-.1-.053-.111-.116-.058-.194-.063-.236a.38.38 0 0 1 .016-.158c.021-.1.068-.168.068-.168m.874.952s.095.095.2.121.311-.016.484-.016.021.053.005.121-.005.137-.105.142-.342.053-.395 0a1.49 1.49 0 0 1-.153-.189c-.031-.047-.037-.179-.037-.179m-.394-.347s.063-.063.153-.079.189.058.289.115.563.042.742.021.184-.152.237-.173.137.053.169.089.015.116-.021.121-.189-.026-.252-.026-.142.121-.179.142a1.34 1.34 0 0 1-.411.047c-.126-.01-.252-.084-.294-.1a.66.66 0 0 0-.168-.047l-.258.005c-.021-.011-.016-.095-.005-.116m.472-.677s-.116.221-.058.263.194.016.237.047.016.105.147.1.137-.089.195-.1.132.005.153-.079.01-.163.01-.163.111.105.121.205-.058.152-.147.173-.11-.005-.168.031-.116.068-.179.074-.158-.063-.21-.079-.163.005-.247-.031-.105-.158-.068-.232.216-.21.216-.21m.661-.499s.2-.074.263-.074.29.011.337.026.116.074.147.1 0 .142-.058.163-.116.116-.184.11-.173.021-.205 0-.068-.063-.121-.074-.084.016-.137 0-.068-.094-.058-.131.016-.121.016-.121m-.1-.325l.353-.058a1.05 1.05 0 0 1 .426 0c.115.037.205.158.184.21s-.116.037-.152.021-.095-.058-.137-.058-.29.047-.348.042-.205-.016-.242-.032-.084-.126-.084-.126"/><path d="M23.42 21.576s.037.105.005.105-.132-.042-.189-.032-.047.084-.011.111.095.052.163.1.121.173.084.184-.252.131-.437.136-.279-.142-.363-.221c.037-.068.2-.173.269-.194s.184-.031.179-.063-.058-.084-.1-.084-.1.021-.221.052-.137.063-.179.063.037-.121.069-.158a.68.68 0 0 1 .432-.137c.206.01.242.105.3.137m1.699.743s.074.131.079.184a1.08 1.08 0 0 1-.042.279c-.016.027-.042.163-.1.158s-.005-.163-.005-.279a1.07 1.07 0 0 1 .068-.342"/></g><path d="M22.736 35.167s-.168-.021-.568-.031-1.389.01-2 .084l-1.211.2c-.105.021-.189-.084-.179-.158s-.076-3.912-.072-3.964-.01-1.049-.008-1.148.05-.478.085-.533.408-.513.408-.513.009-.122-.002-.235.048-.24.08-.271.171-.087.171-.087l.021-.252c.011-.084.032-.158.095-.168s.453.021.779.063 1.537-.105 2.084-.063 1.19.274 1.421.494c.105-.168.6-.368 1.031-.41s1.232.074 1.684.084 1.195-.042 1.295-.047.184-.032.21.152.042.094.168.22.084.168.126.253.147.126.294.253.253.168.253.294l-.063 2.335-.147 3.533c0 .336-.274.21-.611.147a19.07 19.07 0 0 0-2.253-.232c-.968-.042-1.305.042-1.579.168s-.589.253-.8.105a1.31 1.31 0 0 0-.716-.274" fill="#e4e4e3"/><g class="C"><path d="M18.895 31.931l-.011.239.074 2.639c0 .232-.011.295.084.305s.158-.032.4-.063.537-.052.61-.094 0-.063-.242-.105-.642.074-.726.021-.042-.536-.052-1.219l-.055-1.723.161.001-.001.292c-.01.599.063 1.798.084 2.061s-.032.41.137.442.4.042.369-.042-.189-.053-.316-.105-.084-.368-.095-.652l-.07-1.993.166-.002.051 2.353c.01.168.21.232.337.253s.431-.063.347-.105-.326-.073-.421-.105-.126-.158-.137-.326l-.066-2.07.238.001.028.797.042 1.377c.042.074.158.084.4.074s.948-.105 1.842-.063 1.158.21 1.379.252.231-.063.231-.137l-.002-2.301.261.001.014.797c.032.441-.042 1.546-.01 1.64s.295-.031.611-.137 1.084-.126 1.389-.126 1.242.179 1.389.2.231.042.326-.189.042-1.556.063-1.735c.005-.044.013-.214.02-.451l.175.001-.026 2.206c-.011.137-.105.315-.232.337s-.273.084-.273.084c.284.073.379.063.463.042s.147-.063.137-.662c-.005-.277.037-1.134.083-2.006h.145l-.049 2.153c.063 0 .147-.21.158-.473l.081-1.68h.427l-.14 3.32c0 .337-.273.211-.611.147a19.06 19.06 0 0 0-2.252-.232c-.969-.042-1.305.042-1.579.168s-.589.253-.8.105a1.31 1.31 0 0 0-.716-.274s-.168-.021-.568-.031-1.389.01-2 .084l-1.21.2c-.105.021-.189-.084-.179-.158.008-.055-.039-2.225-.06-3.331zm1.752 0c.008.003.016.006.026.008.029.005.053 0 .084 0 .024 0 .047-.003.068-.007h.395c.013.013.024.029.032.05l-.327.063c-.079.01-.123-.005-.2.01-.084.018-.134.032-.221.032-.076 0-.189.013-.189-.063 0-.026-.005-.063.021-.063s.044-.016.063-.03zm1.192 0l.002.029h-.147c-.02 0-.033-.012-.044-.029zm.678 0c-.032.018-.058.029-.097.029s-.063-.016-.105-.021c-.015-.001-.028-.004-.04-.008zm.725 0c.021.022.036.049.042.081-.163-.013-.267-.034-.401-.083zm1.3 0c-.031.029-.059.048-.101.071-.01-.018-.031-.029-.031-.052 0-.008.004-.014.008-.019zm.461 0c-.011.008-.023.013-.036.018l-.022-.018zm.802 0c.045.006.081.019.13.039-.021.029-.039.047-.063.074s-.042.073-.084.073c-.082 0-.153-.045-.168-.126.051-.026.063-.051.103-.06zm2.267 2.878c.158-.021.21.021.179-.21s-.116-.126-.126 0-.053.21-.053.21zm-.284.137v.126l.558.074c.094-.01.084-.084.063-.242s-.053.063-.116.074-.505-.032-.505-.032zm-2.179-.41c.095 0 .411-.032.537-.032s-.032-.158-.168-.147-.369.179-.369.179zm-1.673.315c-.053.011-.232.053-.211.095s.2.074.284.042-.073-.137-.073-.137zm-1.716-.273s-.168-.021-.263.01-.137.105.011.126.337-.011.337-.011zm-1.063-.126h.916c.285 0 .432-.073.232-.105s-.495-.052-.726-.042-.421.147-.421.147zm5.802-1.125h.247c.061 0 .087.034.14.063.044.024.073.042.105.084h-.229c-.052 0-.076-.029-.129-.032-.084-.005-.145.008-.21-.042-.011-.008-.003-.029-.011-.042.034-.013.05-.032.087-.032zm-.518.321h.273c.005.029.013.042.021.068-.063.021-.105.032-.174.032-.034 0-.066.008-.089-.011s-.019-.055-.031-.089zm-.411-.152c.039.039.06.066.084.116l-.011.042-.116.01v-.084zm.305-.084c-.055 0-.087-.018-.137-.042.024-.097.121-.137.221-.137a.31.31 0 0 1 .189.063c-.058.1-.158.116-.273.116zm-.937.284c.079-.045.152-.1.231-.147.055-.031.063-.086.105-.136.055-.066.121-.095.21-.095-.026.105-.095.137-.158.221s-.124.158-.234.158zm-.81.084c.131-.066.218-.074.358-.105.045-.011.071-.042.118-.042h.166l.01.042c-.105.042-.197.037-.263.126-.045.06-.092.105-.168.105-.097 0-.16-.05-.221-.126zm.537-.347c.121-.047.197-.021.327-.042a.35.35 0 0 1-.074.063c-.034.021-.042.063-.084.063-.063 0-.137-.032-.168-.084zm-.673-.021h.442c-.005.013.011.034 0 .042-.026.021-.053.024-.084.042-.074.042-.113.095-.2.095-.052 0-.084-.026-.126-.053-.013-.008-.034 0-.042-.011-.018-.023.016-.084.011-.115zm2.537-.429c.068.01.108-.003.176-.003.087 0 .155.026.202.095-.031.011-.05.021-.084.021-.084 0-.126-.063-.21-.063-.032 0-.053.008-.084.01zm-.306-.066c-.032.047-.079.126-.137.126-.113 0-.182 0-.284-.042.066-.089.15-.126.263-.126.063 0 .097.024.158.042zm-1.032.053h.221l.042.042c-.008.013.01.031 0 .042-.029.029-.066.018-.105.032-.047.016-.071.031-.116.052-.029-.045-.058-.071-.063-.126 0-.019.018-.026.021-.042zm1.716-.211c-.016.034-.034.074-.073.074-.055 0-.092-.034-.126-.074 0-.024-.021-.052 0-.063.074-.037.137.013.2.063zm-.61-.084c.087.013.145-.008.221.032.053.026.071.068.105.115-.018.011-.029.032-.052.032-.042 0-.055-.039-.095-.053-.079-.026-.126-.026-.2-.063zm-.589.021c.034 0 .053-.021.084-.031l.158-.063.052.084c-.116.068-.202.047-.337.063.016-.021.016-.053.042-.053zm.558-.305c.008-.039.011-.076.042-.095s.071-.008.116-.01c.066-.005.103-.018.168-.011.021.003.034-.021.053-.01s.013.034.021.052c.01.029.032.042.032.074s-.042.053-.079.053c-.139 0-.213-.034-.353-.053zm-.368-.116c.084 0 .102 0 .179.032-.047.052-.092.076-.158.094s-.097.063-.168.063c-.029 0-.047-.011-.074-.021.05-.095.118-.134.221-.168zm-.632.095c.042.011.116-.013.116.031 0 .037-.024.055-.042.084-.01.018-.042.018-.042.042 0 .052.047.068.084.105-.037.037-.076.042-.126.053s-.082.042-.137.042c-.021 0-.026-.021-.042-.032.045-.06.092-.087.116-.158-.05-.018-.079-.037-.126-.063.06-.06.113-.092.2-.105zm-.621.683l.258-.011v.145l-.155.003c-.037 0-.068.005-.092-.021s-.003-.084-.011-.115zm-.658.115c.042 0 .061-.029.1-.042.053-.019.089-.032.147-.032.063 0 .103.034.147.073.011.008.005.029.011.042a.42.42 0 0 1-.255.095h-.15c0-.053-.053-.137 0-.137zm.026-.294c.068-.011.102-.042.171-.042h.166a.64.64 0 0 1-.042.084l.053.021-.042.026h-.337zm.621-.725c.024-.076.076-.158.158-.158.042 0 .084.021.084.063s-.04.055-.074.074-.061.042-.105.042c-.026 0-.039-.013-.063-.021zm-.558.032c.082-.032.134-.053.224-.053.045 0 .068.005.113.01v.168c.082 0 .145-.034.21.01.029.018.032.055.053.084.042.055.074.089.084.158.008.047-.005.084.021.126.008.013.034.008.042.021.018.026.021.052.032.084a.34.34 0 0 1-.126.031c-.003.032-.003.053 0 .084-.024.008-.037.021-.063.021-.047 0-.06-.044-.084-.084-.029-.05-.058-.082-.105-.116-.081-.06-.134-.105-.168-.2-.029-.079.013-.147-.042-.211-.026-.031-.063-.016-.105-.021-.055-.008-.071-.063-.084-.115zm2.473 1.461h.082c.026 0 .04-.021.066-.021.084 0 .144.016.21.063.024.016.053.032.053.063 0 .055-.053.084-.105.094-.063.013-.103.011-.168.011s-.105.005-.158-.021c-.042-.021-.053-.066-.053-.116 0-.026.063-.05.073-.074zm-5.526.005c.097.008.187-.018.242.058-.053.026-.087.053-.147.053-.026 0-.034-.026-.053-.042-.013-.011-.034-.005-.042-.021s.005-.032 0-.047zm-.621-.184c.024-.008.037-.021.063-.021.095 0 .1.121.179.168.074.045.131.042.21.073-.039.066-.102.084-.179.084s-.116-.053-.158-.116c-.021-.034-.066-.037-.084-.074s-.024-.068-.032-.116zm-.168.337c-.05 0-.081-.016-.126-.031-.013-.003-.032.01-.042 0-.026-.026-.029-.058-.053-.084-.05-.052-.129-.034-.168-.094-.016-.024-.003-.053 0-.084.058-.029.1 0 .163 0a.33.33 0 0 0 .089-.01c.021-.005.029-.037.053-.037h.147c.008.06 0 .094.011.152.005.031.032.05.032.084 0 .058-.047.105-.105.105zm.126-.578c.024-.047.06-.084.116-.084s.089.029.147.031c.016-.031.016-.084.053-.084.06 0 .094.026.147.052-.042.079-.119.116-.211.116a.91.91 0 0 1-.252-.032zm.484.116c.095.024.134.105.158.2-.032.005-.05.01-.082.01-.071 0-.129-.055-.129-.126 0-.026.042-.06.052-.084zm.358.084c.032-.018.048-.052.084-.052.024 0 .039.008.063.01l.011.084-.021.042c-.05-.01-.084-.013-.126-.042-.011-.005-.003-.029-.011-.042zm.527-.073c.074 0 .129.024.179.073.024.024.053.04.053.074 0 .045-.061.047-.105.052v.084l.084.042c-.016.021-.021.039-.042.052-.013.008-.029-.008-.042 0s-.005.037-.021.042-.031 0-.053 0c-.092 0-.155-.024-.221-.084-.026-.024-.073-.034-.073-.073 0-.053.031-.076.042-.126.008-.039-.013-.084.021-.105.058-.037.108-.031.179-.031zm.495.405h.316l.021.068c-.016-.003-.024-.021-.042-.021-.058 0-.09.021-.147.021-.063 0-.097-.032-.147-.068zm.758-.184v.084c-.053.052-.095.095-.168.095-.053 0-.076-.04-.116-.074-.011-.008-.032-.003-.042-.011s-.003-.029-.011-.042c.003-.024-.011-.055.011-.063s.053 0 .084 0l.242.01zm-1.053-.526c.039-.013.039-.042.063-.042.079 0 .121.037.2.042l-.003.168h-.131c-.082 0-.116-.087-.129-.168zm.021-.231c.042-.029.066-.063.118-.063.019 0 .032.003.05 0v.126c-.068-.016-.11-.026-.168-.063zm-.442.01c.05 0 .097-.029.147-.021-.005.037 0 .068-.021.095s-.055.018-.084.031c-.018.008-.016.029-.032.042.024.039.05.06.095.073-.008.032-.01.061-.031.084-.008.01-.032.005-.042.01-.034.024-.032.084-.074.084-.084 0-.129-.024-.211-.042-.039-.008-.053-.052-.095-.052a.23.23 0 0 0-.095.021c-.016.005-.003.042-.021.042s-.024-.021-.042-.021l.009-.074a.26.26 0 0 0 .212-.083c.013-.013.034-.008.042-.021.026-.042-.018-.087.011-.126.008-.013.029-.013.042-.021.06-.04.116-.021.189-.021zm-.632.158c-.042 0-.063-.005-.105-.01-.037-.005-.076.008-.094-.021-.04-.058-.037-.105-.032-.176l.26-.003c.097 0 .155.016.245.052l-.032.042c-.074.005-.126.026-.179.074-.021.018-.034.042-.063.042zm-1.032-.053c.108-.052.179-.052.284-.094.05-.018.082-.053.137-.053s.081.034.126.063a.46.46 0 0 1 .074.052c-.089.05-.16.047-.263.074-.016.003-.026.021-.045.021h-.271zm2.653-.441c.066 0 .14-.032.2-.011.047.016.063.058.084.105.008.019.032.021.032.042 0 .029-.008.045-.01.074h-.092c-.055 0-.087-.026-.129-.063-.032-.026-.074-.024-.084-.063-.005-.029 0-.053 0-.084zm-.463-.053l.074.032-.011.042c-.032-.008-.055-.018-.084-.032zm-.8.032c.089-.005.132-.053.221-.053.05 0 .076.01.126.01.071 0 .139-.016.179.042.005.01.005.029.011.042a.89.89 0 0 1-.311.042c-.071 0-.116.016-.184 0-.019-.003-.026-.074-.042-.084zm-.821.052c.084 0 .139-.013.21-.052.018-.011.037-.019.053-.032s.01-.042.031-.042c.079 0 .105.068.168.116-.071.052-.11.087-.189.126-.032.016-.047.042-.084.042-.055 0-.082-.047-.126-.074-.026-.016-.074-.01-.074-.042 0-.016.008-.026.011-.042zm-.274.011c.032 0 .042.031.063.052.032.032.053.053.074.095-.087.005-.139-.026-.221 0-.053.016-.074.063-.129.063h-.124v-.071c0-.034.013-.061.042-.076s.055-.005.084-.011c.081-.018.126-.052.21-.052zm2.569-.211c-.092 0-.137-.05-.221-.084-.013-.005-.034.013-.042 0-.016-.026-.029-.052-.021-.084.013-.05.074-.034.126-.042.139.016.21.063.337.116-.037.068-.1.094-.179.094zm-.579-.179c.031 0 .102-.037.126-.021.034.024.008.063.01.105l-.053.01c-.013-.008-.037 0-.042-.01-.018-.029-.024-.053-.042-.084zm-.142.095c-.061-.013-.134-.031-.132-.095 0-.021.034-.018.053-.021l.079-.01c.008.024.026.037.026.063s-.016.039-.026.063zm-.732-.031c.029.003.047.008.074 0 .019-.005.024-.026.042-.032.081-.024.134-.011.221-.011.018 0 .026.019.042.021-.011.042-.034.058-.053.094s-.032.084-.074.084c-.082 0-.129-.024-.2-.063-.026-.013-.063-.021-.063-.053 0-.016.01-.026.01-.042zm-1.474.084l.387-.032c.037 0 .063.011.097 0s.042-.047.074-.063c.071-.037.129-.01.21-.01.103 0 .168-.005.263.031.042.016.084.037.084.084 0 .024-.029.032-.053.032-.055 0-.089-.011-.144-.011s-.079.018-.129.021c-.074.003-.118-.003-.189.011s-.108.042-.179.042c-.113 0-.173-.039-.284-.063-.053-.011-.087-.021-.137-.042zm2.663.631l.063-.063.305-.037v.15c0 .079-.029.126-.084.181l.074.137v.053h-.082c-.034 0-.058-.008-.087-.021-.018-.008-.013-.034-.031-.042-.029-.013-.055.003-.084-.011s-.042-.037-.063-.063c0 .145.042.223.042.368 0 .027-.013.04-.021.063-.05-.011-.081-.016-.126-.042-.029-.016-.063-.029-.063-.063 0-.068.042-.131.11-.136.003-.018.016-.024.016-.042.003-.042-.021-.063-.021-.105 0-.081.147-.066.147-.147s-.108-.079-.179-.126c.032-.016.058-.026.084-.053z"/><path d="M19.109 30.103c-.009.03-.015.07-.015.122l.043 1.706h-.161l-.029-.602-.052.601h-.177l-.011-.633c.004-.052-.01-1.049-.008-1.148 0-.012.001-.027.003-.046zm.256 0l.034 1.426.012.403h-.167l-.057-1.83zm.324 0l.072 1.829h-.238l-.055-1.83zm.872 0l.102.112c-.039.04-.063.079-.116.095s-.089 0-.147 0c-.105 0-.189 0-.263-.074l.032-.031c.074 0 .116-.013.189-.021.05-.005.084.002.126-.021.029-.017.042-.039.067-.058zm1.223 0c.075.011.135.036.216.07-.048.042-.095.047-.158.063-.071.019-.11.032-.184.032-.158 0-.3.021-.395-.105.057-.028.097-.049.147-.058zm1.498 0c-.006.015-.014.028-.03.028-.023 0-.038-.013-.052-.029zm.666 0l-.005 1.828h-.261l-.006-1.828zm1.074 0c-.07.033-.12-.004-.181.017-.042.013-.05.063-.095.063-.026 0-.05 0-.063-.021-.008-.013.008-.029 0-.042zm1.093 0v.051c0 .034-.034.047-.063.06-.05.026-.09.032-.147.032-.079 0-.118-.047-.179-.095l.076-.048zm1.884 0l-.073 1.584-.005.243-.175.001.041-1.83zm.305 0l-.073 1.636c-.003.025-.008.093-.014.192h-.145l.094-1.828zm.584 0l-.046 1.615-.008.213h-.427l.024-.76.005-1.07zm-8.488 1.828c.006-.006.013-.01.021-.013a.29.29 0 0 1 .126-.021c.043 0 .066.021.101.034zm.425 0c.078-.016.136-.055.227-.055.065 0 .127.013.168.054zm.826 0c-.012-.019-.02-.045-.03-.066.034-.01.05-.031.087-.031h.123l.009.097zm.624 0c-.035-.015-.058-.041-.086-.076l.261-.011c.045 0 .063.042.076.084zm.608 0l-.084-.034c.039-.034.082-.053.137-.053.104.008.238.022.306.088zm1.535 0c.006-.007.013-.014.013-.024h.042l-.053-.011c.058 0 .09.005.147.011l-.026.024zm.527 0l-.104-.087c.084-.026.134-.042.224-.042.016 0 .024.011.039.011-.021.053-.053.093-.101.12zm.778 0c.009-.002.02-.003.034-.003a.38.38 0 0 1 .049.003zm1.107-.339h.208c.037 0 .053.021.087.031.105.037.158.074.263.126-.008.013.002.037-.011.042-.058.029-.105.021-.174.021-.052 0-.084.008-.131-.011-.032-.013-.053-.039-.084-.052-.047-.019-.084-.005-.137-.011-.06-.008-.089-.024-.147-.042l-.01-.042c.031-.011.105-.05.137-.063zm-.442-.032c.042.003.116-.016.158-.01v.126c-.045.003-.068.011-.113.011-.053 0-.084-.029-.129-.053.024-.032.05-.055.084-.074zm-.548.053c.095-.011.147 0 .242 0-.003.052-.018.081-.042.126-.055-.018-.095-.003-.147-.021-.031-.01-.074-.018-.074-.053 0-.021.016-.034.021-.052zm-.484.105c.05-.016.079-.037.116-.074.013.008.032.003.042.011s-.003.037.01.042c.026.013.053.005.084.011-.011.047-.032.081-.074.105-.018.008-.021.031-.042.031-.071 0-.103-.066-.137-.126zm1.211-.421c.05.003.113-.037.158-.021.019.005.024.026.042.032.081.023.134-.011.221 0 .124.018.192.045.316.052a.8.8 0 0 1 0 .179c-.037.003-.055.011-.092.011-.145 0-.213-.084-.35-.126-.111-.034-.179-.052-.295-.052zm-.4.084c.005-.018-.013-.042 0-.052.026-.024.053-.029.084-.042.023-.011.036-.032.065-.032.034 0 .053.008.087.01-.003.053-.005.084 0 .137l-.079.01zm-.484-.01c.047 0 .074-.026.116-.042l.126-.042.021.042v.126h-.103c-.037 0-.052-.032-.087-.042-.029-.008-.042-.039-.074-.042zm-.295-.042c.053-.005.084-.011.137 0v.126h-.137a.4.4 0 0 1 0-.126zm-.474.252c.008-.031.013-.092.032-.115s.052-.021.084-.032c.04-.013.063-.031.105-.031.026 0 .034.023.053.042l-.011.042zm-.474-.294c.018.002.024.021.042.021s.024-.021.042-.021c.087-.008.144-.032.2-.095.058.031.089.073.105.137-.105.026-.163.084-.273.084-.018 0-.026-.018-.042-.021-.05-.008-.079-.018-.126-.042zm-.053-.263c.05-.029.087-.039.137-.063s.063-.063.115-.063c.061 0 .074.071.095.126-.058.029-.105.029-.168.042-.016.002-.026.021-.045.021h-.124zm2.084-.01c.063-.008.097-.032.16-.032.047 0 .076.008.124.011.005.018.013.034.021.053-.076.029-.118.073-.2.073-.058 0-.074-.06-.105-.105zm-.326.01c.071-.013.139-.039.179.021-.045.029-.073.052-.126.052-.026 0-.031-.058-.052-.074zm.347-.347c.087-.013.168-.037.253-.021.05.008.105.032.105.084 0 .032-.008.053-.011.084h-.073c-.111-.045-.179-.076-.274-.147zm-.337 0c.047 0 .066.042.105.063.034.019.058.024.095.042-.047.031-.082.05-.139.05h-.282c0-.105.116-.155.221-.155zm.948-.252c.087.005.221.029.221.116 0 .026-.032.037-.032.063 0 .05.037.076.073.105a.57.57 0 0 1-.052.084c-.011.016-.042.01-.042.032 0 .089.063.136.147.178-.029.061-.066.079-.116.121h-.463v-.068c.05-.024.076-.053.126-.074.061-.026.108-.024.168-.052-.018-.081-.074-.116-.137-.168.026-.026.05-.034.084-.042s.084.003.084-.031c0-.084-.068-.121-.126-.179v-.084zm-.345.105a.76.76 0 0 1-.255-.032c-.037-.01-.084-.005-.095-.042-.008-.029 0-.05 0-.081h.474v.155zm-.95-.105c.031-.016.089-.032.116-.053.01-.008-.005-.029 0-.042.113.024.187.031.284.095v.094c-.168.013-.263-.01-.432 0 .008-.034.018-.06.032-.094zm1.379-.316c.082 0 .139-.005.21.032.079.042.084.121.084.21-.092-.013-.155-.005-.232-.053-.05-.029-.105-.055-.105-.115 0-.032.011-.074.042-.074zm-.821.01l.369-.002.042.024c-.002.013.005.029 0 .042-.039.071-.113.073-.195.073-.097 0-.147-.068-.216-.137zm-.937.663c.031-.047.058-.095.116-.095.052 0 .081.031.126.052.013.005.029-.005.042 0 .021.008.026.026.042.042l-.011.052c-.055-.003-.089 0-.145 0-.071 0-.116-.01-.171-.052zm-.2.031l.063-.031.011.042-.032.042-.042-.01zm.158-.326c-.005.013-.01.066-.021.074-.026.018-.052.018-.084.031-.05.021-.082.053-.137.053-.026 0-.04-.013-.063-.021.047-.052.1-.071.168-.094.053-.018.082-.042.137-.042zm-.358-.232c.105-.052.171-.094.29-.094.06 0 .111.045.111.105 0 .042-.048.055-.084.073-.097.053-.16.105-.274.105-.037 0-.029-.053-.042-.084s.011-.073 0-.105zm-.621.147c.139-.079.229-.097.389-.136-.021.087-.095.118-.095.208 0 .05.008.079.011.128.052-.005.084-.008.137 0-.008.019 0 .037-.011.053s-.032.011-.042.021c-.029.029-.053.047-.084.074s-.04.074-.084.084c-.031.005-.055 0-.089 0s-.06.011-.089 0c-.047-.021-.055-.063-.063-.116.055-.005.111.005.137-.042.024-.039.026-.079.063-.105-.016-.01-.013-.039-.032-.042-.068-.016-.108 0-.179 0 0-.037.037-.089.032-.126zm-1.305 1.325c-.066 0-.092-.058-.158-.063-.032-.003-.053.003-.084 0-.039-.003-.063-.018-.095-.042-.018-.013-.052-.023-.042-.042.018-.029.053-.034.084-.052h.25c.05 0 .074.034.118.052a1.57 1.57 0 0 1 .21.105c-.058.008-.089.008-.147.01s-.081.031-.137.031zm-.8-.126l-.042-.031c.029-.029.052-.053.095-.053.055 0 .095.011.137.042l-.021.042zm-.253.032c-.042 0-.066-.013-.105-.021-.032-.005-.071.008-.084-.021-.008-.019-.032-.016-.042-.032s.034-.013.053-.021c.039-.016.071-.021.116-.021s.074.011.116.032c-.013.031-.016.084-.053.084zm-.979.042c.053-.047.068-.095.137-.105.04-.005.042-.063.084-.063.026 0 .032.032.053.042.071.034.129.018.21.031-.045.029-.076.042-.126.063-.042.018-.06.053-.108.053h-.208zm-.231-.168c.066 0 .116.058.116.124v.139h-.081c-.055 0-.082-.04-.129-.063s-.105-.032-.105-.084c0-.037.018-.076.053-.084.04-.01.066-.003.105-.01.016-.003.024-.021.042-.021zm-.642-.42h.05c.042 0 .074.003.108-.021.013-.008.005-.034.021-.042s.04-.01.063-.01c.092 0 .081.129.147.189.024.021.061.008.084.032.016.016.01.039.01.063 0 .037-.055.034-.084.053-.013.008-.013.026-.021.042-.021.037-.011.071-.011.115-.105-.06-.163-.107-.284-.126l-.011-.042c.026-.052.058-.074.084-.126-.068-.021-.129-.024-.168-.084-.005-.011.011-.026.011-.042zm.768-.095c.095-.013.147-.024.242 0v.063a.21.21 0 0 0-.158.053l.042.021h.218c.053 0 .097.01.129.052-.124.082-.205.137-.353.137-.082 0-.132-.031-.195-.084.058-.024.137-.021.137-.084 0-.053-.055-.066-.095-.095-.013-.008.042-.05.032-.063zm.442-.029c.076.008.121-.003.197-.003.058 0 .103.042.118.095.008.029-.005.055 0 .084.005.021.026.029.042.042.045.037.084.066.095.126h-.229c-.047 0-.053-.058-.076-.095-.011-.016-.032-.016-.042-.032a.88.88 0 0 1-.105-.218zm.632.134l-.084-.042.021-.042.137-.032h.084l-.011.116zm.989.095c.047-.034.069-.084.129-.084h.113c.008.11.016.173 0 .284-.045.003-.071.011-.116.011-.026 0-.034-.026-.053-.042-.053-.045-.079-.097-.074-.168zm-.61-.379c.018-.076.092-.105.168-.105.089 0 .155.016.21.084.008.01-.005.029 0 .042-.045.029-.074.053-.105.095l.011.042c.074.016.118.039.179.084-.039.039-.081.053-.105.105-.029.066-.003.116-.011.189h-.229c-.04 0-.061-.024-.097-.032-.045-.01-.105-.016-.105-.063 0-.087.132-.066.179-.137.026-.039-.003-.095.031-.126.042-.039.092-.032.137-.063l-.011-.042c-.097-.032-.158-.034-.252-.074zm-.526-.074c.05-.018.081-.094.137-.094.084 0 .137.013.21.052.013.005.003.029.011.042-.082.04-.103.116-.189.116-.079 0-.121-.053-.168-.116zm-.411-.021c.082 0 .181-.05.253-.01.021.01.042.026.042.052 0 .042-.011.095-.053.095s-.068-.031-.105-.053c-.053-.031-.087-.047-.137-.084zm-.526.042c.045-.018.087-.073.137-.073s.079.018.126.042c-.008.031-.013.06-.031.084-.027.032-.063.021-.105.021-.055 0-.087-.034-.126-.074zm1.81-.189c.066 0 .137-.029.2-.042.016-.003.024-.021.042-.021.108 0 .155.058.252.105-.01.013-.042.003-.042.021 0 .06.029.092.053.147.018.044.037.076.084.094l-.031.042c-.126.008-.2.021-.327 0 0-.05.011-.084-.01-.126-.005-.013-.037.003-.042-.01-.021-.045.018-.089-.011-.126-.021-.026-.055-.018-.084-.032s-.055-.034-.084-.052zm-.558-.042c.002-.032 0-.058.01-.084.018-.042.068-.042.116-.042.066 0 .118-.021.168.021.042.034.061.073.105.105l-.021.052c-.087.008-.134.021-.221.021-.029 0-.053.005-.074-.01-.011-.008.013-.037 0-.042-.029-.016-.053-.01-.084-.021zm-.684-.053c.024-.042.053-.058.095-.084.026-.016.042-.042.074-.042.061 0 .087.037.147.042.032.003.055-.01.084 0s.032.037.032.063c0 .087-.113.105-.2.105-.095 0-.163-.016-.231-.084zm-.463.105l-.074-.063c.026-.026.042-.047.074-.063.018-.008.021-.031.042-.031.053 0 .081.029.126.052-.042.042-.058.105-.118.105-.018 0-.031-.002-.05 0zm-.632-.136h.082c.018 0 .029-.019.045-.021.029-.005.058.002.084-.011.021-.011.026-.042.053-.042.066 0 .089.06.137.105.024.021.042.037.063.063-.079.039-.14.031-.211.084-.01.008-.002.029-.01.042.032.018.055.024.084.042.011.005.003.029.011.042-.011.013-.008.034-.021.042-.058.037-.103.042-.168.063-.087.029-.139.063-.231.063-.082 0-.132-.037-.189-.094.031-.016.05-.042.087-.042h.205c.037 0 .055-.026.087-.042.045-.023.095-.042.095-.094 0-.045-.055-.045-.095-.063-.047-.023-.066-.097-.105-.136zm2.4-.168c.05-.008.113-.026.158-.042.024-.008.026-.042.053-.042.055 0 .089.029.137.053.066.031.11.055.147.115-.032.016-.05.042-.087.042h-.25c-.058-.052-.089-.086-.158-.126zm-.327.053c-.029 0-.05.013-.074 0-.018-.008-.016-.032-.031-.042-.026-.018-.066-.021-.074-.053-.016-.063.074-.089.137-.105.05.003.081-.011.126.011s.063.068.095.115c-.011.013-.005.034-.021.042-.055.032-.095.032-.158.032zm-1.663-.131c.01-.013.005-.042.021-.047.087-.029.155-.005.231.047-.034.029-.058.058-.105.058-.061 0-.095-.029-.147-.058z"/><path d="M23.978 28.816l-.032.683c.003.049.003.282.002.604h-.272l-.003-.277c-.011-.305.021-.883-.084-1.051s-.474-.326-.726-.41-1.074-.094-1.537-.094l-1.558.031s-.052.032-.074.253 0 .778-.01 1.188l.005.361-.22.001-.037-1.245s-.063.063-.073.253a28.41 28.41 0 0 0 .007.991l-.176.002v-.057c.008-.04-.052-.044-.08.056h-.408c.011-.136.051-.437.082-.486.036-.055.408-.513.408-.513s.009-.123-.002-.235.048-.24.08-.271.171-.087.171-.087l.021-.253c.01-.084.032-.158.095-.168s.453.021.779.063 1.537-.105 2.084-.063 1.19.273 1.421.494c.105-.168.6-.368 1.031-.41s1.232.074 1.684.084 1.195-.042 1.295-.047.184-.031.21.152.042.095.168.221.084.168.126.253.147.126.294.253.253.168.253.294l-.017.72-.451-.001-.026-.919c-.042-.115-.074.253-.084.4l-.022.519h-.137l.012-.393v-.862c0-.053-.095-.158-.116.063l-.063 1.193-.213-.001.002-.54c-.01-.347.053-1.104.032-1.156s-.621.031-.895.031a39.6 39.6 0 0 1-1.137-.031l-1.147-.011zm-2.569 1.287c.017-.002.035-.004.055-.004h.237c.03 0 .057.002.081.005zm1.79 0l-.021-.025c.024-.029.039-.055.074-.074l.073.021c-.008.018-.024.024-.031.042-.005.01-.008.024-.012.036zm1.473 0c-.035-.056-.065-.094-.105-.151-.021-.029-.032-.058-.063-.073-.042-.021-.081-.003-.126-.021-.013-.005.008-.06 0-.074.055-.055.113-.063.189-.063.032 0 .055-.005.084 0 .039.011.037.055.063.084.037.042.063.071.116.095.103.047.2.042.253.147-.023.018-.037.042-.061.057zm1.128 0c.028-.015.058-.025.095-.025h.218v.025zm.801-.678a.25.25 0 0 0 .144.061c.097.012.085.11-.162.128s-.134-.037-.304-.049-.231-.036-.268-.079.523-.061.59-.061zm.661.39l.189-.021c-.018.05-.037.079-.063.126-.05-.018-.087-.029-.126-.063-.01-.008.005-.029 0-.042zm-.642-.021l.084-.021h.358l.021-.042.042-.011c-.005.071.003.144-.063.168-.045.016-.079.003-.126.011-.097.018-.142.084-.242.084-.029 0-.037-.032-.053-.053-.021-.029-.052-.047-.052-.084 0-.024.021-.034.032-.052zm-.442-.021c.016.016.039.073.063.073.045 0 .071-.021.116-.021.021 0 .034.016.053.021-.045.06-.071.1-.105.168-.047-.011-.081-.032-.105-.074-.021-.037-.053-.061-.053-.105 0-.026.021-.042.032-.063zm-.253.021c0 .05.019.118.016.168h-.087c-.042 0-.058-.029-.098-.042-.032-.011-.058-.016-.084-.032-.011-.005-.003-.029-.011-.042a.9.9 0 0 1 .263-.052zm-.265-.316c.044 0 .089.029.087.074s-.045.05-.084.063c-.058-.005-.095 0-.147-.021-.018-.005-.016-.029-.031-.042.052-.053.102-.074.176-.074zm-.682.126c0-.055.071-.063.126-.063.05 0 .081.013.126.032-.024.058-.063.105-.126.105-.055 0-.126-.018-.126-.074zm.348.284l.116-.021.021.042-.011.042c-.05-.018-.079-.037-.126-.063zm2.052-.673c.042.058.111.097.126.168-.06-.013-.095-.034-.158-.042-.074-.01-.121.003-.189-.021-.018-.005 0-.037-.011-.052.087-.032.14-.047.231-.053zm-.6-.021c.1 0 .169.018.242.084-.034.039-.071.074-.126.074-.103 0-.171-.013-.253-.074.045-.045.074-.084.137-.084zm-.442-.032c.011.024.063.068.063.095 0 .039-.034.074-.074.074-.021 0-.024-.026-.042-.032-.031-.011-.052-.013-.084-.021l-.011-.042c.034-.05.084-.074.147-.074zm-.831.063c.01-.01.005-.037.021-.042s.029.005.042 0c.105-.042.184-.031.3-.01-.005.05-.005.076 0 .126h-.087c-.029 0-.047-.011-.076-.011-.073-.003-.129.016-.189-.021-.013-.008-.002-.029-.01-.042zm-.587.042a.78.78 0 0 1 .25 0c-.005.034 0 .068-.021.094s-.058.032-.097.032c-.053 0-.081-.005-.134 0zm-.529.157c.063 0 .084-.073.147-.073s.092.05.137.094c-.066.066-.126.105-.221.105-.053 0-.076-.045-.095-.095zm2.895-.526c.05.024.102.066.147.095-.031.066-.053.147-.126.147-.045 0-.066-.026-.105-.042-.045-.018-.074-.037-.105-.074.071-.05.1-.113.189-.126zm-.747-.01c.089 0 .145-.013.231.01.055.016.084.045.137.063v.074h-.347l-.063-.084zm-.948-.063l.021.168-.105.01-.042-.021c.037-.073.066-.108.126-.158zm-.421.105c-.039.034-.063.115-.116.115-.029 0-.047-.016-.074-.021a.43.43 0 0 1 .189-.094zm-.726.231c.042-.055.089-.084.147-.126.037-.026.058-.063.105-.063.055 0 .116.029.116.084 0 .037-.039.05-.074.063-.06.024-.095.042-.16.042zm-2.075-.459c.15.002.223 0 .326.044.063.026.103.055.168.074.042.013.068.021.105.042.021.013.053.016.053.042 0 .037-.005.084-.042.084-.071 0-.11-.039-.179-.052-.105-.019-.166-.003-.274-.011-.176-.013-.35.005-.432-.147l.266-.074c-.048-.001.008-.002.008-.002zm.317 1.237c.034-.061.103-.087.168-.063.016.005.005.037.021.042.045.021.076.013.126.021-.01.034-.016.06-.042.084-.013.01-.011.042-.032.042-.053 0-.079-.032-.126-.052s-.076-.04-.116-.074zm-.273.031c-.082-.005-.134-.005-.211-.031-.047-.016-.094-.042-.094-.095 0-.024.039-.01.063-.01a.99.99 0 0 1 .126 0c.055.003.126.018.126.073 0 .024-.008.04-.01.063zm-1.221-.01a.2.2 0 0 1-.053-.042c-.018-.018-.074-.037-.053-.053.016-.01.042.016.053 0 .018-.029.047-.042.084-.042s.052.018.084.032c-.021.055-.058.089-.116.105zm-.579.01c.016-.066.071-.105.137-.105.058 0 .126.026.126.084 0 .045-.018.095-.063.095-.082 0-.126-.045-.2-.074zm-.4.084c-.061 0-.097-.055-.105-.116.089.016.142.01.232 0 .042-.005.042-.063.084-.063.053 0 .084.021.126.052.01.008-.005.029 0 .042-.084.021-.137.026-.221.042-.045.008-.068.042-.116.042zm3-.221c-.089 0-.134-.039-.221-.063-.04-.011-.074-.019-.095-.053s.031-.084.073-.084c.063 0 .09.055.147.073s.108-.024.168 0c.024.008.032.037.032.063 0 .047-.058.063-.105.063zm-.555-.084c-.105 0-.195-.01-.255-.094-.01-.016-.034-.013-.042-.032s.032-.024.042-.042c.008-.013-.008-.029 0-.042s.032-.003.042-.01c.079.018.126.034.2.063.039.016.084.031.084.076 0 .032-.008.05-.01.081zm-.476-.021c-.037 0-.058-.029-.084-.053-.013-.011-.042-.011-.042-.032 0-.031.021-.063.053-.063.071 0 .11.026.179.042-.01.032-.016.05-.021.084-.032.008-.05.021-.084.021zm-.611-.105c.058-.013.108-.063.168-.063.068 0 .11.021.168.053-.024.031-.029.066-.063.084-.039.024-.095.026-.095.074 0 .079.1.089.179.094l-.021.042c-.126-.01-.21.016-.327-.031-.016-.005-.01-.029-.021-.042l.126-.074c-.045-.053-.084-.074-.116-.137zm-.39.074c.003-.013-.003-.029 0-.042.018-.05.061-.084.116-.084.032 0 .055.003.084.01.024.008.053.016.053.042 0 .066-.071.095-.137.095-.045 0-.073-.013-.116-.021zm-1.063-.074h.197c.1 0 .161.013.256-.021l.347-.031c.003.023.011.039.011.063 0 .052-.068.058-.116.073s-.076.026-.126.032c-.1.01-.155.01-.255.01-.082 0-.129.013-.208 0-.047-.008-.079-.016-.126-.005zm3.052-.242c.05 0 .108.013.158.021-.008.045-.018.095-.063.095s-.066-.018-.105-.032l.011-.084zm-.579-.01c.008-.032.008-.061.032-.084s.06.029.095.042c.024.008.039.01.066.01.09 0 .139-.013.229 0v.095l-.021.042c-.05-.016-.076-.042-.126-.053s-.084.005-.137 0-.087-.034-.137-.052zm-.442-.053c.034-.045.058-.095.116-.095s.082.042.116.084c-.026.026-.037.063-.074.063-.066 0-.1-.026-.158-.053zm-.463.074c-.055-.021-.126-.034-.126-.095 0-.024.021-.031.042-.042.045-.021.076-.016.126-.021.026-.003.037-.021.063-.021.058 0 .092.039.126.084-.011.013-.005.034-.021.042-.073.042-.126.039-.21.053zm-1.179-.2c.019 0 .026.018.042.021.068.016.108.021.179.021.124 0 .195-.032.319-.032.103 0 .158.011.26.003v.134c-.1.05-.166.053-.274.074-.131.026-.202.074-.337.074-.066 0-.105-.032-.168-.042-.095-.016-.211-.039-.211-.137.074-.076.118-.115.189-.115zm1.2-.473c.019-.003.024-.021.042-.021s.034.016.053.021c.005.034.021.05.021.084 0 .021-.029.018-.042.032-.039.039-.081.024-.137.032-.026-.026-.05-.042-.063-.074s-.024-.061 0-.074c.042-.024.076 0 .126 0zm-.937.179c-.084 0-.129-.06-.179-.126.079-.047.108-.126.2-.126.16 0 .247.063.408.063.074 0 .118-.008.192 0-.021.063-.039.137-.108.137h-.195c-.126 0-.192.052-.319.052z"/></g><g class="B"><path d="M2.646 33.109c-.01.01-.024.018-.04.023-.058.015-.104.016-.141-.022zm2.603 0l-.889 1.432c-.165.241-.394.541-.305.533.14-.013 1.03-.267 1.208-.317s.547-.102.725-.241.178-.406.178-.508.114-.114.191-.114.14.356.204.597.203.533.191.609-.178.178-.292.038-.229-.19-.407-.19-.953.228-1.5.368-.89.241-.979.343-.051.266-.051.343c0 0-.127.267-.254.025s-.229-.711-.254-.825-.038-.19.013-.267l.763-1.104.465-.721zm36.884 0l.003.144c.031.557.21.852.347 1.083s.273.368.189.484-.315-.116-.474-.263l-.663-.61c-.042-.063.042-.158.137-.126s.179.052.242-.032c.042-.056-.019-.371-.049-.68zm3.32 0c-.038.248-.109.491-.212.691-.252.494-.305.473-.4.62s-.074.2.021.242.21.031.21.115-.084.105-.189.095-.55.023-.768-.01c-.137-.021-.295.052-.264-.126s.232-.157.569-.347.579-.568.6-1.188v-.092zM29.588 46.86l1.379-.557c.147-.063.221-.063.252.031s-.032.179-.147.263-.169.158-.137.305.263.81.368 1.147l.4 1.241c.032.084.126.168.315.136s.242-.01.274.074-.032.168-.189.231l-1.274.473c-.116.042-.21.042-.231-.053s.105-.189.2-.273.084-.158-.042-.547l-.516-1.493c-.137-.515-.221-.747-.41-.725s-.316.042-.369-.032-.011-.168.126-.22zm4.063-1.504c-.021.063.032.116.147.326l1.126 2.092c.053.116.116.147.168.116s.221-.116.547-.347.732-.735.768-1.314c.032-.505-.253-1.062-.81-1.409s-.99-.168-1.389.053-.537.421-.558.484zm-1.295.263c.179-.095 1.232-.768 1.832-1.125s1.305-.547 1.789-.431.989.652 1.137 1.052.348.957-.126 1.63-2.8 2.082-2.979 2.124-.21-.189-.105-.253a.3.3 0 0 0 .126-.473l-1.115-2.061c-.063-.158-.148-.221-.316-.189s-.358.084-.411-.031.168-.242.168-.242zM4.442 38.984c.058-.053.158-.021.205.026s.1.215.237.173 1.263-.589 1.537-.704.5-.263.658-.436.216-.484.052-.857-.246-.538-.558-.673c-.269-.116-.497-.002-.739.072l-1.555.543c-.105.042-.174.2-.184.279s.011.242 0 .289-.095.089-.142.068-.042.01-.121-.189l-.336-.841c-.032-.1.031-.173.068-.173s.121.005.173.089.1.147.237.152.247-.058.537-.158l1.425-.465c.295-.079.584-.118.826-.013s.611.557.796 1.025.221.82.216 1.062-.079.484-.453.704-1.763.915-1.868.957-.2.2-.189.289.079.205.005.258-.147.042-.216-.068-.252-.478-.353-.694l-.263-.515c-.021-.058-.053-.147.005-.2zm37.925-2.377c-.063-.021-.137.189-.19.337l-.21.547c-.063.221-.011.2.042.2l1.084-.021c.116 0 .221 0 .21-.073s-.421-.473-.589-.652l-.347-.337zM39.989 38.7c-.137.063-.158.147-.2.221s-.169.189-.285.136-.042-.2.011-.284l.294-.526c.148-.253.348-.715.453-.894s.231-.116.231-.042-.021.179-.01.284.052.136.147.136.569.021.789-.073c.063-.084.484-1.167.568-1.441-.158-.179-.284-.379-.4-.473s-.221-.095-.274-.032-.116.21-.2.189-.105-.084-.074-.2l.274-.852c.074-.179.137-.263.231-.21s.032.116.032.21a.47.47 0 0 0 .147.337l1.547 1.683c.316.368.336.368.474.399s.158-.21.263-.336.252-.011.2.168-.369 1.02-.453 1.251-.316.232-.463.232l-2.463.031c-.284.021-.705.021-.842.084zm-1.032 4.931c-.032-.074-.158-.105-.252-.074s-.537.211-.632.263-.189-.074-.126-.158.284-.452.347-.599-.032-.2-.189-.253l-.621-.231c-.105-.063-.011-.158.105-.211s.516-.189.621-.242.042-.147 0-.295-.211-.421-.274-.547.074-.168.147-.147.442.211.631.295.264.021.264-.042.137-.494.158-.652.168-.2.21-.105l.295.694c.074.157.189.157.295.084l.547-.347c.179-.105.21.011.179.095s-.263.494-.305.631-.042.189.042.241.453.189.621.263.137.211.042.232-.705.179-.747.252.031.274.221.526 0 .284-.052.273-.379-.158-.558-.22-.221.021-.263.094-.158.484-.2.673-.179.157-.221.073l-.285-.568zM6.905 41.14c.074-.042.116-.137.084-.358l-.053-.536c.01-.084.021-.126.189-.011l.516.379c.095.042.189.042.295-.168l.263-.484c.031-.063.137-.116.21.084l.242.62a.12.12 0 0 0 .158.105l.611-.094c.116-.011.252-.032.179.105s-.347.484-.379.547-.074.147.063.241.369.189.463.242.105.189-.063.231l-.579.147c-.074.032-.074.158-.042.284l.169.684c0 .094-.074.178-.158.115l-.6-.442c-.074-.031-.116-.01-.179.105s-.158.4-.242.568-.21.189-.284.032-.221-.62-.253-.694-.126-.147-.221-.126l-.621.168c-.084.021-.168-.063-.116-.158l.337-.662c.021-.084.074-.137-.231-.263s-.442-.221-.526-.274-.021-.126.137-.178l.632-.211zm1.442 3.691c-.052-.063-.042-.158.032-.211s.147.063.274.137.284-.031.41-.147.747-.778.958-.988.6-.557.684-.757.053-.232 0-.316c-.046-.074-.126-.232-.053-.284s.126-.042.2 0 .663.725.758.799.168.221.168.315-.2 1.336-.21 1.609.074.262.231.21l1.4-.515c.368-.136.474-.01.673.126l.684.452c.095.074.116.179.031.189s-.294-.084-.4-.063-.305.421-.421.61l-1.021 1.661c-.053.105-.116.253-.01.347s.168.157.126.242-.221.01-.39-.095l-.873-.536c-.095-.052-.19-.157-.179-.231s.126-.137.295-.063.252-.095.463-.452l.916-1.472c.053-.084 0-.147-.116-.137s-1.495.526-1.779.589-.505.137-.579.116-.082-.107-.052-.284l.273-2.229-1.537 1.619c-.084.095-.063.221-.021.305s.116.168.074.21-.095.095-.189.011l-.821-.768zm7.379 3.249l.968.431c.168.053.295.031.242-.168s-.147-1.104-.221-1.251-.158-.094-.263 0l-.758.652c-.116.073-.189.241.032.336zm.368-2.082c.263.073.863.4 1.095.505s.368.168.41.473l.263 1.493c.053.463.19 1.272.253 1.503s.126.295.326.4.147.358-.021.305l-.842-.242-.621-.22c-.126-.053-.126-.189-.021-.2s.21-.063.21-.22-.084-.715-.084-.715l-1-.379c-.295-.147-.821-.389-.937-.389s-.39.274-.463.326-.147.126-.147.2.053.147.147.2.084.231 0 .242-.21-.042-.326-.105l-.8-.421c-.063-.074-.021-.189.063-.189s.337.179.526 0l1.99-1.777c.21-.189.326-.231.095-.379s-.306-.116-.348-.189-.032-.295.231-.221zm5.39 1.935c-.137.011-.189.158-.2.316s-.294 1.745-.337 2.04-.116.578-.052.631.379.105.873.095.737-.126 1.053-.421.463-.873.4-1.566-.474-.957-.726-1.01-.874-.094-1.011-.084zm-1.147-.526c.116 0 .095.042 1 .136s1.463.168 1.884.326.884.526 1 1.293-.147 1.462-.652 1.809-1.126.421-1.958.316l-1.863-.274c-.2-.052-.274-.252-.137-.294s.179 0 .274-.032.116-.242.21-.862l.337-1.924c0-.105-.053-.179-.179-.211s-.147-.126-.147-.189.116-.094.231-.094zm5.336.578l.042.62.074.884s.851-.024 1.263-.158c.484-.158.747-.568.716-.841s-.369-.684-.8-.673-1.295.168-1.295.168zm-1.032-.241l2.126-.253c.316-.053 1.158-.179 1.495.105s.526.789.158 1.262-1.179.725-1.179.725.358.032.579.126l.979.4c.158.063.474.126.653.073s.368-.032.263.094-.347.389-.758.473-.758.105-1.147-.031-1.095-.61-1.284-.715-.369-.126-.558-.137-.126.095-.137.232-.021.578.032.715.189.168.285.189.147.147.094.2-.326.073-.589.084l-.926.063c-.105-.031-.158-.168-.074-.21s.284-.011.305-.126-.032-1.135-.052-1.746.01-1.125-.148-1.177-.2 0-.284-.053-.084-.221-.021-.252.189-.042.189-.042z"/><path d="M6.099 20.311l-.049.225c-.026.165-.242.114-.242.051s.032-.17-.041-.276zm36.309 0c-.141.219-.163.479-.126.818.063.568.81.999 1.021 1.125s.327.2.305.305-.137.084-.284.063l-.884-.126c-.105-.011-.2-.074-.2-.147s.074-.084.137-.105.137-.074.032-.211-.232-.263-.474-1.03c-.078-.248-.108-.48-.098-.693zm3.168 0c.076.471-.043.878-.104 1.06-.063.189-.137.431-.021.473s.242.032.305.105.011.179-.073.189l-.895.084c-.137.01-.231-.084-.2-.179s.231-.2.347-.316.39-.484.358-.915c-.012-.16-.041-.336-.099-.502zM2.464 33.109c-.029-.028-.053-.081-.075-.168a7.97 7.97 0 0 1-.127-.863c-.013-.165.165-.191.204-.076s.025.292.216.267.788-.152 1.169-.229l1.246-.292a.95.95 0 0 0 .394-.381c.076-.127.229-.203.267-.038s.013.61-.025.787-.115.33-.254.597l-.23.396h-.996l.387-.651c.064-.139.051-.203-.19-.165s-1.5.33-1.627.343-.165.127-.153.216c.011.074.03.202-.023.256zm39.402 0a1.88 1.88 0 0 1-.004-.423c.052-.358.179-.768.495-1.125s.779-.736 1.642-.631 1.242.715 1.4 1.167c.094.269.11.647.054 1.012h-.432c-.013-.549-.319-.742-.569-.981-.263-.253-1.147-.463-1.653-.168a1.26 1.26 0 0 0-.666 1.149zM2.517 29.995c.241 0 .941-.114 1.271-.139l1.207-.114c.229-.013.242-.127.254-.279s.076-.203.14-.203.115.127.127.241l.114.991c.013.178.051.317-.063.343s-.089-.216-.241-.279-.216-.026-.674.013l-1.894.216c-.241.013-.368.089-.394.203s-.026.254-.14.279-.165-.013-.191-.241l-.114-1.067c0-.127.025-.241.089-.241s.127.013.152.14.115.139.356.139zm-.585-.66c-.14.038-.152-.279-.152-.47l-.051-1.054c-.013-.19.152-.178.203-.102s.051.254.165.254.597-.343 1.004-.61l1.017-.698-.953-.559c-.406-.203-.75-.457-.992-.47s-.254.228-.33.228-.127-.076-.127-.14l.038-.825c.026-.152.013-.305.102-.305s.102.115.203.254.458.33 1.081.648l2.021 1.067c.343.19.204.305.14.381s-.432.292-.686.457l-2.211 1.371c-.191.127-.318.19-.331.343s0 .191-.14.228zm-.013-4.926c-.04-.004-.14-.127-.102-.292s.114-1.117.152-1.435l.178-1.308c.038-.216.063-.317.152-.381a3.52 3.52 0 0 1 .801-.305c.216-.038.051.191-.115.317s-.483.508-.597.978-.178 1.206-.178 1.206l1.169.114s.013-.304-.051-.444a.7.7 0 0 0-.369-.343c-.165-.063-.216-.076-.204-.165s.14-.089.28-.089 1.246.14 1.398.152.241.051.241.152-.152.139-.318.139-.305.038-.445.241-.089.432-.089.432l1.398.102s.089-.33.127-.737.026-.622-.013-.902-.203-.432-.254-.546-.254-.33-.204-.381.178-.051.292.038l.649.521-.229 1.803c-.013.33-.165 1.143-.165 1.257s-.051.229-.14.216-.102-.063-.115-.152-.038-.178-.114-.228-.623-.102-.966-.127l-1.627-.14c-.191-.013-.331-.025-.382.038s-.038.279-.165.267zm40.532-1.197c.01-.063.053-.137.137-.137s.137.253.221.316.453.021.926-.021 1.611-.095 1.768-.2.063-.221.168-.347.221.021.231.157l.053.947c0 .21-.116.326-.242.452l-2.053 1.893c-.189.189-.295.347-.231.379s2.011.053 2.221-.01.168-.284.232-.358.168-.011.168.053l.01.694c.01.221.042.473-.095.484s-.158-.189-.2-.326-.179-.095-.358-.095-2.263-.042-2.368 0-.158.21-.179.274-.105.189-.168.126-.074-.305-.021-.799.368-1.041.642-1.304l1.652-1.503c.126-.105.032-.105-.21-.105s-1.579.074-1.737.095-.21.084-.232.2-.094.21-.189.21-.095-.231-.095-.368-.063-.641-.053-.704zm.305 6.698c-.095.116-.032.074-.084.158s-.084.137-.179.137-.116-.084-.095-.263l.137-1.093c.032-.232.032-.284.179-.284s.063.305.158.368.432.137.768.137 1.453.126 1.768.147.274-.095.369-.2.263-.063.263.063-.074.988-.095 1.167-.116.263-.211.263-.126-.147-.147-.263-.053-.189-.305-.221l-1.716-.158c-.326 0-.716-.073-.81.042z"/><path d="M5.768 20.311c-.006-.01-.014-.02-.022-.029-.102-.114-.242-.127-.509-.203l-1.614-.419c-.343-.089-.534-.191-.661-.152s-.127.152-.14.228-.191.102-.241.013.025-.229.216-.94.356-1.473.636-2.095.827-.686 1.373-.546.636 1.028.56 1.663c.152-.241.623-.508 1.081-.737s.534-.343.636-.457.229-.216.254-.102-.114.444-.356.927-.775.762-1.182.914-.661.406-.75.495-.14.228-.076.254.445.165.75.216.306.013.369-.089.152-.178.241-.139.025.254-.025.432l-.205.767zm36.07 0c.021-.447.217-.811.509-1.074.431-.389 1.221-.715 2.021-.4s1.105.925 1.2 1.42l.01.055h-.382c-.099-.28-.282-.533-.606-.633-.516-.158-1.168-.074-1.716.232-.22.123-.369.252-.464.4zm-38.685-1.68l1.462.394c.178-.419.33-1.016.33-1.295 0-.368-.229-.635-.521-.711s-.636-.051-.852.33-.28.648-.356.927c-.035.128-.064.356-.064.356zm2.771-2.413c-.127-.013-.102-.178.076-.241a6.1 6.1 0 0 0 1.004-.47c.432-.254.801-.66.801-1.143s-.28-.534-.585-.47-.903.762-1.297 1.079-1.029.483-1.462-.051-.025-1.143.343-1.638.521-.546.636-.686.026-.241-.013-.317.013-.165.127-.165l.75.013c.279-.013.292.013.28.14s-.28.216-.61.394-.941.66-1.068.876-.292.597-.152.775.406.102.673-.152.953-.876 1.284-1.079.953-.343 1.36.076.381.991.228 1.371-.648.8-.801.902-.14.203-.076.254.153.14.153.216-.331.152-.521.165-1.004.165-1.131.152zm1.411-6.361c-.102.114-.114.191-.038.267s1.297 1.028 1.551 1.232.547.521.674.521.242-.102.305-.178.178-.114.229-.051-.14.343-.216.444l-.597.813c-.063.101-.191.203-.28.178s.038-.254.038-.33.013-.152-.229-.317-1.449-1.13-1.729-1.333-.369-.279-.521-.139-.216.19-.28.139-.038-.152.038-.267.419-.52.547-.711.356-.521.419-.559.115-.05.165.013.026.165-.076.279zm4.22-.026a1.54 1.54 0 0 0 .534-1.155c.038-.685-.534-1.219-.928-1.397s-.674-.228-1.119-.063-.649.521-.712.559-.051.165.076.267.699.737 1.055 1.079l.737.762c.064.089.178.114.356-.051zM8.109 8.765c-.102-.152.115-.228.331-.457L9.8 6.962a1.79 1.79 0 0 1 1.157-.483c.47-.051.953.064 1.347.508s.496.749.471 1.473-.42 1.003-.75 1.346l-1.029 1.003c-.165.178-.305.317-.394.343s-.152.051-.14-.076.102-.152.165-.317-.102-.28-.305-.47-1.093-1.156-1.284-1.346-.381-.355-.47-.355-.102.063-.191.139-.182.166-.267.038zm5.605-3.632l.013 1.283c.013.203.076.229.127.203s.915-.508.991-.572 0-.203-.102-.254-1.03-.661-1.03-.661zm-.953-.355c.165-.127.966-.559 1.068-.61s.203 0 .369.102 2.453 1.777 2.58 1.879.28.152.394.152.343-.051.356.025.064.14-.229.254-1.068.52-1.233.596-.356.076-.381-.013.05-.152.14-.216.191-.127 0-.304-.445-.368-.508-.381-.165.026-.343.127l-1.157.686c-.076.051-.089.178-.102.292s0 .648.064.686.216-.038.305-.038.14.038.127.127-.419.305-.584.419-.318.267-.394.165-.013-.152.063-.267.115-.203.076-.521-.051-2.768-.089-2.907-.127-.152-.242-.115-.228.115-.292.115-.152-.127.013-.254zm6.238.747c.01.063.168.084.326.053s.411-.084.716-.431.411-.747.316-1.378-.484-1.062-.768-1.198-1.032.074-1.158.116-.158.094-.116.273l.421 1.546.263 1.02zm-.852.725c-.189.042-.211 0-.242-.074s.074-.104.158-.221c.105-.147.011-.273-.032-.526s-.484-1.682-.568-1.987-.105-.347-.189-.379-.284.052-.337-.021-.095-.189.116-.274a9.64 9.64 0 0 1 1.032-.326c.505-.137 1.242-.305 1.758-.284s.947.273 1.252.778.327 1.147.105 1.756-.737.894-1.4 1.094l-1.653.463zm4.4-3.165c.221-.074.105-.189.105-.305s-.116-.315-.168-.515.063-.232.168-.179.39.221.558.316.242.01.326-.116.179-.337.284-.494.179-.116.21-.031l.221.547c.095.2.137.232.253.21s.4-.126.568-.168.221.095.168.158-.368.484-.432.578-.031.2.042.231.505.168.642.232.084.21.011.231-.442.095-.558.105-.2.095-.179.179.084.274.179.505.011.284-.063.253l-.431-.168c-.137-.063-.221-.105-.253-.042s-.21.347-.305.536-.179.126-.221 0-.158-.389-.221-.515-.179-.136-.274-.094l-.589.242c-.189.094-.263 0-.211-.095s.137-.337.253-.494.053-.337-.053-.4-.474-.168-.6-.253-.074-.21 0-.242l.568-.21zm4.621 1.377s.263.084.674.074.789-.316.968-.62.4-.904.063-1.283-1.389-.421-1.389-.421l-.189 1.272c-.053.232-.126.978-.126.978zm-.737-2.692c.221-.01.979.084 1.453.158s1.053.116 1.695.494.621 1.524.01 1.987-1.031.41-1.6.41l-.874.021c-.042.01-.032.242-.042.337s.179.168.253.263-.053.126-.127.126-.61-.053-.81-.095-.421-.031-.506-.063-.189-.179.053-.253.263-.063.305-.431l.264-1.882.074-.662c0-.105-.074-.168-.179-.211s-.189-.189.031-.2zm6.716 2.219c-.358-.074-.673-.116-1.01.063s-.589.442-.831.957-.274 1.556.642 1.767 1.369-.382 1.589-.694c.253-.358.39-.946.295-1.325s-.327-.694-.684-.768zm.432-.189c.263.126 1.042.778 1.074 1.42s.031 1.409-.874 1.903-1.968.116-2.389-.073-1.074-.768-1.168-1.64.621-1.64 1.063-1.84 1.095-.211 1.537-.095.495.2.758.326zm2.505 1.535c.2.084 1.042.747 1.189.873s.105.358-.126.252-.326-.126-.484.063L35.483 8.08c-.189.232-.453.505-.221.736s.547.536.937.578.704.017 1.053-.084c.4-.116.453-.042.347.105s-.694.431-.884.568-.326.158-.558-.042L34.62 8.69l-.789-.515c-.063-.074 0-.242.158-.2s.358.168.547-.053.558-.736.926-1.22.652-.799.652-.936-.084-.2-.158-.263-.074-.253.126-.168zm3.568 2.976a27.43 27.43 0 0 1 .821.988c.105.137.147.232.063.305s-.2-.021-.274-.116-.284-.042-.4.042-1.01.925-1.284 1.156l-.537.494c-.074.095-.063.263-.01.358s.147.253.052.295-.158 0-.295-.147l-.895-.946c-.084-.084-.137-.189-.053-.274s.189.021.263.063.179.105.305.021.831-.715 1.105-.978l.873-.799c.053-.084.084-.179-.01-.295s-.084-.179-.011-.253.232.042.285.084zm.347 2.86c0-.084.126-.21.221-.263l.81-.463c.116-.063.284-.147.368-.063s.979 1.504 1.242 1.966.442.883.505 1.009.042.252-.042.326-.852.536-1.032.62-.305.137-.369.031.074-.242.253-.358.474-.336.568-.694-.031-.61-.095-.683-.105-.094-.2-.053-.789.473-1.053.631l-1.273.789c-.053.084-.042.221.021.347s.105.242.032.295-.179-.021-.232-.126a27.01 27.01 0 0 0-.705-1.115c-.21-.315-.189-.4-.137-.431s.105-.042.294.116.348.052.547-.074l1.821-1.083c.168-.105.274-.147.274-.221s-.074-.211-.242-.421-.274-.263-.516-.284-.642.189-.8.263-.263.021-.263-.063zm.273 4.437c.042-.095.147-.021.211.073s.084.242.337.158l1.674-.62c.452-.147.905-.326.937-.42s-.032-.295-.011-.368.126-.084.189 0 .41.946.526 1.262l.442 1.167c.01.095.063.263-.042.358s-.495.389-.579.452-.221.147-.273.042-.01-.189.053-.273.315-.263.379-.536-.011-.526-.074-.725-.284-.515-.284-.515l-.948.337c-.147.063-.137.063-.137.179s.074.242.126.316a.66.66 0 0 0 .411.158c.115-.011.179-.074.242.052s-.095.137-.221.189l-.948.357c-.116.042-.358 0-.168-.157s.232-.253.232-.4-.032-.389-.116-.431-.179.021-.389.095-.716.263-.768.315-.021.211.042.316.253.631.505.957.537.536.695.62.348.326.158.336-.81-.073-.884-.073-.084-.021-.137-.116-.231-.768-.389-1.135l-.632-1.441c-.105-.211-.2-.431-.158-.526z"/></g><path d="M27.175 41.212l-.155-1.637c-.028-.246.121-.536.347-.708.461-.351 1.019-.609 2.984-.736 1.008-.065 2.011-.045 3.016-.042l.021-1.326s.011-.273.066-.464c.213-.733 1.428-.465 1.428.045l-.043.918c.209.074.402.16.511.261.072.066.111.142.112.218.008.001-.076.74-.161 1.205-.054.296-.087.846-.294 1.079-.48.54-3.486.378-4.253.378-.22 0-1.242.127-1.453.274-.098.15-.21.769-.21 1.325s-.082.947-.547 1.157c-.436.196-1.541.379-2.484.484-.951.105-2.712.084-3.811.042s-2.517-.27-3.052-.442c-.517-.165-.589-.551-.589-1.009l-.014-1.31c-.217-.325-1.46-.414-2.218-.457-.737-.042-2.195.021-3.29-.063-.471-.036-1.023-.159-1.153-.679-.021-.087-.029-.168-.039-.233-.042-.254-.127-1.712-.127-1.712-.076-.299.189-.511.987-.531l.084-.003-.016-.797c.048-.167.214-.326.466-.376.587-.117 1.131.377.99.808-.015.044-.047 1.181-.047 1.181l2.737-.013c1.638.062 3.373.58 3.514 1.309.104.536.076 1.218.027 1.775a29.73 29.73 0 0 0 3.825.26l2.841-.18zm1.784-.369c-.197.178-.499.322-.792.398-.495.129-2.652.318-3.83.318-1.635 0-4.83-.017-5.61-.782l.051 1.455c0 .333-.026.565.442.715.518.165 1.964.379 3.053.421l3.726-.021c.951-.106 2.043-.209 2.45-.392.376-.169.35-.315.35-.849 0-.385.074-.92.161-1.263zm4.576-2.753l.497-.002c.284-.003 1.102-.024 1.252-.308.142-.268-1.307-.551-1.639-.763-.035-.022-.065-.045-.092-.07zm-13.164 1.928c-.291.246-1.103.296-1.362.364-.065.017-.215.044-.177.144.101.262.719.449 1.509.58l.031-.586-.001-.501zm-6.31-1.951l-.016-.895c-.223.158-.607.272-1.205.287-.886.022-.929.207-.89.305.062.154.255.325 1.143.325l.968-.023zm-.4-1.323v.368c.843-.305.272-.996-.341-.874-.456.091-.533.615.243.487zm-.669.093l.013.399a2.96 2.96 0 0 0 .487-.074v-.26l-.125.007c-.162.004-.286-.024-.376-.072zm20.929.134l.034-.444c.031-.036.081-.043.148-.024.173.104.61.148.61-.159 0-.29-.932-.568-1.098.002-.115.398.041.525.307.625zm.197-.275l-.011.338.566.173.015-.522c-.161.087-.393.078-.57.011zm-6.729 3.287l.014 1.205.72-.109c.489-.127.869-.41.885-.619.013-.172-.126-.394-1.191-.416-.152-.003-.331-.022-.428-.061zm-9.149-1.257s.079-.053.126-.053.205.047.284.089.089.121.105.173.026.158.037.253.053.678.116.825a1.12 1.12 0 0 1 .049.138c.357-.064 1.289-.172 1.335-.422 0 0 .036-.155.021-.231-.111-.575-1.578-1.198-3.266-1.262-1.662-.063-3.071.021-3.955.021-.621 0-.959-.082-1.142-.224l.11 1.43c.027.165.034.308.146.445.116.143.357.285.894.327 1.094.084 2.546-.063 3.282-.021.619.035 1.757.163 2.21.478l-.02-.154c-.024-.078-.019-.139.005-.188-.019-.006-.036-.015-.047-.026-.042-.042.032-.158.042-.205s.021-.326-.042-.342-.237-.084-.273.005a.94.94 0 0 0-.058.326c0 .105.032.142.005.158s-.168-.005-.237-.042-.016-.116.016-.158a.68.68 0 0 0 .1-.236l.189-1.004c-.011-.052-.026-.073-.032-.1zm.174.384c-.042.068-.089.347-.079.384s.095.042.126.047.026-.184.021-.253-.068-.179-.068-.179zm10.103.808c.032-.161.079-.776.065-.829s-.095-.126-.058-.173.111-.068.205-.068.189.016.226.121.216.478.247.52.084.063.111.032.052-.479.052-.568-.063-.079-.016-.136.205-.089.226-.047-.016.263-.016.331l-.031.994c0 .037-.005.079-.063.105s-.163.047-.21.005-.116-.216-.179-.358-.195-.379-.247-.358-.042.215-.053.295-.01.146-.001.202c.293.103.414.265.402.477.367-.174 1.408-.227 1.578-.227.695 0 3.693.093 4.105-.371.197-.222.34-1.266.407-1.833-.497.334-1.757.295-2.176.29-.761-.008-1.802-.021-2.779.042-1.951.126-2.251.33-2.674.652-.438.334-.442.829.189.841a4.28 4.28 0 0 1 .688.062zm-11.698-1.386c.032 0 .21-.037.231 0s.037.005.021.216.011.967.011 1.02.01.126.031.158-.037.089-.089.089l-.173.005c-.042 0-.111.016-.105-.037l.026-.226c.005-.095-.005-.936.005-1.025s0-.105-.011-.147.053-.053.053-.053zm-1.09-.031c.053 0 .247-.005.279.011s.079.042.084.089.184.415.205.468.042.11.068-.016.016-.274.016-.331 0-.205.021-.205.132.021.153.058-.011.1-.026.179a12.18 12.18 0 0 0 .01.983c.011.068-.01.257-.042.274s-.131 0-.147-.026-.242-.5-.263-.541-.126-.079-.142.016a2.21 2.21 0 0 0-.005.368c.005.021.084.058.073.094s-.095.058-.158.053-.174.026-.105-.105.026-.41.032-.473.016-.631 0-.688-.021-.068-.053-.126 0-.079 0-.079zm-.937-.011c.032-.021.211.016.242.005s.147.011.084.095-.068.168-.068.279-.005.184.053.179.105.032.126-.01.016-.379.016-.416-.058-.068-.016-.105.195-.031.274-.031.131.089.084.136-.047.168-.047.226l-.016.936c0 .031.026.026.042.1s-.121.058-.142.053-.121.021-.163.016-.079-.016-.037-.058.032-.116.042-.173 0-.374 0-.4-.111-.037-.158-.032-.053.047-.068.095-.005.368-.005.394.079.063.084.1-.016.068-.074.068l-.269.011c-.068.01-.074-.063-.026-.116s.074-.079.068-.142 0-1.088-.01-1.12-.047-.068-.016-.089zm-.447.258s-.079.037-.079.089-.037.468-.021.747.09.263.158.231.074-.147.1-.189.068-.037.084.01.016.232-.005.232-.068.011-.142.079-.216.068-.295.037-.179-.158-.184-.342-.058-.442-.005-.689.11-.315.205-.363.231-.011.284-.021.095.137.095.194-.005.194-.042.2-.042-.11-.068-.152-.026-.063-.084-.063zm-1.158-.131c.021 0 .432-.026.474-.026s.089.005.089.094.026.189-.01.195-.042-.095-.126-.1-.132.011-.132.074-.026.137-.005.173.037.058.084.053.084-.021.089.016.047.268.021.295-.116-.016-.169.005-.031.279-.021.384.126.105.158.063.021-.121.074-.142.079.163.073.215.016.068-.11.063l-.489-.016c-.053-.005-.011-.079.005-.116s.026-.147.032-.289-.026-.652-.026-.704-.068-.158-.068-.184.058-.052.058-.052zm-.779.089c0-.042.032-.095.032-.095.042-.058.1-.026.237-.026s.205.032.321.032.058.11.058.163-.01.147-.053.116-.068-.089-.126-.084-.074.21-.079.352.016.578.016.578.126.121.09.147-.253.011-.342-.005-.079-.089-.053-.126.068-.084.074-.137.005-.704.005-.741-.026-.068-.068-.068-.1.058-.121.047.01-.11.01-.152zm5.195.042c-.058.01-.058.147-.068.226s-.016.615-.021.794.168.2.221.137.1-.232.137-.258.063.016.068.1.005.168-.026.205-.142.168-.21.189-.21.037-.363-.089-.168-.489-.174-.584.011-.442.095-.652a.4.4 0 0 1 .316-.263c.058-.005.252.095.3.116s.058.105.048.242.005.274-.079.253-.1-.226-.105-.3-.079-.126-.137-.115zm15.436-.147c.026-.026.195-.016.247 0s.1.084.158.199.116.305.163.31.037-.179.037-.257-.042-.158-.084-.211.121-.11.173-.121.132.016.158.047-.005.073-.042.131-.021.2-.021.368l.005.778c.031.121-.021.131-.111.131s-.153-.016-.174-.042a5.01 5.01 0 0 1-.184-.426c-.042-.11-.1-.068-.1-.005l-.01.426c0 .1-.048.105-.1.1s-.179-.032-.174-.068.042-.131.053-.168.047-1.025.042-1.083-.063-.084-.037-.11zm-.658.131c-.074.021-.1.137-.105.226l-.005.589c.01.157.037.247.11.263s.142-.042.158-.1.031-.463.01-.725-.095-.274-.168-.253zm.053-.21c.116-.005.247.095.326.257s.126.505.111.663-.111.557-.442.557-.494-.223-.489-.678c.005-.5.2-.7.305-.757s.189-.042.189-.042zm-.963.089c.021-.026.211-.037.284-.042s.132.016.163.047-.058.063-.063.094-.005 1.041.032 1.189-.005.115-.068.115-.168 0-.258-.037-.037-.116.005-.152 0-.358.011-.473a4.19 4.19 0 0 0-.047-.573c-.011-.047-.079-.142-.058-.168zm-.795-.053l.305.005c.127 0 .4.021.442.042s-.031.147-.073.168-.095-.063-.1-.021-.005 1.004-.005 1.062.068.211.005.237a.54.54 0 0 1-.257-.005c-.069-.016-.105-.026-.1-.079s.026-.1.037-.147-.021-1.015-.021-1.057-.11-.021-.137-.01-.147.042-.168.021.073-.216.073-.216zm-.61.521c-.042.042-.026.105-.053.232s-.021.168.011.173a.83.83 0 0 0 .195-.01c.037-.01.058-.068.032-.142s-.111-.226-.121-.252-.063 0-.063 0zm-.153-.395c.047-.021.147-.005.226-.01s.147-.021.205.047.163.473.211.625l.158.536c.026.042.058.11.032.137s-.126.047-.216.058-.111-.01-.142-.042 0-.121 0-.184-.021-.168-.095-.158-.284-.011-.321.005-.037.1-.042.184.105.158.068.194-.152.068-.221.074-.1-.01-.116-.063.021-.068.047-.11.089-.305.121-.452a6.55 6.55 0 0 0 .084-.715c-.005-.053-.047-.105 0-.126zm4.2-.131c.016-.026.053-.047.105-.047l.226.005c.047 0 .074.042.068.084s-.042.058-.053.095a10.01 10.01 0 0 0-.021.646c0 .131.021.268.026.316s.068.184-.005.205a1.53 1.53 0 0 1-.332.037c-.052-.005-.047-.016-.042-.095s.063-.131.063-.189l.016-.636c.005-.168-.016-.263-.032-.31s-.037-.084-.021-.111z" class="C"/></g></svg>